<svg width="11" height="11" viewBox="0 0 11 11" fill="none" xmlns="http://www.w3.org/2000/svg">
<path d="M8.37609 2.4292C8.23981 2.4292 8.12891 2.54011 8.12891 2.67639C8.12891 2.81267 8.23981 2.92357 8.37609 2.92357C8.51239 2.92357 8.62328 2.81269 8.62328 2.67639C8.62328 2.54009 8.51239 2.4292 8.37609 2.4292Z" fill="#456AE7"/>
<path d="M5.41601 3.44531C4.20767 3.44531 3.22461 4.42837 3.22461 5.63671C3.22461 6.84504 4.20767 7.82813 5.41601 7.82813C6.62436 7.82813 7.60742 6.84506 7.60742 5.63673C7.60742 4.42839 6.62436 3.44531 5.41601 3.44531Z" fill="#456AE7"/>
<path d="M7.71485 0.54541H3.11541C1.57634 0.54541 0.324219 1.79754 0.324219 3.33662V7.93604C0.324219 9.47512 1.57634 10.7272 3.11541 10.7272H7.71485C9.25393 10.7272 10.506 9.4751 10.506 7.93604V3.33662C10.506 1.79754 9.25393 0.54541 7.71485 0.54541ZM5.41513 8.429C3.87523 8.429 2.62247 7.17622 2.62247 5.63632C2.62247 4.09642 3.87525 2.84368 5.41513 2.84368C6.95501 2.84368 8.20781 4.09644 8.20781 5.63632C8.20781 7.1762 6.95501 8.429 5.41513 8.429ZM8.37484 3.5251C7.90699 3.5251 7.52636 3.14448 7.52636 2.67663C7.52636 2.20879 7.90699 1.82814 8.37484 1.82814C8.84268 1.82814 9.22331 2.20877 9.22331 2.67661C9.22331 3.14446 8.84268 3.5251 8.37484 3.5251Z" fill="#456AE7"/>
</svg>
