<svg width="10" height="11" viewBox="0 0 10 11" fill="none" xmlns="http://www.w3.org/2000/svg">
<path d="M9.76867 2.93837C9.15619 2.93837 8.59109 2.73547 8.13728 2.39317C7.61682 2.00079 7.24288 1.4252 7.11083 0.761787C7.07813 0.597872 7.06052 0.428718 7.05884 0.255371H5.30924V5.03614L5.30714 7.65478C5.30714 8.35488 4.85124 8.94849 4.21927 9.15726C4.03586 9.21784 3.83778 9.24655 3.63153 9.23523C3.36826 9.22077 3.12155 9.14133 2.90712 9.01305C2.4508 8.74014 2.14141 8.24504 2.13303 7.67868C2.11982 6.7935 2.83543 6.07181 3.71998 6.07181C3.89458 6.07181 4.06227 6.10032 4.21927 6.15209V4.84539V4.37566C4.05368 4.35113 3.88515 4.33835 3.71474 4.33835C2.74656 4.33835 1.84104 4.7408 1.19377 5.46583C0.704544 6.01375 0.411092 6.7128 0.365816 7.4458C0.306497 8.40874 0.65885 9.32411 1.34218 9.99947C1.44258 10.0986 1.54801 10.1906 1.65827 10.2755C2.24412 10.7264 2.96036 10.9708 3.71474 10.9708C3.88515 10.9708 4.05368 10.9582 4.21927 10.9337C4.92397 10.8293 5.57418 10.5067 6.08731 9.99947C6.71781 9.3763 7.06618 8.54897 7.06995 7.66841L7.06094 3.75794C7.36173 3.98998 7.6906 4.18198 8.04359 4.33101C8.59255 4.56263 9.17464 4.68001 9.7737 4.6798V3.40936V2.93795C9.77412 2.93837 9.76909 2.93837 9.76867 2.93837Z" fill="#456AE7"/>
</svg>
