<svg width="36" height="33" viewBox="0 0 36 33" fill="none" xmlns="http://www.w3.org/2000/svg">
<path d="M35.4255 21.134C35.4255 27.3137 30.4149 32.1573 24.4022 32.1573C18.2225 32.1573 13.3789 27.1467 13.3789 21.134C13.3789 14.9543 18.3895 10.1107 24.4022 10.1107C30.4149 9.94373 35.4255 14.9543 35.4255 21.134Z" fill="url(#paint0_linear_795_24)"/>
<path d="M4.19005 1.83789C4.19005 2.86784 3.35495 3.6751 2.35284 3.6751C1.32289 3.6751 0.515625 2.84 0.515625 1.83789C0.515625 0.807936 1.35072 0.000676295 2.35284 0.000676295C3.35495 -0.0271603 4.19005 0.807936 4.19005 1.83789Z" fill="url(#paint1_linear_795_24)"/>
<defs>
<linearGradient id="paint0_linear_795_24" x1="16.4643" y1="13.2036" x2="32.1682" y2="28.9076" gradientUnits="userSpaceOnUse">
<stop stop-color="#7DC6FD"/>
<stop offset="0.303" stop-color="#548EF7"/>
<stop offset="1" stop-color="#A728DA"/>
</linearGradient>
<linearGradient id="paint1_linear_795_24" x1="1.02985" y1="0.516154" x2="3.64718" y2="3.13349" gradientUnits="userSpaceOnUse">
<stop stop-color="#7DC6FD"/>
<stop offset="0.303" stop-color="#548EF7"/>
<stop offset="1" stop-color="#A728DA"/>
</linearGradient>
</defs>
</svg>
