<svg width="54" height="52" viewBox="0 0 54 52" fill="none" xmlns="http://www.w3.org/2000/svg"><path d="M28.584 33.647h-3.079v3.059h3.08c.847 0 1.538-.686 1.538-1.53 0-.843-.69-1.529-1.539-1.529zm0 6.118h-3.079v3.059h3.08c.847 0 1.538-.686 1.538-1.53s-.69-1.53-1.539-1.53zm-1.54-15.294c-7.65 0-13.854 6.162-13.854 13.764C13.19 45.837 19.393 52 27.045 52c7.651 0 13.854-6.163 13.854-13.765s-6.203-13.764-13.854-13.764zm6.158 16.823c0 2.53-2.071 4.588-4.618 4.588v1.53c0 .845-.689 1.529-1.54 1.529-.85 0-1.539-.684-1.539-1.53v-1.529h-3.078c-.851 0-1.54-.684-1.54-1.53 0-.844.689-1.529 1.54-1.529v-9.176c-.851 0-1.54-.684-1.54-1.53 0-.845.689-1.529 1.54-1.529h3.078v-1.53c0-.845.689-1.529 1.54-1.529.85 0 1.54.685 1.54 1.53v1.53c2.546 0 4.617 2.057 4.617 4.587a4.55 4.55 0 01-1.178 3.06 4.55 4.55 0 011.178 3.058zM47.04 12.757C47.495 6.242 42.003 0 34.742 0a12.324 12.324 0 00-10.223 5.423 10.728 10.728 0 00-6.71-2.364c-5.596 0-10.211 4.261-10.728 9.689C3.419 14.013.875 17.479.875 21.412c0 5.06 4.143 9.176 9.236 9.176h1.87c2.809-5.439 8.5-9.176 15.064-9.176 6.563 0 12.255 3.737 15.064 9.176h1.87c5.092 0 9.236-4.116 9.236-9.176 0-3.925-2.526-7.368-6.176-8.655z" fill="#5994F8"/></svg>