<svg width="43" height="43" viewBox="0 0 43 43" fill="none" xmlns="http://www.w3.org/2000/svg"><path d="M17.393.003A17.05 17.05 0 005.215 4.799c-6.787 6.558-6.974 17.397-.416 24.184 6.558 6.787 17.397 6.974 24.184.416 6.787-6.558 6.974-17.397.416-24.184A17.05 17.05 0 0017.393.003zm-.046 2.648c3.7.064 7.375 1.537 10.145 4.405 5.542 5.735 5.39 14.899-.346 20.44-5.736 5.542-14.903 5.386-20.445-.35s-5.38-14.9.355-20.442A14.408 14.408 0 0117.347 2.65zm-.025 1.445A12.955 12.955 0 008.067 7.75c-5.171 4.996-5.317 13.215-.321 18.385 4.996 5.171 13.219 5.313 18.39.317 5.17-4.996 5.308-13.215.312-18.385a12.96 12.96 0 00-9.126-3.97zm-.178 4.499a2.698 2.698 0 011.893.82 2.7 2.7 0 01.506 2.99l3.076 2.837a2.704 2.704 0 012.301-.237l1.293-1.908 1.203.817-1.305 1.929c.868 1.07.802 2.657-.206 3.63a2.706 2.706 0 01-3.81-.069c-.816-.843-.956-2.09-.454-3.086l-3.039-2.803a2.696 2.696 0 01-1.831.431l-2.077 4.743c.084.068.172.13.249.21a2.711 2.711 0 01-.066 3.816 2.706 2.706 0 01-3.811-.07 2.679 2.679 0 01-.723-2.18l-2.72-1.208.591-1.325 2.679 1.188c.075-.096.148-.196.238-.284a2.69 2.69 0 012.227-.72l2.07-4.727c-.092-.073-.185-.141-.268-.228a2.711 2.711 0 01.065-3.815 2.682 2.682 0 011.92-.751zm14.779 19.668A18.569 18.569 0 0127.74 32.3l9.486 9.818a2.917 2.917 0 004.111.069 2.915 2.915 0 00.07-4.11l-9.485-9.814z" fill="#8356E7"/></svg>