<svg width="38" height="49" viewBox="0 0 38 49" fill="none" xmlns="http://www.w3.org/2000/svg"><path d="M10.091 28.824c0 4.768 3.88 8.647 8.65 8.647 4.769 0 8.649-3.88 8.649-8.647v-5.765h-17.3v5.765zm7.208-1.442a1.44 1.44 0 112.883 0v5.765a1.44 1.44 0 11-2.883 0v-5.764zm7.208-10.002a5.857 5.857 0 00-5.851-5.85 5.686 5.686 0 00-5.682 5.678v2.968h11.533V17.38zM36.039 5.765c-5.54 0-8.1-1.294-14.283-4.418L19.386.152a1.444 1.444 0 00-1.29 0l-2.371 1.195C9.542 4.47 6.983 5.765 1.442 5.765A1.44 1.44 0 000 7.205v20.177C0 45.686 18.318 48.95 18.504 48.98a1.497 1.497 0 00.473 0c.186-.03 18.503-3.294 18.503-21.598V7.206a1.44 1.44 0 00-1.441-1.441zm-5.766 23.059c0 6.357-5.172 11.53-11.532 11.53S7.208 35.18 7.208 28.823v-7.206a1.44 1.44 0 011.442-1.441h1.441v-2.969c0-4.72 3.844-8.561 8.565-8.561 4.815 0 8.734 3.918 8.734 8.733v2.796h1.441a1.44 1.44 0 011.442 1.442v7.206z" fill="#006CFF"/></svg>