<?xml version="1.0" encoding="utf-8"?>
<!-- Generator: Adobe Illustrator 23.0.5, SVG Export Plug-In . SVG Version: 6.00 Build 0)  -->
<svg version="1.1" id="Слой_1" xmlns="http://www.w3.org/2000/svg" xmlns:xlink="http://www.w3.org/1999/xlink" x="0px" y="0px"
	 viewBox="0 0 38 28.7" enable-background="new 0 0 38 28.7" xml:space="preserve">
<path fill="#456AE7" d="M7.2,13.1l4.6,1.7l1.8,5.8c0.1,0.4,0.6,0.5,0.9,0.3l2.6-2.1c0.3-0.2,0.7-0.2,0.9,0l4.6,3.4
	c0.3,0.2,0.8,0.1,0.9-0.3l3.4-16.4C27,5,26.6,4.6,26.2,4.8l-19,7.3C6.7,12.3,6.7,12.9,7.2,13.1z M13.3,13.9l9-5.6
	c0.2-0.1,0.3,0.1,0.2,0.2l-7.5,6.9c-0.3,0.2-0.4,0.6-0.5,0.9l-0.3,1.9c0,0.3-0.4,0.3-0.5,0l-1-3.4C12.8,14.5,13,14.1,13.3,13.9z"/>
</svg>
