<?xml version="1.0" encoding="utf-8"?>
<!-- Generator: Adobe Illustrator 23.0.5, SVG Export Plug-In . SVG Version: 6.00 Build 0)  -->
<svg version="1.1" id="Слой_1" xmlns="http://www.w3.org/2000/svg" xmlns:xlink="http://www.w3.org/1999/xlink" x="0px" y="0px"
	 viewBox="0 0 38 28.7" enable-background="new 0 0 38 28.7" xml:space="preserve">
<path fill="#A111FF" d="M24.4,7.6c-0.4,0-0.8,0.3-0.8,0.8c0,0.4,0.3,0.8,0.8,0.8c0.4,0,0.8-0.3,0.8-0.8C25.1,8,24.8,7.6,24.4,7.6z"
	/>
<path fill="#A111FF" d="M19,10.7c-1.7,0-3.1,1.4-3.1,3.1s1.4,3.1,3.1,3.1c1.7,0,3.1-1.4,3.1-3.1C22.1,12.1,20.7,10.7,19,10.7z"/>
<path fill="#A111FF" d="M23.2,4.5h-8.3c-2.8,0-5,2.3-5,5v8.3c0,2.8,2.3,5,5,5h8.3c2.8,0,5-2.3,5-5V9.6C28.2,6.8,25.9,4.5,23.2,4.5z
	 M19,18.8c-2.8,0-5-2.3-5-5c0-2.8,2.3-5,5-5c2.8,0,5,2.3,5,5C24,16.5,21.8,18.8,19,18.8z M24.4,9.9c-0.8,0-1.5-0.7-1.5-1.5
	s0.7-1.5,1.5-1.5s1.5,0.7,1.5,1.5S25.2,9.9,24.4,9.9z"/>
</svg>
