<?xml version="1.0" encoding="utf-8"?>
<!-- Generator: Adobe Illustrator 23.0.5, SVG Export Plug-In . SVG Version: 6.00 Build 0)  -->
<svg version="1.1" id="Слой_1" xmlns="http://www.w3.org/2000/svg" xmlns:xlink="http://www.w3.org/1999/xlink" x="0px" y="0px"
	 viewBox="0 0 38 28.7" enable-background="new 0 0 38 28.7" xml:space="preserve">
<path fill="#389FFE" d="M13,16.8v5.8H9.4V5.4h7.8c1.7,0,3.2,0.5,4.3,1.6c1.2,1.1,1.8,2.4,1.8,4.1c0,1.6-0.6,3-1.8,4.1
	c-1.2,1.1-2.6,1.6-4.3,1.6H13z M17.2,8.8H13v4.7h4.1c0.7,0,1.2-0.2,1.7-0.7c0.5-0.5,0.7-1,0.7-1.7c0-0.7-0.2-1.2-0.7-1.7
	C18.4,9,17.8,8.8,17.2,8.8z M28.3,22.6H25V4.2h3.3V22.6z"/>
</svg>
