<?xml version="1.0" encoding="utf-8"?>
<!-- Generator: Adobe Illustrator 23.0.5, SVG Export Plug-In . SVG Version: 6.00 Build 0)  -->
<svg version="1.1" id="Слой_1" xmlns="http://www.w3.org/2000/svg" xmlns:xlink="http://www.w3.org/1999/xlink" x="0px" y="0px"
	 viewBox="0 0 38 28.7" style="enable-background:new 0 0 38 28.7;" xml:space="preserve">
<style type="text/css">
	.st0{fill:#389FFE;}
</style>
<path class="st0" d="M4.6,18.5H3.1l-3-8.8H2l1.8,5.8l1.7-5.8h1.5l1.8,5.8l1.8-5.8h1.9l-3,8.8H8l-1.7-5.6L4.6,18.5z M17.2,18.5h-1.5
	l-3-8.8h1.9l1.8,5.8l1.7-5.8h1.5l1.8,5.8l1.8-5.8h1.9l-3,8.8h-1.5l-1.7-5.6L17.2,18.5z M29.7,18.5h-1.5l-3-8.8h1.9l1.8,5.8l1.7-5.8
	h1.5l1.8,5.8l1.8-5.8h1.9l-3,8.8h-1.5l-1.7-5.6L29.7,18.5z"/>
</svg>
