<?xml version="1.0" standalone="no"?>
<!DOCTYPE svg PUBLIC "-//W3C//DTD SVG 20010904//EN"
 "http://www.w3.org/TR/2001/REC-SVG-20010904/DTD/svg10.dtd">
<svg version="1.0" xmlns="http://www.w3.org/2000/svg"
 width="512.000000pt" height="512.000000pt" viewBox="0 0 512.000000 512.000000"
 preserveAspectRatio="xMidYMid meet">
<metadata>
Created by potrace 1.14, written by Peter Selinger 2001-2017
</metadata>
<g transform="translate(0.000000,512.000000) scale(0.100000,-0.100000)"
fill="#000000" stroke="none">
<path d="M965 5100 c-492 -104 -859 -478 -950 -969 -13 -73 -15 -272 -15
-1573 0 -1454 0 -1492 20 -1589 101 -493 475 -862 969 -954 73 -13 272 -15
1573 -15 1454 0 1492 0 1589 20 493 101 862 475 954 969 13 73 15 272 15 1573
0 1454 0 1492 -20 1589 -101 493 -475 862 -969 954 -73 13 -271 15 -1580 14
-1428 0 -1500 -1 -1586 -19z m1605 -1410 c282 -25 509 -130 706 -327 137 -136
220 -278 271 -458 34 -122 43 -347 19 -483 -36 -206 -129 -383 -286 -543 -198
-201 -417 -303 -707 -328 -65 -6 -315 -11 -555 -11 l-438 0 0 1080 0 1080 438
0 c240 0 489 -5 552 -10z"/>
<path d="M2032 2618 l3 -663 260 1 c296 1 334 7 473 75 154 75 280 232 328
409 22 80 25 262 5 340 -7 30 -31 93 -53 140 -56 117 -177 240 -290 294 -120
58 -177 66 -471 66 l-257 0 2 -662z"/>
</g>
</svg>
