<svg width="320" height="736" viewBox="0 0 320 736" fill="none" xmlns="http://www.w3.org/2000/svg">
<path d="M1945.29 -117.676C1945.29 -117.676 2144.7 -115.15 2367.12 -177.538L2454.59 -184.028L2493.59 341.529L723 667.5C723 667.5 -147.45 879.464 -505.5 556.5C-571.029 497.392 -820.746 207.714 -736.583 67.5441C-652.421 -72.6255 -452.521 -56.2683 -245.373 -28.7684C5.6183 4.55187 26.7205 29.1853 216.373 17.0594C455.149 1.79267 648.064 -118.88 824.442 -153.238C985.562 -184.624 1052.7 -80.0147 1206.94 -108.78C1361.18 -137.545 1532.87 -143.902 1603.95 -138.236C1675.04 -132.571 1945.29 -117.676 1945.29 -117.676Z" fill="url(#paint0_linear_268_1569)"/>
<defs>
<linearGradient id="paint0_linear_268_1569" x1="834.235" y1="-156.283" x2="1118.46" y2="1203.49" gradientUnits="userSpaceOnUse">
<stop stop-color="#040114"/>
<stop offset="0.123946" stop-color="#080435"/>
<stop offset="0.453633" stop-color="#130F3D"/>
<stop offset="1" stop-color="#130F3D" stop-opacity="0.73"/>
</linearGradient>
</defs>
</svg>
