<svg version="1.1" id="Слой_1" xmlns="http://www.w3.org/2000/svg" x="0" y="0" viewBox="0 0 23 23" xml:space="preserve"><path fill-rule="evenodd" clip-rule="evenodd" fill="#FFF" d="M9.3 6.5v3.4h4.9c.9 0 1.6-.7 1.6-1.5v-.3c0-.9-.7-1.5-1.6-1.5H10l-.7-.1zm7.2 8.6v-.3c0-1-.8-1.8-1.8-1.8H9.4v3.8h5.4c.9 0 1.7-.7 1.7-1.7zm1.6-3.9c1 .9 1.6 2.1 1.6 3.6v.3c0 2.7-2.2 4.9-4.9 4.9h-.1v1.4h-3.1V20h-1.4v1.4H7V20H4.7v-3.1h1.6V6.6H4.6V3.5h2.3V1.7H10v1.8h1.3V1.7h3.1v1.8C17 3.6 19 5.6 19 8.1v.3c.1 1-.3 2-.9 2.8z"/></svg>