<svg width="19" height="20" viewBox="0 0 19 20" fill="none" xmlns="http://www.w3.org/2000/svg"><path d="M5.344 11.605H1.78a.594.594 0 00-.593.594v5.938c0 .328.265.593.593.593h3.563a.594.594 0 00.593-.593v-5.938a.594.594 0 00-.593-.594z" fill="url(#paint0_linear_168_5635)"/><path d="M17.219 6.855h-3.563a.594.594 0 00-.594.594v10.688c0 .328.266.593.594.593h3.563a.594.594 0 00.593-.593V7.449a.594.594 0 00-.593-.594z" fill="url(#paint1_linear_168_5635)"/><path d="M11.281 2.105H7.72a.594.594 0 00-.594.594v15.438c0 .328.266.593.594.593h3.562a.594.594 0 00.594-.593V2.699a.594.594 0 00-.594-.594z" fill="url(#paint2_linear_168_5635)"/><defs><linearGradient id="paint0_linear_168_5635" x1="9.205" y1="18.575" x2="2.446" y2="-3.997" gradientUnits="userSpaceOnUse"><stop offset=".104" stop-color="#93CAF7"/><stop offset=".555" stop-color="#6773FF"/><stop offset="1" stop-color="#7628DA"/></linearGradient><linearGradient id="paint1_linear_168_5635" x1="21.08" y1="18.472" x2="4.701" y2="-14.348" gradientUnits="userSpaceOnUse"><stop offset=".104" stop-color="#93CAF7"/><stop offset=".555" stop-color="#6773FF"/><stop offset="1" stop-color="#7628DA"/></linearGradient><linearGradient id="paint2_linear_168_5635" x1="15.142" y1="18.368" x2="-11.802" y2="-20.197" gradientUnits="userSpaceOnUse"><stop offset=".104" stop-color="#93CAF7"/><stop offset=".555" stop-color="#6773FF"/><stop offset="1" stop-color="#7628DA"/></linearGradient></defs></svg>