<svg width="18" height="19" viewBox="0 0 18 19" fill="none" xmlns="http://www.w3.org/2000/svg"><g clip-path="url(#clip0_168_5659)"><path d="M9 1.918a8.5 8.5 0 100 17 8.5 8.5 0 000-17zm2.442 11.851a2.74 2.74 0 01-1.417.91c-.245.066-.357.195-.343.45.01.253 0 .5-.003.753 0 .224-.116.343-.336.35-.144.003-.287.006-.43.006-.126 0-.252 0-.378-.003-.238-.003-.35-.14-.35-.37-.004-.183-.004-.368-.004-.55-.003-.406-.017-.42-.405-.483-.497-.08-.987-.192-1.441-.412-.357-.175-.396-.263-.294-.64.077-.28.154-.56.241-.836.063-.203.123-.294.231-.294.063 0 .143.031.252.087a4.68 4.68 0 001.602.48c.094.01.189.017.283.017.263 0 .518-.05.766-.158.626-.272.724-.997.196-1.43a2.553 2.553 0 00-.598-.35c-.55-.241-1.12-.423-1.637-.735-.84-.503-1.371-1.192-1.308-2.214.07-1.154.724-1.875 1.784-2.26.437-.157.44-.153.44-.608 0-.154-.003-.308.004-.465.01-.343.066-.403.41-.413h.398c.65 0 .65.028.654.731.004.518.004.518.518.598.395.063.77.179 1.133.34.2.087.276.227.213.44-.09.315-.178.633-.276.945-.063.188-.122.276-.234.276a.562.562 0 01-.238-.074 3.577 3.577 0 00-1.798-.356c-.164.01-.325.031-.48.098-.545.237-.632.84-.167 1.21.234.189.504.322.78.437.483.2.965.392 1.423.644 1.442.804 1.834 2.634.809 3.879z" fill="url(#paint0_linear_168_5659)"/></g><defs><linearGradient id="paint0_linear_168_5659" x1="16.382" y1="10.417" x2="1.887" y2="10.417" gradientUnits="userSpaceOnUse"><stop stop-color="#7A6EEE"/><stop offset="1" stop-color="#A728DA"/></linearGradient><clipPath id="clip0_168_5659"><path fill="#fff" transform="translate(0 .918)" d="M0 0h18v18H0z"/></clipPath></defs></svg>