<svg width="19" height="15" viewBox="0 0 19 15" fill="none" xmlns="http://www.w3.org/2000/svg"><path d="M15.678 5.117l3.236 8.044-3.085 1.242-3.236-8.044 3.085-1.242zm.906 5.294a.154.154 0 10-.115-.287l-.978.394a.154.154 0 10.115.287l.978-.394z" fill="url(#paint0_linear_168_5599)"/><path d="M11.97 4.815l3.087-1.24.506 1.26-3.086 1.24-.506-1.26z" fill="url(#paint1_linear_168_5599)"/><path d="M11.04 2.5l3.086-1.24.815 2.027-3.086 1.24-.815-2.026z" fill="url(#paint2_linear_168_5599)"/><path d="M10.683 2.41v.081H7.357V.387h3.326V2.41z" fill="url(#paint3_linear_168_5599)"/><path d="M10.683 2.802V4.16H7.357V2.802h3.326z" fill="url(#paint4_linear_168_5599)"/><path d="M9.02 6.993a.562.562 0 11-.002 1.124.562.562 0 01.001-1.124z" fill="url(#paint5_linear_168_5599)"/><path d="M10.683 4.47v9.98H7.357V4.47h3.326zm-.81 6.02a.154.154 0 00-.155-.155H8.322a.154.154 0 00-.154.155c0 .086.068.154.154.154h1.395a.155.155 0 00.156-.154zm0 1.59a.154.154 0 00-.155-.154H8.322a.155.155 0 000 .31h1.395a.155.155 0 00.156-.155zm.017-4.527a.87.87 0 10-1.741 0 .87.87 0 001.74 0z" fill="url(#paint6_linear_168_5599)"/><path d="M4.842 4.944h1.086v3.39H4.842v-3.39z" fill="url(#paint7_linear_168_5599)"/><path d="M7.047 4.314v10.134H3.722V3.24h3.325v1.074zm-.81 4.174v-3.7a.154.154 0 00-.154-.154H4.686a.154.154 0 00-.154.155v3.699c0 .086.069.154.154.154h1.395a.154.154 0 00.156-.154zm0 2.263a.154.154 0 00-.154-.155H4.686a.154.154 0 00-.154.155c0 .086.069.154.154.154h1.395c.087 0 .156-.07.156-.154zm0 1.59a.154.154 0 00-.154-.155H4.686a.155.155 0 000 .31h1.395a.153.153 0 00.156-.155z" fill="url(#paint8_linear_168_5599)"/><path d="M3.412 3.086v.715H.086V1.616h3.326v1.47z" fill="url(#paint9_linear_168_5599)"/><path d="M.086 4.11h3.326v1.36H.086V4.11z" fill="url(#paint10_linear_168_5599)"/><path d="M3.412 5.779v8.67H.086V5.78h3.326zm-.81 5.095a.154.154 0 00-.155-.155H1.05a.155.155 0 000 .309h1.395a.153.153 0 00.155-.155z" fill="url(#paint11_linear_168_5599)"/><defs><linearGradient id="paint0_linear_168_5599" x1="18.499" y1="9.76" x2="13.108" y2="9.76" gradientUnits="userSpaceOnUse"><stop stop-color="#7A6EEE"/><stop offset="1" stop-color="#A728DA"/></linearGradient><linearGradient id="paint1_linear_168_5599" x1="15.107" y1="4.287" x2="12.476" y2="5.344" gradientUnits="userSpaceOnUse"><stop stop-color="#7A6EEE"/><stop offset="1" stop-color="#A728DA"/></linearGradient><linearGradient id="paint2_linear_168_5599" x1="14.331" y1="2.355" x2="11.699" y2="3.413" gradientUnits="userSpaceOnUse"><stop stop-color="#7A6EEE"/><stop offset="1" stop-color="#A728DA"/></linearGradient><linearGradient id="paint3_linear_168_5599" x1="10.464" y1="1.439" x2="7.629" y2="1.439" gradientUnits="userSpaceOnUse"><stop stop-color="#7A6EEE"/><stop offset="1" stop-color="#A728DA"/></linearGradient><linearGradient id="paint4_linear_168_5599" x1="10.464" y1="3.481" x2="7.629" y2="3.481" gradientUnits="userSpaceOnUse"><stop stop-color="#7A6EEE"/><stop offset="1" stop-color="#A728DA"/></linearGradient><linearGradient id="paint5_linear_168_5599" x1="9.507" y1="7.554" x2="8.55" y2="7.554" gradientUnits="userSpaceOnUse"><stop stop-color="#7A6EEE"/><stop offset="1" stop-color="#A728DA"/></linearGradient><linearGradient id="paint6_linear_168_5599" x1="10.464" y1="9.459" x2="7.629" y2="9.459" gradientUnits="userSpaceOnUse"><stop stop-color="#7A6EEE"/><stop offset="1" stop-color="#A728DA"/></linearGradient><linearGradient id="paint7_linear_168_5599" x1="5.856" y1="6.639" x2="4.93" y2="6.639" gradientUnits="userSpaceOnUse"><stop stop-color="#7A6EEE"/><stop offset="1" stop-color="#A728DA"/></linearGradient><linearGradient id="paint8_linear_168_5599" x1="6.829" y1="8.844" x2="3.993" y2="8.844" gradientUnits="userSpaceOnUse"><stop stop-color="#7A6EEE"/><stop offset="1" stop-color="#A728DA"/></linearGradient><linearGradient id="paint9_linear_168_5599" x1="3.193" y1="2.708" x2=".357" y2="2.708" gradientUnits="userSpaceOnUse"><stop stop-color="#7A6EEE"/><stop offset="1" stop-color="#A728DA"/></linearGradient><linearGradient id="paint10_linear_168_5599" x1="3.193" y1="4.79" x2=".357" y2="4.79" gradientUnits="userSpaceOnUse"><stop stop-color="#7A6EEE"/><stop offset="1" stop-color="#A728DA"/></linearGradient><linearGradient id="paint11_linear_168_5599" x1="3.193" y1="10.114" x2=".357" y2="10.114" gradientUnits="userSpaceOnUse"><stop stop-color="#7A6EEE"/><stop offset="1" stop-color="#A728DA"/></linearGradient></defs></svg>