<svg width="22" height="22" viewBox="0 0 22 22" fill="none" xmlns="http://www.w3.org/2000/svg"><path d="M2.61 8.598v9.418c0 .38.308.688.687.688h1.925V7.91H3.297a.689.689 0 00-.688.688z" fill="url(#paint0_linear_168_5450)"/><path d="M5.74 7.91h9.563v10.794H5.74V7.91z" fill="url(#paint1_linear_168_5450)"/><path d="M17.745 7.91H15.82v10.794h1.925c.38 0 .688-.308.688-.688V8.598a.689.689 0 00-.688-.688z" fill="url(#paint2_linear_168_5450)"/><path d="M10.52 5.458c1.123 0 2.05.847 2.178 1.934h1.29a3.48 3.48 0 00-3.467-3.218 3.48 3.48 0 00-3.466 3.218h1.289a2.196 2.196 0 012.177-1.934z" fill="url(#paint3_linear_168_5450)"/><defs><linearGradient id="paint0_linear_168_5450" x1="7.02" y1="18.469" x2="-11.271" y2="-3.711" gradientUnits="userSpaceOnUse"><stop offset=".104" stop-color="#93CAF7"/><stop offset=".555" stop-color="#6773FF"/><stop offset="1" stop-color="#7628DA"/></linearGradient><linearGradient id="paint1_linear_168_5450" x1="21.881" y1="18.469" x2="13.889" y2="-16.994" gradientUnits="userSpaceOnUse"><stop offset=".104" stop-color="#93CAF7"/><stop offset=".555" stop-color="#6773FF"/><stop offset="1" stop-color="#7628DA"/></linearGradient><linearGradient id="paint2_linear_168_5450" x1="20.23" y1="18.469" x2="1.94" y2="-3.711" gradientUnits="userSpaceOnUse"><stop offset=".104" stop-color="#93CAF7"/><stop offset=".555" stop-color="#6773FF"/><stop offset="1" stop-color="#7628DA"/></linearGradient><linearGradient id="paint3_linear_168_5450" x1="18.755" y1="7.322" x2="17.735" y2="-3.692" gradientUnits="userSpaceOnUse"><stop offset=".104" stop-color="#93CAF7"/><stop offset=".555" stop-color="#6773FF"/><stop offset="1" stop-color="#7628DA"/></linearGradient></defs></svg>