<svg width="186" height="151" viewBox="0 0 186 151" fill="none" xmlns="http://www.w3.org/2000/svg"><path d="M3.11 5.298C5.09 2.433 8.26.69 12.036.388c2.053-.163 4.263.096 6.567.773l156.801 46.017c8.321 2.44 9.778 6.985 9.906 9.476.129 2.491-.855 7.161-8.882 10.443a6.154 6.154 0 01-.145.056l-30.839 11.564-13.167 50.238c-1.795 6.849-6.689 11.406-12.772 11.891-3.836.306-7.737-1.002-11.283-3.781l-20.958-16.442-26.493 25.092-.01.007-.25.239-.072.065c-2.952 2.696-6.284 4.261-9.64 4.53h.001c-6.557.524-12.166-3.92-14.287-11.319L1.74 17.955C.344 13.085.83 8.591 3.11 5.297zm131.639 72.544l-63.378-26.29 41.135 37.317a5.284 5.284 0 011.466 2.248l9.679 29.071 11.098-42.346zm-20.01 50.894c.271.212.542.399.811.569l-8.98-26.968-11.544 10.934 19.713 15.465zM11.896 15.036L46.667 136.32c.335 1.161 1.32 3.845 3.291 3.688.974-.078 2.155-.707 3.33-1.773l30.02-28.431a.045.045 0 01.014-.012l17.863-16.92-59.488-53.964a5.296 5.296 0 01-.919-6.75 5.278 5.278 0 016.486-2.057l93.864 38.935 31.259-11.72L15.634 11.315c-1.324-.389-2.23-.42-2.755-.378-.322.025-.892.11-1.084.389-.252.364-.515 1.559.1 3.711z" fill="url(#paint0_linear_719_832)"/><defs><linearGradient id="paint0_linear_719_832" x1="-42.234" y1="252.752" x2="-137.873" y2="16.129" gradientUnits="userSpaceOnUse"><stop offset=".148" stop-color="#4E9CDB"/><stop offset=".363" stop-color="#5761D7" stop-opacity=".67"/><stop offset=".692" stop-color="#6548D8" stop-opacity=".26"/><stop offset="1" stop-color="#7628DA" stop-opacity=".34"/></linearGradient></defs></svg>