<svg version="1.1" id="Слой_1" xmlns="http://www.w3.org/2000/svg" x="0" y="0" viewBox="0 0 38 28.7" xml:space="preserve"><path fill="#A111FF" d="M24.4 7.6c-.4 0-.8.3-.8.8 0 .4.3.8.8.8.4 0 .8-.3.8-.8-.1-.4-.4-.8-.8-.8zM19 10.7c-1.7 0-3.1 1.4-3.1 3.1s1.4 3.1 3.1 3.1c1.7 0 3.1-1.4 3.1-3.1 0-1.7-1.4-3.1-3.1-3.1z"/><path fill="#A111FF" d="M23.2 4.5h-8.3c-2.8 0-5 2.3-5 5v8.3c0 2.8 2.3 5 5 5h8.3c2.8 0 5-2.3 5-5V9.6c0-2.8-2.3-5.1-5-5.1zM19 18.8c-2.8 0-5-2.3-5-5 0-2.8 2.3-5 5-5 2.8 0 5 2.3 5 5s-2.2 5-5 5zm5.4-8.9c-.8 0-1.5-.7-1.5-1.5s.7-1.5 1.5-1.5 1.5.7 1.5 1.5-.7 1.5-1.5 1.5z"/></svg>