<svg width="745" height="322" viewBox="0 0 745 322" fill="none" xmlns="http://www.w3.org/2000/svg">
<path d="M4.41263 0.917969H62.9902C65.301 0.917969 67.1743 2.76049 67.1743 5.03335V21.4949C67.1743 23.7678 65.301 25.6103 62.9902 25.6103H4.41263C2.10181 25.6103 0.228516 23.7678 0.228516 21.4949V5.03335C0.228516 2.76049 2.10181 0.917969 4.41263 0.917969Z" fill="url(#paint0_radial_167_5030)"/>
<path d="M4.41263 33.841H62.9902C65.301 33.841 67.1743 35.6836 67.1743 37.9564V54.418C67.1743 56.6908 65.301 58.5334 62.9902 58.5334H4.41263C2.10181 58.5334 0.228516 56.6908 0.228516 54.418V37.9564C0.228516 35.6836 2.10181 33.841 4.41263 33.841Z" fill="url(#paint1_radial_167_5030)"/>
<path d="M4.41263 66.7641H62.9902C65.301 66.7641 67.1743 68.6066 67.1743 70.8795V87.341C67.1743 89.6139 65.301 91.4564 62.9902 91.4564H4.41263C2.10181 91.4564 0.228516 89.6139 0.228516 87.341V70.8795C0.228516 68.6066 2.10181 66.7641 4.41263 66.7641Z" fill="url(#paint2_radial_167_5030)"/>
<path d="M4.41263 99.6872H62.9902C65.301 99.6872 67.1743 101.53 67.1743 103.803V120.264C67.1743 122.537 65.301 124.38 62.9902 124.38H4.41263C2.10181 124.38 0.228516 122.537 0.228516 120.264V103.803C0.228516 101.53 2.10181 99.6872 4.41263 99.6872Z" fill="url(#paint3_radial_167_5030)"/>
<path d="M4.41263 132.61H62.9902C65.301 132.61 67.1743 134.453 67.1743 136.726V153.187C67.1743 155.46 65.301 157.303 62.9902 157.303H4.41263C2.10181 157.303 0.228516 155.46 0.228516 153.187V136.726C0.228516 134.453 2.10181 132.61 4.41263 132.61Z" fill="url(#paint4_radial_167_5030)"/>
<path d="M4.41263 165.533H62.9902C65.301 165.533 67.1743 167.376 67.1743 169.649V186.11C67.1743 188.383 65.301 190.226 62.9902 190.226H4.41263C2.10181 190.226 0.228516 188.383 0.228516 186.11V169.649C0.228516 167.376 2.10181 165.533 4.41263 165.533Z" fill="url(#paint5_radial_167_5030)"/>
<path d="M4.41263 198.456H62.9902C65.301 198.456 67.1743 200.299 67.1743 202.572V219.033C67.1743 221.306 65.301 223.149 62.9902 223.149H4.41263C2.10181 223.149 0.228516 221.306 0.228516 219.033V202.572C0.228516 200.299 2.10181 198.456 4.41263 198.456Z" fill="url(#paint6_radial_167_5030)"/>
<path d="M4.41263 231.38H62.9902C65.301 231.38 67.1743 233.222 67.1743 235.495V251.956C67.1743 254.229 65.301 256.072 62.9902 256.072H4.41263C2.10181 256.072 0.228516 254.229 0.228516 251.956V235.495C0.228516 233.222 2.10181 231.38 4.41263 231.38Z" fill="url(#paint7_radial_167_5030)"/>
<path d="M4.41263 264.303H62.9902C65.301 264.303 67.1743 266.145 67.1743 268.418V284.879C67.1743 287.152 65.301 288.995 62.9902 288.995H4.41263C2.10181 288.995 0.228516 287.152 0.228516 284.879V268.418C0.228516 266.145 2.10181 264.303 4.41263 264.303Z" fill="url(#paint8_radial_167_5030)"/>
<path d="M62.9902 297.226H4.41263C2.10181 297.226 0.228516 299.068 0.228516 301.341V317.803C0.228516 320.075 2.10181 321.918 4.41263 321.918H62.9902C65.301 321.918 67.1743 320.075 67.1743 317.803V301.341C67.1743 299.068 65.301 297.226 62.9902 297.226Z" fill="url(#paint9_radial_167_5030)"/>
<path d="M138.304 297.226H79.7266C77.4158 297.226 75.5425 299.068 75.5425 301.341V317.803C75.5425 320.075 77.4158 321.918 79.7266 321.918H138.304C140.615 321.918 142.488 320.075 142.488 317.803V301.341C142.488 299.068 140.615 297.226 138.304 297.226Z" fill="url(#paint10_radial_167_5030)"/>
<path d="M155.041 297.226H213.618C215.929 297.226 217.802 299.068 217.802 301.341V317.803C217.802 320.075 215.929 321.918 213.618 321.918H155.041C152.73 321.918 150.857 320.075 150.857 317.803V301.341C150.857 299.068 152.73 297.226 155.041 297.226Z" fill="url(#paint11_radial_167_5030)"/>
<path d="M288.932 297.226H230.355C228.044 297.226 226.171 299.068 226.171 301.341V317.803C226.171 320.075 228.044 321.918 230.355 321.918H288.932C291.243 321.918 293.116 320.075 293.116 317.803V301.341C293.116 299.068 291.243 297.226 288.932 297.226Z" fill="url(#paint12_radial_167_5030)"/>
<path d="M305.669 297.226H364.246C366.557 297.226 368.43 299.068 368.43 301.341V317.803C368.43 320.075 366.557 321.918 364.246 321.918H305.669C303.358 321.918 301.485 320.075 301.485 317.803V301.341C301.485 299.068 303.358 297.226 305.669 297.226Z" fill="url(#paint13_radial_167_5030)"/>
<path d="M439.56 297.226H380.983C378.672 297.226 376.799 299.068 376.799 301.341V317.803C376.799 320.075 378.672 321.918 380.983 321.918H439.56C441.871 321.918 443.744 320.075 443.744 317.803V301.341C443.744 299.068 441.871 297.226 439.56 297.226Z" fill="url(#paint14_radial_167_5030)"/>
<path d="M456.297 297.226H514.874C517.185 297.226 519.058 299.068 519.058 301.341V317.803C519.058 320.075 517.185 321.918 514.874 321.918H456.297C453.986 321.918 452.113 320.075 452.113 317.803V301.341C452.113 299.068 453.986 297.226 456.297 297.226Z" fill="url(#paint15_radial_167_5030)"/>
<path d="M590.188 297.226H531.611C529.3 297.226 527.427 299.068 527.427 301.341V317.803C527.427 320.075 529.3 321.918 531.611 321.918H590.188C592.499 321.918 594.372 320.075 594.372 317.803V301.341C594.372 299.068 592.499 297.226 590.188 297.226Z" fill="url(#paint16_radial_167_5030)"/>
<path d="M606.925 297.226H665.502C667.813 297.226 669.686 299.068 669.686 301.341V317.803C669.686 320.075 667.813 321.918 665.502 321.918H606.925C604.614 321.918 602.741 320.075 602.741 317.803V301.341C602.741 299.068 604.614 297.226 606.925 297.226Z" fill="url(#paint17_radial_167_5030)"/>
<path d="M740.816 297.226H682.239C679.928 297.226 678.055 299.068 678.055 301.341V317.803C678.055 320.075 679.928 321.918 682.239 321.918H740.816C743.127 321.918 745 320.075 745 317.803V301.341C745 299.068 743.127 297.226 740.816 297.226Z" fill="url(#paint18_radial_167_5030)"/>
<path d="M138.304 264.303H79.7266C77.4158 264.303 75.5425 266.145 75.5425 268.418V284.879C75.5425 287.152 77.4158 288.995 79.7266 288.995H138.304C140.615 288.995 142.488 287.152 142.488 284.879V268.418C142.488 266.145 140.615 264.303 138.304 264.303Z" fill="url(#paint19_radial_167_5030)"/>
<path d="M155.041 264.303H213.618C215.929 264.303 217.802 266.145 217.802 268.418V284.879C217.802 287.152 215.929 288.995 213.618 288.995H155.041C152.73 288.995 150.857 287.152 150.857 284.879V268.418C150.857 266.145 152.73 264.303 155.041 264.303Z" fill="url(#paint20_radial_167_5030)"/>
<path d="M288.932 264.303H230.355C228.044 264.303 226.171 266.145 226.171 268.418V284.879C226.171 287.152 228.044 288.995 230.355 288.995H288.932C291.243 288.995 293.116 287.152 293.116 284.879V268.418C293.116 266.145 291.243 264.303 288.932 264.303Z" fill="url(#paint21_radial_167_5030)"/>
<path d="M305.669 264.303H364.246C366.557 264.303 368.43 266.145 368.43 268.418V284.879C368.43 287.152 366.557 288.995 364.246 288.995H305.669C303.358 288.995 301.485 287.152 301.485 284.879V268.418C301.485 266.145 303.358 264.303 305.669 264.303Z" fill="url(#paint22_radial_167_5030)"/>
<path d="M439.56 264.303H380.983C378.672 264.303 376.799 266.145 376.799 268.418V284.879C376.799 287.152 378.672 288.995 380.983 288.995H439.56C441.871 288.995 443.744 287.152 443.744 284.879V268.418C443.744 266.145 441.871 264.303 439.56 264.303Z" fill="url(#paint23_radial_167_5030)"/>
<path d="M456.297 264.303H514.874C517.185 264.303 519.058 266.145 519.058 268.418V284.879C519.058 287.152 517.185 288.995 514.874 288.995H456.297C453.986 288.995 452.113 287.152 452.113 284.879V268.418C452.113 266.145 453.986 264.303 456.297 264.303Z" fill="url(#paint24_radial_167_5030)"/>
<path d="M590.188 264.303H531.611C529.3 264.303 527.427 266.145 527.427 268.418V284.879C527.427 287.152 529.3 288.995 531.611 288.995H590.188C592.499 288.995 594.372 287.152 594.372 284.879V268.418C594.372 266.145 592.499 264.303 590.188 264.303Z" fill="url(#paint25_radial_167_5030)"/>
<path d="M606.925 264.303H665.502C667.813 264.303 669.686 266.145 669.686 268.418V284.879C669.686 287.152 667.813 288.995 665.502 288.995H606.925C604.614 288.995 602.741 287.152 602.741 284.879V268.418C602.741 266.145 604.614 264.303 606.925 264.303Z" fill="url(#paint26_radial_167_5030)"/>
<path d="M740.816 264.303H682.239C679.928 264.303 678.055 266.145 678.055 268.418V284.879C678.055 287.152 679.928 288.995 682.239 288.995H740.816C743.127 288.995 745 287.152 745 284.879V268.418C745 266.145 743.127 264.303 740.816 264.303Z" fill="url(#paint27_radial_167_5030)"/>
<path d="M138.304 231.38H79.7266C77.4158 231.38 75.5425 233.222 75.5425 235.495V251.956C75.5425 254.229 77.4158 256.072 79.7266 256.072H138.304C140.615 256.072 142.488 254.229 142.488 251.956V235.495C142.488 233.222 140.615 231.38 138.304 231.38Z" fill="url(#paint28_radial_167_5030)"/>
<path d="M155.041 231.38H213.618C215.929 231.38 217.802 233.222 217.802 235.495V251.956C217.802 254.229 215.929 256.072 213.618 256.072H155.041C152.73 256.072 150.857 254.229 150.857 251.956V235.495C150.857 233.222 152.73 231.38 155.041 231.38Z" fill="url(#paint29_radial_167_5030)"/>
<path d="M288.932 231.38H230.355C228.044 231.38 226.171 233.222 226.171 235.495V251.956C226.171 254.229 228.044 256.072 230.355 256.072H288.932C291.243 256.072 293.116 254.229 293.116 251.956V235.495C293.116 233.222 291.243 231.38 288.932 231.38Z" fill="url(#paint30_radial_167_5030)"/>
<path d="M305.669 231.38H364.246C366.557 231.38 368.43 233.222 368.43 235.495V251.956C368.43 254.229 366.557 256.072 364.246 256.072H305.669C303.358 256.072 301.485 254.229 301.485 251.956V235.495C301.485 233.222 303.358 231.38 305.669 231.38Z" fill="url(#paint31_radial_167_5030)"/>
<path d="M439.56 231.38H380.983C378.672 231.38 376.799 233.222 376.799 235.495V251.956C376.799 254.229 378.672 256.072 380.983 256.072H439.56C441.871 256.072 443.744 254.229 443.744 251.956V235.495C443.744 233.222 441.871 231.38 439.56 231.38Z" fill="url(#paint32_radial_167_5030)"/>
<path d="M456.297 231.38H514.874C517.185 231.38 519.058 233.222 519.058 235.495V251.956C519.058 254.229 517.185 256.072 514.874 256.072H456.297C453.986 256.072 452.113 254.229 452.113 251.956V235.495C452.113 233.222 453.986 231.38 456.297 231.38Z" fill="url(#paint33_radial_167_5030)"/>
<path d="M590.188 231.38H531.611C529.3 231.38 527.427 233.222 527.427 235.495V251.956C527.427 254.229 529.3 256.072 531.611 256.072H590.188C592.499 256.072 594.372 254.229 594.372 251.956V235.495C594.372 233.222 592.499 231.38 590.188 231.38Z" fill="url(#paint34_radial_167_5030)"/>
<path d="M606.925 231.38H665.502C667.813 231.38 669.686 233.222 669.686 235.495V251.956C669.686 254.229 667.813 256.072 665.502 256.072H606.925C604.614 256.072 602.741 254.229 602.741 251.956V235.495C602.741 233.222 604.614 231.38 606.925 231.38Z" fill="url(#paint35_radial_167_5030)"/>
<path d="M740.816 231.38H682.239C679.928 231.38 678.055 233.222 678.055 235.495V251.956C678.055 254.229 679.928 256.072 682.239 256.072H740.816C743.127 256.072 745 254.229 745 251.956V235.495C745 233.222 743.127 231.38 740.816 231.38Z" fill="url(#paint36_radial_167_5030)"/>
<path d="M138.304 198.456H79.7266C77.4158 198.456 75.5425 200.299 75.5425 202.572V219.033C75.5425 221.306 77.4158 223.149 79.7266 223.149H138.304C140.615 223.149 142.488 221.306 142.488 219.033V202.572C142.488 200.299 140.615 198.456 138.304 198.456Z" fill="url(#paint37_radial_167_5030)"/>
<path d="M155.041 198.456H213.618C215.929 198.456 217.802 200.299 217.802 202.572V219.033C217.802 221.306 215.929 223.149 213.618 223.149H155.041C152.73 223.149 150.857 221.306 150.857 219.033V202.572C150.857 200.299 152.73 198.456 155.041 198.456Z" fill="url(#paint38_radial_167_5030)"/>
<path d="M288.932 198.456H230.355C228.044 198.456 226.171 200.299 226.171 202.572V219.033C226.171 221.306 228.044 223.149 230.355 223.149H288.932C291.243 223.149 293.116 221.306 293.116 219.033V202.572C293.116 200.299 291.243 198.456 288.932 198.456Z" fill="url(#paint39_radial_167_5030)"/>
<path d="M305.669 198.456H364.246C366.557 198.456 368.43 200.299 368.43 202.572V219.033C368.43 221.306 366.557 223.149 364.246 223.149H305.669C303.358 223.149 301.485 221.306 301.485 219.033V202.572C301.485 200.299 303.358 198.456 305.669 198.456Z" fill="url(#paint40_radial_167_5030)"/>
<path d="M439.56 198.456H380.983C378.672 198.456 376.799 200.299 376.799 202.572V219.033C376.799 221.306 378.672 223.149 380.983 223.149H439.56C441.871 223.149 443.744 221.306 443.744 219.033V202.572C443.744 200.299 441.871 198.456 439.56 198.456Z" fill="url(#paint41_radial_167_5030)"/>
<path d="M456.297 198.456H514.874C517.185 198.456 519.058 200.299 519.058 202.572V219.033C519.058 221.306 517.185 223.149 514.874 223.149H456.297C453.986 223.149 452.113 221.306 452.113 219.033V202.572C452.113 200.299 453.986 198.456 456.297 198.456Z" fill="url(#paint42_radial_167_5030)"/>
<path d="M590.188 198.456H531.611C529.3 198.456 527.427 200.299 527.427 202.572V219.033C527.427 221.306 529.3 223.149 531.611 223.149H590.188C592.499 223.149 594.372 221.306 594.372 219.033V202.572C594.372 200.299 592.499 198.456 590.188 198.456Z" fill="url(#paint43_radial_167_5030)"/>
<path d="M606.925 198.456H665.502C667.813 198.456 669.686 200.299 669.686 202.572V219.033C669.686 221.306 667.813 223.149 665.502 223.149H606.925C604.614 223.149 602.741 221.306 602.741 219.033V202.572C602.741 200.299 604.614 198.456 606.925 198.456Z" fill="url(#paint44_radial_167_5030)"/>
<path d="M740.816 198.456H682.239C679.928 198.456 678.055 200.299 678.055 202.572V219.033C678.055 221.306 679.928 223.149 682.239 223.149H740.816C743.127 223.149 745 221.306 745 219.033V202.572C745 200.299 743.127 198.456 740.816 198.456Z" fill="url(#paint45_radial_167_5030)"/>
<path d="M138.304 165.533H79.7266C77.4158 165.533 75.5425 167.376 75.5425 169.649V186.11C75.5425 188.383 77.4158 190.226 79.7266 190.226H138.304C140.615 190.226 142.488 188.383 142.488 186.11V169.649C142.488 167.376 140.615 165.533 138.304 165.533Z" fill="url(#paint46_radial_167_5030)"/>
<path d="M155.041 165.533H213.618C215.929 165.533 217.802 167.376 217.802 169.649V186.11C217.802 188.383 215.929 190.226 213.618 190.226H155.041C152.73 190.226 150.857 188.383 150.857 186.11V169.649C150.857 167.376 152.73 165.533 155.041 165.533Z" fill="url(#paint47_radial_167_5030)"/>
<path d="M288.932 165.533H230.355C228.044 165.533 226.171 167.376 226.171 169.649V186.11C226.171 188.383 228.044 190.226 230.355 190.226H288.932C291.243 190.226 293.116 188.383 293.116 186.11V169.649C293.116 167.376 291.243 165.533 288.932 165.533Z" fill="url(#paint48_radial_167_5030)"/>
<path d="M305.669 165.533H364.246C366.557 165.533 368.43 167.376 368.43 169.649V186.11C368.43 188.383 366.557 190.226 364.246 190.226H305.669C303.358 190.226 301.485 188.383 301.485 186.11V169.649C301.485 167.376 303.358 165.533 305.669 165.533Z" fill="url(#paint49_radial_167_5030)"/>
<path d="M439.56 165.533H380.983C378.672 165.533 376.799 167.376 376.799 169.649V186.11C376.799 188.383 378.672 190.226 380.983 190.226H439.56C441.871 190.226 443.744 188.383 443.744 186.11V169.649C443.744 167.376 441.871 165.533 439.56 165.533Z" fill="url(#paint50_radial_167_5030)"/>
<path d="M456.297 165.533H514.874C517.185 165.533 519.058 167.376 519.058 169.649V186.11C519.058 188.383 517.185 190.226 514.874 190.226H456.297C453.986 190.226 452.113 188.383 452.113 186.11V169.649C452.113 167.376 453.986 165.533 456.297 165.533Z" fill="url(#paint51_radial_167_5030)"/>
<path d="M590.188 165.533H531.611C529.3 165.533 527.427 167.376 527.427 169.649V186.11C527.427 188.383 529.3 190.226 531.611 190.226H590.188C592.499 190.226 594.372 188.383 594.372 186.11V169.649C594.372 167.376 592.499 165.533 590.188 165.533Z" fill="url(#paint52_radial_167_5030)"/>
<path d="M606.925 165.533H665.502C667.813 165.533 669.686 167.376 669.686 169.649V186.11C669.686 188.383 667.813 190.226 665.502 190.226H606.925C604.614 190.226 602.741 188.383 602.741 186.11V169.649C602.741 167.376 604.614 165.533 606.925 165.533Z" fill="url(#paint53_radial_167_5030)"/>
<path d="M740.816 165.533H682.239C679.928 165.533 678.055 167.376 678.055 169.649V186.11C678.055 188.383 679.928 190.226 682.239 190.226H740.816C743.127 190.226 745 188.383 745 186.11V169.649C745 167.376 743.127 165.533 740.816 165.533Z" fill="url(#paint54_radial_167_5030)"/>
<path d="M138.304 132.61H79.7266C77.4158 132.61 75.5425 134.453 75.5425 136.726V153.187C75.5425 155.46 77.4158 157.303 79.7266 157.303H138.304C140.615 157.303 142.488 155.46 142.488 153.187V136.726C142.488 134.453 140.615 132.61 138.304 132.61Z" fill="url(#paint55_radial_167_5030)"/>
<path d="M155.041 132.61H213.618C215.929 132.61 217.802 134.453 217.802 136.726V153.187C217.802 155.46 215.929 157.303 213.618 157.303H155.041C152.73 157.303 150.857 155.46 150.857 153.187V136.726C150.857 134.453 152.73 132.61 155.041 132.61Z" fill="url(#paint56_radial_167_5030)"/>
<path d="M288.932 132.61H230.355C228.044 132.61 226.171 134.453 226.171 136.726V153.187C226.171 155.46 228.044 157.303 230.355 157.303H288.932C291.243 157.303 293.116 155.46 293.116 153.187V136.726C293.116 134.453 291.243 132.61 288.932 132.61Z" fill="url(#paint57_radial_167_5030)"/>
<path d="M305.669 132.61H364.246C366.557 132.61 368.43 134.453 368.43 136.726V153.187C368.43 155.46 366.557 157.303 364.246 157.303H305.669C303.358 157.303 301.485 155.46 301.485 153.187V136.726C301.485 134.453 303.358 132.61 305.669 132.61Z" fill="url(#paint58_radial_167_5030)"/>
<path d="M439.56 132.61H380.983C378.672 132.61 376.799 134.453 376.799 136.726V153.187C376.799 155.46 378.672 157.303 380.983 157.303H439.56C441.871 157.303 443.744 155.46 443.744 153.187V136.726C443.744 134.453 441.871 132.61 439.56 132.61Z" fill="url(#paint59_radial_167_5030)"/>
<path d="M456.297 132.61H514.874C517.185 132.61 519.058 134.453 519.058 136.726V153.187C519.058 155.46 517.185 157.303 514.874 157.303H456.297C453.986 157.303 452.113 155.46 452.113 153.187V136.726C452.113 134.453 453.986 132.61 456.297 132.61Z" fill="url(#paint60_radial_167_5030)"/>
<path d="M590.188 132.61H531.611C529.3 132.61 527.427 134.453 527.427 136.726V153.187C527.427 155.46 529.3 157.303 531.611 157.303H590.188C592.499 157.303 594.372 155.46 594.372 153.187V136.726C594.372 134.453 592.499 132.61 590.188 132.61Z" fill="url(#paint61_radial_167_5030)"/>
<path d="M606.925 132.61H665.502C667.813 132.61 669.686 134.453 669.686 136.726V153.187C669.686 155.46 667.813 157.303 665.502 157.303H606.925C604.614 157.303 602.741 155.46 602.741 153.187V136.726C602.741 134.453 604.614 132.61 606.925 132.61Z" fill="url(#paint62_radial_167_5030)"/>
<path d="M740.816 132.61H682.239C679.928 132.61 678.055 134.453 678.055 136.726V153.187C678.055 155.46 679.928 157.303 682.239 157.303H740.816C743.127 157.303 745 155.46 745 153.187V136.726C745 134.453 743.127 132.61 740.816 132.61Z" fill="url(#paint63_radial_167_5030)"/>
<path d="M138.304 99.6872H79.7266C77.4158 99.6872 75.5425 101.53 75.5425 103.803V120.264C75.5425 122.537 77.4158 124.38 79.7266 124.38H138.304C140.615 124.38 142.488 122.537 142.488 120.264V103.803C142.488 101.53 140.615 99.6872 138.304 99.6872Z" fill="url(#paint64_radial_167_5030)"/>
<path d="M155.041 99.6872H213.618C215.929 99.6872 217.802 101.53 217.802 103.803V120.264C217.802 122.537 215.929 124.38 213.618 124.38H155.041C152.73 124.38 150.857 122.537 150.857 120.264V103.803C150.857 101.53 152.73 99.6872 155.041 99.6872Z" fill="url(#paint65_radial_167_5030)"/>
<path d="M288.932 99.6872H230.355C228.044 99.6872 226.171 101.53 226.171 103.803V120.264C226.171 122.537 228.044 124.38 230.355 124.38H288.932C291.243 124.38 293.116 122.537 293.116 120.264V103.803C293.116 101.53 291.243 99.6872 288.932 99.6872Z" fill="url(#paint66_radial_167_5030)"/>
<path d="M305.669 99.6872H364.246C366.557 99.6872 368.43 101.53 368.43 103.803V120.264C368.43 122.537 366.557 124.38 364.246 124.38H305.669C303.358 124.38 301.485 122.537 301.485 120.264V103.803C301.485 101.53 303.358 99.6872 305.669 99.6872Z" fill="url(#paint67_radial_167_5030)"/>
<path d="M439.56 99.6872H380.983C378.672 99.6872 376.799 101.53 376.799 103.803V120.264C376.799 122.537 378.672 124.38 380.983 124.38H439.56C441.871 124.38 443.744 122.537 443.744 120.264V103.803C443.744 101.53 441.871 99.6872 439.56 99.6872Z" fill="url(#paint68_radial_167_5030)"/>
<path d="M456.297 99.6872H514.874C517.185 99.6872 519.058 101.53 519.058 103.803V120.264C519.058 122.537 517.185 124.38 514.874 124.38H456.297C453.986 124.38 452.113 122.537 452.113 120.264V103.803C452.113 101.53 453.986 99.6872 456.297 99.6872Z" fill="url(#paint69_radial_167_5030)"/>
<path d="M590.188 99.6872H531.611C529.3 99.6872 527.427 101.53 527.427 103.803V120.264C527.427 122.537 529.3 124.38 531.611 124.38H590.188C592.499 124.38 594.372 122.537 594.372 120.264V103.803C594.372 101.53 592.499 99.6872 590.188 99.6872Z" fill="url(#paint70_radial_167_5030)"/>
<path d="M606.925 99.6872H665.502C667.813 99.6872 669.686 101.53 669.686 103.803V120.264C669.686 122.537 667.813 124.38 665.502 124.38H606.925C604.614 124.38 602.741 122.537 602.741 120.264V103.803C602.741 101.53 604.614 99.6872 606.925 99.6872Z" fill="url(#paint71_radial_167_5030)"/>
<path d="M740.816 99.6872H682.239C679.928 99.6872 678.055 101.53 678.055 103.803V120.264C678.055 122.537 679.928 124.38 682.239 124.38H740.816C743.127 124.38 745 122.537 745 120.264V103.803C745 101.53 743.127 99.6872 740.816 99.6872Z" fill="url(#paint72_radial_167_5030)"/>
<path d="M138.304 66.7641H79.7266C77.4158 66.7641 75.5425 68.6066 75.5425 70.8795V87.341C75.5425 89.6139 77.4158 91.4564 79.7266 91.4564H138.304C140.615 91.4564 142.488 89.6139 142.488 87.341V70.8795C142.488 68.6066 140.615 66.7641 138.304 66.7641Z" fill="url(#paint73_radial_167_5030)"/>
<path d="M155.041 66.7641H213.618C215.929 66.7641 217.802 68.6066 217.802 70.8795V87.341C217.802 89.6139 215.929 91.4564 213.618 91.4564H155.041C152.73 91.4564 150.857 89.6139 150.857 87.341V70.8795C150.857 68.6066 152.73 66.7641 155.041 66.7641Z" fill="url(#paint74_radial_167_5030)"/>
<path d="M288.932 66.7641H230.355C228.044 66.7641 226.171 68.6066 226.171 70.8795V87.341C226.171 89.6139 228.044 91.4564 230.355 91.4564H288.932C291.243 91.4564 293.116 89.6139 293.116 87.341V70.8795C293.116 68.6066 291.243 66.7641 288.932 66.7641Z" fill="url(#paint75_radial_167_5030)"/>
<path d="M305.669 66.7641H364.246C366.557 66.7641 368.43 68.6066 368.43 70.8795V87.341C368.43 89.6139 366.557 91.4564 364.246 91.4564H305.669C303.358 91.4564 301.485 89.6139 301.485 87.341V70.8795C301.485 68.6066 303.358 66.7641 305.669 66.7641Z" fill="url(#paint76_radial_167_5030)"/>
<path d="M439.56 66.7641H380.983C378.672 66.7641 376.799 68.6066 376.799 70.8795V87.341C376.799 89.6139 378.672 91.4564 380.983 91.4564H439.56C441.871 91.4564 443.744 89.6139 443.744 87.341V70.8795C443.744 68.6066 441.871 66.7641 439.56 66.7641Z" fill="url(#paint77_radial_167_5030)"/>
<path d="M456.297 66.7641H514.874C517.185 66.7641 519.058 68.6066 519.058 70.8795V87.341C519.058 89.6139 517.185 91.4564 514.874 91.4564H456.297C453.986 91.4564 452.113 89.6139 452.113 87.341V70.8795C452.113 68.6066 453.986 66.7641 456.297 66.7641Z" fill="url(#paint78_radial_167_5030)"/>
<path d="M590.188 66.7641H531.611C529.3 66.7641 527.427 68.6066 527.427 70.8795V87.341C527.427 89.6139 529.3 91.4564 531.611 91.4564H590.188C592.499 91.4564 594.372 89.6139 594.372 87.341V70.8795C594.372 68.6066 592.499 66.7641 590.188 66.7641Z" fill="url(#paint79_radial_167_5030)"/>
<path d="M606.925 66.7641H665.502C667.813 66.7641 669.686 68.6066 669.686 70.8795V87.341C669.686 89.6139 667.813 91.4564 665.502 91.4564H606.925C604.614 91.4564 602.741 89.6139 602.741 87.341V70.8795C602.741 68.6066 604.614 66.7641 606.925 66.7641Z" fill="url(#paint80_radial_167_5030)"/>
<path d="M740.816 66.7641H682.239C679.928 66.7641 678.055 68.6066 678.055 70.8795V87.341C678.055 89.6139 679.928 91.4564 682.239 91.4564H740.816C743.127 91.4564 745 89.6139 745 87.341V70.8795C745 68.6066 743.127 66.7641 740.816 66.7641Z" fill="url(#paint81_radial_167_5030)"/>
<path d="M138.304 33.841H79.7266C77.4158 33.841 75.5425 35.6836 75.5425 37.9564V54.418C75.5425 56.6908 77.4158 58.5334 79.7266 58.5334H138.304C140.615 58.5334 142.488 56.6908 142.488 54.418V37.9564C142.488 35.6836 140.615 33.841 138.304 33.841Z" fill="url(#paint82_radial_167_5030)"/>
<path d="M155.041 33.841H213.618C215.929 33.841 217.802 35.6836 217.802 37.9564V54.418C217.802 56.6908 215.929 58.5334 213.618 58.5334H155.041C152.73 58.5334 150.857 56.6908 150.857 54.418V37.9564C150.857 35.6836 152.73 33.841 155.041 33.841Z" fill="url(#paint83_radial_167_5030)"/>
<path d="M288.932 33.841H230.355C228.044 33.841 226.171 35.6836 226.171 37.9564V54.418C226.171 56.6908 228.044 58.5334 230.355 58.5334H288.932C291.243 58.5334 293.116 56.6908 293.116 54.418V37.9564C293.116 35.6836 291.243 33.841 288.932 33.841Z" fill="url(#paint84_radial_167_5030)"/>
<path d="M305.669 33.841H364.246C366.557 33.841 368.43 35.6836 368.43 37.9564V54.418C368.43 56.6908 366.557 58.5334 364.246 58.5334H305.669C303.358 58.5334 301.485 56.6908 301.485 54.418V37.9564C301.485 35.6836 303.358 33.841 305.669 33.841Z" fill="url(#paint85_radial_167_5030)"/>
<path d="M439.56 33.841H380.983C378.672 33.841 376.799 35.6836 376.799 37.9564V54.418C376.799 56.6908 378.672 58.5334 380.983 58.5334H439.56C441.871 58.5334 443.744 56.6908 443.744 54.418V37.9564C443.744 35.6836 441.871 33.841 439.56 33.841Z" fill="url(#paint86_radial_167_5030)"/>
<path d="M456.297 33.841H514.874C517.185 33.841 519.058 35.6836 519.058 37.9564V54.418C519.058 56.6908 517.185 58.5334 514.874 58.5334H456.297C453.986 58.5334 452.113 56.6908 452.113 54.418V37.9564C452.113 35.6836 453.986 33.841 456.297 33.841Z" fill="url(#paint87_radial_167_5030)"/>
<path d="M590.188 33.841H531.611C529.3 33.841 527.427 35.6836 527.427 37.9564V54.418C527.427 56.6908 529.3 58.5334 531.611 58.5334H590.188C592.499 58.5334 594.372 56.6908 594.372 54.418V37.9564C594.372 35.6836 592.499 33.841 590.188 33.841Z" fill="url(#paint88_radial_167_5030)"/>
<path d="M606.925 33.841H665.502C667.813 33.841 669.686 35.6836 669.686 37.9564V54.418C669.686 56.6908 667.813 58.5334 665.502 58.5334H606.925C604.614 58.5334 602.741 56.6908 602.741 54.418V37.9564C602.741 35.6836 604.614 33.841 606.925 33.841Z" fill="url(#paint89_radial_167_5030)"/>
<path d="M740.816 33.841H682.239C679.928 33.841 678.055 35.6836 678.055 37.9564V54.418C678.055 56.6908 679.928 58.5334 682.239 58.5334H740.816C743.127 58.5334 745 56.6908 745 54.418V37.9564C745 35.6836 743.127 33.841 740.816 33.841Z" fill="url(#paint90_radial_167_5030)"/>
<path d="M138.304 0.917969H79.7266C77.4158 0.917969 75.5425 2.76049 75.5425 5.03335V21.4949C75.5425 23.7678 77.4158 25.6103 79.7266 25.6103H138.304C140.615 25.6103 142.488 23.7678 142.488 21.4949V5.03335C142.488 2.76049 140.615 0.917969 138.304 0.917969Z" fill="url(#paint91_radial_167_5030)"/>
<path d="M155.041 0.917969H213.618C215.929 0.917969 217.802 2.76049 217.802 5.03335V21.4949C217.802 23.7678 215.929 25.6103 213.618 25.6103H155.041C152.73 25.6103 150.857 23.7678 150.857 21.4949V5.03335C150.857 2.76049 152.73 0.917969 155.041 0.917969Z" fill="url(#paint92_radial_167_5030)"/>
<path d="M288.932 0.917969H230.355C228.044 0.917969 226.171 2.76049 226.171 5.03335V21.4949C226.171 23.7678 228.044 25.6103 230.355 25.6103H288.932C291.243 25.6103 293.116 23.7678 293.116 21.4949V5.03335C293.116 2.76049 291.243 0.917969 288.932 0.917969Z" fill="url(#paint93_radial_167_5030)"/>
<path d="M305.669 0.917969H364.246C366.557 0.917969 368.43 2.76049 368.43 5.03335V21.4949C368.43 23.7678 366.557 25.6103 364.246 25.6103H305.669C303.358 25.6103 301.485 23.7678 301.485 21.4949V5.03335C301.485 2.76049 303.358 0.917969 305.669 0.917969Z" fill="url(#paint94_radial_167_5030)"/>
<path d="M439.56 0.917969H380.983C378.672 0.917969 376.799 2.76049 376.799 5.03335V21.4949C376.799 23.7678 378.672 25.6103 380.983 25.6103H439.56C441.871 25.6103 443.744 23.7678 443.744 21.4949V5.03335C443.744 2.76049 441.871 0.917969 439.56 0.917969Z" fill="url(#paint95_radial_167_5030)"/>
<path d="M456.297 0.917969H514.874C517.185 0.917969 519.058 2.76049 519.058 5.03335V21.4949C519.058 23.7678 517.185 25.6103 514.874 25.6103H456.297C453.986 25.6103 452.113 23.7678 452.113 21.4949V5.03335C452.113 2.76049 453.986 0.917969 456.297 0.917969Z" fill="url(#paint96_radial_167_5030)"/>
<path d="M590.188 0.917969H531.611C529.3 0.917969 527.427 2.76049 527.427 5.03335V21.4949C527.427 23.7678 529.3 25.6103 531.611 25.6103H590.188C592.499 25.6103 594.372 23.7678 594.372 21.4949V5.03335C594.372 2.76049 592.499 0.917969 590.188 0.917969Z" fill="url(#paint97_radial_167_5030)"/>
<path d="M606.925 0.917969H665.502C667.813 0.917969 669.686 2.76049 669.686 5.03335V21.4949C669.686 23.7678 667.813 25.6103 665.502 25.6103H606.925C604.614 25.6103 602.741 23.7678 602.741 21.4949V5.03335C602.741 2.76049 604.614 0.917969 606.925 0.917969Z" fill="url(#paint98_radial_167_5030)"/>
<path d="M740.816 0.917969H682.239C679.928 0.917969 678.055 2.76049 678.055 5.03335V21.4949C678.055 23.7678 679.928 25.6103 682.239 25.6103H740.816C743.127 25.6103 745 23.7678 745 21.4949V5.03335C745 2.76049 743.127 0.917969 740.816 0.917969Z" fill="url(#paint99_radial_167_5030)"/>
<defs>
<radialGradient id="paint0_radial_167_5030" cx="0" cy="0" r="1" gradientUnits="userSpaceOnUse" gradientTransform="translate(295.81 260.171) rotate(180) scale(361.081 76.609)">
<stop stop-color="#3D3991" stop-opacity="0.44"/>
<stop offset="1" stop-color="#2F286F" stop-opacity="0.17"/>
</radialGradient>
<radialGradient id="paint1_radial_167_5030" cx="0" cy="0" r="1" gradientUnits="userSpaceOnUse" gradientTransform="translate(295.81 260.171) rotate(180) scale(361.081 76.609)">
<stop stop-color="#3D3991" stop-opacity="0.44"/>
<stop offset="1" stop-color="#2F286F" stop-opacity="0.17"/>
</radialGradient>
<radialGradient id="paint2_radial_167_5030" cx="0" cy="0" r="1" gradientUnits="userSpaceOnUse" gradientTransform="translate(295.81 260.171) rotate(180) scale(361.081 76.609)">
<stop stop-color="#3D3991" stop-opacity="0.44"/>
<stop offset="1" stop-color="#2F286F" stop-opacity="0.17"/>
</radialGradient>
<radialGradient id="paint3_radial_167_5030" cx="0" cy="0" r="1" gradientUnits="userSpaceOnUse" gradientTransform="translate(295.81 260.171) rotate(180) scale(361.081 76.609)">
<stop stop-color="#3D3991" stop-opacity="0.44"/>
<stop offset="1" stop-color="#2F286F" stop-opacity="0.17"/>
</radialGradient>
<radialGradient id="paint4_radial_167_5030" cx="0" cy="0" r="1" gradientUnits="userSpaceOnUse" gradientTransform="translate(295.81 260.171) rotate(180) scale(361.081 76.609)">
<stop stop-color="#3D3991" stop-opacity="0.44"/>
<stop offset="1" stop-color="#2F286F" stop-opacity="0.17"/>
</radialGradient>
<radialGradient id="paint5_radial_167_5030" cx="0" cy="0" r="1" gradientUnits="userSpaceOnUse" gradientTransform="translate(295.81 260.171) rotate(180) scale(361.081 76.609)">
<stop stop-color="#3D3991" stop-opacity="0.44"/>
<stop offset="1" stop-color="#2F286F" stop-opacity="0.17"/>
</radialGradient>
<radialGradient id="paint6_radial_167_5030" cx="0" cy="0" r="1" gradientUnits="userSpaceOnUse" gradientTransform="translate(295.81 260.171) rotate(180) scale(361.081 76.609)">
<stop stop-color="#3D3991" stop-opacity="0.44"/>
<stop offset="1" stop-color="#2F286F" stop-opacity="0.17"/>
</radialGradient>
<radialGradient id="paint7_radial_167_5030" cx="0" cy="0" r="1" gradientUnits="userSpaceOnUse" gradientTransform="translate(295.81 260.171) rotate(180) scale(361.081 76.609)">
<stop stop-color="#3D3991" stop-opacity="0.44"/>
<stop offset="1" stop-color="#2F286F" stop-opacity="0.17"/>
</radialGradient>
<radialGradient id="paint8_radial_167_5030" cx="0" cy="0" r="1" gradientUnits="userSpaceOnUse" gradientTransform="translate(295.81 260.171) rotate(180) scale(361.081 76.609)">
<stop stop-color="#3D3991" stop-opacity="0.44"/>
<stop offset="1" stop-color="#2F286F" stop-opacity="0.17"/>
</radialGradient>
<radialGradient id="paint9_radial_167_5030" cx="0" cy="0" r="1" gradientUnits="userSpaceOnUse" gradientTransform="translate(295.81 260.171) rotate(180) scale(361.081 76.609)">
<stop stop-color="#3D3991" stop-opacity="0.44"/>
<stop offset="1" stop-color="#2F286F" stop-opacity="0.17"/>
</radialGradient>
<radialGradient id="paint10_radial_167_5030" cx="0" cy="0" r="1" gradientUnits="userSpaceOnUse" gradientTransform="translate(295.81 260.171) rotate(180) scale(361.081 76.609)">
<stop stop-color="#3D3991" stop-opacity="0.44"/>
<stop offset="1" stop-color="#2F286F" stop-opacity="0.17"/>
</radialGradient>
<radialGradient id="paint11_radial_167_5030" cx="0" cy="0" r="1" gradientUnits="userSpaceOnUse" gradientTransform="translate(295.81 260.171) rotate(180) scale(361.081 76.609)">
<stop stop-color="#3D3991" stop-opacity="0.44"/>
<stop offset="1" stop-color="#2F286F" stop-opacity="0.17"/>
</radialGradient>
<radialGradient id="paint12_radial_167_5030" cx="0" cy="0" r="1" gradientUnits="userSpaceOnUse" gradientTransform="translate(295.81 260.171) rotate(180) scale(361.081 76.609)">
<stop stop-color="#3D3991" stop-opacity="0.44"/>
<stop offset="1" stop-color="#2F286F" stop-opacity="0.17"/>
</radialGradient>
<radialGradient id="paint13_radial_167_5030" cx="0" cy="0" r="1" gradientUnits="userSpaceOnUse" gradientTransform="translate(295.81 260.171) rotate(180) scale(361.081 76.609)">
<stop stop-color="#3D3991" stop-opacity="0.44"/>
<stop offset="1" stop-color="#2F286F" stop-opacity="0.17"/>
</radialGradient>
<radialGradient id="paint14_radial_167_5030" cx="0" cy="0" r="1" gradientUnits="userSpaceOnUse" gradientTransform="translate(295.81 260.171) rotate(180) scale(361.081 76.609)">
<stop stop-color="#3D3991" stop-opacity="0.44"/>
<stop offset="1" stop-color="#2F286F" stop-opacity="0.17"/>
</radialGradient>
<radialGradient id="paint15_radial_167_5030" cx="0" cy="0" r="1" gradientUnits="userSpaceOnUse" gradientTransform="translate(295.81 260.171) rotate(180) scale(361.081 76.609)">
<stop stop-color="#3D3991" stop-opacity="0.44"/>
<stop offset="1" stop-color="#2F286F" stop-opacity="0.17"/>
</radialGradient>
<radialGradient id="paint16_radial_167_5030" cx="0" cy="0" r="1" gradientUnits="userSpaceOnUse" gradientTransform="translate(295.81 260.171) rotate(180) scale(361.081 76.609)">
<stop stop-color="#3D3991" stop-opacity="0.44"/>
<stop offset="1" stop-color="#2F286F" stop-opacity="0.17"/>
</radialGradient>
<radialGradient id="paint17_radial_167_5030" cx="0" cy="0" r="1" gradientUnits="userSpaceOnUse" gradientTransform="translate(295.81 260.171) rotate(180) scale(361.081 76.609)">
<stop stop-color="#3D3991" stop-opacity="0.44"/>
<stop offset="1" stop-color="#2F286F" stop-opacity="0.17"/>
</radialGradient>
<radialGradient id="paint18_radial_167_5030" cx="0" cy="0" r="1" gradientUnits="userSpaceOnUse" gradientTransform="translate(295.81 260.171) rotate(180) scale(361.081 76.609)">
<stop stop-color="#3D3991" stop-opacity="0.44"/>
<stop offset="1" stop-color="#2F286F" stop-opacity="0.17"/>
</radialGradient>
<radialGradient id="paint19_radial_167_5030" cx="0" cy="0" r="1" gradientUnits="userSpaceOnUse" gradientTransform="translate(295.81 260.171) rotate(180) scale(361.081 76.609)">
<stop stop-color="#3D3991" stop-opacity="0.44"/>
<stop offset="1" stop-color="#2F286F" stop-opacity="0.17"/>
</radialGradient>
<radialGradient id="paint20_radial_167_5030" cx="0" cy="0" r="1" gradientUnits="userSpaceOnUse" gradientTransform="translate(295.81 260.171) rotate(180) scale(361.081 76.609)">
<stop stop-color="#3D3991" stop-opacity="0.44"/>
<stop offset="1" stop-color="#2F286F" stop-opacity="0.17"/>
</radialGradient>
<radialGradient id="paint21_radial_167_5030" cx="0" cy="0" r="1" gradientUnits="userSpaceOnUse" gradientTransform="translate(295.81 260.171) rotate(180) scale(361.081 76.609)">
<stop stop-color="#3D3991" stop-opacity="0.44"/>
<stop offset="1" stop-color="#2F286F" stop-opacity="0.17"/>
</radialGradient>
<radialGradient id="paint22_radial_167_5030" cx="0" cy="0" r="1" gradientUnits="userSpaceOnUse" gradientTransform="translate(295.81 260.171) rotate(180) scale(361.081 76.609)">
<stop stop-color="#3D3991" stop-opacity="0.44"/>
<stop offset="1" stop-color="#2F286F" stop-opacity="0.17"/>
</radialGradient>
<radialGradient id="paint23_radial_167_5030" cx="0" cy="0" r="1" gradientUnits="userSpaceOnUse" gradientTransform="translate(295.81 260.171) rotate(180) scale(361.081 76.609)">
<stop stop-color="#3D3991" stop-opacity="0.44"/>
<stop offset="1" stop-color="#2F286F" stop-opacity="0.17"/>
</radialGradient>
<radialGradient id="paint24_radial_167_5030" cx="0" cy="0" r="1" gradientUnits="userSpaceOnUse" gradientTransform="translate(295.81 260.171) rotate(180) scale(361.081 76.609)">
<stop stop-color="#3D3991" stop-opacity="0.44"/>
<stop offset="1" stop-color="#2F286F" stop-opacity="0.17"/>
</radialGradient>
<radialGradient id="paint25_radial_167_5030" cx="0" cy="0" r="1" gradientUnits="userSpaceOnUse" gradientTransform="translate(295.81 260.171) rotate(180) scale(361.081 76.609)">
<stop stop-color="#3D3991" stop-opacity="0.44"/>
<stop offset="1" stop-color="#2F286F" stop-opacity="0.17"/>
</radialGradient>
<radialGradient id="paint26_radial_167_5030" cx="0" cy="0" r="1" gradientUnits="userSpaceOnUse" gradientTransform="translate(295.81 260.171) rotate(180) scale(361.081 76.609)">
<stop stop-color="#3D3991" stop-opacity="0.44"/>
<stop offset="1" stop-color="#2F286F" stop-opacity="0.17"/>
</radialGradient>
<radialGradient id="paint27_radial_167_5030" cx="0" cy="0" r="1" gradientUnits="userSpaceOnUse" gradientTransform="translate(295.81 260.171) rotate(180) scale(361.081 76.609)">
<stop stop-color="#3D3991" stop-opacity="0.44"/>
<stop offset="1" stop-color="#2F286F" stop-opacity="0.17"/>
</radialGradient>
<radialGradient id="paint28_radial_167_5030" cx="0" cy="0" r="1" gradientUnits="userSpaceOnUse" gradientTransform="translate(295.81 260.171) rotate(180) scale(361.081 76.609)">
<stop stop-color="#3D3991" stop-opacity="0.44"/>
<stop offset="1" stop-color="#2F286F" stop-opacity="0.17"/>
</radialGradient>
<radialGradient id="paint29_radial_167_5030" cx="0" cy="0" r="1" gradientUnits="userSpaceOnUse" gradientTransform="translate(295.81 260.171) rotate(180) scale(361.081 76.609)">
<stop stop-color="#3D3991" stop-opacity="0.44"/>
<stop offset="1" stop-color="#2F286F" stop-opacity="0.17"/>
</radialGradient>
<radialGradient id="paint30_radial_167_5030" cx="0" cy="0" r="1" gradientUnits="userSpaceOnUse" gradientTransform="translate(295.81 260.171) rotate(180) scale(361.081 76.609)">
<stop stop-color="#3D3991" stop-opacity="0.44"/>
<stop offset="1" stop-color="#2F286F" stop-opacity="0.17"/>
</radialGradient>
<radialGradient id="paint31_radial_167_5030" cx="0" cy="0" r="1" gradientUnits="userSpaceOnUse" gradientTransform="translate(295.81 260.171) rotate(180) scale(361.081 76.609)">
<stop stop-color="#3D3991" stop-opacity="0.44"/>
<stop offset="1" stop-color="#2F286F" stop-opacity="0.17"/>
</radialGradient>
<radialGradient id="paint32_radial_167_5030" cx="0" cy="0" r="1" gradientUnits="userSpaceOnUse" gradientTransform="translate(295.81 260.171) rotate(180) scale(361.081 76.609)">
<stop stop-color="#3D3991" stop-opacity="0.44"/>
<stop offset="1" stop-color="#2F286F" stop-opacity="0.17"/>
</radialGradient>
<radialGradient id="paint33_radial_167_5030" cx="0" cy="0" r="1" gradientUnits="userSpaceOnUse" gradientTransform="translate(295.81 260.171) rotate(180) scale(361.081 76.609)">
<stop stop-color="#3D3991" stop-opacity="0.44"/>
<stop offset="1" stop-color="#2F286F" stop-opacity="0.17"/>
</radialGradient>
<radialGradient id="paint34_radial_167_5030" cx="0" cy="0" r="1" gradientUnits="userSpaceOnUse" gradientTransform="translate(295.81 260.171) rotate(180) scale(361.081 76.609)">
<stop stop-color="#3D3991" stop-opacity="0.44"/>
<stop offset="1" stop-color="#2F286F" stop-opacity="0.17"/>
</radialGradient>
<radialGradient id="paint35_radial_167_5030" cx="0" cy="0" r="1" gradientUnits="userSpaceOnUse" gradientTransform="translate(295.81 260.171) rotate(180) scale(361.081 76.609)">
<stop stop-color="#3D3991" stop-opacity="0.44"/>
<stop offset="1" stop-color="#2F286F" stop-opacity="0.17"/>
</radialGradient>
<radialGradient id="paint36_radial_167_5030" cx="0" cy="0" r="1" gradientUnits="userSpaceOnUse" gradientTransform="translate(295.81 260.171) rotate(180) scale(361.081 76.609)">
<stop stop-color="#3D3991" stop-opacity="0.44"/>
<stop offset="1" stop-color="#2F286F" stop-opacity="0.17"/>
</radialGradient>
<radialGradient id="paint37_radial_167_5030" cx="0" cy="0" r="1" gradientUnits="userSpaceOnUse" gradientTransform="translate(295.81 260.171) rotate(180) scale(361.081 76.609)">
<stop stop-color="#3D3991" stop-opacity="0.44"/>
<stop offset="1" stop-color="#2F286F" stop-opacity="0.17"/>
</radialGradient>
<radialGradient id="paint38_radial_167_5030" cx="0" cy="0" r="1" gradientUnits="userSpaceOnUse" gradientTransform="translate(295.81 260.171) rotate(180) scale(361.081 76.609)">
<stop stop-color="#3D3991" stop-opacity="0.44"/>
<stop offset="1" stop-color="#2F286F" stop-opacity="0.17"/>
</radialGradient>
<radialGradient id="paint39_radial_167_5030" cx="0" cy="0" r="1" gradientUnits="userSpaceOnUse" gradientTransform="translate(295.81 260.171) rotate(180) scale(361.081 76.609)">
<stop stop-color="#3D3991" stop-opacity="0.44"/>
<stop offset="1" stop-color="#2F286F" stop-opacity="0.17"/>
</radialGradient>
<radialGradient id="paint40_radial_167_5030" cx="0" cy="0" r="1" gradientUnits="userSpaceOnUse" gradientTransform="translate(295.81 260.171) rotate(180) scale(361.081 76.609)">
<stop stop-color="#3D3991" stop-opacity="0.44"/>
<stop offset="1" stop-color="#2F286F" stop-opacity="0.17"/>
</radialGradient>
<radialGradient id="paint41_radial_167_5030" cx="0" cy="0" r="1" gradientUnits="userSpaceOnUse" gradientTransform="translate(295.81 260.171) rotate(180) scale(361.081 76.609)">
<stop stop-color="#3D3991" stop-opacity="0.44"/>
<stop offset="1" stop-color="#2F286F" stop-opacity="0.17"/>
</radialGradient>
<radialGradient id="paint42_radial_167_5030" cx="0" cy="0" r="1" gradientUnits="userSpaceOnUse" gradientTransform="translate(295.81 260.171) rotate(180) scale(361.081 76.609)">
<stop stop-color="#3D3991" stop-opacity="0.44"/>
<stop offset="1" stop-color="#2F286F" stop-opacity="0.17"/>
</radialGradient>
<radialGradient id="paint43_radial_167_5030" cx="0" cy="0" r="1" gradientUnits="userSpaceOnUse" gradientTransform="translate(295.81 260.171) rotate(180) scale(361.081 76.609)">
<stop stop-color="#3D3991" stop-opacity="0.44"/>
<stop offset="1" stop-color="#2F286F" stop-opacity="0.17"/>
</radialGradient>
<radialGradient id="paint44_radial_167_5030" cx="0" cy="0" r="1" gradientUnits="userSpaceOnUse" gradientTransform="translate(295.81 260.171) rotate(180) scale(361.081 76.609)">
<stop stop-color="#3D3991" stop-opacity="0.44"/>
<stop offset="1" stop-color="#2F286F" stop-opacity="0.17"/>
</radialGradient>
<radialGradient id="paint45_radial_167_5030" cx="0" cy="0" r="1" gradientUnits="userSpaceOnUse" gradientTransform="translate(295.81 260.171) rotate(180) scale(361.081 76.609)">
<stop stop-color="#3D3991" stop-opacity="0.44"/>
<stop offset="1" stop-color="#2F286F" stop-opacity="0.17"/>
</radialGradient>
<radialGradient id="paint46_radial_167_5030" cx="0" cy="0" r="1" gradientUnits="userSpaceOnUse" gradientTransform="translate(295.81 260.171) rotate(180) scale(361.081 76.609)">
<stop stop-color="#3D3991" stop-opacity="0.44"/>
<stop offset="1" stop-color="#2F286F" stop-opacity="0.17"/>
</radialGradient>
<radialGradient id="paint47_radial_167_5030" cx="0" cy="0" r="1" gradientUnits="userSpaceOnUse" gradientTransform="translate(295.81 260.171) rotate(180) scale(361.081 76.609)">
<stop stop-color="#3D3991" stop-opacity="0.44"/>
<stop offset="1" stop-color="#2F286F" stop-opacity="0.17"/>
</radialGradient>
<radialGradient id="paint48_radial_167_5030" cx="0" cy="0" r="1" gradientUnits="userSpaceOnUse" gradientTransform="translate(295.81 260.171) rotate(180) scale(361.081 76.609)">
<stop stop-color="#3D3991" stop-opacity="0.44"/>
<stop offset="1" stop-color="#2F286F" stop-opacity="0.17"/>
</radialGradient>
<radialGradient id="paint49_radial_167_5030" cx="0" cy="0" r="1" gradientUnits="userSpaceOnUse" gradientTransform="translate(295.81 260.171) rotate(180) scale(361.081 76.609)">
<stop stop-color="#3D3991" stop-opacity="0.44"/>
<stop offset="1" stop-color="#2F286F" stop-opacity="0.17"/>
</radialGradient>
<radialGradient id="paint50_radial_167_5030" cx="0" cy="0" r="1" gradientUnits="userSpaceOnUse" gradientTransform="translate(295.81 260.171) rotate(180) scale(361.081 76.609)">
<stop stop-color="#3D3991" stop-opacity="0.44"/>
<stop offset="1" stop-color="#2F286F" stop-opacity="0.17"/>
</radialGradient>
<radialGradient id="paint51_radial_167_5030" cx="0" cy="0" r="1" gradientUnits="userSpaceOnUse" gradientTransform="translate(295.81 260.171) rotate(180) scale(361.081 76.609)">
<stop stop-color="#3D3991" stop-opacity="0.44"/>
<stop offset="1" stop-color="#2F286F" stop-opacity="0.17"/>
</radialGradient>
<radialGradient id="paint52_radial_167_5030" cx="0" cy="0" r="1" gradientUnits="userSpaceOnUse" gradientTransform="translate(295.81 260.171) rotate(180) scale(361.081 76.609)">
<stop stop-color="#3D3991" stop-opacity="0.44"/>
<stop offset="1" stop-color="#2F286F" stop-opacity="0.17"/>
</radialGradient>
<radialGradient id="paint53_radial_167_5030" cx="0" cy="0" r="1" gradientUnits="userSpaceOnUse" gradientTransform="translate(295.81 260.171) rotate(180) scale(361.081 76.609)">
<stop stop-color="#3D3991" stop-opacity="0.44"/>
<stop offset="1" stop-color="#2F286F" stop-opacity="0.17"/>
</radialGradient>
<radialGradient id="paint54_radial_167_5030" cx="0" cy="0" r="1" gradientUnits="userSpaceOnUse" gradientTransform="translate(295.81 260.171) rotate(180) scale(361.081 76.609)">
<stop stop-color="#3D3991" stop-opacity="0.44"/>
<stop offset="1" stop-color="#2F286F" stop-opacity="0.17"/>
</radialGradient>
<radialGradient id="paint55_radial_167_5030" cx="0" cy="0" r="1" gradientUnits="userSpaceOnUse" gradientTransform="translate(295.81 260.171) rotate(180) scale(361.081 76.609)">
<stop stop-color="#3D3991" stop-opacity="0.44"/>
<stop offset="1" stop-color="#2F286F" stop-opacity="0.17"/>
</radialGradient>
<radialGradient id="paint56_radial_167_5030" cx="0" cy="0" r="1" gradientUnits="userSpaceOnUse" gradientTransform="translate(295.81 260.171) rotate(180) scale(361.081 76.609)">
<stop stop-color="#3D3991" stop-opacity="0.44"/>
<stop offset="1" stop-color="#2F286F" stop-opacity="0.17"/>
</radialGradient>
<radialGradient id="paint57_radial_167_5030" cx="0" cy="0" r="1" gradientUnits="userSpaceOnUse" gradientTransform="translate(295.81 260.171) rotate(180) scale(361.081 76.609)">
<stop stop-color="#3D3991" stop-opacity="0.44"/>
<stop offset="1" stop-color="#2F286F" stop-opacity="0.17"/>
</radialGradient>
<radialGradient id="paint58_radial_167_5030" cx="0" cy="0" r="1" gradientUnits="userSpaceOnUse" gradientTransform="translate(295.81 260.171) rotate(180) scale(361.081 76.609)">
<stop stop-color="#3D3991" stop-opacity="0.44"/>
<stop offset="1" stop-color="#2F286F" stop-opacity="0.17"/>
</radialGradient>
<radialGradient id="paint59_radial_167_5030" cx="0" cy="0" r="1" gradientUnits="userSpaceOnUse" gradientTransform="translate(295.81 260.171) rotate(180) scale(361.081 76.609)">
<stop stop-color="#3D3991" stop-opacity="0.44"/>
<stop offset="1" stop-color="#2F286F" stop-opacity="0.17"/>
</radialGradient>
<radialGradient id="paint60_radial_167_5030" cx="0" cy="0" r="1" gradientUnits="userSpaceOnUse" gradientTransform="translate(295.81 260.171) rotate(180) scale(361.081 76.609)">
<stop stop-color="#3D3991" stop-opacity="0.44"/>
<stop offset="1" stop-color="#2F286F" stop-opacity="0.17"/>
</radialGradient>
<radialGradient id="paint61_radial_167_5030" cx="0" cy="0" r="1" gradientUnits="userSpaceOnUse" gradientTransform="translate(295.81 260.171) rotate(180) scale(361.081 76.609)">
<stop stop-color="#3D3991" stop-opacity="0.44"/>
<stop offset="1" stop-color="#2F286F" stop-opacity="0.17"/>
</radialGradient>
<radialGradient id="paint62_radial_167_5030" cx="0" cy="0" r="1" gradientUnits="userSpaceOnUse" gradientTransform="translate(295.81 260.171) rotate(180) scale(361.081 76.609)">
<stop stop-color="#3D3991" stop-opacity="0.44"/>
<stop offset="1" stop-color="#2F286F" stop-opacity="0.17"/>
</radialGradient>
<radialGradient id="paint63_radial_167_5030" cx="0" cy="0" r="1" gradientUnits="userSpaceOnUse" gradientTransform="translate(295.81 260.171) rotate(180) scale(361.081 76.609)">
<stop stop-color="#3D3991" stop-opacity="0.44"/>
<stop offset="1" stop-color="#2F286F" stop-opacity="0.17"/>
</radialGradient>
<radialGradient id="paint64_radial_167_5030" cx="0" cy="0" r="1" gradientUnits="userSpaceOnUse" gradientTransform="translate(295.81 260.171) rotate(180) scale(361.081 76.609)">
<stop stop-color="#3D3991" stop-opacity="0.44"/>
<stop offset="1" stop-color="#2F286F" stop-opacity="0.17"/>
</radialGradient>
<radialGradient id="paint65_radial_167_5030" cx="0" cy="0" r="1" gradientUnits="userSpaceOnUse" gradientTransform="translate(295.81 260.171) rotate(180) scale(361.081 76.609)">
<stop stop-color="#3D3991" stop-opacity="0.44"/>
<stop offset="1" stop-color="#2F286F" stop-opacity="0.17"/>
</radialGradient>
<radialGradient id="paint66_radial_167_5030" cx="0" cy="0" r="1" gradientUnits="userSpaceOnUse" gradientTransform="translate(295.81 260.171) rotate(180) scale(361.081 76.609)">
<stop stop-color="#3D3991" stop-opacity="0.44"/>
<stop offset="1" stop-color="#2F286F" stop-opacity="0.17"/>
</radialGradient>
<radialGradient id="paint67_radial_167_5030" cx="0" cy="0" r="1" gradientUnits="userSpaceOnUse" gradientTransform="translate(295.81 260.171) rotate(180) scale(361.081 76.609)">
<stop stop-color="#3D3991" stop-opacity="0.44"/>
<stop offset="1" stop-color="#2F286F" stop-opacity="0.17"/>
</radialGradient>
<radialGradient id="paint68_radial_167_5030" cx="0" cy="0" r="1" gradientUnits="userSpaceOnUse" gradientTransform="translate(295.81 260.171) rotate(180) scale(361.081 76.609)">
<stop stop-color="#3D3991" stop-opacity="0.44"/>
<stop offset="1" stop-color="#2F286F" stop-opacity="0.17"/>
</radialGradient>
<radialGradient id="paint69_radial_167_5030" cx="0" cy="0" r="1" gradientUnits="userSpaceOnUse" gradientTransform="translate(295.81 260.171) rotate(180) scale(361.081 76.609)">
<stop stop-color="#3D3991" stop-opacity="0.44"/>
<stop offset="1" stop-color="#2F286F" stop-opacity="0.17"/>
</radialGradient>
<radialGradient id="paint70_radial_167_5030" cx="0" cy="0" r="1" gradientUnits="userSpaceOnUse" gradientTransform="translate(295.81 260.171) rotate(180) scale(361.081 76.609)">
<stop stop-color="#3D3991" stop-opacity="0.44"/>
<stop offset="1" stop-color="#2F286F" stop-opacity="0.17"/>
</radialGradient>
<radialGradient id="paint71_radial_167_5030" cx="0" cy="0" r="1" gradientUnits="userSpaceOnUse" gradientTransform="translate(295.81 260.171) rotate(180) scale(361.081 76.609)">
<stop stop-color="#3D3991" stop-opacity="0.44"/>
<stop offset="1" stop-color="#2F286F" stop-opacity="0.17"/>
</radialGradient>
<radialGradient id="paint72_radial_167_5030" cx="0" cy="0" r="1" gradientUnits="userSpaceOnUse" gradientTransform="translate(295.81 260.171) rotate(180) scale(361.081 76.609)">
<stop stop-color="#3D3991" stop-opacity="0.44"/>
<stop offset="1" stop-color="#2F286F" stop-opacity="0.17"/>
</radialGradient>
<radialGradient id="paint73_radial_167_5030" cx="0" cy="0" r="1" gradientUnits="userSpaceOnUse" gradientTransform="translate(295.81 260.171) rotate(180) scale(361.081 76.609)">
<stop stop-color="#3D3991" stop-opacity="0.44"/>
<stop offset="1" stop-color="#2F286F" stop-opacity="0.17"/>
</radialGradient>
<radialGradient id="paint74_radial_167_5030" cx="0" cy="0" r="1" gradientUnits="userSpaceOnUse" gradientTransform="translate(295.81 260.171) rotate(180) scale(361.081 76.609)">
<stop stop-color="#3D3991" stop-opacity="0.44"/>
<stop offset="1" stop-color="#2F286F" stop-opacity="0.17"/>
</radialGradient>
<radialGradient id="paint75_radial_167_5030" cx="0" cy="0" r="1" gradientUnits="userSpaceOnUse" gradientTransform="translate(295.81 260.171) rotate(180) scale(361.081 76.609)">
<stop stop-color="#3D3991" stop-opacity="0.44"/>
<stop offset="1" stop-color="#2F286F" stop-opacity="0.17"/>
</radialGradient>
<radialGradient id="paint76_radial_167_5030" cx="0" cy="0" r="1" gradientUnits="userSpaceOnUse" gradientTransform="translate(295.81 260.171) rotate(180) scale(361.081 76.609)">
<stop stop-color="#3D3991" stop-opacity="0.44"/>
<stop offset="1" stop-color="#2F286F" stop-opacity="0.17"/>
</radialGradient>
<radialGradient id="paint77_radial_167_5030" cx="0" cy="0" r="1" gradientUnits="userSpaceOnUse" gradientTransform="translate(295.81 260.171) rotate(180) scale(361.081 76.609)">
<stop stop-color="#3D3991" stop-opacity="0.44"/>
<stop offset="1" stop-color="#2F286F" stop-opacity="0.17"/>
</radialGradient>
<radialGradient id="paint78_radial_167_5030" cx="0" cy="0" r="1" gradientUnits="userSpaceOnUse" gradientTransform="translate(295.81 260.171) rotate(180) scale(361.081 76.609)">
<stop stop-color="#3D3991" stop-opacity="0.44"/>
<stop offset="1" stop-color="#2F286F" stop-opacity="0.17"/>
</radialGradient>
<radialGradient id="paint79_radial_167_5030" cx="0" cy="0" r="1" gradientUnits="userSpaceOnUse" gradientTransform="translate(295.81 260.171) rotate(180) scale(361.081 76.609)">
<stop stop-color="#3D3991" stop-opacity="0.44"/>
<stop offset="1" stop-color="#2F286F" stop-opacity="0.17"/>
</radialGradient>
<radialGradient id="paint80_radial_167_5030" cx="0" cy="0" r="1" gradientUnits="userSpaceOnUse" gradientTransform="translate(295.81 260.171) rotate(180) scale(361.081 76.609)">
<stop stop-color="#3D3991" stop-opacity="0.44"/>
<stop offset="1" stop-color="#2F286F" stop-opacity="0.17"/>
</radialGradient>
<radialGradient id="paint81_radial_167_5030" cx="0" cy="0" r="1" gradientUnits="userSpaceOnUse" gradientTransform="translate(295.81 260.171) rotate(180) scale(361.081 76.609)">
<stop stop-color="#3D3991" stop-opacity="0.44"/>
<stop offset="1" stop-color="#2F286F" stop-opacity="0.17"/>
</radialGradient>
<radialGradient id="paint82_radial_167_5030" cx="0" cy="0" r="1" gradientUnits="userSpaceOnUse" gradientTransform="translate(295.81 260.171) rotate(180) scale(361.081 76.609)">
<stop stop-color="#3D3991" stop-opacity="0.44"/>
<stop offset="1" stop-color="#2F286F" stop-opacity="0.17"/>
</radialGradient>
<radialGradient id="paint83_radial_167_5030" cx="0" cy="0" r="1" gradientUnits="userSpaceOnUse" gradientTransform="translate(295.81 260.171) rotate(180) scale(361.081 76.609)">
<stop stop-color="#3D3991" stop-opacity="0.44"/>
<stop offset="1" stop-color="#2F286F" stop-opacity="0.17"/>
</radialGradient>
<radialGradient id="paint84_radial_167_5030" cx="0" cy="0" r="1" gradientUnits="userSpaceOnUse" gradientTransform="translate(295.81 260.171) rotate(180) scale(361.081 76.609)">
<stop stop-color="#3D3991" stop-opacity="0.44"/>
<stop offset="1" stop-color="#2F286F" stop-opacity="0.17"/>
</radialGradient>
<radialGradient id="paint85_radial_167_5030" cx="0" cy="0" r="1" gradientUnits="userSpaceOnUse" gradientTransform="translate(295.81 260.171) rotate(180) scale(361.081 76.609)">
<stop stop-color="#3D3991" stop-opacity="0.44"/>
<stop offset="1" stop-color="#2F286F" stop-opacity="0.17"/>
</radialGradient>
<radialGradient id="paint86_radial_167_5030" cx="0" cy="0" r="1" gradientUnits="userSpaceOnUse" gradientTransform="translate(295.81 260.171) rotate(180) scale(361.081 76.609)">
<stop stop-color="#3D3991" stop-opacity="0.44"/>
<stop offset="1" stop-color="#2F286F" stop-opacity="0.17"/>
</radialGradient>
<radialGradient id="paint87_radial_167_5030" cx="0" cy="0" r="1" gradientUnits="userSpaceOnUse" gradientTransform="translate(295.81 260.171) rotate(180) scale(361.081 76.609)">
<stop stop-color="#3D3991" stop-opacity="0.44"/>
<stop offset="1" stop-color="#2F286F" stop-opacity="0.17"/>
</radialGradient>
<radialGradient id="paint88_radial_167_5030" cx="0" cy="0" r="1" gradientUnits="userSpaceOnUse" gradientTransform="translate(295.81 260.171) rotate(180) scale(361.081 76.609)">
<stop stop-color="#3D3991" stop-opacity="0.44"/>
<stop offset="1" stop-color="#2F286F" stop-opacity="0.17"/>
</radialGradient>
<radialGradient id="paint89_radial_167_5030" cx="0" cy="0" r="1" gradientUnits="userSpaceOnUse" gradientTransform="translate(295.81 260.171) rotate(180) scale(361.081 76.609)">
<stop stop-color="#3D3991" stop-opacity="0.44"/>
<stop offset="1" stop-color="#2F286F" stop-opacity="0.17"/>
</radialGradient>
<radialGradient id="paint90_radial_167_5030" cx="0" cy="0" r="1" gradientUnits="userSpaceOnUse" gradientTransform="translate(295.81 260.171) rotate(180) scale(361.081 76.609)">
<stop stop-color="#3D3991" stop-opacity="0.44"/>
<stop offset="1" stop-color="#2F286F" stop-opacity="0.17"/>
</radialGradient>
<radialGradient id="paint91_radial_167_5030" cx="0" cy="0" r="1" gradientUnits="userSpaceOnUse" gradientTransform="translate(295.81 260.171) rotate(180) scale(361.081 76.609)">
<stop stop-color="#3D3991" stop-opacity="0.44"/>
<stop offset="1" stop-color="#2F286F" stop-opacity="0.17"/>
</radialGradient>
<radialGradient id="paint92_radial_167_5030" cx="0" cy="0" r="1" gradientUnits="userSpaceOnUse" gradientTransform="translate(295.81 260.171) rotate(180) scale(361.081 76.609)">
<stop stop-color="#3D3991" stop-opacity="0.44"/>
<stop offset="1" stop-color="#2F286F" stop-opacity="0.17"/>
</radialGradient>
<radialGradient id="paint93_radial_167_5030" cx="0" cy="0" r="1" gradientUnits="userSpaceOnUse" gradientTransform="translate(295.81 260.171) rotate(180) scale(361.081 76.609)">
<stop stop-color="#3D3991" stop-opacity="0.44"/>
<stop offset="1" stop-color="#2F286F" stop-opacity="0.17"/>
</radialGradient>
<radialGradient id="paint94_radial_167_5030" cx="0" cy="0" r="1" gradientUnits="userSpaceOnUse" gradientTransform="translate(295.81 260.171) rotate(180) scale(361.081 76.609)">
<stop stop-color="#3D3991" stop-opacity="0.44"/>
<stop offset="1" stop-color="#2F286F" stop-opacity="0.17"/>
</radialGradient>
<radialGradient id="paint95_radial_167_5030" cx="0" cy="0" r="1" gradientUnits="userSpaceOnUse" gradientTransform="translate(295.81 260.171) rotate(180) scale(361.081 76.609)">
<stop stop-color="#3D3991" stop-opacity="0.44"/>
<stop offset="1" stop-color="#2F286F" stop-opacity="0.17"/>
</radialGradient>
<radialGradient id="paint96_radial_167_5030" cx="0" cy="0" r="1" gradientUnits="userSpaceOnUse" gradientTransform="translate(295.81 260.171) rotate(180) scale(361.081 76.609)">
<stop stop-color="#3D3991" stop-opacity="0.44"/>
<stop offset="1" stop-color="#2F286F" stop-opacity="0.17"/>
</radialGradient>
<radialGradient id="paint97_radial_167_5030" cx="0" cy="0" r="1" gradientUnits="userSpaceOnUse" gradientTransform="translate(295.81 260.171) rotate(180) scale(361.081 76.609)">
<stop stop-color="#3D3991" stop-opacity="0.44"/>
<stop offset="1" stop-color="#2F286F" stop-opacity="0.17"/>
</radialGradient>
<radialGradient id="paint98_radial_167_5030" cx="0" cy="0" r="1" gradientUnits="userSpaceOnUse" gradientTransform="translate(295.81 260.171) rotate(180) scale(361.081 76.609)">
<stop stop-color="#3D3991" stop-opacity="0.44"/>
<stop offset="1" stop-color="#2F286F" stop-opacity="0.17"/>
</radialGradient>
<radialGradient id="paint99_radial_167_5030" cx="0" cy="0" r="1" gradientUnits="userSpaceOnUse" gradientTransform="translate(295.81 260.171) rotate(180) scale(361.081 76.609)">
<stop stop-color="#3D3991" stop-opacity="0.44"/>
<stop offset="1" stop-color="#2F286F" stop-opacity="0.17"/>
</radialGradient>
</defs>
</svg>
