<?xml version="1.0" encoding="utf-8"?>
<!-- Generator: Adobe Illustrator 23.0.5, SVG Export Plug-In . SVG Version: 6.00 Build 0)  -->
<svg version="1.1" id="Слой_1" xmlns="http://www.w3.org/2000/svg" xmlns:xlink="http://www.w3.org/1999/xlink" x="0px" y="0px"
	 viewBox="0 0 23 23" enable-background="new 0 0 23 23" xml:space="preserve">
<g>
	<path fill-rule="evenodd" clip-rule="evenodd" fill="#FFFFFF" d="M9.3,6.5v3.4h4.9c0.9,0,1.6-0.7,1.6-1.5V8.1
		c0-0.9-0.7-1.5-1.6-1.5H10L9.3,6.5L9.3,6.5z M16.5,15.1v-0.3c0-1-0.8-1.8-1.8-1.8h-0.4H9.4v3.8h5.4C15.7,16.8,16.5,16.1,16.5,15.1z
		 M18.1,11.2c1,0.9,1.6,2.1,1.6,3.6v0.3c0,2.7-2.2,4.9-4.9,4.9h-0.1v1.4h-3.1V20h-1.4v1.4H7V20H6.2H4.7v-3.1h1.6v-3.8V10V6.6H4.6
		V3.5h2.3V1.7H10v1.8h1.3V1.7h3.1v1.8C17,3.6,19,5.6,19,8.1v0.3C19.1,9.4,18.7,10.4,18.1,11.2z"/>
</g>
</svg>
