<svg width="34" height="34" viewBox="0 0 34 34" fill="none" xmlns="http://www.w3.org/2000/svg"><g opacity=".22" fill="#CDCFFF"><path d="M15.745 17.2l1.054 1.054c.11.11.29.11.4 0l1.055-1.054c.11-.11.11-.29 0-.4L17.2 15.744a.283.283 0 00-.4 0L15.744 16.8c-.11.11-.11.29 0 .4zm8.085 0l1.053 1.054c.11.11.29.11.4 0l1.055-1.054c.11-.11.11-.29 0-.4l-1.054-1.055a.283.283 0 00-.4 0L23.828 16.8c-.11.11-.11.29 0 .4zm-16.168 0l1.054 1.054c.11.11.29.11.4 0l1.055-1.054c.11-.11.11-.29 0-.4l-1.054-1.055a.283.283 0 00-.4 0L7.661 16.8c-.11.11-.11.29 0 .4zm9.738 6.028a.567.567 0 01-.801 0l-3.441-3.44a.283.283 0 00-.4 0l-1.055 1.054c-.11.11-.11.29 0 .4l5.096 5.096c.11.11.29.11.4 0l5.096-5.096c.11-.11.11-.29 0-.4l-1.054-1.054a.283.283 0 00-.4 0l-3.441 3.44z"/><path d="M29.018 4.981c-6.64-6.64-17.408-6.647-24.05.012-6.623 6.642-6.63 17.382.013 24.025 6.643 6.643 17.405 6.646 24.047-.011 6.627-6.642 6.633-17.383-.01-24.026zM17 31.021c-7.732 0-14.022-6.29-14.022-14.021C2.978 9.268 9.268 2.978 17 2.978c7.416 0 13.52 5.766 13.992 13.108.522 8.225-6.003 14.936-13.992 14.936z"/><path d="M17 4.11C9.893 4.11 4.111 9.894 4.111 17s5.782 12.889 12.89 12.889a12.879 12.879 0 0012.86-13.73C29.428 9.402 23.779 4.11 17.002 4.11zm-6.698 8.447l6.297-6.297a.567.567 0 01.802 0l6.297 6.297a.567.567 0 010 .802l-2.255 2.255a.567.567 0 01-.802 0l-3.44-3.44a.283.283 0 00-.401 0l-3.441 3.44a.567.567 0 01-.801 0l-2.256-2.255a.566.566 0 010-.802zm9.355 4.843L17.4 19.656a.567.567 0 01-.802 0L14.345 17.4a.567.567 0 010-.801l2.255-2.256a.567.567 0 01.802 0l2.256 2.256a.567.567 0 010 .801zM8.516 19.656L6.26 17.4a.567.567 0 010-.8l2.256-2.257a.566.566 0 01.801 0l2.256 2.256a.567.567 0 010 .801l-2.256 2.256a.567.567 0 01-.801 0zm15.182 1.786l-6.297 6.298a.567.567 0 01-.802 0l-6.297-6.298a.567.567 0 010-.801l2.256-2.256a.566.566 0 01.8 0l3.442 3.44c.11.111.29.111.4 0l3.441-3.44a.567.567 0 01.802 0l2.255 2.256a.567.567 0 010 .801zM27.74 17.4l-2.256 2.256a.567.567 0 01-.8 0L22.426 17.4a.567.567 0 010-.801l2.256-2.256a.566.566 0 01.801 0L27.74 16.6a.567.567 0 010 .801z"/><path d="M16.6 10.772a.567.567 0 01.8 0l3.442 3.44c.11.111.29.111.4 0l1.054-1.053a.285.285 0 000-.401L17.2 7.662a.283.283 0 00-.4 0l-5.096 5.096c-.11.11-.11.29 0 .4l1.054 1.055c.11.11.29.11.4 0l3.441-3.441z"/></g></svg>