<svg width="34" height="34" viewBox="0 0 34 34" fill="none" xmlns="http://www.w3.org/2000/svg"><path opacity=".22" d="M13.32 16.732l-.294-.296a.355.355 0 00-.605.25v4.233c0 .196.16.355.356.355h4.234a.354.354 0 00.25-.605.354.354 0 010-.5l4.504-4.518a.353.353 0 000-.5l-.41-.409a.355.355 0 01.25-.605h4.232c.195 0 .356.159.356.354v4.233a.356.356 0 01-.608.25l-.285-.285a.346.346 0 00-.5 0l-7.592 7.59a.355.355 0 01-.502 0l-9.289-9.29a.354.354 0 010-.502l12.86-12.858a.356.356 0 000-.502L17.253.103a.356.356 0 00-.502 0L.103 16.75a.356.356 0 000 .502L16.75 33.897a.357.357 0 00.503 0l16.645-16.645a.356.356 0 000-.5l-9.793-9.793a.355.355 0 00-.501 0l-9.778 9.773a.355.355 0 01-.504 0z" fill="#CDCFFF"/></svg>