<svg width="439" height="437" viewBox="0 0 439 437" fill="none" xmlns="http://www.w3.org/2000/svg"><path d="M198.352 435.631l-44.595-8.759s-.136 0-.136-.137v-.136l2.325-3.696-40.218-12.044-49.656-36.679-40.628-54.471v-.136l.137-.137 10.123.273-29.822-53.102v-.137l31.326-106.342-35.566 38.185h-.137l-.137-.137L13.132 144.8 64.43 61.862l52.393-36.816 59.916-21.624 70.723-2.053 53.35 12.18 36.797 20.94 41.586 35.037 34.746 50.228 11.764 29.973v.137h-.137l-11.627-12.592-.137 23.541 18.057 8.211s.137 0 .137.137l5.198 38.185-13.816 58.029 7.797 4.243s.137.137 0 .137l-22.024 55.566-38.85 51.049-46.236 33.394-50.614 20.119h-.137l-4.651-8.622-19.015 3.969-3.146 9.854-.137.137-48.015.41zm50.888-10.401l-49.383 10.128 46.374-.548 3.009-9.58zm-92.884-2.464l41.86 12.592-5.472-35.995-24.486 3.558-11.902 19.845zm95.893-32.025l-53.349 44.48 50.477-10.402 7.934-24.772-5.062-9.306zm-59.232 8.622l5.472 35.858 53.35-44.48-58.822 8.622zm-38.986 27.236l41.586 8.211-39.397-11.907-2.189 3.696zm114.771-5.475l4.514 8.485 49.109-19.434-53.623 10.949zm-11.354-20.666l-7.798 24.361 18.741-3.832-10.943-20.529zm-141.036 10.265l39.671 11.906 11.764-19.708-17.646 2.601-33.789 5.201zm141.172-10.539l11.218 20.803 54.717-11.223-63.609-16.97-2.326 7.39zM106.7 389.235l9.302 21.351 33.925-5.201-43.227-16.15zm-39.67-14.781l48.562 35.858-9.166-21.214-39.396-14.644zm192.88 18.066l63.746 16.971-13.816-25.73-49.109 5.885-.821 2.874zm70.86-11.36l-6.567 28.194 45.553-32.847-38.986 4.653zm-20.52 2.601l13.68 25.593 6.566-28.057-20.246 2.464zm-170.993-35.584l11.217 56.934 17.647-2.6 19.972-33.394-48.836-20.94zm-32.694 40.784l43.638 16.287-11.217-57.071-61.695-26.552 29.274 67.336zm81.667-19.297l-19.836 32.984 24.213-3.559-4.377-29.425zm64.293 21.214l4.788 9.032 2.325-7.116-7.113-1.916zm-64.02-21.488l4.514 29.562 58.685-8.485-63.199-21.077zm64.43 21.214l6.703 1.779.821-2.737-7.524.958zm26.539-60.219l-27.086 59.945 8.208-.958 18.878-58.987zm-90.695 38.868l63.199 21.077-24.213-38.458-38.986 17.381zm39.123-17.518l24.213 38.595 27.906-61.861-52.119 23.266zm52.529-23.266l-19.425 60.903 48.836-5.885-29.411-55.018zM66.346 373.907l39.944 14.781-29.138-67.063-10.806 52.282zm214.357-45.438l29.411 54.881 20.382-2.463 5.335-22.856-55.128-29.562zm55.402 29.699l-5.335 22.719 38.986-4.654-33.651-18.065zm.136-.274l33.925 18.202-2.325-49.544-24.213.548-7.387 30.794zm31.737-31.342l2.325 49.134 18.331-49.544-20.656.41zm20.929-.41l-18.193 49.407 38.165-49.818-19.972.411zm-352.793-6.159l29.821 53.376-7.113-52.555-22.708-.821zm22.982.821l6.976 52.418 10.67-51.87-17.647-.548zm-33.242-1.095l39.124 52.555-29.274-52.281-9.85-.274zm113.266 28.194l49.11 21.214 12.585-59.809-67.987 6.706 6.292 31.889zm61.968-38.458L188.64 368.98l38.986-17.382-26.538-42.153zm79.752 18.887l54.991 29.425 7.25-30.794-62.241 1.369zm-79.615-19.024l26.538 42.29 52.119-23.266-78.657-19.024zM77.563 321.352l61.284 26.414-6.293-31.889-54.991 5.475zm285.901-81.159l-82.761 87.865 62.515-1.232 20.246-86.633zm-162.376 68.704l79.068 19.024-36.114-109.216-42.954 90.192zm43.227-90.329l36.114 109.216 29.274-97.445-65.388-11.771zm65.525 11.634l-29.274 97.445 82.761-87.865-53.487-9.58zm53.76 10.538l-20.108 86.086 24.212-.547-4.104-85.539zm.274-.411l4.104 85.95 20.793-.411 8.344-22.582-33.241-62.957zm33.378 63.231l-8.208 22.308 19.835-.41-11.627-21.898zm.137-.411l11.627 21.898 3.967-63.778-15.594 41.88zm15.868-42.701l-3.967 63.367 13.816-58.166-9.849-5.201zm10.123 5.475l-13.68 57.755 21.34-53.649-7.66-4.106zM59.096 320.531l17.51.547L57.18 306.16l1.916 14.371zm58.411-81.433l-40.218 81.98 55.265-5.474-15.047-76.506zM57.18 305.749l19.699 15.192-2.326-71.442-24.076 6.022 6.703 50.228zm17.647-56.25l2.325 71.168 40.081-81.843-42.406 10.675zm-38.85 70.21l22.845.822-1.915-14.645-50.34-38.868 29.41 52.691zm81.803-80.748l15.048 76.643 67.85-6.707-82.898-69.936zm.137-.274l83.034 70.073 42.954-90.328-125.988 20.255zM6.43 266.607l50.477 38.869-6.703-49.818L6.43 266.607zm357.581-26.551l33.241 62.819 15.731-42.427-48.972-20.392zm-326.53-79.791L6.294 266.333l43.91-10.949-12.721-95.119zm375.913 99.909l9.849 5.338 13.406-56.661-23.255 51.323zm-49.383-20.392l48.972 20.392.274-41.879-49.246 21.487zm49.519-21.761l-.273 41.606 23.528-51.734-23.255 10.128zM37.619 159.992l12.722 95.392 24.075-6.022-1.778-54.744-35.02-34.626zm35.293 34.762l1.778 54.335 42.543-10.676-44.321-43.659zm237.065 35.311l53.487 9.58-38.029-60.903-15.458 51.323zm89.463-75.274l-35.566 84.717 49.383-21.624.273-56.798-14.09-6.295zm-58.684-26.962l22.981 111.406 35.567-84.718-58.548-26.688zm-15.321 50.365l37.892 60.767-22.845-110.858-15.047 50.091zm-119.969-18.613l-87.549 78.832 125.851-20.118-38.302-58.714zm-132.554 34.9l44.458 43.932 6.566-86.496-52.529-3.285 1.505 45.849zm51.298-42.701l-6.566 86.497 87.685-78.97-10.26-15.602-70.859 8.075zm120.242 66.515l65.251 11.633 15.458-51.734-14.09-22.719-66.619 62.82zm34.199-114.554l-34.336 114.143 66.483-62.546-32.147-51.597zm-51.435 36.269l16.826 77.874 34.335-114.006-51.161 36.132zm186.588 21.213l-.274 56.524 23.392-10.264-5.198-38.048-17.92-8.212zm-208.065-1.916l38.166 58.303-16.826-77.463-21.34 19.16zm-192.333-14.37L1.78 197.765l35.566-38.321 3.557-12.865-27.496-1.642zm24.213 14.644l35.02 34.626-1.506-45.712-26.4-1.642-7.114 12.728zm273.589-4.243l14.09 22.582 14.91-49.817-29 27.235zm88.369-.821l13.953 6.433.137-23.678-4.651-5.063-9.439 22.308zm-204.234-10.812l10.123 15.465 21.203-19.023-31.326 3.558zm-154.168 3.011l-3.283 11.907 6.566-11.633-3.283-.274zm237.886-42.975l32.147 51.46 29.137-27.509-61.284-23.951zm61.968 23.951l58.275 26.688 9.439-22.582-9.303-10.128-58.411 6.022zM71.407 148.221l52.256 3.285-53.76-48.586 1.504 45.301zm91.926-53.102l-38.986 56.387 70.586-8.075-31.6-48.312zm-93.294 7.527l53.76 48.723-3.009-52.828-50.75 4.105zm51.161-4.242l3.01 52.828 38.849-56.25-41.859 3.422zm292.741 38.595l11.217 12.317-11.217-28.604v16.287zm-368.935 9.58l26.127 1.642-1.504-45.164-24.623 43.522zm-3.694-.137l3.42.274 24.623-43.522-20.246 14.918-7.797 28.33zm-27.632-1.779l27.359 1.642 7.797-27.919-35.156 26.277zM64.157 62.82l-50.34 81.432 35.019-26.277 15.32-55.155zm99.723 32.573l31.463 48.038 31.463-3.558-62.926-44.48zm48.152 3.148l15.047 41.058 51.161-36.131-66.208-4.927zm-48.289-3.559l63.063 44.48-15.048-40.921-48.015-3.559zm245.41 36.816l4.514 4.927.137-16.013-4.651 11.086zm-9.302-10.265l9.165 9.991 4.788-11.359-13.953 1.368zm-32.01-34.489l-26.949 40.374 58.412-6.158-31.463-34.216zm-88.917 16.287l61.421 24.087-10.396-75.274-51.025 51.187zm51.298-51.187l10.397 75.138 26.948-40.375L351.973 69.8l-21.751-17.656zm37.756 34.627l31.599 34.489 13.953-1.506-43.911-35.72-1.641 2.736zm1.915-2.738l43.364 35.311-34.062-49.27-9.302 13.96zM64.567 62.546L49.247 117.7l20.382-15.328-5.062-39.827zm147.328 35.72l66.482 4.928-38.713-77.053L198.9 62.957l12.995 35.31zm28.043-72.125l38.713 76.916 17.783-71.853-56.496-5.063zm56.633 5.064l-17.647 71.852 51.025-51.186-14.637-19.024-18.741-1.643zM118.328 52.691l-48.152 49.681 50.751-4.243-2.599-45.438zm-53.624 9.306l5.198 40.101 27.906-45.986L64.704 62zm33.515-5.885l-27.77 45.439 47.605-48.997-19.835 3.558zm65.388 38.595l48.014 3.559-12.995-35.174-35.019 31.615zm-45.006-42.016L121.2 98.13l41.859-3.422-44.458-42.016zm.137-.274l44.595 42.154 10.123-68.431-38.576 12.728-16.142 13.55zm54.991-26.414l-10.122 68.43 35.156-31.614-14.774-40.1-10.26 3.284zm179.612 44.89l14.363 15.74 1.778-2.6-16.141-13.14zm-1.231-1.368l17.509 14.234 9.302-13.96-39.944-14.645 13.133 14.37zm-13.543-14.781l39.944 14.644-40.902-34.49-5.608 12.729 6.566 7.117zm-7.797-2.464l19.972 16.15-12.175-13.412-7.797-2.738zM184.126 22.582L198.9 62.546l40.491-36.542-31.463-11.36-23.802 7.938zm-67.714 3.011L65.388 61.451l36.524-12.044 14.5-23.814zm-14.637 24.225L66.482 61.45l31.6-5.611 3.693-6.022zm.274-.137l-3.694 6.159 19.973-3.559-.411-7.8-15.868 5.2zm228.173 2.053l7.798 2.874-6.156-6.706-1.642 3.832zm-212.031-7.39l.41 7.8 15.458-13.002-15.868 5.201zm197.531-11.497l14.364 18.613 1.641-3.832-13.406-14.507-2.599-.274zm-198.899-7.39l-14.5 23.813 15.594-5.064-1.094-18.75zm201.909 7.664l13.132 14.233 5.472-12.591-18.604-1.642zm-201.636-7.938l1.095 18.887 16.552-5.475 41.585-34.9-59.232 21.488zm59.643-21.488l-41.312 34.763 38.029-12.591 3.283-22.172zm141.719 29.152l18.467 1.642-35.429-20.255 16.962 18.613zm-3.009-.274l2.599.274-15.321-16.697 12.722 16.423zm-18.741-1.642l18.467 1.642-14.227-18.476-4.24 16.834zm-56.086-5.064l55.812 4.927 4.241-16.97-60.053 12.043zm-32.147-11.223l31.189 11.223 7.661-23.95-38.85 12.727zM247.462 1.78l-7.661 24.088 60.19-12.044L247.462 1.78zm-70.45 2.19l-3.283 21.761 9.986-3.285-6.703-18.476zm.137-.41l6.84 18.75 23.529-7.802-30.369-10.949zm.547 0l30.369 10.948L246.504 1.78l-68.808 1.78z" fill="url(#paint0_linear_82_20427)"/><path d="M164.838 94.845a1.52 1.52 0 00-1.505-1.506c-.821 0-1.505.685-1.505 1.506s.684 1.505 1.505 1.505c.821 0 1.505-.684 1.505-1.505z" fill="url(#paint1_linear_82_20427)"/><path d="M415.445 119.891a1.52 1.52 0 00-1.505-1.506c-.82 0-1.504.685-1.504 1.506s.684 1.505 1.504 1.505c.821.137 1.505-.547 1.505-1.505z" fill="url(#paint2_linear_82_20427)"/><path d="M427.21 150.001c0-.822-.684-1.506-1.505-1.506-.821 0-1.505.684-1.505 1.506 0 .821.684 1.505 1.505 1.505.821 0 1.505-.684 1.505-1.505z" fill="url(#paint3_linear_82_20427)"/><path d="M302.316 13.686c0-.821-.684-1.505-1.505-1.505-.82 0-1.504.684-1.504 1.505 0 .821.684 1.506 1.504 1.506.821.136 1.505-.548 1.505-1.506z" fill="url(#paint4_linear_82_20427)"/><path d="M248.966 1.505c0-.82-.684-1.505-1.505-1.505-.821 0-1.505.684-1.505 1.505 0 .822.684 1.506 1.505 1.506.821.137 1.505-.547 1.505-1.506z" fill="url(#paint5_linear_82_20427)"/><path d="M66.072 61.861c0-.82-.684-1.505-1.505-1.505-.82 0-1.504.684-1.504 1.505 0 .822.683 1.506 1.504 1.506.821.137 1.505-.547 1.505-1.506z" fill="url(#paint6_linear_82_20427)"/><path d="M38.987 159.581c0-.821-.684-1.505-1.505-1.505-.82 0-1.505.684-1.505 1.505a1.52 1.52 0 001.505 1.506 1.52 1.52 0 001.505-1.506z" fill="url(#paint7_linear_82_20427)"/><path d="M71.27 102.51c0-.821-.684-1.506-1.504-1.506a1.52 1.52 0 00-1.505 1.506c0 .821.684 1.505 1.505 1.505.82.137 1.504-.547 1.504-1.505z" fill="url(#paint8_linear_82_20427)"/><path d="M78.657 321.215a1.52 1.52 0 00-1.505-1.506c-.82 0-1.505.685-1.505 1.506s.684 1.505 1.505 1.505c.684 0 1.505-.684 1.505-1.505z" fill="url(#paint9_linear_82_20427)"/><path d="M189.871 369.253c0-.821-.684-1.505-1.505-1.505-.821 0-1.505.684-1.505 1.505 0 .821.684 1.505 1.505 1.505.821 0 1.505-.684 1.505-1.505z" fill="url(#paint10_linear_82_20427)"/><path d="M202.456 309.034c0-.821-.684-1.505-1.505-1.505-.821 0-1.505.684-1.505 1.505a1.52 1.52 0 001.505 1.506 1.52 1.52 0 001.505-1.506z" fill="url(#paint11_linear_82_20427)"/><path d="M78.657 321.215a1.52 1.52 0 00-1.505-1.506c-.82 0-1.505.685-1.505 1.506s.684 1.505 1.505 1.505c.684 0 1.505-.684 1.505-1.505z" fill="url(#paint12_linear_82_20427)"/><path d="M119.148 238.687c0-.821-.684-1.505-1.505-1.505-.82 0-1.504.684-1.504 1.505 0 .821.684 1.506 1.504 1.506.684 0 1.505-.685 1.505-1.506z" fill="url(#paint13_linear_82_20427)"/><path d="M151.842 405.385a1.52 1.52 0 00-1.505-1.506 1.52 1.52 0 00-1.505 1.506c0 .821.684 1.505 1.505 1.505.821 0 1.505-.684 1.505-1.505z" fill="url(#paint14_linear_82_20427)"/><path d="M253.754 390.604c0-.821-.684-1.505-1.505-1.505-.821 0-1.505.684-1.505 1.505a1.52 1.52 0 001.505 1.506 1.52 1.52 0 001.505-1.506z" fill="url(#paint15_linear_82_20427)"/><path d="M199.994 435.495a1.52 1.52 0 00-1.505-1.506 1.52 1.52 0 00-1.505 1.506c0 .821.684 1.505 1.505 1.505.821 0 1.505-.684 1.505-1.505z" fill="url(#paint16_linear_82_20427)"/><path d="M189.871 369.253c0-.821-.684-1.505-1.505-1.505-.821 0-1.505.684-1.505 1.505 0 .821.684 1.505 1.505 1.505.821 0 1.505-.684 1.505-1.505z" fill="url(#paint17_linear_82_20427)"/><path d="M155.398 426.735c0-.821-.684-1.505-1.505-1.505-.82 0-1.504.684-1.504 1.505 0 .822.684 1.506 1.504 1.506.821 0 1.505-.684 1.505-1.506z" fill="url(#paint18_linear_82_20427)"/><path d="M199.994 435.495a1.52 1.52 0 00-1.505-1.506 1.52 1.52 0 00-1.505 1.506c0 .821.684 1.505 1.505 1.505.821 0 1.505-.684 1.505-1.505z" fill="url(#paint19_linear_82_20427)"/><path d="M117.37 410.723a1.52 1.52 0 00-1.505-1.506 1.52 1.52 0 00-1.505 1.506c0 .821.684 1.505 1.505 1.505.821 0 1.505-.684 1.505-1.505z" fill="url(#paint20_linear_82_20427)"/><path d="M151.842 405.385a1.52 1.52 0 00-1.505-1.506 1.52 1.52 0 00-1.505 1.506c0 .821.684 1.505 1.505 1.505.821 0 1.505-.684 1.505-1.505z" fill="url(#paint21_linear_82_20427)"/><path d="M67.714 374.044c0-.822-.684-1.506-1.505-1.506a1.52 1.52 0 00-1.505 1.506c0 .821.684 1.505 1.505 1.505.82 0 1.505-.684 1.505-1.505z" fill="url(#paint22_linear_82_20427)"/><path d="M117.37 410.723a1.52 1.52 0 00-1.505-1.506 1.52 1.52 0 00-1.505 1.506c0 .821.684 1.505 1.505 1.505.821 0 1.505-.684 1.505-1.505z" fill="url(#paint23_linear_82_20427)"/><path d="M78.657 321.215a1.52 1.52 0 00-1.505-1.506c-.82 0-1.505.685-1.505 1.506s.684 1.505 1.505 1.505c.684 0 1.505-.684 1.505-1.505z" fill="url(#paint24_linear_82_20427)"/><path d="M67.714 374.044c0-.822-.684-1.506-1.505-1.506a1.52 1.52 0 00-1.505 1.506c0 .821.684 1.505 1.505 1.505.82 0 1.505-.684 1.505-1.505z" fill="url(#paint25_linear_82_20427)"/><path d="M27.085 319.572c0-.821-.684-1.505-1.505-1.505-.82 0-1.505.684-1.505 1.505 0 .822.684 1.506 1.505 1.506a1.52 1.52 0 001.505-1.506z" fill="url(#paint26_linear_82_20427)"/><path d="M78.657 321.215a1.52 1.52 0 00-1.505-1.506c-.82 0-1.505.685-1.505 1.506s.684 1.505 1.505 1.505c.684 0 1.505-.684 1.505-1.505z" fill="url(#paint27_linear_82_20427)"/><path d="M7.66 266.607c0-.822-.683-1.506-1.504-1.506a1.52 1.52 0 00-1.505 1.506c0 .821.684 1.505 1.505 1.505.82 0 1.505-.684 1.505-1.505z" fill="url(#paint28_linear_82_20427)"/><path d="M67.714 374.044c0-.822-.684-1.506-1.505-1.506a1.52 1.52 0 00-1.505 1.506c0 .821.684 1.505 1.505 1.505.82 0 1.505-.684 1.505-1.505z" fill="url(#paint29_linear_82_20427)"/><path d="M38.987 159.581c0-.821-.684-1.505-1.505-1.505-.82 0-1.505.684-1.505 1.505a1.52 1.52 0 001.505 1.506 1.52 1.52 0 001.505-1.506z" fill="url(#paint30_linear_82_20427)"/><path d="M119.148 238.687c0-.821-.684-1.505-1.505-1.505-.82 0-1.504.684-1.504 1.505 0 .821.684 1.506 1.504 1.506.684 0 1.505-.685 1.505-1.506z" fill="url(#paint31_linear_82_20427)"/><path d="M7.66 266.607c0-.822-.683-1.506-1.504-1.506a1.52 1.52 0 00-1.505 1.506c0 .821.684 1.505 1.505 1.505.82 0 1.505-.684 1.505-1.505z" fill="url(#paint32_linear_82_20427)"/><path d="M38.987 159.581c0-.821-.684-1.505-1.505-1.505-.82 0-1.505.684-1.505 1.505a1.52 1.52 0 001.505 1.506 1.52 1.52 0 001.505-1.506z" fill="url(#paint33_linear_82_20427)"/><path d="M3.146 198.176c0-.821-.684-1.506-1.504-1.506-.821 0-1.642.685-1.642 1.506s.684 1.505 1.505 1.505c.82 0 1.641-.547 1.641-1.505z" fill="url(#paint34_linear_82_20427)"/><path d="M14.91 144.8c0-.821-.683-1.506-1.504-1.506-.82 0-1.505.685-1.505 1.506s.684 1.505 1.505 1.505c.82.137 1.505-.684 1.505-1.505z" fill="url(#paint35_linear_82_20427)"/><path d="M125.577 151.643a1.52 1.52 0 00-1.505-1.506 1.52 1.52 0 00-1.505 1.506c0 .821.684 1.505 1.505 1.505.821 0 1.505-.684 1.505-1.505z" fill="url(#paint36_linear_82_20427)"/><path d="M119.148 238.687c0-.821-.684-1.505-1.505-1.505-.82 0-1.504.684-1.504 1.505 0 .821.684 1.506 1.504 1.506.684 0 1.505-.685 1.505-1.506z" fill="url(#paint37_linear_82_20427)"/><path d="M202.456 309.034c0-.821-.684-1.505-1.505-1.505-.821 0-1.505.684-1.505 1.505a1.52 1.52 0 001.505 1.506 1.52 1.52 0 001.505-1.506z" fill="url(#paint38_linear_82_20427)"/><path d="M253.754 390.604c0-.821-.684-1.505-1.505-1.505-.821 0-1.505.684-1.505 1.505a1.52 1.52 0 001.505 1.506 1.52 1.52 0 001.505-1.506z" fill="url(#paint39_linear_82_20427)"/><path d="M189.871 369.253c0-.821-.684-1.505-1.505-1.505-.821 0-1.505.684-1.505 1.505 0 .821.684 1.505 1.505 1.505.821 0 1.505-.684 1.505-1.505z" fill="url(#paint40_linear_82_20427)"/><path d="M281.933 328.195c0-.821-.684-1.506-1.504-1.506a1.52 1.52 0 00-1.505 1.506c0 .821.684 1.505 1.505 1.505.82 0 1.504-.684 1.504-1.505z" fill="url(#paint41_linear_82_20427)"/><path d="M202.456 309.034c0-.821-.684-1.505-1.505-1.505-.821 0-1.505.684-1.505 1.505a1.52 1.52 0 001.505 1.506 1.52 1.52 0 001.505-1.506z" fill="url(#paint42_linear_82_20427)"/><path d="M245.683 218.432c0-.821-.684-1.506-1.504-1.506a1.52 1.52 0 00-1.505 1.506c0 .821.684 1.505 1.505 1.505.82 0 1.504-.684 1.504-1.505z" fill="url(#paint43_linear_82_20427)"/><path d="M119.148 238.687c0-.821-.684-1.505-1.505-1.505-.82 0-1.504.684-1.504 1.505 0 .821.684 1.506 1.504 1.506.684 0 1.505-.685 1.505-1.506z" fill="url(#paint44_linear_82_20427)"/><path d="M228.584 139.873c0-.821-.684-1.505-1.505-1.505-.821 0-1.505.684-1.505 1.505a1.52 1.52 0 001.505 1.506c.821 0 1.505-.548 1.505-1.506z" fill="url(#paint45_linear_82_20427)"/><path d="M125.577 151.643a1.52 1.52 0 00-1.505-1.506 1.52 1.52 0 00-1.505 1.506c0 .821.684 1.505 1.505 1.505.821 0 1.505-.684 1.505-1.505z" fill="url(#paint46_linear_82_20427)"/><path d="M71.27 102.51c0-.821-.684-1.506-1.504-1.506a1.52 1.52 0 00-1.505 1.506c0 .821.684 1.505 1.505 1.505.82.137 1.504-.547 1.504-1.505z" fill="url(#paint47_linear_82_20427)"/><path d="M14.91 144.8c0-.821-.683-1.506-1.504-1.506-.82 0-1.505.685-1.505 1.506s.684 1.505 1.505 1.505c.82.137 1.505-.684 1.505-1.505z" fill="url(#paint48_linear_82_20427)"/><path d="M66.072 61.861c0-.82-.684-1.505-1.505-1.505-.82 0-1.504.684-1.504 1.505 0 .822.683 1.506 1.504 1.506.821.137 1.505-.547 1.505-1.506z" fill="url(#paint49_linear_82_20427)"/><path d="M71.27 102.51c0-.821-.684-1.506-1.504-1.506a1.52 1.52 0 00-1.505 1.506c0 .821.684 1.505 1.505 1.505.82.137 1.504-.547 1.504-1.505z" fill="url(#paint50_linear_82_20427)"/><path d="M164.838 94.845a1.52 1.52 0 00-1.505-1.506c-.821 0-1.505.685-1.505 1.506s.684 1.505 1.505 1.505c.821 0 1.505-.684 1.505-1.505z" fill="url(#paint51_linear_82_20427)"/><path d="M125.577 151.643a1.52 1.52 0 00-1.505-1.506 1.52 1.52 0 00-1.505 1.506c0 .821.684 1.505 1.505 1.505.821 0 1.505-.684 1.505-1.505z" fill="url(#paint52_linear_82_20427)"/><path d="M120.105 52.418c0-.821-.684-1.505-1.505-1.505-.82 0-1.504.684-1.504 1.505 0 .821.684 1.506 1.504 1.506a1.52 1.52 0 001.505-1.506z" fill="url(#paint53_linear_82_20427)"/><path d="M71.27 102.51c0-.821-.684-1.506-1.504-1.506a1.52 1.52 0 00-1.505 1.506c0 .821.684 1.505 1.505 1.505.82.137 1.504-.547 1.504-1.505z" fill="url(#paint54_linear_82_20427)"/><path d="M118.464 25.046c0-.822-.684-1.506-1.505-1.506-.821 0-1.505.684-1.505 1.506 0 .82.684 1.505 1.505 1.505.821.137 1.505-.684 1.505-1.505z" fill="url(#paint55_linear_82_20427)"/><path d="M66.072 61.861c0-.82-.684-1.505-1.505-1.505-.82 0-1.504.684-1.504 1.505 0 .822.683 1.506 1.504 1.506.821.137 1.505-.547 1.505-1.506z" fill="url(#paint56_linear_82_20427)"/><path d="M120.105 52.418c0-.821-.684-1.505-1.505-1.505-.82 0-1.504.684-1.504 1.505 0 .821.684 1.506 1.504 1.506a1.52 1.52 0 001.505-1.506z" fill="url(#paint57_linear_82_20427)"/><path d="M118.464 25.046c0-.822-.684-1.506-1.505-1.506-.821 0-1.505.684-1.505 1.506 0 .82.684 1.505 1.505 1.505.821.137 1.505-.684 1.505-1.505z" fill="url(#paint58_linear_82_20427)"/><path d="M178.517 3.421c0-.82-.684-1.505-1.504-1.505-.821 0-1.505.684-1.505 1.506 0 .82.684 1.505 1.505 1.505.82 0 1.504-.684 1.504-1.505z" fill="url(#paint59_linear_82_20427)"/><path d="M120.105 52.418c0-.821-.684-1.505-1.505-1.505-.82 0-1.504.684-1.504 1.505 0 .821.684 1.506 1.504 1.506a1.52 1.52 0 001.505-1.506z" fill="url(#paint60_linear_82_20427)"/><path d="M164.838 94.845a1.52 1.52 0 00-1.505-1.506c-.821 0-1.505.685-1.505 1.506s.684 1.505 1.505 1.505c.821 0 1.505-.684 1.505-1.505z" fill="url(#paint61_linear_82_20427)"/><path d="M245.683 218.432c0-.821-.684-1.506-1.504-1.506a1.52 1.52 0 00-1.505 1.506c0 .821.684 1.505 1.505 1.505.82 0 1.504-.684 1.504-1.505z" fill="url(#paint62_linear_82_20427)"/><path d="M281.933 328.195c0-.821-.684-1.506-1.504-1.506a1.52 1.52 0 00-1.505 1.506c0 .821.684 1.505 1.505 1.505.82 0 1.504-.684 1.504-1.505z" fill="url(#paint63_linear_82_20427)"/><path d="M247.872 434.947a1.52 1.52 0 00-1.505-1.506 1.52 1.52 0 00-1.505 1.506c0 .821.684 1.505 1.505 1.505.821 0 1.505-.684 1.505-1.505z" fill="url(#paint64_linear_82_20427)"/><path d="M199.994 435.495a1.52 1.52 0 00-1.505-1.506 1.52 1.52 0 00-1.505 1.506c0 .821.684 1.505 1.505 1.505.821 0 1.505-.684 1.505-1.505z" fill="url(#paint65_linear_82_20427)"/><path d="M323.93 411.27a1.505 1.505 0 10-.001-3.01 1.505 1.505 0 00.001 3.01z" fill="url(#paint66_linear_82_20427)"/><path d="M281.933 328.195c0-.821-.684-1.506-1.504-1.506a1.52 1.52 0 00-1.505 1.506c0 .821.684 1.505 1.505 1.505.82 0 1.504-.684 1.504-1.505z" fill="url(#paint67_linear_82_20427)"/><path d="M253.754 390.604c0-.821-.684-1.505-1.505-1.505-.821 0-1.505.684-1.505 1.505a1.52 1.52 0 001.505 1.506 1.52 1.52 0 001.505-1.506z" fill="url(#paint68_linear_82_20427)"/><path d="M274.82 429.746c0-.821-.684-1.505-1.505-1.505-.82 0-1.504.684-1.504 1.505 0 .821.684 1.506 1.504 1.506.821.137 1.505-.548 1.505-1.506z" fill="url(#paint69_linear_82_20427)"/><path d="M323.93 411.27a1.505 1.505 0 10-.001-3.01 1.505 1.505 0 00.001 3.01z" fill="url(#paint70_linear_82_20427)"/><path d="M253.754 390.604c0-.821-.684-1.505-1.505-1.505-.821 0-1.505.684-1.505 1.505a1.52 1.52 0 001.505 1.506 1.52 1.52 0 001.505-1.506z" fill="url(#paint71_linear_82_20427)"/><path d="M371.808 376.37c0-.821-.684-1.505-1.504-1.505-.821 0-1.505.684-1.505 1.505a1.52 1.52 0 001.505 1.506c.82 0 1.504-.685 1.504-1.506z" fill="url(#paint72_linear_82_20427)"/><path d="M365.242 239.782a1.52 1.52 0 00-1.505-1.506 1.52 1.52 0 00-1.505 1.506c0 .821.684 1.505 1.505 1.505.821 0 1.505-.684 1.505-1.505z" fill="url(#paint73_linear_82_20427)"/><path d="M323.93 411.27a1.505 1.505 0 10-.001-3.01 1.505 1.505 0 00.001 3.01z" fill="url(#paint74_linear_82_20427)"/><path d="M371.808 376.37c0-.821-.684-1.505-1.504-1.505-.821 0-1.505.684-1.505 1.505a1.52 1.52 0 001.505 1.506c.82 0 1.504-.685 1.504-1.506z" fill="url(#paint75_linear_82_20427)"/><path d="M281.933 328.195c0-.821-.684-1.506-1.504-1.506a1.52 1.52 0 00-1.505 1.506c0 .821.684 1.505 1.505 1.505.82 0 1.504-.684 1.504-1.505z" fill="url(#paint76_linear_82_20427)"/><path d="M410.657 325.594c0-.821-.684-1.505-1.505-1.505-.821 0-1.505.684-1.505 1.505 0 .822.684 1.506 1.505 1.506.821 0 1.505-.684 1.505-1.506z" fill="url(#paint77_linear_82_20427)"/><path d="M371.808 376.37c0-.821-.684-1.505-1.504-1.505-.821 0-1.505.684-1.505 1.505a1.52 1.52 0 001.505 1.506c.82 0 1.504-.685 1.504-1.506z" fill="url(#paint78_linear_82_20427)"/><path d="M414.762 260.311c0-.821-.684-1.505-1.505-1.505-.821 0-1.505.684-1.505 1.505a1.52 1.52 0 001.505 1.506 1.52 1.52 0 001.505-1.506z" fill="url(#paint79_linear_82_20427)"/><path d="M432.681 270.028c0-.821-.684-1.505-1.504-1.505-.821 0-1.505.684-1.505 1.505 0 .822.684 1.506 1.505 1.506.82 0 1.504-.684 1.504-1.506z" fill="url(#paint80_linear_82_20427)"/><path d="M410.657 325.594c0-.821-.684-1.505-1.505-1.505-.821 0-1.505.684-1.505 1.505 0 .822.684 1.506 1.505 1.506.821 0 1.505-.684 1.505-1.506z" fill="url(#paint81_linear_82_20427)"/><path d="M438.7 207.62a1.52 1.52 0 00-1.505-1.506 1.52 1.52 0 00-1.505 1.506c0 .821.684 1.505 1.505 1.505.684 0 1.505-.684 1.505-1.505z" fill="url(#paint82_linear_82_20427)"/><path d="M414.762 260.311c0-.821-.684-1.505-1.505-1.505-.821 0-1.505.684-1.505 1.505a1.52 1.52 0 001.505 1.506 1.52 1.52 0 001.505-1.506z" fill="url(#paint83_linear_82_20427)"/><path d="M410.657 325.594c0-.821-.684-1.505-1.505-1.505-.821 0-1.505.684-1.505 1.505 0 .822.684 1.506 1.505 1.506.821 0 1.505-.684 1.505-1.506z" fill="url(#paint84_linear_82_20427)"/><path d="M365.242 239.782a1.52 1.52 0 00-1.505-1.506 1.52 1.52 0 00-1.505 1.506c0 .821.684 1.505 1.505 1.505.821 0 1.505-.684 1.505-1.505z" fill="url(#paint85_linear_82_20427)"/><path d="M281.933 328.195c0-.821-.684-1.506-1.504-1.506a1.52 1.52 0 00-1.505 1.506c0 .821.684 1.505 1.505 1.505.82 0 1.504-.684 1.504-1.505z" fill="url(#paint86_linear_82_20427)"/><path d="M342.123 127.692c0-.821-.684-1.505-1.505-1.505-.821 0-1.505.684-1.505 1.505 0 .821.684 1.505 1.505 1.505.821 0 1.505-.684 1.505-1.505z" fill="url(#paint87_linear_82_20427)"/><path d="M245.683 218.432c0-.821-.684-1.506-1.504-1.506a1.52 1.52 0 00-1.505 1.506c0 .821.684 1.505 1.505 1.505.82 0 1.504-.684 1.504-1.505z" fill="url(#paint88_linear_82_20427)"/><path d="M365.242 239.782a1.52 1.52 0 00-1.505-1.506 1.52 1.52 0 00-1.505 1.506c0 .821.684 1.505 1.505 1.505.821 0 1.505-.684 1.505-1.505z" fill="url(#paint89_linear_82_20427)"/><path d="M280.155 103.467c0-.821-.684-1.505-1.505-1.505-.821 0-1.504.684-1.504 1.505 0 .822.683 1.506 1.504 1.506s1.505-.684 1.505-1.506z" fill="url(#paint90_linear_82_20427)"/><path d="M228.584 139.873c0-.821-.684-1.505-1.505-1.505-.821 0-1.505.684-1.505 1.505a1.52 1.52 0 001.505 1.506c.821 0 1.505-.548 1.505-1.506z" fill="url(#paint91_linear_82_20427)"/><path d="M245.683 218.432c0-.821-.684-1.506-1.504-1.506a1.52 1.52 0 00-1.505 1.506c0 .821.684 1.505 1.505 1.505.82 0 1.504-.684 1.504-1.505z" fill="url(#paint92_linear_82_20427)"/><path d="M280.155 103.467c0-.821-.684-1.505-1.505-1.505-.821 0-1.504.684-1.504 1.505 0 .822.683 1.506 1.504 1.506s1.505-.684 1.505-1.506z" fill="url(#paint93_linear_82_20427)"/><path d="M164.838 94.845a1.52 1.52 0 00-1.505-1.506c-.821 0-1.505.685-1.505 1.506s.684 1.505 1.505 1.505c.821 0 1.505-.684 1.505-1.505z" fill="url(#paint94_linear_82_20427)"/><path d="M228.584 139.873c0-.821-.684-1.505-1.505-1.505-.821 0-1.505.684-1.505 1.505a1.52 1.52 0 001.505 1.506c.821 0 1.505-.548 1.505-1.506z" fill="url(#paint95_linear_82_20427)"/><path d="M178.517 3.421c0-.82-.684-1.505-1.504-1.505-.821 0-1.505.684-1.505 1.506 0 .82.684 1.505 1.505 1.505.82 0 1.504-.684 1.504-1.505z" fill="url(#paint96_linear_82_20427)"/><path d="M164.838 94.845a1.52 1.52 0 00-1.505-1.506c-.821 0-1.505.685-1.505 1.506s.684 1.505 1.505 1.505c.821 0 1.505-.684 1.505-1.505z" fill="url(#paint97_linear_82_20427)"/><path d="M241.305 26.004c0-.821-.684-1.506-1.504-1.506-.821 0-1.505.685-1.505 1.506s.684 1.505 1.505 1.505c.82 0 1.504-.684 1.504-1.505z" fill="url(#paint98_linear_82_20427)"/><path d="M248.966 1.505c0-.82-.684-1.505-1.505-1.505-.821 0-1.505.684-1.505 1.505 0 .822.684 1.506 1.505 1.506.821.137 1.505-.547 1.505-1.506z" fill="url(#paint99_linear_82_20427)"/><path d="M178.517 3.421c0-.82-.684-1.505-1.504-1.505-.821 0-1.505.684-1.505 1.506 0 .82.684 1.505 1.505 1.505.82 0 1.504-.684 1.504-1.505z" fill="url(#paint100_linear_82_20427)"/><path d="M241.305 26.004c0-.821-.684-1.506-1.504-1.506-.821 0-1.505.685-1.505 1.506s.684 1.505 1.505 1.505c.82 0 1.504-.684 1.504-1.505z" fill="url(#paint101_linear_82_20427)"/><path d="M280.155 103.467c0-.821-.684-1.505-1.505-1.505-.821 0-1.504.684-1.504 1.505 0 .822.683 1.506 1.504 1.506s1.505-.684 1.505-1.506z" fill="url(#paint102_linear_82_20427)"/><path d="M302.316 13.686c0-.821-.684-1.505-1.505-1.505-.82 0-1.504.684-1.504 1.505 0 .821.684 1.506 1.504 1.506.821.136 1.505-.548 1.505-1.506z" fill="url(#paint103_linear_82_20427)"/><path d="M241.305 26.004c0-.821-.684-1.506-1.504-1.506-.821 0-1.505.685-1.505 1.506s.684 1.505 1.505 1.505c.82 0 1.504-.684 1.504-1.505z" fill="url(#paint104_linear_82_20427)"/><path d="M339.114 34.763c0-.82-.684-1.505-1.505-1.505-.821 0-1.505.684-1.505 1.505 0 .822.684 1.506 1.505 1.506.821 0 1.505-.684 1.505-1.506z" fill="url(#paint105_linear_82_20427)"/><path d="M302.316 13.686c0-.821-.684-1.505-1.505-1.505-.82 0-1.504.684-1.504 1.505 0 .821.684 1.506 1.504 1.506.821.136 1.505-.548 1.505-1.506z" fill="url(#paint106_linear_82_20427)"/><path d="M331.591 51.87c0-.82-.684-1.505-1.505-1.505-.821 0-1.505.684-1.505 1.506 0 .82.684 1.505 1.505 1.505.821 0 1.505-.684 1.505-1.505z" fill="url(#paint107_linear_82_20427)"/><path d="M339.114 34.763c0-.82-.684-1.505-1.505-1.505-.821 0-1.505.684-1.505 1.505 0 .822.684 1.506 1.505 1.506.821 0 1.505-.684 1.505-1.506z" fill="url(#paint108_linear_82_20427)"/><path d="M380.699 69.8c0-.822-.684-1.506-1.505-1.506-.821 0-1.505.684-1.505 1.505 0 .822.684 1.506 1.505 1.506.821 0 1.505-.684 1.505-1.506z" fill="url(#paint109_linear_82_20427)"/><path d="M331.591 51.87c0-.82-.684-1.505-1.505-1.505-.821 0-1.505.684-1.505 1.506 0 .82.684 1.505 1.505 1.505.821 0 1.505-.684 1.505-1.505z" fill="url(#paint110_linear_82_20427)"/><path d="M280.155 103.467c0-.821-.684-1.505-1.505-1.505-.821 0-1.504.684-1.504 1.505 0 .822.683 1.506 1.504 1.506s1.505-.684 1.505-1.506z" fill="url(#paint111_linear_82_20427)"/><path d="M342.123 127.692c0-.821-.684-1.505-1.505-1.505-.821 0-1.505.684-1.505 1.505 0 .821.684 1.505 1.505 1.505.821 0 1.505-.684 1.505-1.505z" fill="url(#paint112_linear_82_20427)"/><path d="M365.242 239.782a1.52 1.52 0 00-1.505-1.506 1.52 1.52 0 00-1.505 1.506c0 .821.684 1.505 1.505 1.505.821 0 1.505-.684 1.505-1.505z" fill="url(#paint113_linear_82_20427)"/><path d="M414.762 260.311c0-.821-.684-1.505-1.505-1.505-.821 0-1.505.684-1.505 1.505a1.52 1.52 0 001.505 1.506 1.52 1.52 0 001.505-1.506z" fill="url(#paint114_linear_82_20427)"/><path d="M415.445 119.891a1.52 1.52 0 00-1.505-1.506c-.82 0-1.504.685-1.504 1.506s.684 1.505 1.504 1.505c.821.137 1.505-.547 1.505-1.505z" fill="url(#paint115_linear_82_20427)"/><path d="M331.591 51.87c0-.82-.684-1.505-1.505-1.505-.821 0-1.505.684-1.505 1.506 0 .82.684 1.505 1.505 1.505.821 0 1.505-.684 1.505-1.505z" fill="url(#paint116_linear_82_20427)"/><path d="M380.699 69.8c0-.822-.684-1.506-1.505-1.506-.821 0-1.505.684-1.505 1.505 0 .822.684 1.506 1.505 1.506.821 0 1.505-.684 1.505-1.506z" fill="url(#paint117_linear_82_20427)"/><path d="M342.123 127.692c0-.821-.684-1.505-1.505-1.505-.821 0-1.505.684-1.505 1.505 0 .821.684 1.505 1.505 1.505.821 0 1.505-.684 1.505-1.505z" fill="url(#paint118_linear_82_20427)"/><path d="M415.445 119.891a1.52 1.52 0 00-1.505-1.506c-.82 0-1.504.685-1.504 1.506s.684 1.505 1.504 1.505c.821.137 1.505-.547 1.505-1.505z" fill="url(#paint119_linear_82_20427)"/><path d="M342.123 127.692c0-.821-.684-1.505-1.505-1.505-.821 0-1.505.684-1.505 1.505 0 .821.684 1.505 1.505 1.505.821 0 1.505-.684 1.505-1.505z" fill="url(#paint120_linear_82_20427)"/><path d="M433.502 169.435c0-.821-.684-1.505-1.505-1.505-.821 0-1.505.684-1.505 1.505a1.52 1.52 0 001.505 1.506 1.52 1.52 0 001.505-1.506z" fill="url(#paint121_linear_82_20427)"/><path d="M438.7 207.62a1.52 1.52 0 00-1.505-1.506 1.52 1.52 0 00-1.505 1.506c0 .821.684 1.505 1.505 1.505.684 0 1.505-.684 1.505-1.505z" fill="url(#paint122_linear_82_20427)"/><path d="M365.242 239.782a1.52 1.52 0 00-1.505-1.506 1.52 1.52 0 00-1.505 1.506c0 .821.684 1.505 1.505 1.505.821 0 1.505-.684 1.505-1.505z" fill="url(#paint123_linear_82_20427)"/><path d="M415.445 119.891a1.52 1.52 0 00-1.505-1.506c-.82 0-1.504.685-1.504 1.506s.684 1.505 1.504 1.505c.821.137 1.505-.547 1.505-1.505z" fill="url(#paint124_linear_82_20427)"/><defs><linearGradient id="paint0_linear_82_20427" x1="-3792.4" y1="219.543" x2="4233.57" y2="219.543" gradientUnits="userSpaceOnUse"><stop stop-color="#548EF7"/><stop offset="1" stop-color="#7DC6FD"/></linearGradient><linearGradient id="paint1_linear_82_20427" x1="135.631" y1="94.852" x2="191.052" y2="94.852" gradientUnits="userSpaceOnUse"><stop stop-color="#548EF7"/><stop offset="1" stop-color="#7DC6FD"/></linearGradient><linearGradient id="paint2_linear_82_20427" x1="386.239" y1="119.907" x2="441.66" y2="119.907" gradientUnits="userSpaceOnUse"><stop stop-color="#548EF7"/><stop offset="1" stop-color="#7DC6FD"/></linearGradient><linearGradient id="paint3_linear_82_20427" x1="398.004" y1="150.008" x2="453.424" y2="150.008" gradientUnits="userSpaceOnUse"><stop stop-color="#548EF7"/><stop offset="1" stop-color="#7DC6FD"/></linearGradient><linearGradient id="paint4_linear_82_20427" x1="273.11" y1="13.702" x2="328.531" y2="13.702" gradientUnits="userSpaceOnUse"><stop stop-color="#548EF7"/><stop offset="1" stop-color="#7DC6FD"/></linearGradient><linearGradient id="paint5_linear_82_20427" x1="219.759" y1="1.521" x2="275.18" y2="1.521" gradientUnits="userSpaceOnUse"><stop stop-color="#548EF7"/><stop offset="1" stop-color="#7DC6FD"/></linearGradient><linearGradient id="paint6_linear_82_20427" x1="36.866" y1="61.877" x2="92.287" y2="61.877" gradientUnits="userSpaceOnUse"><stop stop-color="#548EF7"/><stop offset="1" stop-color="#7DC6FD"/></linearGradient><linearGradient id="paint7_linear_82_20427" x1="9.781" y1="159.588" x2="65.202" y2="159.588" gradientUnits="userSpaceOnUse"><stop stop-color="#548EF7"/><stop offset="1" stop-color="#7DC6FD"/></linearGradient><linearGradient id="paint8_linear_82_20427" x1="42.064" y1="102.526" x2="97.485" y2="102.526" gradientUnits="userSpaceOnUse"><stop stop-color="#548EF7"/><stop offset="1" stop-color="#7DC6FD"/></linearGradient><linearGradient id="paint9_linear_82_20427" x1="49.451" y1="321.222" x2="104.872" y2="321.222" gradientUnits="userSpaceOnUse"><stop stop-color="#548EF7"/><stop offset="1" stop-color="#7DC6FD"/></linearGradient><linearGradient id="paint10_linear_82_20427" x1="160.665" y1="369.26" x2="216.085" y2="369.26" gradientUnits="userSpaceOnUse"><stop stop-color="#548EF7"/><stop offset="1" stop-color="#7DC6FD"/></linearGradient><linearGradient id="paint11_linear_82_20427" x1="173.25" y1="309.042" x2="228.67" y2="309.042" gradientUnits="userSpaceOnUse"><stop stop-color="#548EF7"/><stop offset="1" stop-color="#7DC6FD"/></linearGradient><linearGradient id="paint12_linear_82_20427" x1="49.451" y1="321.222" x2="104.872" y2="321.222" gradientUnits="userSpaceOnUse"><stop stop-color="#548EF7"/><stop offset="1" stop-color="#7DC6FD"/></linearGradient><linearGradient id="paint13_linear_82_20427" x1="89.942" y1="238.694" x2="145.363" y2="238.694" gradientUnits="userSpaceOnUse"><stop stop-color="#548EF7"/><stop offset="1" stop-color="#7DC6FD"/></linearGradient><linearGradient id="paint14_linear_82_20427" x1="122.635" y1="405.392" x2="178.056" y2="405.392" gradientUnits="userSpaceOnUse"><stop stop-color="#548EF7"/><stop offset="1" stop-color="#7DC6FD"/></linearGradient><linearGradient id="paint15_linear_82_20427" x1="224.547" y1="390.611" x2="279.968" y2="390.611" gradientUnits="userSpaceOnUse"><stop stop-color="#548EF7"/><stop offset="1" stop-color="#7DC6FD"/></linearGradient><linearGradient id="paint16_linear_82_20427" x1="170.788" y1="435.502" x2="226.209" y2="435.502" gradientUnits="userSpaceOnUse"><stop stop-color="#548EF7"/><stop offset="1" stop-color="#7DC6FD"/></linearGradient><linearGradient id="paint17_linear_82_20427" x1="160.665" y1="369.26" x2="216.085" y2="369.26" gradientUnits="userSpaceOnUse"><stop stop-color="#548EF7"/><stop offset="1" stop-color="#7DC6FD"/></linearGradient><linearGradient id="paint18_linear_82_20427" x1="126.192" y1="426.743" x2="181.613" y2="426.743" gradientUnits="userSpaceOnUse"><stop stop-color="#548EF7"/><stop offset="1" stop-color="#7DC6FD"/></linearGradient><linearGradient id="paint19_linear_82_20427" x1="170.788" y1="435.502" x2="226.209" y2="435.502" gradientUnits="userSpaceOnUse"><stop stop-color="#548EF7"/><stop offset="1" stop-color="#7DC6FD"/></linearGradient><linearGradient id="paint20_linear_82_20427" x1="88.164" y1="410.73" x2="143.585" y2="410.73" gradientUnits="userSpaceOnUse"><stop stop-color="#548EF7"/><stop offset="1" stop-color="#7DC6FD"/></linearGradient><linearGradient id="paint21_linear_82_20427" x1="122.635" y1="405.392" x2="178.056" y2="405.392" gradientUnits="userSpaceOnUse"><stop stop-color="#548EF7"/><stop offset="1" stop-color="#7DC6FD"/></linearGradient><linearGradient id="paint22_linear_82_20427" x1="38.507" y1="374.051" x2="93.928" y2="374.051" gradientUnits="userSpaceOnUse"><stop stop-color="#548EF7"/><stop offset="1" stop-color="#7DC6FD"/></linearGradient><linearGradient id="paint23_linear_82_20427" x1="88.164" y1="410.73" x2="143.585" y2="410.73" gradientUnits="userSpaceOnUse"><stop stop-color="#548EF7"/><stop offset="1" stop-color="#7DC6FD"/></linearGradient><linearGradient id="paint24_linear_82_20427" x1="49.451" y1="321.222" x2="104.872" y2="321.222" gradientUnits="userSpaceOnUse"><stop stop-color="#548EF7"/><stop offset="1" stop-color="#7DC6FD"/></linearGradient><linearGradient id="paint25_linear_82_20427" x1="38.507" y1="374.051" x2="93.928" y2="374.051" gradientUnits="userSpaceOnUse"><stop stop-color="#548EF7"/><stop offset="1" stop-color="#7DC6FD"/></linearGradient><linearGradient id="paint26_linear_82_20427" x1="-2.122" y1="319.58" x2="53.299" y2="319.58" gradientUnits="userSpaceOnUse"><stop stop-color="#548EF7"/><stop offset="1" stop-color="#7DC6FD"/></linearGradient><linearGradient id="paint27_linear_82_20427" x1="49.451" y1="321.222" x2="104.872" y2="321.222" gradientUnits="userSpaceOnUse"><stop stop-color="#548EF7"/><stop offset="1" stop-color="#7DC6FD"/></linearGradient><linearGradient id="paint28_linear_82_20427" x1="-21.545" y1="266.614" x2="33.876" y2="266.614" gradientUnits="userSpaceOnUse"><stop stop-color="#548EF7"/><stop offset="1" stop-color="#7DC6FD"/></linearGradient><linearGradient id="paint29_linear_82_20427" x1="38.507" y1="374.051" x2="93.928" y2="374.051" gradientUnits="userSpaceOnUse"><stop stop-color="#548EF7"/><stop offset="1" stop-color="#7DC6FD"/></linearGradient><linearGradient id="paint30_linear_82_20427" x1="9.781" y1="159.588" x2="65.202" y2="159.588" gradientUnits="userSpaceOnUse"><stop stop-color="#548EF7"/><stop offset="1" stop-color="#7DC6FD"/></linearGradient><linearGradient id="paint31_linear_82_20427" x1="89.942" y1="238.694" x2="145.363" y2="238.694" gradientUnits="userSpaceOnUse"><stop stop-color="#548EF7"/><stop offset="1" stop-color="#7DC6FD"/></linearGradient><linearGradient id="paint32_linear_82_20427" x1="-21.545" y1="266.614" x2="33.876" y2="266.614" gradientUnits="userSpaceOnUse"><stop stop-color="#548EF7"/><stop offset="1" stop-color="#7DC6FD"/></linearGradient><linearGradient id="paint33_linear_82_20427" x1="9.781" y1="159.588" x2="65.202" y2="159.588" gradientUnits="userSpaceOnUse"><stop stop-color="#548EF7"/><stop offset="1" stop-color="#7DC6FD"/></linearGradient><linearGradient id="paint34_linear_82_20427" x1="-27.387" y1="198.183" x2="30.553" y2="198.183" gradientUnits="userSpaceOnUse"><stop stop-color="#548EF7"/><stop offset="1" stop-color="#7DC6FD"/></linearGradient><linearGradient id="paint35_linear_82_20427" x1="-14.295" y1="144.815" x2="41.126" y2="144.815" gradientUnits="userSpaceOnUse"><stop stop-color="#548EF7"/><stop offset="1" stop-color="#7DC6FD"/></linearGradient><linearGradient id="paint36_linear_82_20427" x1="96.371" y1="151.65" x2="151.792" y2="151.65" gradientUnits="userSpaceOnUse"><stop stop-color="#548EF7"/><stop offset="1" stop-color="#7DC6FD"/></linearGradient><linearGradient id="paint37_linear_82_20427" x1="89.942" y1="238.694" x2="145.363" y2="238.694" gradientUnits="userSpaceOnUse"><stop stop-color="#548EF7"/><stop offset="1" stop-color="#7DC6FD"/></linearGradient><linearGradient id="paint38_linear_82_20427" x1="173.25" y1="309.042" x2="228.67" y2="309.042" gradientUnits="userSpaceOnUse"><stop stop-color="#548EF7"/><stop offset="1" stop-color="#7DC6FD"/></linearGradient><linearGradient id="paint39_linear_82_20427" x1="224.547" y1="390.611" x2="279.968" y2="390.611" gradientUnits="userSpaceOnUse"><stop stop-color="#548EF7"/><stop offset="1" stop-color="#7DC6FD"/></linearGradient><linearGradient id="paint40_linear_82_20427" x1="160.665" y1="369.26" x2="216.085" y2="369.26" gradientUnits="userSpaceOnUse"><stop stop-color="#548EF7"/><stop offset="1" stop-color="#7DC6FD"/></linearGradient><linearGradient id="paint41_linear_82_20427" x1="252.727" y1="328.202" x2="308.148" y2="328.202" gradientUnits="userSpaceOnUse"><stop stop-color="#548EF7"/><stop offset="1" stop-color="#7DC6FD"/></linearGradient><linearGradient id="paint42_linear_82_20427" x1="173.25" y1="309.042" x2="228.67" y2="309.042" gradientUnits="userSpaceOnUse"><stop stop-color="#548EF7"/><stop offset="1" stop-color="#7DC6FD"/></linearGradient><linearGradient id="paint43_linear_82_20427" x1="216.477" y1="218.439" x2="271.899" y2="218.439" gradientUnits="userSpaceOnUse"><stop stop-color="#548EF7"/><stop offset="1" stop-color="#7DC6FD"/></linearGradient><linearGradient id="paint44_linear_82_20427" x1="89.942" y1="238.694" x2="145.363" y2="238.694" gradientUnits="userSpaceOnUse"><stop stop-color="#548EF7"/><stop offset="1" stop-color="#7DC6FD"/></linearGradient><linearGradient id="paint45_linear_82_20427" x1="199.377" y1="139.88" x2="254.799" y2="139.88" gradientUnits="userSpaceOnUse"><stop stop-color="#548EF7"/><stop offset="1" stop-color="#7DC6FD"/></linearGradient><linearGradient id="paint46_linear_82_20427" x1="96.371" y1="151.65" x2="151.792" y2="151.65" gradientUnits="userSpaceOnUse"><stop stop-color="#548EF7"/><stop offset="1" stop-color="#7DC6FD"/></linearGradient><linearGradient id="paint47_linear_82_20427" x1="42.064" y1="102.526" x2="97.485" y2="102.526" gradientUnits="userSpaceOnUse"><stop stop-color="#548EF7"/><stop offset="1" stop-color="#7DC6FD"/></linearGradient><linearGradient id="paint48_linear_82_20427" x1="-14.295" y1="144.815" x2="41.126" y2="144.815" gradientUnits="userSpaceOnUse"><stop stop-color="#548EF7"/><stop offset="1" stop-color="#7DC6FD"/></linearGradient><linearGradient id="paint49_linear_82_20427" x1="36.866" y1="61.877" x2="92.287" y2="61.877" gradientUnits="userSpaceOnUse"><stop stop-color="#548EF7"/><stop offset="1" stop-color="#7DC6FD"/></linearGradient><linearGradient id="paint50_linear_82_20427" x1="42.064" y1="102.526" x2="97.485" y2="102.526" gradientUnits="userSpaceOnUse"><stop stop-color="#548EF7"/><stop offset="1" stop-color="#7DC6FD"/></linearGradient><linearGradient id="paint51_linear_82_20427" x1="135.631" y1="94.852" x2="191.052" y2="94.852" gradientUnits="userSpaceOnUse"><stop stop-color="#548EF7"/><stop offset="1" stop-color="#7DC6FD"/></linearGradient><linearGradient id="paint52_linear_82_20427" x1="96.371" y1="151.65" x2="151.792" y2="151.65" gradientUnits="userSpaceOnUse"><stop stop-color="#548EF7"/><stop offset="1" stop-color="#7DC6FD"/></linearGradient><linearGradient id="paint53_linear_82_20427" x1="90.899" y1="52.425" x2="146.32" y2="52.425" gradientUnits="userSpaceOnUse"><stop stop-color="#548EF7"/><stop offset="1" stop-color="#7DC6FD"/></linearGradient><linearGradient id="paint54_linear_82_20427" x1="42.064" y1="102.526" x2="97.485" y2="102.526" gradientUnits="userSpaceOnUse"><stop stop-color="#548EF7"/><stop offset="1" stop-color="#7DC6FD"/></linearGradient><linearGradient id="paint55_linear_82_20427" x1="89.257" y1="25.06" x2="144.678" y2="25.06" gradientUnits="userSpaceOnUse"><stop stop-color="#548EF7"/><stop offset="1" stop-color="#7DC6FD"/></linearGradient><linearGradient id="paint56_linear_82_20427" x1="36.866" y1="61.877" x2="92.287" y2="61.877" gradientUnits="userSpaceOnUse"><stop stop-color="#548EF7"/><stop offset="1" stop-color="#7DC6FD"/></linearGradient><linearGradient id="paint57_linear_82_20427" x1="90.899" y1="52.425" x2="146.32" y2="52.425" gradientUnits="userSpaceOnUse"><stop stop-color="#548EF7"/><stop offset="1" stop-color="#7DC6FD"/></linearGradient><linearGradient id="paint58_linear_82_20427" x1="89.257" y1="25.06" x2="144.678" y2="25.06" gradientUnits="userSpaceOnUse"><stop stop-color="#548EF7"/><stop offset="1" stop-color="#7DC6FD"/></linearGradient><linearGradient id="paint59_linear_82_20427" x1="149.311" y1="3.429" x2="204.732" y2="3.429" gradientUnits="userSpaceOnUse"><stop stop-color="#548EF7"/><stop offset="1" stop-color="#7DC6FD"/></linearGradient><linearGradient id="paint60_linear_82_20427" x1="90.899" y1="52.425" x2="146.32" y2="52.425" gradientUnits="userSpaceOnUse"><stop stop-color="#548EF7"/><stop offset="1" stop-color="#7DC6FD"/></linearGradient><linearGradient id="paint61_linear_82_20427" x1="135.631" y1="94.852" x2="191.052" y2="94.852" gradientUnits="userSpaceOnUse"><stop stop-color="#548EF7"/><stop offset="1" stop-color="#7DC6FD"/></linearGradient><linearGradient id="paint62_linear_82_20427" x1="216.477" y1="218.439" x2="271.899" y2="218.439" gradientUnits="userSpaceOnUse"><stop stop-color="#548EF7"/><stop offset="1" stop-color="#7DC6FD"/></linearGradient><linearGradient id="paint63_linear_82_20427" x1="252.727" y1="328.202" x2="308.148" y2="328.202" gradientUnits="userSpaceOnUse"><stop stop-color="#548EF7"/><stop offset="1" stop-color="#7DC6FD"/></linearGradient><linearGradient id="paint64_linear_82_20427" x1="218.665" y1="434.954" x2="274.087" y2="434.954" gradientUnits="userSpaceOnUse"><stop stop-color="#548EF7"/><stop offset="1" stop-color="#7DC6FD"/></linearGradient><linearGradient id="paint65_linear_82_20427" x1="170.788" y1="435.502" x2="226.209" y2="435.502" gradientUnits="userSpaceOnUse"><stop stop-color="#548EF7"/><stop offset="1" stop-color="#7DC6FD"/></linearGradient><linearGradient id="paint66_linear_82_20427" x1="296.228" y1="409.772" x2="351.649" y2="409.772" gradientUnits="userSpaceOnUse"><stop stop-color="#548EF7"/><stop offset="1" stop-color="#7DC6FD"/></linearGradient><linearGradient id="paint67_linear_82_20427" x1="252.727" y1="328.202" x2="308.148" y2="328.202" gradientUnits="userSpaceOnUse"><stop stop-color="#548EF7"/><stop offset="1" stop-color="#7DC6FD"/></linearGradient><linearGradient id="paint68_linear_82_20427" x1="224.547" y1="390.611" x2="279.968" y2="390.611" gradientUnits="userSpaceOnUse"><stop stop-color="#548EF7"/><stop offset="1" stop-color="#7DC6FD"/></linearGradient><linearGradient id="paint69_linear_82_20427" x1="245.614" y1="429.762" x2="301.035" y2="429.762" gradientUnits="userSpaceOnUse"><stop stop-color="#548EF7"/><stop offset="1" stop-color="#7DC6FD"/></linearGradient><linearGradient id="paint70_linear_82_20427" x1="296.228" y1="409.772" x2="351.649" y2="409.772" gradientUnits="userSpaceOnUse"><stop stop-color="#548EF7"/><stop offset="1" stop-color="#7DC6FD"/></linearGradient><linearGradient id="paint71_linear_82_20427" x1="224.547" y1="390.611" x2="279.968" y2="390.611" gradientUnits="userSpaceOnUse"><stop stop-color="#548EF7"/><stop offset="1" stop-color="#7DC6FD"/></linearGradient><linearGradient id="paint72_linear_82_20427" x1="342.602" y1="376.377" x2="398.023" y2="376.377" gradientUnits="userSpaceOnUse"><stop stop-color="#548EF7"/><stop offset="1" stop-color="#7DC6FD"/></linearGradient><linearGradient id="paint73_linear_82_20427" x1="336.036" y1="239.789" x2="391.457" y2="239.789" gradientUnits="userSpaceOnUse"><stop stop-color="#548EF7"/><stop offset="1" stop-color="#7DC6FD"/></linearGradient><linearGradient id="paint74_linear_82_20427" x1="296.228" y1="409.772" x2="351.649" y2="409.772" gradientUnits="userSpaceOnUse"><stop stop-color="#548EF7"/><stop offset="1" stop-color="#7DC6FD"/></linearGradient><linearGradient id="paint75_linear_82_20427" x1="342.602" y1="376.377" x2="398.023" y2="376.377" gradientUnits="userSpaceOnUse"><stop stop-color="#548EF7"/><stop offset="1" stop-color="#7DC6FD"/></linearGradient><linearGradient id="paint76_linear_82_20427" x1="252.727" y1="328.202" x2="308.148" y2="328.202" gradientUnits="userSpaceOnUse"><stop stop-color="#548EF7"/><stop offset="1" stop-color="#7DC6FD"/></linearGradient><linearGradient id="paint77_linear_82_20427" x1="381.45" y1="325.602" x2="436.873" y2="325.602" gradientUnits="userSpaceOnUse"><stop stop-color="#548EF7"/><stop offset="1" stop-color="#7DC6FD"/></linearGradient><linearGradient id="paint78_linear_82_20427" x1="342.602" y1="376.377" x2="398.023" y2="376.377" gradientUnits="userSpaceOnUse"><stop stop-color="#548EF7"/><stop offset="1" stop-color="#7DC6FD"/></linearGradient><linearGradient id="paint79_linear_82_20427" x1="385.554" y1="260.318" x2="440.977" y2="260.318" gradientUnits="userSpaceOnUse"><stop stop-color="#548EF7"/><stop offset="1" stop-color="#7DC6FD"/></linearGradient><linearGradient id="paint80_linear_82_20427" x1="403.476" y1="270.036" x2="458.895" y2="270.036" gradientUnits="userSpaceOnUse"><stop stop-color="#548EF7"/><stop offset="1" stop-color="#7DC6FD"/></linearGradient><linearGradient id="paint81_linear_82_20427" x1="381.45" y1="325.602" x2="436.873" y2="325.602" gradientUnits="userSpaceOnUse"><stop stop-color="#548EF7"/><stop offset="1" stop-color="#7DC6FD"/></linearGradient><linearGradient id="paint82_linear_82_20427" x1="409.493" y1="207.627" x2="464.915" y2="207.627" gradientUnits="userSpaceOnUse"><stop stop-color="#548EF7"/><stop offset="1" stop-color="#7DC6FD"/></linearGradient><linearGradient id="paint83_linear_82_20427" x1="385.554" y1="260.318" x2="440.977" y2="260.318" gradientUnits="userSpaceOnUse"><stop stop-color="#548EF7"/><stop offset="1" stop-color="#7DC6FD"/></linearGradient><linearGradient id="paint84_linear_82_20427" x1="381.45" y1="325.602" x2="436.873" y2="325.602" gradientUnits="userSpaceOnUse"><stop stop-color="#548EF7"/><stop offset="1" stop-color="#7DC6FD"/></linearGradient><linearGradient id="paint85_linear_82_20427" x1="336.036" y1="239.789" x2="391.457" y2="239.789" gradientUnits="userSpaceOnUse"><stop stop-color="#548EF7"/><stop offset="1" stop-color="#7DC6FD"/></linearGradient><linearGradient id="paint86_linear_82_20427" x1="252.727" y1="328.202" x2="308.148" y2="328.202" gradientUnits="userSpaceOnUse"><stop stop-color="#548EF7"/><stop offset="1" stop-color="#7DC6FD"/></linearGradient><linearGradient id="paint87_linear_82_20427" x1="312.916" y1="127.699" x2="368.338" y2="127.699" gradientUnits="userSpaceOnUse"><stop stop-color="#548EF7"/><stop offset="1" stop-color="#7DC6FD"/></linearGradient><linearGradient id="paint88_linear_82_20427" x1="216.477" y1="218.439" x2="271.899" y2="218.439" gradientUnits="userSpaceOnUse"><stop stop-color="#548EF7"/><stop offset="1" stop-color="#7DC6FD"/></linearGradient><linearGradient id="paint89_linear_82_20427" x1="336.036" y1="239.789" x2="391.457" y2="239.789" gradientUnits="userSpaceOnUse"><stop stop-color="#548EF7"/><stop offset="1" stop-color="#7DC6FD"/></linearGradient><linearGradient id="paint90_linear_82_20427" x1="250.949" y1="103.475" x2="306.37" y2="103.475" gradientUnits="userSpaceOnUse"><stop stop-color="#548EF7"/><stop offset="1" stop-color="#7DC6FD"/></linearGradient><linearGradient id="paint91_linear_82_20427" x1="199.377" y1="139.88" x2="254.799" y2="139.88" gradientUnits="userSpaceOnUse"><stop stop-color="#548EF7"/><stop offset="1" stop-color="#7DC6FD"/></linearGradient><linearGradient id="paint92_linear_82_20427" x1="216.477" y1="218.439" x2="271.899" y2="218.439" gradientUnits="userSpaceOnUse"><stop stop-color="#548EF7"/><stop offset="1" stop-color="#7DC6FD"/></linearGradient><linearGradient id="paint93_linear_82_20427" x1="250.949" y1="103.475" x2="306.37" y2="103.475" gradientUnits="userSpaceOnUse"><stop stop-color="#548EF7"/><stop offset="1" stop-color="#7DC6FD"/></linearGradient><linearGradient id="paint94_linear_82_20427" x1="135.631" y1="94.852" x2="191.052" y2="94.852" gradientUnits="userSpaceOnUse"><stop stop-color="#548EF7"/><stop offset="1" stop-color="#7DC6FD"/></linearGradient><linearGradient id="paint95_linear_82_20427" x1="199.377" y1="139.88" x2="254.799" y2="139.88" gradientUnits="userSpaceOnUse"><stop stop-color="#548EF7"/><stop offset="1" stop-color="#7DC6FD"/></linearGradient><linearGradient id="paint96_linear_82_20427" x1="149.311" y1="3.429" x2="204.732" y2="3.429" gradientUnits="userSpaceOnUse"><stop stop-color="#548EF7"/><stop offset="1" stop-color="#7DC6FD"/></linearGradient><linearGradient id="paint97_linear_82_20427" x1="135.631" y1="94.852" x2="191.052" y2="94.852" gradientUnits="userSpaceOnUse"><stop stop-color="#548EF7"/><stop offset="1" stop-color="#7DC6FD"/></linearGradient><linearGradient id="paint98_linear_82_20427" x1="212.099" y1="26.011" x2="267.52" y2="26.011" gradientUnits="userSpaceOnUse"><stop stop-color="#548EF7"/><stop offset="1" stop-color="#7DC6FD"/></linearGradient><linearGradient id="paint99_linear_82_20427" x1="219.759" y1="1.521" x2="275.18" y2="1.521" gradientUnits="userSpaceOnUse"><stop stop-color="#548EF7"/><stop offset="1" stop-color="#7DC6FD"/></linearGradient><linearGradient id="paint100_linear_82_20427" x1="149.311" y1="3.429" x2="204.732" y2="3.429" gradientUnits="userSpaceOnUse"><stop stop-color="#548EF7"/><stop offset="1" stop-color="#7DC6FD"/></linearGradient><linearGradient id="paint101_linear_82_20427" x1="212.099" y1="26.011" x2="267.52" y2="26.011" gradientUnits="userSpaceOnUse"><stop stop-color="#548EF7"/><stop offset="1" stop-color="#7DC6FD"/></linearGradient><linearGradient id="paint102_linear_82_20427" x1="250.949" y1="103.475" x2="306.37" y2="103.475" gradientUnits="userSpaceOnUse"><stop stop-color="#548EF7"/><stop offset="1" stop-color="#7DC6FD"/></linearGradient><linearGradient id="paint103_linear_82_20427" x1="273.11" y1="13.702" x2="328.531" y2="13.702" gradientUnits="userSpaceOnUse"><stop stop-color="#548EF7"/><stop offset="1" stop-color="#7DC6FD"/></linearGradient><linearGradient id="paint104_linear_82_20427" x1="212.099" y1="26.011" x2="267.52" y2="26.011" gradientUnits="userSpaceOnUse"><stop stop-color="#548EF7"/><stop offset="1" stop-color="#7DC6FD"/></linearGradient><linearGradient id="paint105_linear_82_20427" x1="309.908" y1="34.77" x2="365.329" y2="34.77" gradientUnits="userSpaceOnUse"><stop stop-color="#548EF7"/><stop offset="1" stop-color="#7DC6FD"/></linearGradient><linearGradient id="paint106_linear_82_20427" x1="273.11" y1="13.702" x2="328.531" y2="13.702" gradientUnits="userSpaceOnUse"><stop stop-color="#548EF7"/><stop offset="1" stop-color="#7DC6FD"/></linearGradient><linearGradient id="paint107_linear_82_20427" x1="302.384" y1="51.878" x2="357.805" y2="51.878" gradientUnits="userSpaceOnUse"><stop stop-color="#548EF7"/><stop offset="1" stop-color="#7DC6FD"/></linearGradient><linearGradient id="paint108_linear_82_20427" x1="309.908" y1="34.77" x2="365.329" y2="34.77" gradientUnits="userSpaceOnUse"><stop stop-color="#548EF7"/><stop offset="1" stop-color="#7DC6FD"/></linearGradient><linearGradient id="paint109_linear_82_20427" x1="351.493" y1="69.807" x2="406.913" y2="69.807" gradientUnits="userSpaceOnUse"><stop stop-color="#548EF7"/><stop offset="1" stop-color="#7DC6FD"/></linearGradient><linearGradient id="paint110_linear_82_20427" x1="302.384" y1="51.878" x2="357.805" y2="51.878" gradientUnits="userSpaceOnUse"><stop stop-color="#548EF7"/><stop offset="1" stop-color="#7DC6FD"/></linearGradient><linearGradient id="paint111_linear_82_20427" x1="250.949" y1="103.475" x2="306.37" y2="103.475" gradientUnits="userSpaceOnUse"><stop stop-color="#548EF7"/><stop offset="1" stop-color="#7DC6FD"/></linearGradient><linearGradient id="paint112_linear_82_20427" x1="312.916" y1="127.699" x2="368.338" y2="127.699" gradientUnits="userSpaceOnUse"><stop stop-color="#548EF7"/><stop offset="1" stop-color="#7DC6FD"/></linearGradient><linearGradient id="paint113_linear_82_20427" x1="336.036" y1="239.789" x2="391.457" y2="239.789" gradientUnits="userSpaceOnUse"><stop stop-color="#548EF7"/><stop offset="1" stop-color="#7DC6FD"/></linearGradient><linearGradient id="paint114_linear_82_20427" x1="385.554" y1="260.318" x2="440.977" y2="260.318" gradientUnits="userSpaceOnUse"><stop stop-color="#548EF7"/><stop offset="1" stop-color="#7DC6FD"/></linearGradient><linearGradient id="paint115_linear_82_20427" x1="386.239" y1="119.907" x2="441.66" y2="119.907" gradientUnits="userSpaceOnUse"><stop stop-color="#548EF7"/><stop offset="1" stop-color="#7DC6FD"/></linearGradient><linearGradient id="paint116_linear_82_20427" x1="302.384" y1="51.878" x2="357.805" y2="51.878" gradientUnits="userSpaceOnUse"><stop stop-color="#548EF7"/><stop offset="1" stop-color="#7DC6FD"/></linearGradient><linearGradient id="paint117_linear_82_20427" x1="351.493" y1="69.807" x2="406.913" y2="69.807" gradientUnits="userSpaceOnUse"><stop stop-color="#548EF7"/><stop offset="1" stop-color="#7DC6FD"/></linearGradient><linearGradient id="paint118_linear_82_20427" x1="312.916" y1="127.699" x2="368.338" y2="127.699" gradientUnits="userSpaceOnUse"><stop stop-color="#548EF7"/><stop offset="1" stop-color="#7DC6FD"/></linearGradient><linearGradient id="paint119_linear_82_20427" x1="386.239" y1="119.907" x2="441.66" y2="119.907" gradientUnits="userSpaceOnUse"><stop stop-color="#548EF7"/><stop offset="1" stop-color="#7DC6FD"/></linearGradient><linearGradient id="paint120_linear_82_20427" x1="312.916" y1="127.699" x2="368.338" y2="127.699" gradientUnits="userSpaceOnUse"><stop stop-color="#548EF7"/><stop offset="1" stop-color="#7DC6FD"/></linearGradient><linearGradient id="paint121_linear_82_20427" x1="404.296" y1="169.442" x2="459.716" y2="169.442" gradientUnits="userSpaceOnUse"><stop stop-color="#548EF7"/><stop offset="1" stop-color="#7DC6FD"/></linearGradient><linearGradient id="paint122_linear_82_20427" x1="409.493" y1="207.627" x2="464.915" y2="207.627" gradientUnits="userSpaceOnUse"><stop stop-color="#548EF7"/><stop offset="1" stop-color="#7DC6FD"/></linearGradient><linearGradient id="paint123_linear_82_20427" x1="336.036" y1="239.789" x2="391.457" y2="239.789" gradientUnits="userSpaceOnUse"><stop stop-color="#548EF7"/><stop offset="1" stop-color="#7DC6FD"/></linearGradient><linearGradient id="paint124_linear_82_20427" x1="386.239" y1="119.907" x2="441.66" y2="119.907" gradientUnits="userSpaceOnUse"><stop stop-color="#548EF7"/><stop offset="1" stop-color="#7DC6FD"/></linearGradient></defs></svg>