<svg width="439" height="437" viewBox="0 0 439 437" fill="none" xmlns="http://www.w3.org/2000/svg">
<path d="M198.352 435.631L153.757 426.872C153.757 426.872 153.621 426.872 153.621 426.735V426.599L155.946 422.903L115.728 410.859L66.072 374.18L25.444 319.709V319.573C25.444 319.573 25.444 319.572 25.5808 319.436L35.7036 319.709L5.88239 266.607C5.88239 266.607 5.88239 266.607 5.88239 266.47L37.2084 160.128L1.64175 198.313H1.50496L1.36816 198.176L13.1325 144.8L64.4305 61.8616L116.823 25.0458L176.739 3.42158L247.462 1.36865L300.812 13.5494L337.609 34.4892L379.195 69.5259L413.941 119.754L425.705 149.727V149.864H425.568L413.941 137.272L413.804 160.813L431.861 169.024C431.861 169.024 431.998 169.024 431.998 169.161L437.196 207.346L423.38 265.375L431.177 269.618C431.177 269.618 431.314 269.755 431.177 269.755L409.153 325.321L370.303 376.37L324.067 409.764L273.453 429.883H273.316L268.665 421.261L249.65 425.23L246.504 435.084L246.367 435.221L198.352 435.631ZM249.24 425.23L199.857 435.358L246.231 434.81L249.24 425.23ZM156.356 422.766L198.216 435.358L192.744 399.363L168.258 402.921L156.356 422.766ZM252.249 390.741L198.9 435.221L249.377 424.819L257.311 400.047L252.249 390.741ZM193.017 399.363L198.489 435.221L251.839 390.741L193.017 399.363ZM154.031 426.599L195.617 434.81L156.22 422.903L154.031 426.599ZM268.802 421.124L273.316 429.609L322.425 410.175L268.802 421.124ZM257.448 400.458L249.65 424.819L268.391 420.987L257.448 400.458ZM116.412 410.723L156.083 422.629L167.847 402.921L150.201 405.522L116.412 410.723ZM257.584 400.184L268.802 420.987L323.519 409.764L259.91 392.794L257.584 400.184ZM106.7 389.235L116.002 410.586L149.927 405.385L106.7 389.235ZM67.0296 374.454L115.592 410.312L106.426 389.098L67.0296 374.454ZM259.91 392.52L323.656 409.491L309.84 383.761L260.731 389.646L259.91 392.52ZM330.77 381.16L324.203 409.354L369.756 376.507L330.77 381.16ZM310.25 383.761L323.93 409.354L330.496 381.297L310.25 383.761ZM139.257 348.177L150.474 405.111L168.121 402.511L188.093 369.117L139.257 348.177ZM106.563 388.961L150.201 405.248L138.984 348.177L77.2892 321.625L106.563 388.961ZM188.23 369.664L168.394 402.648L192.607 399.089L188.23 369.664ZM252.523 390.878L257.311 399.91L259.636 392.794L252.523 390.878ZM188.503 369.39L193.017 398.952L251.702 390.467L188.503 369.39ZM252.933 390.604L259.636 392.383L260.457 389.646L252.933 390.604ZM279.472 330.385L252.386 390.33L260.594 389.372L279.472 330.385ZM188.777 369.253L251.976 390.33L227.763 351.872L188.777 369.253ZM227.9 351.735L252.113 390.33L280.019 328.469L227.9 351.735ZM280.429 328.469L261.004 389.372L309.84 383.487L280.429 328.469ZM66.3456 373.907L106.29 388.688L77.1524 321.625L66.3456 373.907ZM280.703 328.469L310.114 383.35L330.496 380.887L335.831 358.031L280.703 328.469ZM336.105 358.168L330.77 380.887L369.756 376.233L336.105 358.168ZM336.241 357.894L370.166 376.096L367.841 326.552L343.628 327.1L336.241 357.894ZM367.978 326.552L370.303 375.686L388.634 326.142L367.978 326.552ZM388.907 326.142L370.714 375.549L408.879 325.731L388.907 326.142ZM36.114 319.983L65.9352 373.359L58.8219 320.804L36.114 319.983ZM59.0955 320.804L66.072 373.222L76.742 321.352L59.0955 320.804ZM25.8544 319.709L64.9777 372.264L35.7036 319.983L25.8544 319.709ZM139.12 347.903L188.23 369.117L200.815 309.308L132.828 316.014L139.12 347.903ZM201.088 309.445L188.64 368.98L227.626 351.598L201.088 309.445ZM280.84 328.332L335.831 357.757L343.081 326.963L280.84 328.332ZM201.225 309.308L227.763 351.598L279.882 328.332L201.225 309.308ZM77.5628 321.352L138.847 347.766L132.554 315.877L77.5628 321.352ZM363.464 240.193L280.703 328.058L343.218 326.826L363.464 240.193ZM201.088 308.897L280.156 327.921L244.042 218.705L201.088 308.897ZM244.315 218.568L280.429 327.784L309.703 230.339L244.315 218.568ZM309.84 230.202L280.566 327.647L363.327 239.782L309.84 230.202ZM363.6 240.74L343.492 326.826L367.704 326.279L363.6 240.74ZM363.874 240.329L367.978 326.279L388.771 325.868L397.115 303.286L363.874 240.329ZM397.252 303.56L389.044 325.868L408.879 325.458L397.252 303.56ZM397.389 303.149L409.016 325.047L412.983 261.269L397.389 303.149ZM413.257 260.448L409.29 323.815L423.106 265.649L413.257 260.448ZM423.38 265.923L409.7 323.678L431.04 270.029L423.38 265.923ZM59.0955 320.531L76.6052 321.078L57.1804 306.16L59.0955 320.531ZM117.507 239.098L77.2892 321.078L132.554 315.604L117.507 239.098ZM57.1804 305.749L76.8788 320.941L74.5533 249.499L50.4774 255.521L57.1804 305.749ZM74.8269 249.499L77.1524 320.667L117.233 238.824L74.8269 249.499ZM35.9772 319.709L58.8219 320.531L56.9068 305.886L6.56636 267.018L35.9772 319.709ZM117.78 238.961L132.828 315.604L200.678 308.897L117.78 238.961ZM117.917 238.687L200.951 308.76L243.905 218.432L117.917 238.687ZM6.42956 266.607L56.9068 305.476L50.2038 255.658L6.42956 266.607ZM364.011 240.056L397.252 302.875L412.983 260.448L364.011 240.056ZM37.4819 160.265L6.29277 266.333L50.2038 255.384L37.4819 160.265ZM413.394 260.174L423.243 265.512L436.649 208.851L413.394 260.174ZM364.011 239.782L412.983 260.174L413.257 218.295L364.011 239.782ZM413.53 218.021L413.257 259.627L436.785 207.893L413.53 218.021ZM37.6187 159.992L50.3406 255.384L74.4165 249.362L72.6382 194.618L37.6187 159.992ZM72.9117 194.754L74.6901 249.089L117.233 238.413L72.9117 194.754ZM309.977 230.065L363.464 239.645L325.435 178.742L309.977 230.065ZM399.44 154.791L363.874 239.508L413.257 217.884L413.53 161.086L399.44 154.791ZM340.756 127.829L363.737 239.235L399.304 154.517L340.756 127.829ZM325.435 178.194L363.327 238.961L340.482 128.103L325.435 178.194ZM205.466 159.581L117.917 238.413L243.768 218.295L205.466 159.581ZM72.9117 194.481L117.37 238.413L123.936 151.917L71.407 148.632L72.9117 194.481ZM124.21 151.78L117.644 238.277L205.329 159.307L195.069 143.705L124.21 151.78ZM244.452 218.295L309.703 229.928L325.161 178.194L311.071 155.475L244.452 218.295ZM278.651 103.741L244.315 217.884L310.798 155.338L278.651 103.741ZM227.216 140.01L244.042 217.884L278.377 103.878L227.216 140.01ZM413.804 161.223L413.53 217.747L436.922 207.483L431.724 169.435L413.804 161.223ZM205.739 159.307L243.905 217.61L227.079 140.147L205.739 159.307ZM13.4061 144.937L1.77855 197.765L37.3451 159.444L40.9018 146.579L13.4061 144.937ZM37.6187 159.581L72.6382 194.207L71.1334 148.495L44.7321 146.853L37.6187 159.581ZM311.208 155.338L325.298 177.92L340.208 128.103L311.208 155.338ZM399.577 154.517L413.53 160.95L413.667 137.272L409.016 132.209L399.577 154.517ZM195.343 143.705L205.466 159.17L226.669 140.147L195.343 143.705ZM41.1754 146.716L37.8923 158.623L44.4585 146.99L41.1754 146.716ZM279.061 103.741L311.208 155.201L340.345 127.692L279.061 103.741ZM341.029 127.692L399.304 154.38L408.743 131.798L399.44 121.67L341.029 127.692ZM71.407 148.221L123.663 151.506L69.9023 102.92L71.407 148.221ZM163.333 95.119L124.347 151.506L194.933 143.431L163.333 95.119ZM70.0391 102.646L123.799 151.369L120.79 98.5406L70.0391 102.646ZM121.2 98.4037L124.21 151.232L163.059 94.9822L121.2 98.4037ZM413.941 136.999L425.158 149.316L413.941 120.712V136.999ZM45.0056 146.579L71.1334 148.221L69.6287 103.057L45.0056 146.579ZM41.3122 146.442L44.7321 146.716L69.3551 103.194L49.1095 118.112L41.3122 146.442ZM13.6797 144.663L41.0386 146.305L48.8359 118.386L13.6797 144.663ZM64.1569 62.8196L13.8165 144.252L48.8359 117.975L64.1569 62.8196ZM163.88 95.3928L195.343 143.431L226.806 139.873L163.88 95.3928ZM212.032 98.5406L227.079 139.599L278.24 103.468L212.032 98.5406ZM163.743 94.9822L226.806 139.462L211.758 98.5406L163.743 94.9822ZM409.153 131.798L413.667 136.725L413.804 120.712L409.153 131.798ZM399.851 121.533L409.016 131.524L413.804 120.165L399.851 121.533ZM367.841 87.0442L340.892 127.418L399.304 121.26L367.841 87.0442ZM278.924 103.331L340.345 127.418L329.949 52.1444L278.924 103.331ZM330.222 52.1444L340.619 127.282L367.567 86.9073L351.973 69.7996L330.222 52.1444ZM367.978 86.7705L399.577 121.26L413.53 119.754L369.619 84.0332L367.978 86.7705ZM369.893 84.0332L413.257 119.344L379.195 70.0733L369.893 84.0332ZM64.5673 62.5459L49.2463 117.701L69.6287 102.373L64.5673 62.5459ZM211.895 98.2669L278.377 103.194L239.664 26.1407L198.9 62.9565L211.895 98.2669ZM239.938 26.1407L278.651 103.057L296.434 31.2045L239.938 26.1407ZM296.571 31.2045L278.924 103.057L329.949 51.8707L315.312 32.8469L296.571 31.2045ZM118.328 52.6919L70.1759 102.373L120.927 98.13L118.328 52.6919ZM64.7041 61.9985L69.9023 102.099L97.8084 56.1134L64.7041 61.9985ZM98.2188 56.1134L70.4494 101.552L118.054 52.555L98.2188 56.1134ZM163.607 94.7084L211.621 98.2669L198.626 63.0934L163.607 94.7084ZM118.601 52.6919L121.2 98.13L163.059 94.7084L118.601 52.6919ZM118.738 52.4181L163.333 94.5716L173.456 26.1407L134.88 38.8688L118.738 52.4181ZM173.729 26.0038L163.607 94.4347L198.763 62.8196L183.989 22.7191L173.729 26.0038ZM353.341 70.8945L367.704 86.6336L369.482 84.0332L353.341 70.8945ZM352.11 69.5259L369.619 83.7595L378.921 69.7996L338.977 55.1554L352.11 69.5259ZM338.567 54.7448L378.511 69.389L337.609 34.8998L332.001 47.628L338.567 54.7448ZM330.77 52.2813L350.742 68.431L338.567 55.0185L330.77 52.2813ZM184.126 22.5822L198.9 62.5459L239.391 26.0038L207.928 14.6443L184.126 22.5822ZM116.412 25.5932L65.388 61.451L101.912 49.4072L116.412 25.5932ZM101.775 49.8178L66.4824 61.451L98.082 55.8397L101.775 49.8178ZM102.049 49.6809L98.3555 55.8397L118.328 52.2813L117.917 44.4801L102.049 49.6809ZM330.222 51.7338L338.02 54.6079L331.864 47.9017L330.222 51.7338ZM118.191 44.3433L118.601 52.1444L134.059 39.1425L118.191 44.3433ZM315.722 32.8469L330.086 51.4601L331.727 47.628L318.321 33.1206L315.722 32.8469ZM116.823 25.4563L102.323 49.2703L117.917 44.2064L116.823 25.4563ZM318.732 33.1206L331.864 47.3542L337.336 34.7629L318.732 33.1206ZM117.096 25.1826L118.191 44.0696L134.743 38.5951L176.328 3.6953L117.096 25.1826ZM176.739 3.6953L135.427 38.4582L173.456 25.8669L176.739 3.6953ZM318.458 32.8469L336.925 34.4892L301.496 14.2337L318.458 32.8469ZM315.449 32.5732L318.048 32.8469L302.727 16.1497L315.449 32.5732ZM296.708 30.9308L315.175 32.5732L300.948 14.0968L296.708 30.9308ZM240.622 25.8669L296.434 30.794L300.675 13.8231L240.622 25.8669ZM208.475 14.6443L239.664 25.8669L247.325 1.9161L208.475 14.6443ZM247.462 1.77924L239.801 25.8669L299.991 13.8231L247.462 1.77924ZM177.012 3.96903L173.729 25.7301L183.715 22.4454L177.012 3.96903ZM177.149 3.55844L183.989 22.3085L207.518 14.5074L177.149 3.55844ZM177.696 3.55844L208.065 14.5074L246.504 1.77924L177.696 3.55844Z" fill="url(#paint0_linear_82_20427)"/>
<path d="M164.838 94.8448C164.838 94.0237 164.154 93.3394 163.333 93.3394C162.512 93.3394 161.828 94.0237 161.828 94.8448C161.828 95.666 162.512 96.3503 163.333 96.3503C164.154 96.3503 164.838 95.666 164.838 94.8448Z" fill="url(#paint1_linear_82_20427)"/>
<path d="M415.445 119.891C415.445 119.07 414.761 118.385 413.94 118.385C413.12 118.385 412.436 119.07 412.436 119.891C412.436 120.712 413.12 121.396 413.94 121.396C414.761 121.533 415.445 120.849 415.445 119.891Z" fill="url(#paint2_linear_82_20427)"/>
<path d="M427.21 150.001C427.21 149.179 426.526 148.495 425.705 148.495C424.884 148.495 424.2 149.179 424.2 150.001C424.2 150.822 424.884 151.506 425.705 151.506C426.526 151.506 427.21 150.822 427.21 150.001Z" fill="url(#paint3_linear_82_20427)"/>
<path d="M302.316 13.6861C302.316 12.865 301.632 12.1807 300.811 12.1807C299.991 12.1807 299.307 12.865 299.307 13.6861C299.307 14.5073 299.991 15.1916 300.811 15.1916C301.632 15.3285 302.316 14.6442 302.316 13.6861Z" fill="url(#paint4_linear_82_20427)"/>
<path d="M248.966 1.50548C248.966 0.684309 248.282 0 247.461 0C246.64 0 245.956 0.684309 245.956 1.50548C245.956 2.32665 246.64 3.01096 247.461 3.01096C248.282 3.14782 248.966 2.46351 248.966 1.50548Z" fill="url(#paint5_linear_82_20427)"/>
<path d="M66.072 61.8614C66.072 61.0403 65.388 60.356 64.5672 60.356C63.7465 60.356 63.0625 61.0403 63.0625 61.8614C63.0625 62.6826 63.7465 63.3669 64.5672 63.3669C65.388 63.5038 66.072 62.8195 66.072 61.8614Z" fill="url(#paint6_linear_82_20427)"/>
<path d="M38.987 159.581C38.987 158.76 38.303 158.076 37.4823 158.076C36.6615 158.076 35.9775 158.76 35.9775 159.581C35.9775 160.402 36.6615 161.087 37.4823 161.087C38.303 161.087 38.987 160.402 38.987 159.581Z" fill="url(#paint7_linear_82_20427)"/>
<path d="M71.2702 102.51C71.2702 101.689 70.5862 101.004 69.7655 101.004C68.9447 101.004 68.2607 101.689 68.2607 102.51C68.2607 103.331 68.9447 104.015 69.7655 104.015C70.5862 104.152 71.2702 103.468 71.2702 102.51Z" fill="url(#paint8_linear_82_20427)"/>
<path d="M78.6569 321.215C78.6569 320.394 77.973 319.709 77.1522 319.709C76.3314 319.709 75.6475 320.394 75.6475 321.215C75.6475 322.036 76.3314 322.72 77.1522 322.72C77.8362 322.72 78.6569 322.036 78.6569 321.215Z" fill="url(#paint9_linear_82_20427)"/>
<path d="M189.871 369.253C189.871 368.432 189.187 367.748 188.366 367.748C187.545 367.748 186.861 368.432 186.861 369.253C186.861 370.074 187.545 370.758 188.366 370.758C189.187 370.758 189.871 370.074 189.871 369.253Z" fill="url(#paint10_linear_82_20427)"/>
<path d="M202.456 309.034C202.456 308.213 201.772 307.529 200.951 307.529C200.13 307.529 199.446 308.213 199.446 309.034C199.446 309.855 200.13 310.54 200.951 310.54C201.772 310.54 202.456 309.855 202.456 309.034Z" fill="url(#paint11_linear_82_20427)"/>
<path d="M78.6569 321.215C78.6569 320.394 77.973 319.709 77.1522 319.709C76.3314 319.709 75.6475 320.394 75.6475 321.215C75.6475 322.036 76.3314 322.72 77.1522 322.72C77.8362 322.72 78.6569 322.036 78.6569 321.215Z" fill="url(#paint12_linear_82_20427)"/>
<path d="M119.148 238.687C119.148 237.866 118.464 237.182 117.643 237.182C116.823 237.182 116.139 237.866 116.139 238.687C116.139 239.508 116.823 240.193 117.643 240.193C118.327 240.193 119.148 239.508 119.148 238.687Z" fill="url(#paint13_linear_82_20427)"/>
<path d="M151.842 405.385C151.842 404.564 151.158 403.879 150.337 403.879C149.516 403.879 148.832 404.564 148.832 405.385C148.832 406.206 149.516 406.89 150.337 406.89C151.158 406.89 151.842 406.206 151.842 405.385Z" fill="url(#paint14_linear_82_20427)"/>
<path d="M253.754 390.604C253.754 389.783 253.07 389.099 252.249 389.099C251.428 389.099 250.744 389.783 250.744 390.604C250.744 391.425 251.428 392.11 252.249 392.11C253.07 392.11 253.754 391.425 253.754 390.604Z" fill="url(#paint15_linear_82_20427)"/>
<path d="M199.994 435.495C199.994 434.674 199.31 433.989 198.489 433.989C197.668 433.989 196.984 434.674 196.984 435.495C196.984 436.316 197.668 437 198.489 437C199.31 437 199.994 436.316 199.994 435.495Z" fill="url(#paint16_linear_82_20427)"/>
<path d="M189.871 369.253C189.871 368.432 189.187 367.748 188.366 367.748C187.545 367.748 186.861 368.432 186.861 369.253C186.861 370.074 187.545 370.758 188.366 370.758C189.187 370.758 189.871 370.074 189.871 369.253Z" fill="url(#paint17_linear_82_20427)"/>
<path d="M155.398 426.735C155.398 425.914 154.714 425.23 153.893 425.23C153.073 425.23 152.389 425.914 152.389 426.735C152.389 427.557 153.073 428.241 153.893 428.241C154.714 428.241 155.398 427.557 155.398 426.735Z" fill="url(#paint18_linear_82_20427)"/>
<path d="M199.994 435.495C199.994 434.674 199.31 433.989 198.489 433.989C197.668 433.989 196.984 434.674 196.984 435.495C196.984 436.316 197.668 437 198.489 437C199.31 437 199.994 436.316 199.994 435.495Z" fill="url(#paint19_linear_82_20427)"/>
<path d="M117.37 410.723C117.37 409.902 116.686 409.217 115.865 409.217C115.044 409.217 114.36 409.902 114.36 410.723C114.36 411.544 115.044 412.228 115.865 412.228C116.686 412.228 117.37 411.544 117.37 410.723Z" fill="url(#paint20_linear_82_20427)"/>
<path d="M151.842 405.385C151.842 404.564 151.158 403.879 150.337 403.879C149.516 403.879 148.832 404.564 148.832 405.385C148.832 406.206 149.516 406.89 150.337 406.89C151.158 406.89 151.842 406.206 151.842 405.385Z" fill="url(#paint21_linear_82_20427)"/>
<path d="M67.7136 374.044C67.7136 373.222 67.0296 372.538 66.2089 372.538C65.3881 372.538 64.7041 373.222 64.7041 374.044C64.7041 374.865 65.3881 375.549 66.2089 375.549C67.0296 375.549 67.7136 374.865 67.7136 374.044Z" fill="url(#paint22_linear_82_20427)"/>
<path d="M117.37 410.723C117.37 409.902 116.686 409.217 115.865 409.217C115.044 409.217 114.36 409.902 114.36 410.723C114.36 411.544 115.044 412.228 115.865 412.228C116.686 412.228 117.37 411.544 117.37 410.723Z" fill="url(#paint23_linear_82_20427)"/>
<path d="M78.6569 321.215C78.6569 320.394 77.973 319.709 77.1522 319.709C76.3314 319.709 75.6475 320.394 75.6475 321.215C75.6475 322.036 76.3314 322.72 77.1522 322.72C77.8362 322.72 78.6569 322.036 78.6569 321.215Z" fill="url(#paint24_linear_82_20427)"/>
<path d="M67.7136 374.044C67.7136 373.222 67.0296 372.538 66.2089 372.538C65.3881 372.538 64.7041 373.222 64.7041 374.044C64.7041 374.865 65.3881 375.549 66.2089 375.549C67.0296 375.549 67.7136 374.865 67.7136 374.044Z" fill="url(#paint25_linear_82_20427)"/>
<path d="M27.0847 319.572C27.0847 318.751 26.4007 318.067 25.5799 318.067C24.7592 318.067 24.0752 318.751 24.0752 319.572C24.0752 320.394 24.7592 321.078 25.5799 321.078C26.4007 321.078 27.0847 320.394 27.0847 319.572Z" fill="url(#paint26_linear_82_20427)"/>
<path d="M78.6569 321.215C78.6569 320.394 77.973 319.709 77.1522 319.709C76.3314 319.709 75.6475 320.394 75.6475 321.215C75.6475 322.036 76.3314 322.72 77.1522 322.72C77.8362 322.72 78.6569 322.036 78.6569 321.215Z" fill="url(#paint27_linear_82_20427)"/>
<path d="M7.66085 266.607C7.66085 265.785 6.97688 265.101 6.15611 265.101C5.33534 265.101 4.65137 265.785 4.65137 266.607C4.65137 267.428 5.33534 268.112 6.15611 268.112C6.97688 268.112 7.66085 267.428 7.66085 266.607Z" fill="url(#paint28_linear_82_20427)"/>
<path d="M67.7136 374.044C67.7136 373.222 67.0296 372.538 66.2089 372.538C65.3881 372.538 64.7041 373.222 64.7041 374.044C64.7041 374.865 65.3881 375.549 66.2089 375.549C67.0296 375.549 67.7136 374.865 67.7136 374.044Z" fill="url(#paint29_linear_82_20427)"/>
<path d="M38.987 159.581C38.987 158.76 38.303 158.076 37.4823 158.076C36.6615 158.076 35.9775 158.76 35.9775 159.581C35.9775 160.402 36.6615 161.087 37.4823 161.087C38.303 161.087 38.987 160.402 38.987 159.581Z" fill="url(#paint30_linear_82_20427)"/>
<path d="M119.148 238.687C119.148 237.866 118.464 237.182 117.643 237.182C116.823 237.182 116.139 237.866 116.139 238.687C116.139 239.508 116.823 240.193 117.643 240.193C118.327 240.193 119.148 239.508 119.148 238.687Z" fill="url(#paint31_linear_82_20427)"/>
<path d="M7.66085 266.607C7.66085 265.785 6.97688 265.101 6.15611 265.101C5.33534 265.101 4.65137 265.785 4.65137 266.607C4.65137 267.428 5.33534 268.112 6.15611 268.112C6.97688 268.112 7.66085 267.428 7.66085 266.607Z" fill="url(#paint32_linear_82_20427)"/>
<path d="M38.987 159.581C38.987 158.76 38.303 158.076 37.4823 158.076C36.6615 158.076 35.9775 158.76 35.9775 159.581C35.9775 160.402 36.6615 161.087 37.4823 161.087C38.303 161.087 38.987 160.402 38.987 159.581Z" fill="url(#paint33_linear_82_20427)"/>
<path d="M3.14628 198.176C3.14628 197.355 2.4623 196.67 1.64154 196.67C0.820768 196.67 0 197.355 0 198.176C0 198.997 0.683973 199.681 1.50474 199.681C2.32551 199.681 3.14628 199.134 3.14628 198.176Z" fill="url(#paint34_linear_82_20427)"/>
<path d="M14.9108 144.8C14.9108 143.979 14.2269 143.294 13.4061 143.294C12.5853 143.294 11.9014 143.979 11.9014 144.8C11.9014 145.621 12.5853 146.305 13.4061 146.305C14.2269 146.442 14.9108 145.621 14.9108 144.8Z" fill="url(#paint35_linear_82_20427)"/>
<path d="M125.577 151.643C125.577 150.822 124.893 150.137 124.072 150.137C123.251 150.137 122.567 150.822 122.567 151.643C122.567 152.464 123.251 153.148 124.072 153.148C124.893 153.148 125.577 152.464 125.577 151.643Z" fill="url(#paint36_linear_82_20427)"/>
<path d="M119.148 238.687C119.148 237.866 118.464 237.182 117.643 237.182C116.823 237.182 116.139 237.866 116.139 238.687C116.139 239.508 116.823 240.193 117.643 240.193C118.327 240.193 119.148 239.508 119.148 238.687Z" fill="url(#paint37_linear_82_20427)"/>
<path d="M202.456 309.034C202.456 308.213 201.772 307.529 200.951 307.529C200.13 307.529 199.446 308.213 199.446 309.034C199.446 309.855 200.13 310.54 200.951 310.54C201.772 310.54 202.456 309.855 202.456 309.034Z" fill="url(#paint38_linear_82_20427)"/>
<path d="M253.754 390.604C253.754 389.783 253.07 389.099 252.249 389.099C251.428 389.099 250.744 389.783 250.744 390.604C250.744 391.425 251.428 392.11 252.249 392.11C253.07 392.11 253.754 391.425 253.754 390.604Z" fill="url(#paint39_linear_82_20427)"/>
<path d="M189.871 369.253C189.871 368.432 189.187 367.748 188.366 367.748C187.545 367.748 186.861 368.432 186.861 369.253C186.861 370.074 187.545 370.758 188.366 370.758C189.187 370.758 189.871 370.074 189.871 369.253Z" fill="url(#paint40_linear_82_20427)"/>
<path d="M281.933 328.195C281.933 327.374 281.249 326.689 280.429 326.689C279.608 326.689 278.924 327.374 278.924 328.195C278.924 329.016 279.608 329.7 280.429 329.7C281.249 329.7 281.933 329.016 281.933 328.195Z" fill="url(#paint41_linear_82_20427)"/>
<path d="M202.456 309.034C202.456 308.213 201.772 307.529 200.951 307.529C200.13 307.529 199.446 308.213 199.446 309.034C199.446 309.855 200.13 310.54 200.951 310.54C201.772 310.54 202.456 309.855 202.456 309.034Z" fill="url(#paint42_linear_82_20427)"/>
<path d="M245.683 218.432C245.683 217.611 244.999 216.926 244.179 216.926C243.358 216.926 242.674 217.611 242.674 218.432C242.674 219.253 243.358 219.937 244.179 219.937C244.999 219.937 245.683 219.253 245.683 218.432Z" fill="url(#paint43_linear_82_20427)"/>
<path d="M119.148 238.687C119.148 237.866 118.464 237.182 117.643 237.182C116.823 237.182 116.139 237.866 116.139 238.687C116.139 239.508 116.823 240.193 117.643 240.193C118.327 240.193 119.148 239.508 119.148 238.687Z" fill="url(#paint44_linear_82_20427)"/>
<path d="M228.584 139.873C228.584 139.052 227.9 138.368 227.079 138.368C226.258 138.368 225.574 139.052 225.574 139.873C225.574 140.694 226.258 141.379 227.079 141.379C227.9 141.379 228.584 140.831 228.584 139.873Z" fill="url(#paint45_linear_82_20427)"/>
<path d="M125.577 151.643C125.577 150.822 124.893 150.137 124.072 150.137C123.251 150.137 122.567 150.822 122.567 151.643C122.567 152.464 123.251 153.148 124.072 153.148C124.893 153.148 125.577 152.464 125.577 151.643Z" fill="url(#paint46_linear_82_20427)"/>
<path d="M71.2702 102.51C71.2702 101.689 70.5862 101.004 69.7655 101.004C68.9447 101.004 68.2607 101.689 68.2607 102.51C68.2607 103.331 68.9447 104.015 69.7655 104.015C70.5862 104.152 71.2702 103.468 71.2702 102.51Z" fill="url(#paint47_linear_82_20427)"/>
<path d="M14.9108 144.8C14.9108 143.979 14.2269 143.294 13.4061 143.294C12.5853 143.294 11.9014 143.979 11.9014 144.8C11.9014 145.621 12.5853 146.305 13.4061 146.305C14.2269 146.442 14.9108 145.621 14.9108 144.8Z" fill="url(#paint48_linear_82_20427)"/>
<path d="M66.072 61.8614C66.072 61.0403 65.388 60.356 64.5672 60.356C63.7465 60.356 63.0625 61.0403 63.0625 61.8614C63.0625 62.6826 63.7465 63.3669 64.5672 63.3669C65.388 63.5038 66.072 62.8195 66.072 61.8614Z" fill="url(#paint49_linear_82_20427)"/>
<path d="M71.2702 102.51C71.2702 101.689 70.5862 101.004 69.7655 101.004C68.9447 101.004 68.2607 101.689 68.2607 102.51C68.2607 103.331 68.9447 104.015 69.7655 104.015C70.5862 104.152 71.2702 103.468 71.2702 102.51Z" fill="url(#paint50_linear_82_20427)"/>
<path d="M164.838 94.8448C164.838 94.0237 164.154 93.3394 163.333 93.3394C162.512 93.3394 161.828 94.0237 161.828 94.8448C161.828 95.666 162.512 96.3503 163.333 96.3503C164.154 96.3503 164.838 95.666 164.838 94.8448Z" fill="url(#paint51_linear_82_20427)"/>
<path d="M125.577 151.643C125.577 150.822 124.893 150.137 124.072 150.137C123.251 150.137 122.567 150.822 122.567 151.643C122.567 152.464 123.251 153.148 124.072 153.148C124.893 153.148 125.577 152.464 125.577 151.643Z" fill="url(#paint52_linear_82_20427)"/>
<path d="M120.105 52.4181C120.105 51.5969 119.421 50.9126 118.6 50.9126C117.78 50.9126 117.096 51.5969 117.096 52.4181C117.096 53.2393 117.78 53.9236 118.6 53.9236C119.421 53.9236 120.105 53.2393 120.105 52.4181Z" fill="url(#paint53_linear_82_20427)"/>
<path d="M71.2702 102.51C71.2702 101.689 70.5862 101.004 69.7655 101.004C68.9447 101.004 68.2607 101.689 68.2607 102.51C68.2607 103.331 68.9447 104.015 69.7655 104.015C70.5862 104.152 71.2702 103.468 71.2702 102.51Z" fill="url(#paint54_linear_82_20427)"/>
<path d="M118.464 25.0455C118.464 24.2243 117.78 23.54 116.959 23.54C116.138 23.54 115.454 24.2243 115.454 25.0455C115.454 25.8667 116.138 26.551 116.959 26.551C117.78 26.6879 118.464 25.8667 118.464 25.0455Z" fill="url(#paint55_linear_82_20427)"/>
<path d="M66.072 61.8614C66.072 61.0403 65.388 60.356 64.5672 60.356C63.7465 60.356 63.0625 61.0403 63.0625 61.8614C63.0625 62.6826 63.7465 63.3669 64.5672 63.3669C65.388 63.5038 66.072 62.8195 66.072 61.8614Z" fill="url(#paint56_linear_82_20427)"/>
<path d="M120.105 52.4181C120.105 51.5969 119.421 50.9126 118.6 50.9126C117.78 50.9126 117.096 51.5969 117.096 52.4181C117.096 53.2393 117.78 53.9236 118.6 53.9236C119.421 53.9236 120.105 53.2393 120.105 52.4181Z" fill="url(#paint57_linear_82_20427)"/>
<path d="M118.464 25.0455C118.464 24.2243 117.78 23.54 116.959 23.54C116.138 23.54 115.454 24.2243 115.454 25.0455C115.454 25.8667 116.138 26.551 116.959 26.551C117.78 26.6879 118.464 25.8667 118.464 25.0455Z" fill="url(#paint58_linear_82_20427)"/>
<path d="M178.517 3.4215C178.517 2.60032 177.833 1.91602 177.013 1.91602C176.192 1.91602 175.508 2.60032 175.508 3.4215C175.508 4.24267 176.192 4.92698 177.013 4.92698C177.833 4.92698 178.517 4.24267 178.517 3.4215Z" fill="url(#paint59_linear_82_20427)"/>
<path d="M120.105 52.4181C120.105 51.5969 119.421 50.9126 118.6 50.9126C117.78 50.9126 117.096 51.5969 117.096 52.4181C117.096 53.2393 117.78 53.9236 118.6 53.9236C119.421 53.9236 120.105 53.2393 120.105 52.4181Z" fill="url(#paint60_linear_82_20427)"/>
<path d="M164.838 94.8448C164.838 94.0237 164.154 93.3394 163.333 93.3394C162.512 93.3394 161.828 94.0237 161.828 94.8448C161.828 95.666 162.512 96.3503 163.333 96.3503C164.154 96.3503 164.838 95.666 164.838 94.8448Z" fill="url(#paint61_linear_82_20427)"/>
<path d="M245.683 218.432C245.683 217.611 244.999 216.926 244.179 216.926C243.358 216.926 242.674 217.611 242.674 218.432C242.674 219.253 243.358 219.937 244.179 219.937C244.999 219.937 245.683 219.253 245.683 218.432Z" fill="url(#paint62_linear_82_20427)"/>
<path d="M281.933 328.195C281.933 327.374 281.249 326.689 280.429 326.689C279.608 326.689 278.924 327.374 278.924 328.195C278.924 329.016 279.608 329.7 280.429 329.7C281.249 329.7 281.933 329.016 281.933 328.195Z" fill="url(#paint63_linear_82_20427)"/>
<path d="M247.872 434.947C247.872 434.126 247.188 433.441 246.367 433.441C245.546 433.441 244.862 434.126 244.862 434.947C244.862 435.768 245.546 436.452 246.367 436.452C247.188 436.452 247.872 435.768 247.872 434.947Z" fill="url(#paint64_linear_82_20427)"/>
<path d="M199.994 435.495C199.994 434.674 199.31 433.989 198.489 433.989C197.668 433.989 196.984 434.674 196.984 435.495C196.984 436.316 197.668 437 198.489 437C199.31 437 199.994 436.316 199.994 435.495Z" fill="url(#paint65_linear_82_20427)"/>
<path d="M323.93 411.27C324.761 411.27 325.434 410.596 325.434 409.764C325.434 408.933 324.761 408.259 323.93 408.259C323.099 408.259 322.425 408.933 322.425 409.764C322.425 410.596 323.099 411.27 323.93 411.27Z" fill="url(#paint66_linear_82_20427)"/>
<path d="M281.933 328.195C281.933 327.374 281.249 326.689 280.429 326.689C279.608 326.689 278.924 327.374 278.924 328.195C278.924 329.016 279.608 329.7 280.429 329.7C281.249 329.7 281.933 329.016 281.933 328.195Z" fill="url(#paint67_linear_82_20427)"/>
<path d="M253.754 390.604C253.754 389.783 253.07 389.099 252.249 389.099C251.428 389.099 250.744 389.783 250.744 390.604C250.744 391.425 251.428 392.11 252.249 392.11C253.07 392.11 253.754 391.425 253.754 390.604Z" fill="url(#paint68_linear_82_20427)"/>
<path d="M274.82 429.746C274.82 428.925 274.136 428.241 273.315 428.241C272.495 428.241 271.811 428.925 271.811 429.746C271.811 430.567 272.495 431.252 273.315 431.252C274.136 431.389 274.82 430.704 274.82 429.746Z" fill="url(#paint69_linear_82_20427)"/>
<path d="M323.93 411.27C324.761 411.27 325.434 410.596 325.434 409.764C325.434 408.933 324.761 408.259 323.93 408.259C323.099 408.259 322.425 408.933 322.425 409.764C322.425 410.596 323.099 411.27 323.93 411.27Z" fill="url(#paint70_linear_82_20427)"/>
<path d="M253.754 390.604C253.754 389.783 253.07 389.099 252.249 389.099C251.428 389.099 250.744 389.783 250.744 390.604C250.744 391.425 251.428 392.11 252.249 392.11C253.07 392.11 253.754 391.425 253.754 390.604Z" fill="url(#paint71_linear_82_20427)"/>
<path d="M371.808 376.37C371.808 375.549 371.124 374.865 370.304 374.865C369.483 374.865 368.799 375.549 368.799 376.37C368.799 377.191 369.483 377.876 370.304 377.876C371.124 377.876 371.808 377.191 371.808 376.37Z" fill="url(#paint72_linear_82_20427)"/>
<path d="M365.242 239.782C365.242 238.961 364.558 238.276 363.737 238.276C362.916 238.276 362.232 238.961 362.232 239.782C362.232 240.603 362.916 241.287 363.737 241.287C364.558 241.287 365.242 240.603 365.242 239.782Z" fill="url(#paint73_linear_82_20427)"/>
<path d="M323.93 411.27C324.761 411.27 325.434 410.596 325.434 409.764C325.434 408.933 324.761 408.259 323.93 408.259C323.099 408.259 322.425 408.933 322.425 409.764C322.425 410.596 323.099 411.27 323.93 411.27Z" fill="url(#paint74_linear_82_20427)"/>
<path d="M371.808 376.37C371.808 375.549 371.124 374.865 370.304 374.865C369.483 374.865 368.799 375.549 368.799 376.37C368.799 377.191 369.483 377.876 370.304 377.876C371.124 377.876 371.808 377.191 371.808 376.37Z" fill="url(#paint75_linear_82_20427)"/>
<path d="M281.933 328.195C281.933 327.374 281.249 326.689 280.429 326.689C279.608 326.689 278.924 327.374 278.924 328.195C278.924 329.016 279.608 329.7 280.429 329.7C281.249 329.7 281.933 329.016 281.933 328.195Z" fill="url(#paint76_linear_82_20427)"/>
<path d="M410.657 325.594C410.657 324.773 409.973 324.089 409.152 324.089C408.331 324.089 407.647 324.773 407.647 325.594C407.647 326.416 408.331 327.1 409.152 327.1C409.973 327.1 410.657 326.416 410.657 325.594Z" fill="url(#paint77_linear_82_20427)"/>
<path d="M371.808 376.37C371.808 375.549 371.124 374.865 370.304 374.865C369.483 374.865 368.799 375.549 368.799 376.37C368.799 377.191 369.483 377.876 370.304 377.876C371.124 377.876 371.808 377.191 371.808 376.37Z" fill="url(#paint78_linear_82_20427)"/>
<path d="M414.762 260.311C414.762 259.49 414.078 258.806 413.257 258.806C412.436 258.806 411.752 259.49 411.752 260.311C411.752 261.132 412.436 261.817 413.257 261.817C414.078 261.817 414.762 261.132 414.762 260.311Z" fill="url(#paint79_linear_82_20427)"/>
<path d="M432.681 270.028C432.681 269.207 431.997 268.523 431.177 268.523C430.356 268.523 429.672 269.207 429.672 270.028C429.672 270.85 430.356 271.534 431.177 271.534C431.997 271.534 432.681 270.85 432.681 270.028Z" fill="url(#paint80_linear_82_20427)"/>
<path d="M410.657 325.594C410.657 324.773 409.973 324.089 409.152 324.089C408.331 324.089 407.647 324.773 407.647 325.594C407.647 326.416 408.331 327.1 409.152 327.1C409.973 327.1 410.657 326.416 410.657 325.594Z" fill="url(#paint81_linear_82_20427)"/>
<path d="M438.7 207.62C438.7 206.799 438.016 206.114 437.195 206.114C436.374 206.114 435.69 206.799 435.69 207.62C435.69 208.441 436.374 209.125 437.195 209.125C437.879 209.125 438.7 208.441 438.7 207.62Z" fill="url(#paint82_linear_82_20427)"/>
<path d="M414.762 260.311C414.762 259.49 414.078 258.806 413.257 258.806C412.436 258.806 411.752 259.49 411.752 260.311C411.752 261.132 412.436 261.817 413.257 261.817C414.078 261.817 414.762 261.132 414.762 260.311Z" fill="url(#paint83_linear_82_20427)"/>
<path d="M410.657 325.594C410.657 324.773 409.973 324.089 409.152 324.089C408.331 324.089 407.647 324.773 407.647 325.594C407.647 326.416 408.331 327.1 409.152 327.1C409.973 327.1 410.657 326.416 410.657 325.594Z" fill="url(#paint84_linear_82_20427)"/>
<path d="M365.242 239.782C365.242 238.961 364.558 238.276 363.737 238.276C362.916 238.276 362.232 238.961 362.232 239.782C362.232 240.603 362.916 241.287 363.737 241.287C364.558 241.287 365.242 240.603 365.242 239.782Z" fill="url(#paint85_linear_82_20427)"/>
<path d="M281.933 328.195C281.933 327.374 281.249 326.689 280.429 326.689C279.608 326.689 278.924 327.374 278.924 328.195C278.924 329.016 279.608 329.7 280.429 329.7C281.249 329.7 281.933 329.016 281.933 328.195Z" fill="url(#paint86_linear_82_20427)"/>
<path d="M342.123 127.692C342.123 126.871 341.439 126.187 340.618 126.187C339.797 126.187 339.113 126.871 339.113 127.692C339.113 128.513 339.797 129.197 340.618 129.197C341.439 129.197 342.123 128.513 342.123 127.692Z" fill="url(#paint87_linear_82_20427)"/>
<path d="M245.683 218.432C245.683 217.611 244.999 216.926 244.179 216.926C243.358 216.926 242.674 217.611 242.674 218.432C242.674 219.253 243.358 219.937 244.179 219.937C244.999 219.937 245.683 219.253 245.683 218.432Z" fill="url(#paint88_linear_82_20427)"/>
<path d="M365.242 239.782C365.242 238.961 364.558 238.276 363.737 238.276C362.916 238.276 362.232 238.961 362.232 239.782C362.232 240.603 362.916 241.287 363.737 241.287C364.558 241.287 365.242 240.603 365.242 239.782Z" fill="url(#paint89_linear_82_20427)"/>
<path d="M280.155 103.467C280.155 102.646 279.471 101.962 278.65 101.962C277.829 101.962 277.146 102.646 277.146 103.467C277.146 104.289 277.829 104.973 278.65 104.973C279.471 104.973 280.155 104.289 280.155 103.467Z" fill="url(#paint90_linear_82_20427)"/>
<path d="M228.584 139.873C228.584 139.052 227.9 138.368 227.079 138.368C226.258 138.368 225.574 139.052 225.574 139.873C225.574 140.694 226.258 141.379 227.079 141.379C227.9 141.379 228.584 140.831 228.584 139.873Z" fill="url(#paint91_linear_82_20427)"/>
<path d="M245.683 218.432C245.683 217.611 244.999 216.926 244.179 216.926C243.358 216.926 242.674 217.611 242.674 218.432C242.674 219.253 243.358 219.937 244.179 219.937C244.999 219.937 245.683 219.253 245.683 218.432Z" fill="url(#paint92_linear_82_20427)"/>
<path d="M280.155 103.467C280.155 102.646 279.471 101.962 278.65 101.962C277.829 101.962 277.146 102.646 277.146 103.467C277.146 104.289 277.829 104.973 278.65 104.973C279.471 104.973 280.155 104.289 280.155 103.467Z" fill="url(#paint93_linear_82_20427)"/>
<path d="M164.838 94.8448C164.838 94.0237 164.154 93.3394 163.333 93.3394C162.512 93.3394 161.828 94.0237 161.828 94.8448C161.828 95.666 162.512 96.3503 163.333 96.3503C164.154 96.3503 164.838 95.666 164.838 94.8448Z" fill="url(#paint94_linear_82_20427)"/>
<path d="M228.584 139.873C228.584 139.052 227.9 138.368 227.079 138.368C226.258 138.368 225.574 139.052 225.574 139.873C225.574 140.694 226.258 141.379 227.079 141.379C227.9 141.379 228.584 140.831 228.584 139.873Z" fill="url(#paint95_linear_82_20427)"/>
<path d="M178.517 3.4215C178.517 2.60032 177.833 1.91602 177.013 1.91602C176.192 1.91602 175.508 2.60032 175.508 3.4215C175.508 4.24267 176.192 4.92698 177.013 4.92698C177.833 4.92698 178.517 4.24267 178.517 3.4215Z" fill="url(#paint96_linear_82_20427)"/>
<path d="M164.838 94.8448C164.838 94.0237 164.154 93.3394 163.333 93.3394C162.512 93.3394 161.828 94.0237 161.828 94.8448C161.828 95.666 162.512 96.3503 163.333 96.3503C164.154 96.3503 164.838 95.666 164.838 94.8448Z" fill="url(#paint97_linear_82_20427)"/>
<path d="M241.305 26.004C241.305 25.1828 240.621 24.4985 239.801 24.4985C238.98 24.4985 238.296 25.1828 238.296 26.004C238.296 26.8252 238.98 27.5095 239.801 27.5095C240.621 27.5095 241.305 26.8252 241.305 26.004Z" fill="url(#paint98_linear_82_20427)"/>
<path d="M248.966 1.50548C248.966 0.684309 248.282 0 247.461 0C246.64 0 245.956 0.684309 245.956 1.50548C245.956 2.32665 246.64 3.01096 247.461 3.01096C248.282 3.14782 248.966 2.46351 248.966 1.50548Z" fill="url(#paint99_linear_82_20427)"/>
<path d="M178.517 3.4215C178.517 2.60032 177.833 1.91602 177.013 1.91602C176.192 1.91602 175.508 2.60032 175.508 3.4215C175.508 4.24267 176.192 4.92698 177.013 4.92698C177.833 4.92698 178.517 4.24267 178.517 3.4215Z" fill="url(#paint100_linear_82_20427)"/>
<path d="M241.305 26.004C241.305 25.1828 240.621 24.4985 239.801 24.4985C238.98 24.4985 238.296 25.1828 238.296 26.004C238.296 26.8252 238.98 27.5095 239.801 27.5095C240.621 27.5095 241.305 26.8252 241.305 26.004Z" fill="url(#paint101_linear_82_20427)"/>
<path d="M280.155 103.467C280.155 102.646 279.471 101.962 278.65 101.962C277.829 101.962 277.146 102.646 277.146 103.467C277.146 104.289 277.829 104.973 278.65 104.973C279.471 104.973 280.155 104.289 280.155 103.467Z" fill="url(#paint102_linear_82_20427)"/>
<path d="M302.316 13.6861C302.316 12.865 301.632 12.1807 300.811 12.1807C299.991 12.1807 299.307 12.865 299.307 13.6861C299.307 14.5073 299.991 15.1916 300.811 15.1916C301.632 15.3285 302.316 14.6442 302.316 13.6861Z" fill="url(#paint103_linear_82_20427)"/>
<path d="M241.305 26.004C241.305 25.1828 240.621 24.4985 239.801 24.4985C238.98 24.4985 238.296 25.1828 238.296 26.004C238.296 26.8252 238.98 27.5095 239.801 27.5095C240.621 27.5095 241.305 26.8252 241.305 26.004Z" fill="url(#paint104_linear_82_20427)"/>
<path d="M339.114 34.7633C339.114 33.9421 338.43 33.2578 337.609 33.2578C336.788 33.2578 336.104 33.9421 336.104 34.7633C336.104 35.5845 336.788 36.2688 337.609 36.2688C338.43 36.2688 339.114 35.5845 339.114 34.7633Z" fill="url(#paint105_linear_82_20427)"/>
<path d="M302.316 13.6861C302.316 12.865 301.632 12.1807 300.811 12.1807C299.991 12.1807 299.307 12.865 299.307 13.6861C299.307 14.5073 299.991 15.1916 300.811 15.1916C301.632 15.3285 302.316 14.6442 302.316 13.6861Z" fill="url(#paint106_linear_82_20427)"/>
<path d="M331.591 51.8707C331.591 51.0495 330.907 50.3652 330.086 50.3652C329.265 50.3652 328.581 51.0495 328.581 51.8707C328.581 52.6919 329.265 53.3762 330.086 53.3762C330.907 53.3762 331.591 52.6919 331.591 51.8707Z" fill="url(#paint107_linear_82_20427)"/>
<path d="M339.114 34.7633C339.114 33.9421 338.43 33.2578 337.609 33.2578C336.788 33.2578 336.104 33.9421 336.104 34.7633C336.104 35.5845 336.788 36.2688 337.609 36.2688C338.43 36.2688 339.114 35.5845 339.114 34.7633Z" fill="url(#paint108_linear_82_20427)"/>
<path d="M380.699 69.7994C380.699 68.9782 380.015 68.2939 379.194 68.2939C378.373 68.2939 377.689 68.9782 377.689 69.7994C377.689 70.6206 378.373 71.3049 379.194 71.3049C380.015 71.3049 380.699 70.6206 380.699 69.7994Z" fill="url(#paint109_linear_82_20427)"/>
<path d="M331.591 51.8707C331.591 51.0495 330.907 50.3652 330.086 50.3652C329.265 50.3652 328.581 51.0495 328.581 51.8707C328.581 52.6919 329.265 53.3762 330.086 53.3762C330.907 53.3762 331.591 52.6919 331.591 51.8707Z" fill="url(#paint110_linear_82_20427)"/>
<path d="M280.155 103.467C280.155 102.646 279.471 101.962 278.65 101.962C277.829 101.962 277.146 102.646 277.146 103.467C277.146 104.289 277.829 104.973 278.65 104.973C279.471 104.973 280.155 104.289 280.155 103.467Z" fill="url(#paint111_linear_82_20427)"/>
<path d="M342.123 127.692C342.123 126.871 341.439 126.187 340.618 126.187C339.797 126.187 339.113 126.871 339.113 127.692C339.113 128.513 339.797 129.197 340.618 129.197C341.439 129.197 342.123 128.513 342.123 127.692Z" fill="url(#paint112_linear_82_20427)"/>
<path d="M365.242 239.782C365.242 238.961 364.558 238.276 363.737 238.276C362.916 238.276 362.232 238.961 362.232 239.782C362.232 240.603 362.916 241.287 363.737 241.287C364.558 241.287 365.242 240.603 365.242 239.782Z" fill="url(#paint113_linear_82_20427)"/>
<path d="M414.762 260.311C414.762 259.49 414.078 258.806 413.257 258.806C412.436 258.806 411.752 259.49 411.752 260.311C411.752 261.132 412.436 261.817 413.257 261.817C414.078 261.817 414.762 261.132 414.762 260.311Z" fill="url(#paint114_linear_82_20427)"/>
<path d="M415.445 119.891C415.445 119.07 414.761 118.385 413.94 118.385C413.12 118.385 412.436 119.07 412.436 119.891C412.436 120.712 413.12 121.396 413.94 121.396C414.761 121.533 415.445 120.849 415.445 119.891Z" fill="url(#paint115_linear_82_20427)"/>
<path d="M331.591 51.8707C331.591 51.0495 330.907 50.3652 330.086 50.3652C329.265 50.3652 328.581 51.0495 328.581 51.8707C328.581 52.6919 329.265 53.3762 330.086 53.3762C330.907 53.3762 331.591 52.6919 331.591 51.8707Z" fill="url(#paint116_linear_82_20427)"/>
<path d="M380.699 69.7994C380.699 68.9782 380.015 68.2939 379.194 68.2939C378.373 68.2939 377.689 68.9782 377.689 69.7994C377.689 70.6206 378.373 71.3049 379.194 71.3049C380.015 71.3049 380.699 70.6206 380.699 69.7994Z" fill="url(#paint117_linear_82_20427)"/>
<path d="M342.123 127.692C342.123 126.871 341.439 126.187 340.618 126.187C339.797 126.187 339.113 126.871 339.113 127.692C339.113 128.513 339.797 129.197 340.618 129.197C341.439 129.197 342.123 128.513 342.123 127.692Z" fill="url(#paint118_linear_82_20427)"/>
<path d="M415.445 119.891C415.445 119.07 414.761 118.385 413.94 118.385C413.12 118.385 412.436 119.07 412.436 119.891C412.436 120.712 413.12 121.396 413.94 121.396C414.761 121.533 415.445 120.849 415.445 119.891Z" fill="url(#paint119_linear_82_20427)"/>
<path d="M342.123 127.692C342.123 126.871 341.439 126.187 340.618 126.187C339.797 126.187 339.113 126.871 339.113 127.692C339.113 128.513 339.797 129.197 340.618 129.197C341.439 129.197 342.123 128.513 342.123 127.692Z" fill="url(#paint120_linear_82_20427)"/>
<path d="M433.502 169.435C433.502 168.614 432.818 167.93 431.997 167.93C431.176 167.93 430.492 168.614 430.492 169.435C430.492 170.256 431.176 170.941 431.997 170.941C432.818 170.941 433.502 170.256 433.502 169.435Z" fill="url(#paint121_linear_82_20427)"/>
<path d="M438.7 207.62C438.7 206.799 438.016 206.114 437.195 206.114C436.374 206.114 435.69 206.799 435.69 207.62C435.69 208.441 436.374 209.125 437.195 209.125C437.879 209.125 438.7 208.441 438.7 207.62Z" fill="url(#paint122_linear_82_20427)"/>
<path d="M365.242 239.782C365.242 238.961 364.558 238.276 363.737 238.276C362.916 238.276 362.232 238.961 362.232 239.782C362.232 240.603 362.916 241.287 363.737 241.287C364.558 241.287 365.242 240.603 365.242 239.782Z" fill="url(#paint123_linear_82_20427)"/>
<path d="M415.445 119.891C415.445 119.07 414.761 118.385 413.94 118.385C413.12 118.385 412.436 119.07 412.436 119.891C412.436 120.712 413.12 121.396 413.94 121.396C414.761 121.533 415.445 120.849 415.445 119.891Z" fill="url(#paint124_linear_82_20427)"/>
<defs>
<linearGradient id="paint0_linear_82_20427" x1="-3792.4" y1="219.543" x2="4233.57" y2="219.543" gradientUnits="userSpaceOnUse">
<stop stop-color="#548EF7"/>
<stop offset="1" stop-color="#7DC6FD"/>
</linearGradient>
<linearGradient id="paint1_linear_82_20427" x1="135.631" y1="94.8521" x2="191.052" y2="94.8521" gradientUnits="userSpaceOnUse">
<stop stop-color="#548EF7"/>
<stop offset="1" stop-color="#7DC6FD"/>
</linearGradient>
<linearGradient id="paint2_linear_82_20427" x1="386.239" y1="119.907" x2="441.66" y2="119.907" gradientUnits="userSpaceOnUse">
<stop stop-color="#548EF7"/>
<stop offset="1" stop-color="#7DC6FD"/>
</linearGradient>
<linearGradient id="paint3_linear_82_20427" x1="398.004" y1="150.008" x2="453.424" y2="150.008" gradientUnits="userSpaceOnUse">
<stop stop-color="#548EF7"/>
<stop offset="1" stop-color="#7DC6FD"/>
</linearGradient>
<linearGradient id="paint4_linear_82_20427" x1="273.11" y1="13.7021" x2="328.531" y2="13.7021" gradientUnits="userSpaceOnUse">
<stop stop-color="#548EF7"/>
<stop offset="1" stop-color="#7DC6FD"/>
</linearGradient>
<linearGradient id="paint5_linear_82_20427" x1="219.759" y1="1.52147" x2="275.18" y2="1.52147" gradientUnits="userSpaceOnUse">
<stop stop-color="#548EF7"/>
<stop offset="1" stop-color="#7DC6FD"/>
</linearGradient>
<linearGradient id="paint6_linear_82_20427" x1="36.8657" y1="61.8774" x2="92.2868" y2="61.8774" gradientUnits="userSpaceOnUse">
<stop stop-color="#548EF7"/>
<stop offset="1" stop-color="#7DC6FD"/>
</linearGradient>
<linearGradient id="paint7_linear_82_20427" x1="9.7808" y1="159.588" x2="65.2018" y2="159.588" gradientUnits="userSpaceOnUse">
<stop stop-color="#548EF7"/>
<stop offset="1" stop-color="#7DC6FD"/>
</linearGradient>
<linearGradient id="paint8_linear_82_20427" x1="42.0641" y1="102.526" x2="97.4849" y2="102.526" gradientUnits="userSpaceOnUse">
<stop stop-color="#548EF7"/>
<stop offset="1" stop-color="#7DC6FD"/>
</linearGradient>
<linearGradient id="paint9_linear_82_20427" x1="49.4508" y1="321.222" x2="104.872" y2="321.222" gradientUnits="userSpaceOnUse">
<stop stop-color="#548EF7"/>
<stop offset="1" stop-color="#7DC6FD"/>
</linearGradient>
<linearGradient id="paint10_linear_82_20427" x1="160.665" y1="369.26" x2="216.085" y2="369.26" gradientUnits="userSpaceOnUse">
<stop stop-color="#548EF7"/>
<stop offset="1" stop-color="#7DC6FD"/>
</linearGradient>
<linearGradient id="paint11_linear_82_20427" x1="173.25" y1="309.042" x2="228.67" y2="309.042" gradientUnits="userSpaceOnUse">
<stop stop-color="#548EF7"/>
<stop offset="1" stop-color="#7DC6FD"/>
</linearGradient>
<linearGradient id="paint12_linear_82_20427" x1="49.4508" y1="321.222" x2="104.872" y2="321.222" gradientUnits="userSpaceOnUse">
<stop stop-color="#548EF7"/>
<stop offset="1" stop-color="#7DC6FD"/>
</linearGradient>
<linearGradient id="paint13_linear_82_20427" x1="89.9419" y1="238.694" x2="145.363" y2="238.694" gradientUnits="userSpaceOnUse">
<stop stop-color="#548EF7"/>
<stop offset="1" stop-color="#7DC6FD"/>
</linearGradient>
<linearGradient id="paint14_linear_82_20427" x1="122.635" y1="405.392" x2="178.056" y2="405.392" gradientUnits="userSpaceOnUse">
<stop stop-color="#548EF7"/>
<stop offset="1" stop-color="#7DC6FD"/>
</linearGradient>
<linearGradient id="paint15_linear_82_20427" x1="224.547" y1="390.611" x2="279.968" y2="390.611" gradientUnits="userSpaceOnUse">
<stop stop-color="#548EF7"/>
<stop offset="1" stop-color="#7DC6FD"/>
</linearGradient>
<linearGradient id="paint16_linear_82_20427" x1="170.788" y1="435.502" x2="226.209" y2="435.502" gradientUnits="userSpaceOnUse">
<stop stop-color="#548EF7"/>
<stop offset="1" stop-color="#7DC6FD"/>
</linearGradient>
<linearGradient id="paint17_linear_82_20427" x1="160.665" y1="369.26" x2="216.085" y2="369.26" gradientUnits="userSpaceOnUse">
<stop stop-color="#548EF7"/>
<stop offset="1" stop-color="#7DC6FD"/>
</linearGradient>
<linearGradient id="paint18_linear_82_20427" x1="126.192" y1="426.743" x2="181.613" y2="426.743" gradientUnits="userSpaceOnUse">
<stop stop-color="#548EF7"/>
<stop offset="1" stop-color="#7DC6FD"/>
</linearGradient>
<linearGradient id="paint19_linear_82_20427" x1="170.788" y1="435.502" x2="226.209" y2="435.502" gradientUnits="userSpaceOnUse">
<stop stop-color="#548EF7"/>
<stop offset="1" stop-color="#7DC6FD"/>
</linearGradient>
<linearGradient id="paint20_linear_82_20427" x1="88.1637" y1="410.73" x2="143.585" y2="410.73" gradientUnits="userSpaceOnUse">
<stop stop-color="#548EF7"/>
<stop offset="1" stop-color="#7DC6FD"/>
</linearGradient>
<linearGradient id="paint21_linear_82_20427" x1="122.635" y1="405.392" x2="178.056" y2="405.392" gradientUnits="userSpaceOnUse">
<stop stop-color="#548EF7"/>
<stop offset="1" stop-color="#7DC6FD"/>
</linearGradient>
<linearGradient id="paint22_linear_82_20427" x1="38.5072" y1="374.051" x2="93.9285" y2="374.051" gradientUnits="userSpaceOnUse">
<stop stop-color="#548EF7"/>
<stop offset="1" stop-color="#7DC6FD"/>
</linearGradient>
<linearGradient id="paint23_linear_82_20427" x1="88.1637" y1="410.73" x2="143.585" y2="410.73" gradientUnits="userSpaceOnUse">
<stop stop-color="#548EF7"/>
<stop offset="1" stop-color="#7DC6FD"/>
</linearGradient>
<linearGradient id="paint24_linear_82_20427" x1="49.4508" y1="321.222" x2="104.872" y2="321.222" gradientUnits="userSpaceOnUse">
<stop stop-color="#548EF7"/>
<stop offset="1" stop-color="#7DC6FD"/>
</linearGradient>
<linearGradient id="paint25_linear_82_20427" x1="38.5072" y1="374.051" x2="93.9285" y2="374.051" gradientUnits="userSpaceOnUse">
<stop stop-color="#548EF7"/>
<stop offset="1" stop-color="#7DC6FD"/>
</linearGradient>
<linearGradient id="paint26_linear_82_20427" x1="-2.12153" y1="319.58" x2="53.2994" y2="319.58" gradientUnits="userSpaceOnUse">
<stop stop-color="#548EF7"/>
<stop offset="1" stop-color="#7DC6FD"/>
</linearGradient>
<linearGradient id="paint27_linear_82_20427" x1="49.4508" y1="321.222" x2="104.872" y2="321.222" gradientUnits="userSpaceOnUse">
<stop stop-color="#548EF7"/>
<stop offset="1" stop-color="#7DC6FD"/>
</linearGradient>
<linearGradient id="paint28_linear_82_20427" x1="-21.5454" y1="266.614" x2="33.8756" y2="266.614" gradientUnits="userSpaceOnUse">
<stop stop-color="#548EF7"/>
<stop offset="1" stop-color="#7DC6FD"/>
</linearGradient>
<linearGradient id="paint29_linear_82_20427" x1="38.5072" y1="374.051" x2="93.9285" y2="374.051" gradientUnits="userSpaceOnUse">
<stop stop-color="#548EF7"/>
<stop offset="1" stop-color="#7DC6FD"/>
</linearGradient>
<linearGradient id="paint30_linear_82_20427" x1="9.7808" y1="159.588" x2="65.2018" y2="159.588" gradientUnits="userSpaceOnUse">
<stop stop-color="#548EF7"/>
<stop offset="1" stop-color="#7DC6FD"/>
</linearGradient>
<linearGradient id="paint31_linear_82_20427" x1="89.9419" y1="238.694" x2="145.363" y2="238.694" gradientUnits="userSpaceOnUse">
<stop stop-color="#548EF7"/>
<stop offset="1" stop-color="#7DC6FD"/>
</linearGradient>
<linearGradient id="paint32_linear_82_20427" x1="-21.5454" y1="266.614" x2="33.8756" y2="266.614" gradientUnits="userSpaceOnUse">
<stop stop-color="#548EF7"/>
<stop offset="1" stop-color="#7DC6FD"/>
</linearGradient>
<linearGradient id="paint33_linear_82_20427" x1="9.7808" y1="159.588" x2="65.2018" y2="159.588" gradientUnits="userSpaceOnUse">
<stop stop-color="#548EF7"/>
<stop offset="1" stop-color="#7DC6FD"/>
</linearGradient>
<linearGradient id="paint34_linear_82_20427" x1="-27.3875" y1="198.183" x2="30.5526" y2="198.183" gradientUnits="userSpaceOnUse">
<stop stop-color="#548EF7"/>
<stop offset="1" stop-color="#7DC6FD"/>
</linearGradient>
<linearGradient id="paint35_linear_82_20427" x1="-14.2954" y1="144.815" x2="41.1256" y2="144.815" gradientUnits="userSpaceOnUse">
<stop stop-color="#548EF7"/>
<stop offset="1" stop-color="#7DC6FD"/>
</linearGradient>
<linearGradient id="paint36_linear_82_20427" x1="96.3705" y1="151.65" x2="151.792" y2="151.65" gradientUnits="userSpaceOnUse">
<stop stop-color="#548EF7"/>
<stop offset="1" stop-color="#7DC6FD"/>
</linearGradient>
<linearGradient id="paint37_linear_82_20427" x1="89.9419" y1="238.694" x2="145.363" y2="238.694" gradientUnits="userSpaceOnUse">
<stop stop-color="#548EF7"/>
<stop offset="1" stop-color="#7DC6FD"/>
</linearGradient>
<linearGradient id="paint38_linear_82_20427" x1="173.25" y1="309.042" x2="228.67" y2="309.042" gradientUnits="userSpaceOnUse">
<stop stop-color="#548EF7"/>
<stop offset="1" stop-color="#7DC6FD"/>
</linearGradient>
<linearGradient id="paint39_linear_82_20427" x1="224.547" y1="390.611" x2="279.968" y2="390.611" gradientUnits="userSpaceOnUse">
<stop stop-color="#548EF7"/>
<stop offset="1" stop-color="#7DC6FD"/>
</linearGradient>
<linearGradient id="paint40_linear_82_20427" x1="160.665" y1="369.26" x2="216.085" y2="369.26" gradientUnits="userSpaceOnUse">
<stop stop-color="#548EF7"/>
<stop offset="1" stop-color="#7DC6FD"/>
</linearGradient>
<linearGradient id="paint41_linear_82_20427" x1="252.727" y1="328.202" x2="308.148" y2="328.202" gradientUnits="userSpaceOnUse">
<stop stop-color="#548EF7"/>
<stop offset="1" stop-color="#7DC6FD"/>
</linearGradient>
<linearGradient id="paint42_linear_82_20427" x1="173.25" y1="309.042" x2="228.67" y2="309.042" gradientUnits="userSpaceOnUse">
<stop stop-color="#548EF7"/>
<stop offset="1" stop-color="#7DC6FD"/>
</linearGradient>
<linearGradient id="paint43_linear_82_20427" x1="216.477" y1="218.439" x2="271.899" y2="218.439" gradientUnits="userSpaceOnUse">
<stop stop-color="#548EF7"/>
<stop offset="1" stop-color="#7DC6FD"/>
</linearGradient>
<linearGradient id="paint44_linear_82_20427" x1="89.9419" y1="238.694" x2="145.363" y2="238.694" gradientUnits="userSpaceOnUse">
<stop stop-color="#548EF7"/>
<stop offset="1" stop-color="#7DC6FD"/>
</linearGradient>
<linearGradient id="paint45_linear_82_20427" x1="199.377" y1="139.88" x2="254.799" y2="139.88" gradientUnits="userSpaceOnUse">
<stop stop-color="#548EF7"/>
<stop offset="1" stop-color="#7DC6FD"/>
</linearGradient>
<linearGradient id="paint46_linear_82_20427" x1="96.3705" y1="151.65" x2="151.792" y2="151.65" gradientUnits="userSpaceOnUse">
<stop stop-color="#548EF7"/>
<stop offset="1" stop-color="#7DC6FD"/>
</linearGradient>
<linearGradient id="paint47_linear_82_20427" x1="42.0641" y1="102.526" x2="97.4849" y2="102.526" gradientUnits="userSpaceOnUse">
<stop stop-color="#548EF7"/>
<stop offset="1" stop-color="#7DC6FD"/>
</linearGradient>
<linearGradient id="paint48_linear_82_20427" x1="-14.2954" y1="144.815" x2="41.1256" y2="144.815" gradientUnits="userSpaceOnUse">
<stop stop-color="#548EF7"/>
<stop offset="1" stop-color="#7DC6FD"/>
</linearGradient>
<linearGradient id="paint49_linear_82_20427" x1="36.8657" y1="61.8774" x2="92.2868" y2="61.8774" gradientUnits="userSpaceOnUse">
<stop stop-color="#548EF7"/>
<stop offset="1" stop-color="#7DC6FD"/>
</linearGradient>
<linearGradient id="paint50_linear_82_20427" x1="42.0641" y1="102.526" x2="97.4849" y2="102.526" gradientUnits="userSpaceOnUse">
<stop stop-color="#548EF7"/>
<stop offset="1" stop-color="#7DC6FD"/>
</linearGradient>
<linearGradient id="paint51_linear_82_20427" x1="135.631" y1="94.8521" x2="191.052" y2="94.8521" gradientUnits="userSpaceOnUse">
<stop stop-color="#548EF7"/>
<stop offset="1" stop-color="#7DC6FD"/>
</linearGradient>
<linearGradient id="paint52_linear_82_20427" x1="96.3705" y1="151.65" x2="151.792" y2="151.65" gradientUnits="userSpaceOnUse">
<stop stop-color="#548EF7"/>
<stop offset="1" stop-color="#7DC6FD"/>
</linearGradient>
<linearGradient id="paint53_linear_82_20427" x1="90.8989" y1="52.4253" x2="146.32" y2="52.4253" gradientUnits="userSpaceOnUse">
<stop stop-color="#548EF7"/>
<stop offset="1" stop-color="#7DC6FD"/>
</linearGradient>
<linearGradient id="paint54_linear_82_20427" x1="42.0641" y1="102.526" x2="97.4849" y2="102.526" gradientUnits="userSpaceOnUse">
<stop stop-color="#548EF7"/>
<stop offset="1" stop-color="#7DC6FD"/>
</linearGradient>
<linearGradient id="paint55_linear_82_20427" x1="89.2574" y1="25.0603" x2="144.678" y2="25.0603" gradientUnits="userSpaceOnUse">
<stop stop-color="#548EF7"/>
<stop offset="1" stop-color="#7DC6FD"/>
</linearGradient>
<linearGradient id="paint56_linear_82_20427" x1="36.8657" y1="61.8774" x2="92.2868" y2="61.8774" gradientUnits="userSpaceOnUse">
<stop stop-color="#548EF7"/>
<stop offset="1" stop-color="#7DC6FD"/>
</linearGradient>
<linearGradient id="paint57_linear_82_20427" x1="90.8989" y1="52.4253" x2="146.32" y2="52.4253" gradientUnits="userSpaceOnUse">
<stop stop-color="#548EF7"/>
<stop offset="1" stop-color="#7DC6FD"/>
</linearGradient>
<linearGradient id="paint58_linear_82_20427" x1="89.2574" y1="25.0603" x2="144.678" y2="25.0603" gradientUnits="userSpaceOnUse">
<stop stop-color="#548EF7"/>
<stop offset="1" stop-color="#7DC6FD"/>
</linearGradient>
<linearGradient id="paint59_linear_82_20427" x1="149.311" y1="3.42873" x2="204.732" y2="3.42873" gradientUnits="userSpaceOnUse">
<stop stop-color="#548EF7"/>
<stop offset="1" stop-color="#7DC6FD"/>
</linearGradient>
<linearGradient id="paint60_linear_82_20427" x1="90.8989" y1="52.4253" x2="146.32" y2="52.4253" gradientUnits="userSpaceOnUse">
<stop stop-color="#548EF7"/>
<stop offset="1" stop-color="#7DC6FD"/>
</linearGradient>
<linearGradient id="paint61_linear_82_20427" x1="135.631" y1="94.8521" x2="191.052" y2="94.8521" gradientUnits="userSpaceOnUse">
<stop stop-color="#548EF7"/>
<stop offset="1" stop-color="#7DC6FD"/>
</linearGradient>
<linearGradient id="paint62_linear_82_20427" x1="216.477" y1="218.439" x2="271.899" y2="218.439" gradientUnits="userSpaceOnUse">
<stop stop-color="#548EF7"/>
<stop offset="1" stop-color="#7DC6FD"/>
</linearGradient>
<linearGradient id="paint63_linear_82_20427" x1="252.727" y1="328.202" x2="308.148" y2="328.202" gradientUnits="userSpaceOnUse">
<stop stop-color="#548EF7"/>
<stop offset="1" stop-color="#7DC6FD"/>
</linearGradient>
<linearGradient id="paint64_linear_82_20427" x1="218.665" y1="434.954" x2="274.087" y2="434.954" gradientUnits="userSpaceOnUse">
<stop stop-color="#548EF7"/>
<stop offset="1" stop-color="#7DC6FD"/>
</linearGradient>
<linearGradient id="paint65_linear_82_20427" x1="170.788" y1="435.502" x2="226.209" y2="435.502" gradientUnits="userSpaceOnUse">
<stop stop-color="#548EF7"/>
<stop offset="1" stop-color="#7DC6FD"/>
</linearGradient>
<linearGradient id="paint66_linear_82_20427" x1="296.228" y1="409.772" x2="351.649" y2="409.772" gradientUnits="userSpaceOnUse">
<stop stop-color="#548EF7"/>
<stop offset="1" stop-color="#7DC6FD"/>
</linearGradient>
<linearGradient id="paint67_linear_82_20427" x1="252.727" y1="328.202" x2="308.148" y2="328.202" gradientUnits="userSpaceOnUse">
<stop stop-color="#548EF7"/>
<stop offset="1" stop-color="#7DC6FD"/>
</linearGradient>
<linearGradient id="paint68_linear_82_20427" x1="224.547" y1="390.611" x2="279.968" y2="390.611" gradientUnits="userSpaceOnUse">
<stop stop-color="#548EF7"/>
<stop offset="1" stop-color="#7DC6FD"/>
</linearGradient>
<linearGradient id="paint69_linear_82_20427" x1="245.614" y1="429.762" x2="301.035" y2="429.762" gradientUnits="userSpaceOnUse">
<stop stop-color="#548EF7"/>
<stop offset="1" stop-color="#7DC6FD"/>
</linearGradient>
<linearGradient id="paint70_linear_82_20427" x1="296.228" y1="409.772" x2="351.649" y2="409.772" gradientUnits="userSpaceOnUse">
<stop stop-color="#548EF7"/>
<stop offset="1" stop-color="#7DC6FD"/>
</linearGradient>
<linearGradient id="paint71_linear_82_20427" x1="224.547" y1="390.611" x2="279.968" y2="390.611" gradientUnits="userSpaceOnUse">
<stop stop-color="#548EF7"/>
<stop offset="1" stop-color="#7DC6FD"/>
</linearGradient>
<linearGradient id="paint72_linear_82_20427" x1="342.602" y1="376.377" x2="398.023" y2="376.377" gradientUnits="userSpaceOnUse">
<stop stop-color="#548EF7"/>
<stop offset="1" stop-color="#7DC6FD"/>
</linearGradient>
<linearGradient id="paint73_linear_82_20427" x1="336.036" y1="239.789" x2="391.457" y2="239.789" gradientUnits="userSpaceOnUse">
<stop stop-color="#548EF7"/>
<stop offset="1" stop-color="#7DC6FD"/>
</linearGradient>
<linearGradient id="paint74_linear_82_20427" x1="296.228" y1="409.772" x2="351.649" y2="409.772" gradientUnits="userSpaceOnUse">
<stop stop-color="#548EF7"/>
<stop offset="1" stop-color="#7DC6FD"/>
</linearGradient>
<linearGradient id="paint75_linear_82_20427" x1="342.602" y1="376.377" x2="398.023" y2="376.377" gradientUnits="userSpaceOnUse">
<stop stop-color="#548EF7"/>
<stop offset="1" stop-color="#7DC6FD"/>
</linearGradient>
<linearGradient id="paint76_linear_82_20427" x1="252.727" y1="328.202" x2="308.148" y2="328.202" gradientUnits="userSpaceOnUse">
<stop stop-color="#548EF7"/>
<stop offset="1" stop-color="#7DC6FD"/>
</linearGradient>
<linearGradient id="paint77_linear_82_20427" x1="381.45" y1="325.602" x2="436.873" y2="325.602" gradientUnits="userSpaceOnUse">
<stop stop-color="#548EF7"/>
<stop offset="1" stop-color="#7DC6FD"/>
</linearGradient>
<linearGradient id="paint78_linear_82_20427" x1="342.602" y1="376.377" x2="398.023" y2="376.377" gradientUnits="userSpaceOnUse">
<stop stop-color="#548EF7"/>
<stop offset="1" stop-color="#7DC6FD"/>
</linearGradient>
<linearGradient id="paint79_linear_82_20427" x1="385.554" y1="260.318" x2="440.977" y2="260.318" gradientUnits="userSpaceOnUse">
<stop stop-color="#548EF7"/>
<stop offset="1" stop-color="#7DC6FD"/>
</linearGradient>
<linearGradient id="paint80_linear_82_20427" x1="403.476" y1="270.036" x2="458.895" y2="270.036" gradientUnits="userSpaceOnUse">
<stop stop-color="#548EF7"/>
<stop offset="1" stop-color="#7DC6FD"/>
</linearGradient>
<linearGradient id="paint81_linear_82_20427" x1="381.45" y1="325.602" x2="436.873" y2="325.602" gradientUnits="userSpaceOnUse">
<stop stop-color="#548EF7"/>
<stop offset="1" stop-color="#7DC6FD"/>
</linearGradient>
<linearGradient id="paint82_linear_82_20427" x1="409.493" y1="207.627" x2="464.915" y2="207.627" gradientUnits="userSpaceOnUse">
<stop stop-color="#548EF7"/>
<stop offset="1" stop-color="#7DC6FD"/>
</linearGradient>
<linearGradient id="paint83_linear_82_20427" x1="385.554" y1="260.318" x2="440.977" y2="260.318" gradientUnits="userSpaceOnUse">
<stop stop-color="#548EF7"/>
<stop offset="1" stop-color="#7DC6FD"/>
</linearGradient>
<linearGradient id="paint84_linear_82_20427" x1="381.45" y1="325.602" x2="436.873" y2="325.602" gradientUnits="userSpaceOnUse">
<stop stop-color="#548EF7"/>
<stop offset="1" stop-color="#7DC6FD"/>
</linearGradient>
<linearGradient id="paint85_linear_82_20427" x1="336.036" y1="239.789" x2="391.457" y2="239.789" gradientUnits="userSpaceOnUse">
<stop stop-color="#548EF7"/>
<stop offset="1" stop-color="#7DC6FD"/>
</linearGradient>
<linearGradient id="paint86_linear_82_20427" x1="252.727" y1="328.202" x2="308.148" y2="328.202" gradientUnits="userSpaceOnUse">
<stop stop-color="#548EF7"/>
<stop offset="1" stop-color="#7DC6FD"/>
</linearGradient>
<linearGradient id="paint87_linear_82_20427" x1="312.916" y1="127.699" x2="368.338" y2="127.699" gradientUnits="userSpaceOnUse">
<stop stop-color="#548EF7"/>
<stop offset="1" stop-color="#7DC6FD"/>
</linearGradient>
<linearGradient id="paint88_linear_82_20427" x1="216.477" y1="218.439" x2="271.899" y2="218.439" gradientUnits="userSpaceOnUse">
<stop stop-color="#548EF7"/>
<stop offset="1" stop-color="#7DC6FD"/>
</linearGradient>
<linearGradient id="paint89_linear_82_20427" x1="336.036" y1="239.789" x2="391.457" y2="239.789" gradientUnits="userSpaceOnUse">
<stop stop-color="#548EF7"/>
<stop offset="1" stop-color="#7DC6FD"/>
</linearGradient>
<linearGradient id="paint90_linear_82_20427" x1="250.949" y1="103.475" x2="306.37" y2="103.475" gradientUnits="userSpaceOnUse">
<stop stop-color="#548EF7"/>
<stop offset="1" stop-color="#7DC6FD"/>
</linearGradient>
<linearGradient id="paint91_linear_82_20427" x1="199.377" y1="139.88" x2="254.799" y2="139.88" gradientUnits="userSpaceOnUse">
<stop stop-color="#548EF7"/>
<stop offset="1" stop-color="#7DC6FD"/>
</linearGradient>
<linearGradient id="paint92_linear_82_20427" x1="216.477" y1="218.439" x2="271.899" y2="218.439" gradientUnits="userSpaceOnUse">
<stop stop-color="#548EF7"/>
<stop offset="1" stop-color="#7DC6FD"/>
</linearGradient>
<linearGradient id="paint93_linear_82_20427" x1="250.949" y1="103.475" x2="306.37" y2="103.475" gradientUnits="userSpaceOnUse">
<stop stop-color="#548EF7"/>
<stop offset="1" stop-color="#7DC6FD"/>
</linearGradient>
<linearGradient id="paint94_linear_82_20427" x1="135.631" y1="94.8521" x2="191.052" y2="94.8521" gradientUnits="userSpaceOnUse">
<stop stop-color="#548EF7"/>
<stop offset="1" stop-color="#7DC6FD"/>
</linearGradient>
<linearGradient id="paint95_linear_82_20427" x1="199.377" y1="139.88" x2="254.799" y2="139.88" gradientUnits="userSpaceOnUse">
<stop stop-color="#548EF7"/>
<stop offset="1" stop-color="#7DC6FD"/>
</linearGradient>
<linearGradient id="paint96_linear_82_20427" x1="149.311" y1="3.42873" x2="204.732" y2="3.42873" gradientUnits="userSpaceOnUse">
<stop stop-color="#548EF7"/>
<stop offset="1" stop-color="#7DC6FD"/>
</linearGradient>
<linearGradient id="paint97_linear_82_20427" x1="135.631" y1="94.8521" x2="191.052" y2="94.8521" gradientUnits="userSpaceOnUse">
<stop stop-color="#548EF7"/>
<stop offset="1" stop-color="#7DC6FD"/>
</linearGradient>
<linearGradient id="paint98_linear_82_20427" x1="212.099" y1="26.0112" x2="267.52" y2="26.0112" gradientUnits="userSpaceOnUse">
<stop stop-color="#548EF7"/>
<stop offset="1" stop-color="#7DC6FD"/>
</linearGradient>
<linearGradient id="paint99_linear_82_20427" x1="219.759" y1="1.52147" x2="275.18" y2="1.52147" gradientUnits="userSpaceOnUse">
<stop stop-color="#548EF7"/>
<stop offset="1" stop-color="#7DC6FD"/>
</linearGradient>
<linearGradient id="paint100_linear_82_20427" x1="149.311" y1="3.42873" x2="204.732" y2="3.42873" gradientUnits="userSpaceOnUse">
<stop stop-color="#548EF7"/>
<stop offset="1" stop-color="#7DC6FD"/>
</linearGradient>
<linearGradient id="paint101_linear_82_20427" x1="212.099" y1="26.0112" x2="267.52" y2="26.0112" gradientUnits="userSpaceOnUse">
<stop stop-color="#548EF7"/>
<stop offset="1" stop-color="#7DC6FD"/>
</linearGradient>
<linearGradient id="paint102_linear_82_20427" x1="250.949" y1="103.475" x2="306.37" y2="103.475" gradientUnits="userSpaceOnUse">
<stop stop-color="#548EF7"/>
<stop offset="1" stop-color="#7DC6FD"/>
</linearGradient>
<linearGradient id="paint103_linear_82_20427" x1="273.11" y1="13.7021" x2="328.531" y2="13.7021" gradientUnits="userSpaceOnUse">
<stop stop-color="#548EF7"/>
<stop offset="1" stop-color="#7DC6FD"/>
</linearGradient>
<linearGradient id="paint104_linear_82_20427" x1="212.099" y1="26.0112" x2="267.52" y2="26.0112" gradientUnits="userSpaceOnUse">
<stop stop-color="#548EF7"/>
<stop offset="1" stop-color="#7DC6FD"/>
</linearGradient>
<linearGradient id="paint105_linear_82_20427" x1="309.908" y1="34.7705" x2="365.329" y2="34.7705" gradientUnits="userSpaceOnUse">
<stop stop-color="#548EF7"/>
<stop offset="1" stop-color="#7DC6FD"/>
</linearGradient>
<linearGradient id="paint106_linear_82_20427" x1="273.11" y1="13.7021" x2="328.531" y2="13.7021" gradientUnits="userSpaceOnUse">
<stop stop-color="#548EF7"/>
<stop offset="1" stop-color="#7DC6FD"/>
</linearGradient>
<linearGradient id="paint107_linear_82_20427" x1="302.384" y1="51.8779" x2="357.805" y2="51.8779" gradientUnits="userSpaceOnUse">
<stop stop-color="#548EF7"/>
<stop offset="1" stop-color="#7DC6FD"/>
</linearGradient>
<linearGradient id="paint108_linear_82_20427" x1="309.908" y1="34.7705" x2="365.329" y2="34.7705" gradientUnits="userSpaceOnUse">
<stop stop-color="#548EF7"/>
<stop offset="1" stop-color="#7DC6FD"/>
</linearGradient>
<linearGradient id="paint109_linear_82_20427" x1="351.493" y1="69.8066" x2="406.913" y2="69.8066" gradientUnits="userSpaceOnUse">
<stop stop-color="#548EF7"/>
<stop offset="1" stop-color="#7DC6FD"/>
</linearGradient>
<linearGradient id="paint110_linear_82_20427" x1="302.384" y1="51.8779" x2="357.805" y2="51.8779" gradientUnits="userSpaceOnUse">
<stop stop-color="#548EF7"/>
<stop offset="1" stop-color="#7DC6FD"/>
</linearGradient>
<linearGradient id="paint111_linear_82_20427" x1="250.949" y1="103.475" x2="306.37" y2="103.475" gradientUnits="userSpaceOnUse">
<stop stop-color="#548EF7"/>
<stop offset="1" stop-color="#7DC6FD"/>
</linearGradient>
<linearGradient id="paint112_linear_82_20427" x1="312.916" y1="127.699" x2="368.338" y2="127.699" gradientUnits="userSpaceOnUse">
<stop stop-color="#548EF7"/>
<stop offset="1" stop-color="#7DC6FD"/>
</linearGradient>
<linearGradient id="paint113_linear_82_20427" x1="336.036" y1="239.789" x2="391.457" y2="239.789" gradientUnits="userSpaceOnUse">
<stop stop-color="#548EF7"/>
<stop offset="1" stop-color="#7DC6FD"/>
</linearGradient>
<linearGradient id="paint114_linear_82_20427" x1="385.554" y1="260.318" x2="440.977" y2="260.318" gradientUnits="userSpaceOnUse">
<stop stop-color="#548EF7"/>
<stop offset="1" stop-color="#7DC6FD"/>
</linearGradient>
<linearGradient id="paint115_linear_82_20427" x1="386.239" y1="119.907" x2="441.66" y2="119.907" gradientUnits="userSpaceOnUse">
<stop stop-color="#548EF7"/>
<stop offset="1" stop-color="#7DC6FD"/>
</linearGradient>
<linearGradient id="paint116_linear_82_20427" x1="302.384" y1="51.8779" x2="357.805" y2="51.8779" gradientUnits="userSpaceOnUse">
<stop stop-color="#548EF7"/>
<stop offset="1" stop-color="#7DC6FD"/>
</linearGradient>
<linearGradient id="paint117_linear_82_20427" x1="351.493" y1="69.8066" x2="406.913" y2="69.8066" gradientUnits="userSpaceOnUse">
<stop stop-color="#548EF7"/>
<stop offset="1" stop-color="#7DC6FD"/>
</linearGradient>
<linearGradient id="paint118_linear_82_20427" x1="312.916" y1="127.699" x2="368.338" y2="127.699" gradientUnits="userSpaceOnUse">
<stop stop-color="#548EF7"/>
<stop offset="1" stop-color="#7DC6FD"/>
</linearGradient>
<linearGradient id="paint119_linear_82_20427" x1="386.239" y1="119.907" x2="441.66" y2="119.907" gradientUnits="userSpaceOnUse">
<stop stop-color="#548EF7"/>
<stop offset="1" stop-color="#7DC6FD"/>
</linearGradient>
<linearGradient id="paint120_linear_82_20427" x1="312.916" y1="127.699" x2="368.338" y2="127.699" gradientUnits="userSpaceOnUse">
<stop stop-color="#548EF7"/>
<stop offset="1" stop-color="#7DC6FD"/>
</linearGradient>
<linearGradient id="paint121_linear_82_20427" x1="404.296" y1="169.442" x2="459.716" y2="169.442" gradientUnits="userSpaceOnUse">
<stop stop-color="#548EF7"/>
<stop offset="1" stop-color="#7DC6FD"/>
</linearGradient>
<linearGradient id="paint122_linear_82_20427" x1="409.493" y1="207.627" x2="464.915" y2="207.627" gradientUnits="userSpaceOnUse">
<stop stop-color="#548EF7"/>
<stop offset="1" stop-color="#7DC6FD"/>
</linearGradient>
<linearGradient id="paint123_linear_82_20427" x1="336.036" y1="239.789" x2="391.457" y2="239.789" gradientUnits="userSpaceOnUse">
<stop stop-color="#548EF7"/>
<stop offset="1" stop-color="#7DC6FD"/>
</linearGradient>
<linearGradient id="paint124_linear_82_20427" x1="386.239" y1="119.907" x2="441.66" y2="119.907" gradientUnits="userSpaceOnUse">
<stop stop-color="#548EF7"/>
<stop offset="1" stop-color="#7DC6FD"/>
</linearGradient>
</defs>
</svg>
