<svg width="15" height="9" viewBox="0 0 15 9" fill="none" xmlns="http://www.w3.org/2000/svg">
<g clip-path="url(#clip0_280_5306)">
<path d="M13.1959 3.49501C13.4618 3.8965 13.6135 4.36806 13.6336 4.85543C14.0883 5.02316 14.4716 5.35291 14.7157 5.78648C14.9599 6.22004 15.0492 6.72955 14.9679 7.22506C14.8866 7.72057 14.64 8.17023 14.2715 8.49467C13.903 8.81911 13.4364 8.99747 12.954 8.99827H2.72678C2.00784 8.99928 1.31779 8.70343 0.807685 8.17548L5.14678 4.59632C5.30587 4.6849 5.48768 4.73511 5.68132 4.73511C5.84885 4.73537 6.01435 4.69686 6.16587 4.62238L8.23405 6.50811C8.17914 6.68874 8.16663 6.88047 8.19756 7.06718C8.22849 7.2539 8.30196 7.43015 8.4118 7.58114C8.52164 7.73214 8.66465 7.85346 8.82881 7.93492C8.99297 8.01638 9.17349 8.0556 9.35521 8.04929C9.53693 8.04298 9.71454 7.99132 9.87313 7.89865C10.0317 7.80598 10.1667 7.675 10.2666 7.51673C10.3666 7.35845 10.4286 7.17749 10.4475 6.98904C10.4665 6.80059 10.4417 6.61016 10.3754 6.43375L13.1959 3.49501ZM12.5531 2.82522L9.73314 5.76396C9.60078 5.70989 9.45985 5.68225 9.31768 5.68248C9.15015 5.68223 8.98466 5.72073 8.83314 5.79522L6.76496 3.90948C6.81815 3.73438 6.83154 3.54878 6.80405 3.36736C6.77656 3.18594 6.70896 3.01367 6.60658 2.86417C6.50421 2.71467 6.36986 2.59203 6.21417 2.50595C6.05848 2.41987 5.88571 2.37271 5.70951 2.3682C5.53332 2.36369 5.35853 2.40194 5.19897 2.47995C5.03941 2.55795 4.89945 2.67356 4.79015 2.81765C4.68085 2.96173 4.6052 3.13033 4.5692 3.31012C4.53319 3.48992 4.53781 3.67597 4.58268 3.85359L0.275866 7.40575C0.0712088 6.97013 -0.0230679 6.48719 0.00200893 6.00287C0.0270858 5.51856 0.170682 5.04899 0.41913 4.63885C0.667579 4.22872 1.01261 3.89167 1.4214 3.65978C1.83018 3.42789 2.28911 3.30887 2.7545 3.31406C2.85865 2.4484 3.24621 1.6467 3.85175 1.04426C4.45729 0.441822 5.24374 0.0755422 6.07835 0.00724193C6.91297 -0.0610583 7.74464 0.172804 8.43299 0.669358C9.12135 1.16591 9.62424 1.89475 9.85678 2.73285C10.2435 2.49243 10.6856 2.36588 11.1359 2.36669C11.6618 2.36669 12.15 2.53627 12.5531 2.82522Z" fill="#456AE7"/>
</g>
<defs>
<clipPath id="clip0_280_5306">
<rect width="15" height="9" fill="white"/>
</clipPath>
</defs>
</svg>
