<svg width="11" height="11" viewBox="0 0 11 11" fill="none" xmlns="http://www.w3.org/2000/svg"><path d="M8.376 2.43a.247.247 0 100 .494.247.247 0 000-.495zm-2.96 1.015a2.194 2.194 0 00-2.191 2.192c0 1.208.983 2.191 2.191 2.191a2.194 2.194 0 002.191-2.191 2.194 2.194 0 00-2.191-2.192z" fill="#456AE7"/><path d="M7.715.545h-4.6a2.794 2.794 0 00-2.79 2.792v4.599a2.794 2.794 0 002.79 2.791h4.6a2.794 2.794 0 002.791-2.791v-4.6A2.794 2.794 0 007.715.547zm-2.3 7.884a2.796 2.796 0 01-2.793-2.793 2.796 2.796 0 012.793-2.792 2.796 2.796 0 012.793 2.792A2.796 2.796 0 015.415 8.43zm2.96-4.904a.85.85 0 010-1.697.85.85 0 010 1.697z" fill="#456AE7"/></svg>