<svg width="12" height="10" viewBox="0 0 12 10" fill="none" xmlns="http://www.w3.org/2000/svg">
<path d="M0.820713 5.04965L3.3229 5.98354L4.2914 9.09823C4.35337 9.29772 4.59731 9.37145 4.75922 9.23908L6.15398 8.10204C6.30018 7.98291 6.50843 7.97698 6.66121 8.08789L9.17687 9.9143C9.35007 10.0402 9.59546 9.94529 9.63889 9.73599L11.4817 0.871553C11.5292 0.64293 11.3045 0.452205 11.0868 0.536401L0.817781 4.49789C0.564362 4.59562 0.56657 4.95441 0.820713 5.04965ZM4.13532 5.48641L9.02553 2.47452C9.11341 2.42055 9.20384 2.53939 9.12836 2.6094L5.09252 6.3609C4.95067 6.49295 4.85916 6.66967 4.83324 6.86148L4.69576 7.88029C4.67756 8.01632 4.48647 8.02983 4.44893 7.89818L3.9202 6.04034C3.85964 5.82844 3.94789 5.6021 4.13532 5.48641Z" fill="#456AE7"/>
</svg>
