<svg width="54" height="53" viewBox="0 0 54 53" fill="none" xmlns="http://www.w3.org/2000/svg"><path d="M19.619.444C16.909 15.158 14.714 17.354 0 20.063c14.714 2.709 16.91 4.905 19.619 19.618 2.708-14.713 4.904-16.91 19.618-19.618C24.523 17.354 22.327 15.158 19.62.444z" fill="url(#paint0_linear_84_24163)"/><path d="M40.911 28.047c-1.722 9.357-3.12 10.754-12.476 12.476C37.792 42.246 39.189 43.643 40.91 53c1.723-9.357 3.12-10.754 12.477-12.477-9.358-1.722-10.754-3.119-12.477-12.476z" fill="url(#paint1_linear_84_24163)"/><defs><linearGradient id="paint0_linear_84_24163" x1="41.986" y1="21.811" x2="22.366" y2="-165.968" gradientUnits="userSpaceOnUse"><stop offset=".042" stop-color="#4E9CDB"/><stop offset=".469" stop-color="#5761D7"/><stop offset="1" stop-color="#7628DA"/></linearGradient><linearGradient id="paint1_linear_84_24163" x1="55.136" y1="41.635" x2="48.111" y2="22.429" gradientUnits="userSpaceOnUse"><stop offset=".042" stop-color="#4E9CDB"/><stop offset=".469" stop-color="#5761D7"/><stop offset="1" stop-color="#7628DA"/></linearGradient></defs></svg>