<svg width="54" height="53" viewBox="0 0 54 53" fill="none" xmlns="http://www.w3.org/2000/svg">
<path d="M19.6186 0.444336C16.9098 15.1583 14.7138 17.3541 0 20.0629C14.714 22.7717 16.9098 24.9675 19.6186 39.6814C22.3274 24.9675 24.5232 22.7717 39.2371 20.0629C24.5232 17.3541 22.3272 15.1583 19.6186 0.444336Z" fill="url(#paint0_linear_84_24163)"/>
<path d="M40.9112 28.0468C39.1887 37.4042 37.7919 38.8008 28.4346 40.5234C37.7919 42.246 39.1887 43.6426 40.9112 53C42.6337 43.6426 44.0305 42.2459 53.3877 40.5234C44.0302 38.8008 42.6339 37.4042 40.9112 28.0468Z" fill="url(#paint1_linear_84_24163)"/>
<defs>
<linearGradient id="paint0_linear_84_24163" x1="41.9855" y1="21.811" x2="22.3664" y2="-165.968" gradientUnits="userSpaceOnUse">
<stop offset="0.0416667" stop-color="#4E9CDB"/>
<stop offset="0.46875" stop-color="#5761D7"/>
<stop offset="0.9999" stop-color="#7628DA"/>
</linearGradient>
<linearGradient id="paint1_linear_84_24163" x1="55.1355" y1="41.6351" x2="48.1109" y2="22.4292" gradientUnits="userSpaceOnUse">
<stop offset="0.0416667" stop-color="#4E9CDB"/>
<stop offset="0.46875" stop-color="#5761D7"/>
<stop offset="0.9999" stop-color="#7628DA"/>
</linearGradient>
</defs>
</svg>
