<svg version="1.0" xmlns="http://www.w3.org/2000/svg" width="682.667" height="682.667" viewBox="0 0 512 512"><path d="M96.5 2c-49.2 10.4-85.9 47.8-95 96.9C.2 106.2 0 126.1 0 256.2c0 145.4 0 149.2 2 158.9 10.1 49.3 47.5 86.2 96.9 95.4 7.3 1.3 27.2 1.5 157.3 1.5 145.4 0 149.2 0 158.9-2 49.3-10.1 86.2-47.5 95.4-96.9 1.3-7.3 1.5-27.2 1.5-157.3 0-145.4 0-149.2-2-158.9-10.1-49.3-47.5-86.2-96.9-95.4C405.8.2 386 0 255.1.1 112.3.1 105.1.2 96.5 2zM257 143c28.2 2.5 50.9 13 70.6 32.7 13.7 13.6 22 27.8 27.1 45.8 3.4 12.2 4.3 34.7 1.9 48.3-3.6 20.6-12.9 38.3-28.6 54.3-19.8 20.1-41.7 30.3-70.7 32.8-6.5.6-31.5 1.1-55.5 1.1H158V142h43.8c24 0 48.9.5 55.2 1z"/><path d="M203.2 250.2l.3 66.3 26-.1c29.6-.1 33.4-.7 47.3-7.5 15.4-7.5 28-23.2 32.8-40.9 2.2-8 2.5-26.2.5-34-.7-3-3.1-9.3-5.3-14-5.6-11.7-17.7-24-29-29.4-12-5.8-17.7-6.6-47.1-6.6H203l.2 66.2z"/></svg>