<svg width="421" height="196" viewBox="0 0 421 196" fill="none" xmlns="http://www.w3.org/2000/svg">
<path d="M3.25182 79.7368C1.94924 79.7368 0.89329 78.6809 0.89329 77.3783C0.89329 76.0757 1.94924 75.0198 3.25182 75.0198C4.5544 75.0198 5.61035 76.0757 5.61035 77.3783C5.61035 78.6809 4.5544 79.7368 3.25182 79.7368Z" fill="white"/>
<path opacity="0.5" d="M256.401 15.1133C255.099 15.1133 254.043 14.0573 254.043 12.7548C254.043 11.4522 255.099 10.3962 256.401 10.3962C257.704 10.3962 258.76 11.4522 258.76 12.7548C258.76 14.0573 257.704 15.1133 256.401 15.1133Z" fill="white"/>
<path d="M352.943 43.4155C351.641 43.4155 350.585 42.3596 350.585 41.057C350.585 39.7544 351.641 38.6985 352.943 38.6985C354.246 38.6985 355.302 39.7544 355.302 41.057C355.302 42.3596 354.246 43.4155 352.943 43.4155Z" fill="white"/>
<path d="M137.688 122.819C137.688 124.077 138.789 125.178 140.047 125.178C141.305 125.178 142.405 124.077 142.405 122.819C142.405 121.562 141.305 120.461 140.047 120.461C138.789 120.461 137.688 121.562 137.688 122.819Z" fill="white"/>
<path opacity="0.5" d="M78.5673 43.8872C77.2647 43.8872 76.2087 42.8313 76.2087 41.5287C76.2087 40.2261 77.2647 39.1702 78.5673 39.1702C79.8698 39.1702 80.9258 40.2261 80.9258 41.5287C80.9258 42.8313 79.8698 43.8872 78.5673 43.8872Z" fill="white"/>
<path d="M43.1893 182.097C41.8867 182.097 40.8308 181.041 40.8308 179.739C40.8308 178.436 41.8867 177.38 43.1893 177.38C44.4919 177.38 45.5479 178.436 45.5479 179.739C45.5479 181.041 44.4919 182.097 43.1893 182.097Z" fill="white"/>
<path opacity="0.5" d="M116.147 12.7546C114.845 12.7546 113.789 11.6987 113.789 10.3961C113.789 9.09355 114.845 8.0376 116.147 8.0376C117.45 8.0376 118.506 9.09355 118.506 10.3961C118.506 11.6987 117.45 12.7546 116.147 12.7546Z" fill="white"/>
<path d="M313.006 88.542C313.006 89.4854 313.792 90.1143 314.578 90.1143C315.521 90.1143 316.15 89.3281 316.15 88.542C316.15 87.5985 315.364 86.9696 314.578 86.9696C313.635 86.8124 313.006 87.5985 313.006 88.542Z" fill="white"/>
<path opacity="0.5" d="M74.4794 127.379C74.4794 128.008 74.9511 128.48 75.58 128.48C76.2089 128.48 76.6807 128.008 76.6807 127.379C76.6807 126.75 76.2089 126.279 75.58 126.279C74.9511 126.279 74.4794 126.75 74.4794 127.379Z" fill="white"/>
<path d="M418.039 194.047C418.039 194.676 418.511 195.148 419.14 195.148C419.769 195.148 420.24 194.676 420.24 194.047C420.24 193.418 419.769 192.946 419.14 192.946C418.511 193.104 418.039 193.575 418.039 194.047Z" fill="white"/>
<path d="M54.039 23.9183C53.4312 23.9183 52.9384 23.4256 52.9384 22.8177C52.9384 22.2098 53.4312 21.717 54.039 21.717C54.6469 21.717 55.1396 22.2098 55.1396 22.8177C55.1396 23.4256 54.6469 23.9183 54.039 23.9183Z" fill="white"/>
<path d="M183.129 22.1887C183.129 22.5032 183.443 22.8177 183.758 22.8177C184.072 22.8177 184.387 22.5032 184.387 22.1887C184.387 21.8743 184.072 21.5598 183.758 21.5598C183.443 21.5598 183.129 21.8743 183.129 22.1887Z" fill="white"/>
<path d="M335.176 1.11918C335.176 1.43365 335.49 1.74812 335.805 1.74812C336.119 1.74812 336.434 1.43365 336.434 1.11918C336.434 0.804708 336.119 0.490234 335.805 0.490234C335.49 0.490234 335.176 0.647472 335.176 1.11918Z" fill="white"/>
<path opacity="0.5" d="M332.503 7.56571C332.503 7.88018 332.817 8.19466 333.132 8.19466C333.446 8.19466 333.761 7.88018 333.761 7.56571C333.761 7.25124 333.446 6.93677 333.132 6.93677C332.817 6.93677 332.503 7.25124 332.503 7.56571Z" fill="white"/>
<path d="M399.957 20.3018C399.957 20.6163 400.271 20.9307 400.586 20.9307C400.9 20.9307 401.215 20.6163 401.215 20.3018C401.215 19.9873 400.9 19.6729 400.586 19.6729C400.271 19.6729 399.957 19.9873 399.957 20.3018Z" fill="white"/>
<path d="M19.6044 101.75C18.736 101.75 18.0321 101.046 18.0321 100.178C18.0321 99.3092 18.736 98.6052 19.6044 98.6052C20.4728 98.6052 21.1768 99.3092 21.1768 100.178C21.1768 101.046 20.4728 101.75 19.6044 101.75Z" fill="white"/>
<path d="M80.7694 25.4908C80.7694 26.4342 81.5555 27.0632 82.3417 27.0632C83.2851 27.0632 83.9141 26.277 83.9141 25.4908C83.9141 24.5474 83.1279 23.9185 82.3417 23.9185C81.5555 23.9185 80.7694 24.7046 80.7694 25.4908Z" fill="white"/>
</svg>
