<svg width="40" height="47" viewBox="0 0 40 47" fill="none" xmlns="http://www.w3.org/2000/svg"><g filter="url(#filter0_d_159_1943)"><path d="M23.004 11.997h-5.175l3.867 11.636 1.144-.66a.327.327 0 00.164-.284V11.997z" fill="#4D0678"/></g><path d="M16.85 11.997l2.98 12.663a.326.326 0 00.164-.044l1.703-.983V11.997H16.85z" fill="#6D05AC"/><g filter="url(#filter1_d_159_1943)"><path d="M16.655 11.997V22.69c0 .117.063.225.164.283l2.847 1.644c.05.03.107.044.163.044V11.997h-3.174z" fill="#A410FF"/></g><g filter="url(#filter2_d_159_1943)"><path d="M19.666 10.07l-2.847 1.645a.327.327 0 000 .566l2.847 1.644a.327.327 0 00.327 0l2.847-1.644a.327.327 0 000-.567l-2.847-1.643a.327.327 0 00-.327 0z" fill="#510A93"/></g><path d="M15.348 19.025h-5.174l3.867 4.608 1.144-.661a.327.327 0 00.163-.283v-3.664z" fill="#5515A6"/><path d="M9.193 19.025l2.981 5.635a.327.327 0 00.164-.044l1.703-.983v-4.608H9.193z" fill="#793BCC"/><path d="M9 19.025v3.664c0 .117.062.225.163.283l2.848 1.644c.05.029.107.044.163.044v-5.635H9z" fill="#9255E3"/><path d="M12.011 17.099l-2.848 1.644a.327.327 0 000 .566l2.848 1.644a.327.327 0 00.327 0l2.847-1.644a.327.327 0 000-.566l-2.847-1.644a.327.327 0 00-.327 0z" fill="#AE7DF0"/><path d="M30.66 4.97h-5.174l3.867 18.663 1.144-.661a.327.327 0 00.164-.283V4.97z" fill="#6D05AC" fill-opacity=".7"/><path d="M24.505 4.97l2.98 19.69a.327.327 0 00.164-.044l1.703-.983V4.97h-4.847z" fill="#6D05AC"/><path d="M24.311 4.97v17.72c0 .117.063.225.164.283l2.847 1.644c.05.03.107.044.164.044V4.97H24.31z" fill="#6D05AC" fill-opacity=".6"/><path d="M27.323 3.044l-2.848 1.644a.327.327 0 000 .566l2.848 1.644a.327.327 0 00.326 0l2.848-1.644a.327.327 0 000-.566l-2.848-1.644a.327.327 0 00-.326 0z" fill="#6D05AC"/><defs><filter id="filter0_d_159_1943" x="1.829" y="1.997" width="37.175" height="43.636" filterUnits="userSpaceOnUse" color-interpolation-filters="sRGB"><feFlood flood-opacity="0" result="BackgroundImageFix"/><feColorMatrix in="SourceAlpha" values="0 0 0 0 0 0 0 0 0 0 0 0 0 0 0 0 0 0 127 0" result="hardAlpha"/><feOffset dy="6"/><feGaussianBlur stdDeviation="8"/><feComposite in2="hardAlpha" operator="out"/><feColorMatrix values="0 0 0 0 0.360784 0 0 0 0 0.0627451 0 0 0 0 1 0 0 0 0.75 0"/><feBlend in2="BackgroundImageFix" result="effect1_dropShadow_159_1943"/><feBlend in="SourceGraphic" in2="effect1_dropShadow_159_1943" result="shape"/></filter><filter id="filter1_d_159_1943" x=".655" y="1.997" width="35.174" height="44.663" filterUnits="userSpaceOnUse" color-interpolation-filters="sRGB"><feFlood flood-opacity="0" result="BackgroundImageFix"/><feColorMatrix in="SourceAlpha" values="0 0 0 0 0 0 0 0 0 0 0 0 0 0 0 0 0 0 127 0" result="hardAlpha"/><feOffset dy="6"/><feGaussianBlur stdDeviation="8"/><feComposite in2="hardAlpha" operator="out"/><feColorMatrix values="0 0 0 0 0.360784 0 0 0 0 0.0627451 0 0 0 0 1 0 0 0 0.75 0"/><feBlend in2="BackgroundImageFix" result="effect1_dropShadow_159_1943"/><feBlend in="SourceGraphic" in2="effect1_dropShadow_159_1943" result="shape"/></filter><filter id="filter2_d_159_1943" x=".655" y=".027" width="38.349" height="35.941" filterUnits="userSpaceOnUse" color-interpolation-filters="sRGB"><feFlood flood-opacity="0" result="BackgroundImageFix"/><feColorMatrix in="SourceAlpha" values="0 0 0 0 0 0 0 0 0 0 0 0 0 0 0 0 0 0 127 0" result="hardAlpha"/><feOffset dy="6"/><feGaussianBlur stdDeviation="8"/><feComposite in2="hardAlpha" operator="out"/><feColorMatrix values="0 0 0 0 0.360784 0 0 0 0 0.0627451 0 0 0 0 1 0 0 0 0.75 0"/><feBlend in2="BackgroundImageFix" result="effect1_dropShadow_159_1943"/><feBlend in="SourceGraphic" in2="effect1_dropShadow_159_1943" result="shape"/></filter></defs></svg>