<svg width="21" height="21" viewBox="0 0 21 21" fill="none" xmlns="http://www.w3.org/2000/svg"><rect width="21" height="21" rx="4" fill="#000"/><rect width="21" height="21" rx="4" fill="url(#paint0_linear_745_2)" fill-opacity=".2"/><path d="M9.316 11.932l-.181 2.512c.26 0 .373-.11.508-.241l1.22-1.146 2.53 1.819c.464.254.79.12.915-.419l1.66-7.637c.148-.674-.247-.937-.699-.772L5.511 9.716c-.666.254-.656.618-.114.783l2.495.762 5.795-3.56c.273-.177.521-.08.317.098l-4.688 4.133z" fill="#fff"/><defs><linearGradient id="paint0_linear_745_2" x1="-12" y1="-21" x2="24" y2="51" gradientUnits="userSpaceOnUse"><stop offset=".293" stop-color="#CBCBCB"/><stop offset="1" stop-opacity="0"/></linearGradient></defs></svg>