<svg width="43" height="40" viewBox="0 0 43 40" fill="none" xmlns="http://www.w3.org/2000/svg"><path d="M29.59 23.283a6.671 6.671 0 011.283 9.367 6.671 6.671 0 01-9.367 1.282 6.671 6.671 0 01-1.282-9.367c2.172-2.94 6.417-3.521 9.367-1.282z" fill="url(#paint0_linear_165_3669)"/><path d="M15.866 1.751a2.31 2.31 0 11-2.793 3.678 2.31 2.31 0 012.793-3.678z" fill="url(#paint1_linear_165_3669)"/><path d="M38.63 25.616c.421.32.504.926.184 1.348a.965.965 0 01-1.348.184.965.965 0 01-.184-1.348.965.965 0 011.348-.184z" fill="url(#paint2_linear_165_3669)"/><defs><linearGradient id="paint0_linear_165_3669" x1="18.875" y1="29.547" x2="32.165" y2="27.728" gradientUnits="userSpaceOnUse"><stop stop-color="#7DC6FD"/><stop offset=".303" stop-color="#548EF7"/><stop offset="1" stop-color="#A728DA"/></linearGradient><linearGradient id="paint1_linear_165_3669" x1="12.177" y1="3.916" x2="16.78" y2="3.286" gradientUnits="userSpaceOnUse"><stop stop-color="#7DC6FD"/><stop offset=".303" stop-color="#548EF7"/><stop offset="1" stop-color="#A728DA"/></linearGradient><linearGradient id="paint2_linear_165_3669" x1="37.116" y1="26.507" x2="39.006" y2="26.248" gradientUnits="userSpaceOnUse"><stop stop-color="#7DC6FD"/><stop offset=".303" stop-color="#548EF7"/><stop offset="1" stop-color="#A728DA"/></linearGradient></defs></svg>