<svg xmlns="http://www.w3.org/2000/svg" xmlns:xlink="http://www.w3.org/1999/xlink" width="146" height="159" fill="none"><style>.B{fill-rule:evenodd}.C{color-interpolation-filters:sRGB}.D{flood-opacity:0}.E{fill-opacity:.8}</style><path opacity=".88" d="M67.116 132.619l-4.931-17.769 9.983-.328-3.264 18.414-1.789-.317z" fill="url(#E)" class="E"/><path opacity=".88" d="M81.34 133.596l-5.514-19.87 11.165-.367-3.65 20.592-2.001-.355z" fill="url(#F)" class="E"/><path opacity=".88" d="M73.429 137.83l-4.006-18.563 10.244-.418-4.424 19.3-1.814-.319z" fill="url(#G)" class="E"/><g filter="url(#A)" class="B"><path d="M92.844 101.068a4.484 4.484 0 013.572-3.172l.309-.051c2.9-.481 5.505 1.642 5.244 4.571-.54 6.054-2.475 16.429-9.052 27.494a.513.513 0 01-.954-.284l.981-22.329a.764.764 0 00-.714-.795.763.763 0 01-.684-.974l1.297-4.459z" fill="url(#H)"/></g><g filter="url(#B)" class="B"><path d="M55.542 100.603a4.48 4.48 0 00-3.502-3.433l-.367-.073c-2.922-.582-5.631 1.483-5.462 4.457.344 6.084 1.941 16.493 8.119 27.737a.512.512 0 00.435.266.51.51 0 00.524-.517l-.259-22.338a.77.77 0 01.748-.777.77.77 0 00.73-.934l-.965-4.388z" fill="url(#I)"/></g><path d="M75.778 6.442c-10.971-.207-28.585 25.998-27.62 50.602.992 24.639 11.698 60.984 11.698 60.984l14.064.383 14.07.109s11.912-35.962 13.722-60.526c1.757-24.632-15.048-51.388-25.933-51.553z" fill="url(#J)" class="B"/><path d="M91.118 19.25c-13.675-6.166-30.061-1.823-30.25-1.787l-.087-.256c.188-.036 16.668-4.396 30.404 1.777l-.067.266z" fill="#4b50da"/><g class="B"><path d="M72.093 7.255l8.207.534c-.034.026-4.14-3.037-8.207-.534z" fill="#53345f"/><path d="M73.212 6.888s2.19-.375 4.65-.041c0 0-.841-3.933-2.255-4.095s-2.395 4.135-2.395 4.135z" fill="url(#K)"/><path d="M53.766 94.043s23.858-7.392 41.71-1.606c-2.49 10.233-4.792 23.087-9.696 23.629-2.229.246-.526 1.849-15.299 1.49s-14.807-11.461-16.714-23.513z" fill="url(#L)"/><path d="M74.596 22.566c-9.921.608-17.162 12.304-17.793 22.575s8.696 16.733 18.731 16.63S94.009 54.87 93.067 43.59c-.909-10.176-7.471-21.699-18.47-21.024z" fill="url(#M)"/><path d="M74.596 21.436c-9.921.608-17.162 12.304-17.793 22.575s8.696 16.733 18.731 16.63S94.009 53.74 93.067 42.46c-.875-10.202-7.471-21.699-18.47-21.024z" fill="url(#N)"/><path d="M75.196 25.123c-8.886.412-13.464 9.598-13.974 17.625s6.812 13.055 14.707 12.966 14.512-5.392 13.749-14.173c-.654-8.002-5.194-16.868-14.482-16.419z" fill="url(#O)"/><path d="M84.277 52.968c-2.335 1.669-5.24 2.588-8.391 2.618-7.527.078-15.15-5.205-14.663-12.838a21.817 21.817 0 011.883-7.566c2.16-4.656 6.177-8.357 12.065-8.749 8.722-.557 13.148 8.019 13.792 15.653.47 4.861-1.5 8.565-4.686 10.882z" fill="url(#P)"/></g><path d="M75.305 61.77l-.478 28.596.257.004.478-28.596-.257-.004z" fill="url(#Q)"/><path d="M53.809 94.171l-.087-.256c27.283-7.415 41.658-1.674 41.804-1.624l-.093.232c-.18-.025-14.469-5.724-41.624 1.648z" fill="url(#R)"/><path d="M51.842 84.585l-.122-.23c.068-.052 8.552-5.377 23.474-5.916l-.007.274c-14.862.548-23.278 5.82-23.346 5.872z" fill="url(#S)"/><g class="B"><path d="M62.455 116.539s12.156-1.659 24.136-1.084l-.496 5.549-22.77.311-.871-4.776z" fill="url(#T)"/><path d="M57.587 22.272s15.686-7.738 35.79.584l-2.243-3.727s-11.6-5.7-30.309-1.795l-3.237 4.938z" fill="url(#U)"/><path d="M74.437 80.414c-.005.488-.422.859-.91.854s-.859-.422-.854-.91.422-.859.91-.854c.454.031.859.422.854.91z" fill="url(#V)"/><path d="M74.222 80.415a.734.734 0 01-.706.698.734.734 0 01-.698-.706.734.734 0 01.706-.698c.394.023.721.312.698.706z" fill="url(#W)"/><path d="M74.476 76.08c-.005.488-.422.859-.91.854s-.859-.422-.854-.91.422-.859.91-.854.859.422.854.91z" fill="url(#X)"/><path d="M74.297 76.055a.734.734 0 01-.706.698.734.734 0 01-.698-.706.736.736 0 01.706-.699.734.734 0 01.698.706z" fill="url(#Y)"/><path d="M60.321 46.231a.734.734 0 01-.706.698.734.734 0 01-.698-.706.734.734 0 01.706-.698.736.736 0 01.699.706z" fill="url(#Z)"/><path d="M62.068 33.82a.736.736 0 01-.706.699.736.736 0 01-.699-.706.736.736 0 01.706-.699.734.734 0 01.698.706z" fill="url(#a)"/><path d="M68.405 56.22a.736.736 0 01-.706.699.734.734 0 01-.698-.706c.023-.394.338-.687.706-.698s.661.304.699.706z" fill="url(#b)"/><path d="M81.978 57.514a.734.734 0 01-.706.698.736.736 0 01-.699-.706.734.734 0 01.706-.698c.428-.003.722.312.699.706z" fill="url(#c)"/><path d="M91.325 49.435a.736.736 0 01-.706.699.734.734 0 01-.698-.706.736.736 0 01.706-.699c.428-.003.722.312.699.706z" fill="url(#d)"/><path d="M90.208 33.823c-.023.394-.338.687-.706.698s-.687-.338-.698-.706a.734.734 0 01.706-.698.736.736 0 01.699.706z" fill="url(#e)"/><use xlink:href="#o" fill="url(#f)"/><use xlink:href="#o" x="-11.656" y="-1.461" fill="url(#g)"/></g><g filter="url(#C)" class="B"><path d="M80.475 92.874l2.321.01-2.956 37.057-1.585-.032 2.22-37.034z" fill="url(#h)"/></g><g filter="url(#D)" class="B"><path d="M79.979 101.147c.046-.775-1.079-.929-1.242-.169a.625.625 0 00-.014.122l-.468 28.808 1.724-28.761z" fill="url(#i)"/></g><g class="B"><path d="M99.177 36.844s4.105-.756 1.046 3.992l-1.046-3.992z" fill="url(#j)"/><path d="M51.513 35.502s-3.812 1.071-1.156 3.784l1.156-3.784z" fill="url(#k)"/><path d="M60.16 92.405c.003.428-.26.79-.594.775s-.559-.382-.562-.81.26-.79.594-.775.559.382.562.81z" fill="url(#l)"/><path d="M89.528 90.774c.003.428-.294.816-.654.767-.334-.015-.653-.364-.622-.818-.003-.428.294-.816.654-.767s.619.39.622.818z" fill="url(#m)"/><path d="M75.774 90.372c.003.428-.354.807-.808.776-.428.003-.807-.354-.776-.808-.003-.428.354-.807.808-.776a.81.81 0 01.776.808z" fill="url(#n)"/></g><defs><linearGradient id="E" x1="63.667" y1="115.276" x2="64.694" y2="136.897" xlink:href="#p"><stop offset=".107" stop-color="#7ac6ff"/><stop offset=".885" stop-color="#1d147c" stop-opacity=".19"/></linearGradient><linearGradient id="F" x1="77.483" y1="114.202" x2="78.63" y2="138.381" xlink:href="#p"><stop offset=".107" stop-color="#7ac6ff"/><stop offset=".885" stop-color="#1d147c" stop-opacity=".19"/></linearGradient><linearGradient id="G" x1="70.915" y1="119.702" x2="72.168" y2="142.245" xlink:href="#p"><stop offset=".107" stop-color="#7ac6ff"/><stop offset=".885" stop-color="#1d147c" stop-opacity=".19"/></linearGradient><linearGradient id="H" x1="24.876" y1="47.252" x2="153.653" y2="102.167" xlink:href="#p"><stop offset=".649" stop-color="#1673ff"/><stop offset=".905" stop-color="#5192e2"/></linearGradient><linearGradient id="I" x1="-31.196" y1="20.6" x2="111.343" y2="35.523" xlink:href="#p"><stop offset=".649" stop-color="#1673ff"/><stop offset=".905" stop-color="#5192e2"/></linearGradient><linearGradient id="J" x1="114.322" y1=".431" x2="3.547" y2="-38.406" xlink:href="#p"><stop offset=".121" stop-color="#5cb6ff"/><stop offset=".692" stop-color="#005bff"/></linearGradient><linearGradient id="K" x1="74.691" y1="15.145" x2="76.039" y2="-3.371" xlink:href="#p"><stop offset=".444" stop-color="#d3ecff"/><stop offset="1" stop-color="#548ef7"/></linearGradient><linearGradient id="L" x1="97.175" y1="70.842" x2="49.56" y2="42.365" xlink:href="#p"><stop offset=".121" stop-color="#5cb6ff"/><stop offset=".655" stop-color="#56a8eb"/><stop offset="1" stop-color="#005bff"/></linearGradient><linearGradient id="M" x1="-31.849" y1="-58.477" x2="163.6" y2="11.14" xlink:href="#p"><stop offset=".649" stop-color="#1673ff"/><stop offset=".905" stop-color="#5192e2"/></linearGradient><linearGradient id="N" x1="-31.85" y1="-59.606" x2="163.61" y2="10.058" xlink:href="#p"><stop offset=".649" stop-color="#1673ff"/><stop offset=".905" stop-color="#5192e2"/></linearGradient><linearGradient id="O" x1="-8.906" y1="-39.298" x2="145.479" y2="15.571" xlink:href="#p"><stop offset=".649" stop-color="#1673ff"/><stop offset=".905" stop-color="#5192e2"/></linearGradient><linearGradient id="P" x1="71.195" y1="98.148" x2="78.89" y2="-13.056" xlink:href="#p"><stop offset=".444" stop-color="#d3ecff"/><stop offset="1" stop-color="#548ef7"/></linearGradient><linearGradient id="Q" x1="73.921" y1="93.576" x2="75.59" y2="93.594" xlink:href="#p"><stop offset=".649" stop-color="#1673ff"/><stop offset=".905" stop-color="#5192e2"/></linearGradient><linearGradient id="R" x1="2.029" y1="32.506" x2="127.812" y2="100.089" xlink:href="#p"><stop offset=".649" stop-color="#1673ff"/><stop offset=".905" stop-color="#5192e2"/></linearGradient><linearGradient id="S" x1="30.147" y1="60.223" x2="78.7" y2="96.781" xlink:href="#p"><stop offset=".649" stop-color="#1673ff"/><stop offset=".905" stop-color="#5192e2"/></linearGradient><linearGradient id="T" x1="109.5" y1="83.5" x2="69.269" y2="64.663" xlink:href="#p"><stop offset=".121" stop-color="#5cb6ff"/><stop offset=".271" stop-color="#56a8eb"/><stop offset="1" stop-color="#005bff"/></linearGradient><linearGradient id="U" x1="5.371" y1="-41.034" x2="130.857" y2="15.12" xlink:href="#p"><stop offset=".649" stop-color="#1673ff"/><stop offset=".905" stop-color="#5192e2"/></linearGradient><linearGradient id="V" x1="68.617" y1="75.678" x2="77.657" y2="78.897" xlink:href="#p"><stop offset=".649" stop-color="#1673ff"/><stop offset=".905" stop-color="#5192e2"/></linearGradient><linearGradient id="W" x1="69.652" y1="76.727" x2="76.748" y2="79.332" xlink:href="#p"><stop offset=".649" stop-color="#1673ff"/><stop offset=".905" stop-color="#5192e2"/></linearGradient><linearGradient id="X" x1="68.655" y1="71.345" x2="77.704" y2="74.604" xlink:href="#p"><stop offset=".649" stop-color="#1673ff"/><stop offset=".905" stop-color="#5192e2"/></linearGradient><linearGradient id="Y" x1="69.727" y1="72.366" x2="76.812" y2="74.917" xlink:href="#p"><stop offset=".649" stop-color="#1673ff"/><stop offset=".905" stop-color="#5192e2"/></linearGradient><linearGradient id="Z" x1="59.411" y1="48.934" x2="59.748" y2="43.595" xlink:href="#p"><stop offset=".444" stop-color="#d3ecff"/><stop offset="1" stop-color="#548ef7"/></linearGradient><linearGradient id="a" x1="61.158" y1="36.523" x2="61.495" y2="31.184" xlink:href="#p"><stop offset=".444" stop-color="#d3ecff"/><stop offset="1" stop-color="#548ef7"/></linearGradient><linearGradient id="b" x1="67.495" y1="58.924" x2="67.832" y2="53.584" xlink:href="#p"><stop offset=".444" stop-color="#d3ecff"/><stop offset="1" stop-color="#548ef7"/></linearGradient><linearGradient id="c" x1="81.049" y1="60.233" x2="81.328" y2="54.839" xlink:href="#p"><stop offset=".444" stop-color="#d3ecff"/><stop offset="1" stop-color="#548ef7"/></linearGradient><linearGradient id="d" x1="90.395" y1="52.153" x2="90.675" y2="46.76" xlink:href="#p"><stop offset=".444" stop-color="#d3ecff"/><stop offset="1" stop-color="#548ef7"/></linearGradient><linearGradient id="e" x1="89.298" y1="36.526" x2="89.635" y2="31.186" xlink:href="#p"><stop offset=".444" stop-color="#d3ecff"/><stop offset="1" stop-color="#548ef7"/></linearGradient><linearGradient id="f" x1="82.493" y1="28.36" x2="82.83" y2="23.021" xlink:href="#p"><stop offset=".444" stop-color="#d3ecff"/><stop offset="1" stop-color="#548ef7"/></linearGradient><linearGradient id="g" x1="82.493" y1="28.361" x2="82.83" y2="23.021" xlink:href="#p"><stop offset=".444" stop-color="#d3ecff"/><stop offset="1" stop-color="#548ef7"/></linearGradient><linearGradient id="h" x1=".36" y1="32.371" x2="147.011" y2="76.7" xlink:href="#p"><stop offset=".649" stop-color="#1673ff"/><stop offset=".905" stop-color="#5192e2"/></linearGradient><linearGradient id="i" x1="2.504" y1="34.847" x2="143.023" y2="74.484" xlink:href="#p"><stop offset=".649" stop-color="#1673ff"/><stop offset=".905" stop-color="#5192e2"/></linearGradient><linearGradient id="j" x1="100.627" y1="45.169" x2="103.253" y2="32.664" xlink:href="#p"><stop offset=".444" stop-color="#d3ecff"/><stop offset="1" stop-color="#548ef7"/></linearGradient><linearGradient id="k" x1="49.755" y1="42.896" x2="49.238" y2="31.985" xlink:href="#p"><stop offset=".444" stop-color="#d3ecff"/><stop offset="1" stop-color="#548ef7"/></linearGradient><linearGradient id="l" x1="55.577" y1="88.47" x2="62.921" y2="90.784" xlink:href="#p"><stop offset=".649" stop-color="#1673ff"/><stop offset=".905" stop-color="#5192e2"/></linearGradient><linearGradient id="m" x1="84.708" y1="86.668" x2="92.365" y2="89.08" xlink:href="#p"><stop offset=".649" stop-color="#1673ff"/><stop offset=".905" stop-color="#5192e2"/></linearGradient><linearGradient id="n" x1="70.479" y1="86.062" x2="78.718" y2="88.981" xlink:href="#p"><stop offset=".649" stop-color="#1673ff"/><stop offset=".905" stop-color="#5192e2"/></linearGradient><linearGradient id="p" gradientUnits="userSpaceOnUse"/><filter id="A" x="72.517" y="87.776" width="48.472" height="70.385" filterUnits="userSpaceOnUse" class="C"><feFlood result="A" class="D"/><feColorMatrix in="SourceAlpha" values="0 0 0 0 0 0 0 0 0 0 0 0 0 0 0 0 0 0 127 0" result="B"/><feOffset dy="9"/><feGaussianBlur stdDeviation="9.5"/><feComposite in2="B" operator="out"/><feColorMatrix values="0 0 0 0 0 0 0 0 0 0 0 0 0 0 0 0 0 0 0.15 0"/><feBlend in2="A"/><feBlend in="SourceGraphic"/></filter><filter id="B" x="27.203" y="86.999" width="48.322" height="70.558" filterUnits="userSpaceOnUse" class="C"><feFlood result="A" class="D"/><feColorMatrix in="SourceAlpha" values="0 0 0 0 0 0 0 0 0 0 0 0 0 0 0 0 0 0 127 0" result="B"/><feOffset dy="9"/><feGaussianBlur stdDeviation="9.5"/><feComposite in2="B" operator="out"/><feColorMatrix values="0 0 0 0 0 0 0 0 0 0 0 0 0 0 0 0 0 0 0.15 0"/><feBlend in2="A"/><feBlend in="SourceGraphic"/></filter><filter id="C" x="59.255" y="82.874" width="42.541" height="75.067" filterUnits="userSpaceOnUse" class="C"><feFlood result="A" class="D"/><feColorMatrix in="SourceAlpha" values="0 0 0 0 0 0 0 0 0 0 0 0 0 0 0 0 0 0 127 0" result="B"/><feOffset dy="9"/><feGaussianBlur stdDeviation="9.5"/><feComposite in2="B" operator="out"/><feColorMatrix values="0 0 0 0 0 0 0 0 0 0 0 0 0 0 0 0 0 0 0.15 0"/><feBlend in2="A"/><feBlend in="SourceGraphic"/></filter><filter id="D" x="59.255" y="90.481" width="39.726" height="67.428" filterUnits="userSpaceOnUse" class="C"><feFlood result="A" class="D"/><feColorMatrix in="SourceAlpha" values="0 0 0 0 0 0 0 0 0 0 0 0 0 0 0 0 0 0 127 0" result="B"/><feOffset dy="9"/><feGaussianBlur stdDeviation="9.5"/><feComposite in2="B" operator="out"/><feColorMatrix values="0 0 0 0 0 0 0 0 0 0 0 0 0 0 0 0 0 0 0.15 0"/><feBlend in2="A"/><feBlend in="SourceGraphic"/></filter><path id="o" d="M83.403 25.657a.734.734 0 01-.706.698.734.734 0 01-.698-.706.734.734 0 01.706-.698.734.734 0 01.698.706z"/></defs></svg>