<svg width="146" height="159" viewBox="0 0 146 159" fill="none" xmlns="http://www.w3.org/2000/svg"><path opacity=".88" d="M67.116 132.619l-4.93-17.769 9.983-.328-3.264 18.414-1.789-.317z" fill="url(#paint0_linear_858_8)" fill-opacity=".8"/><path opacity=".88" d="M81.34 133.596l-5.514-19.87 11.164-.367-3.65 20.592-2-.355z" fill="url(#paint1_linear_858_8)" fill-opacity=".8"/><path opacity=".88" d="M73.429 137.83l-4.007-18.563 10.244-.418-4.424 19.3-1.813-.319z" fill="url(#paint2_linear_858_8)" fill-opacity=".8"/><g filter="url(#filter0_d_858_8)"><path fill-rule="evenodd" clip-rule="evenodd" d="M92.844 101.068a4.485 4.485 0 013.573-3.172l.309-.052c2.9-.481 5.505 1.642 5.244 4.571-.54 6.054-2.475 16.429-9.052 27.494a.514.514 0 01-.954-.284l.981-22.329a.763.763 0 00-.714-.795.763.763 0 01-.684-.974l1.297-4.459z" fill="url(#paint3_linear_858_8)"/></g><g filter="url(#filter1_d_858_8)"><path fill-rule="evenodd" clip-rule="evenodd" d="M55.542 100.603a4.482 4.482 0 00-3.502-3.433l-.367-.073c-2.922-.581-5.63 1.483-5.462 4.457.344 6.084 1.94 16.493 8.118 27.737a.512.512 0 00.959-.251l-.259-22.338a.768.768 0 01.748-.777.77.77 0 00.73-.934l-.965-4.388z" fill="url(#paint4_linear_858_8)"/></g><path fill-rule="evenodd" clip-rule="evenodd" d="M75.778 6.442c-10.972-.207-28.586 25.998-27.62 50.603.992 24.638 11.697 60.984 11.697 60.984l14.064.383 14.07.109s11.913-35.962 13.722-60.526c1.757-24.632-15.048-51.388-25.933-51.553z" fill="url(#paint5_linear_858_8)"/><path d="M91.118 19.25c-13.675-6.166-30.061-1.823-30.25-1.787l-.087-.256c.188-.036 16.668-4.397 30.404 1.777l-.067.266z" fill="#4B50DA"/><path fill-rule="evenodd" clip-rule="evenodd" d="M72.093 7.255l8.207.535c-.034.026-4.14-3.038-8.207-.535z" fill="#53345F"/><path fill-rule="evenodd" clip-rule="evenodd" d="M73.212 6.888s2.19-.374 4.65-.04c0 0-.841-3.933-2.255-4.095-1.415-.162-2.395 4.135-2.395 4.135z" fill="url(#paint6_linear_858_8)"/><path fill-rule="evenodd" clip-rule="evenodd" d="M53.766 94.043s23.858-7.392 41.71-1.606c-2.49 10.233-4.793 23.087-9.697 23.629-2.23.246-.526 1.849-15.3 1.49-14.773-.36-14.806-11.461-16.713-23.513z" fill="url(#paint7_linear_858_8)"/><path fill-rule="evenodd" clip-rule="evenodd" d="M74.596 22.566c-9.92.608-17.161 12.304-17.793 22.576-.631 10.271 8.696 16.732 18.731 16.63C85.57 61.667 94.01 54.87 93.067 43.59c-.91-10.176-7.471-21.7-18.47-21.025z" fill="url(#paint8_linear_858_8)"/><path fill-rule="evenodd" clip-rule="evenodd" d="M74.596 21.436c-9.92.608-17.161 12.304-17.793 22.576-.631 10.271 8.696 16.733 18.731 16.63C85.57 60.537 94.01 53.74 93.067 42.46c-.875-10.202-7.471-21.7-18.47-21.025z" fill="url(#paint9_linear_858_8)"/><path fill-rule="evenodd" clip-rule="evenodd" d="M75.196 25.123c-8.886.412-13.464 9.598-13.974 17.625-.51 8.028 6.812 13.055 14.707 12.967 7.895-.089 14.512-5.392 13.75-14.173-.655-8.002-5.195-16.868-14.483-16.419z" fill="url(#paint10_linear_858_8)"/><path fill-rule="evenodd" clip-rule="evenodd" d="M84.277 52.968c-2.335 1.669-5.24 2.588-8.392 2.618-7.526.078-15.15-5.205-14.663-12.838a21.817 21.817 0 011.884-7.566c2.16-4.656 6.176-8.357 12.065-8.75 8.722-.556 13.149 8.02 13.792 15.654.47 4.86-1.5 8.565-4.686 10.882z" fill="url(#paint11_linear_858_8)"/><path d="M75.305 61.77l-.478 28.596.257.004.478-28.596-.257-.004z" fill="url(#paint12_linear_858_8)"/><path d="M53.809 94.17l-.087-.255c27.283-7.416 41.657-1.674 41.803-1.624l-.093.232c-.18-.025-14.468-5.724-41.623 1.648z" fill="url(#paint13_linear_858_8)"/><path d="M51.842 84.585l-.121-.23c.068-.053 8.552-5.377 23.474-5.917l-.007.274c-14.862.548-23.278 5.82-23.346 5.873z" fill="url(#paint14_linear_858_8)"/><path fill-rule="evenodd" clip-rule="evenodd" d="M62.455 116.539s12.156-1.659 24.136-1.084l-.495 5.549-22.77.311-.871-4.776z" fill="url(#paint15_linear_858_8)"/><path fill-rule="evenodd" clip-rule="evenodd" d="M57.587 22.272s15.686-7.737 35.79.585l-2.243-3.727s-11.6-5.7-30.31-1.795l-3.237 4.937z" fill="url(#paint16_linear_858_8)"/><path fill-rule="evenodd" clip-rule="evenodd" d="M74.437 80.414c-.005.488-.422.859-.91.854-.488-.006-.86-.423-.854-.91.005-.489.422-.86.91-.855.454.031.86.422.854.91z" fill="url(#paint17_linear_858_8)"/><path fill-rule="evenodd" clip-rule="evenodd" d="M74.222 80.415a.735.735 0 01-.706.699.735.735 0 01-.698-.706.735.735 0 01.706-.699c.394.023.721.312.698.706z" fill="url(#paint18_linear_858_8)"/><path fill-rule="evenodd" clip-rule="evenodd" d="M74.476 76.08c-.005.488-.422.859-.91.854-.488-.005-.86-.422-.854-.91.005-.489.422-.86.91-.855.488.006.86.423.854.91z" fill="url(#paint19_linear_858_8)"/><path fill-rule="evenodd" clip-rule="evenodd" d="M74.297 76.055a.735.735 0 01-.706.698.735.735 0 01-.699-.706.735.735 0 01.706-.698.735.735 0 01.699.706z" fill="url(#paint20_linear_858_8)"/><path fill-rule="evenodd" clip-rule="evenodd" d="M60.321 46.231a.735.735 0 01-.706.699.735.735 0 01-.698-.706.735.735 0 01.706-.699.735.735 0 01.698.706z" fill="url(#paint21_linear_858_8)"/><path fill-rule="evenodd" clip-rule="evenodd" d="M62.068 33.82a.735.735 0 01-.706.698.735.735 0 01-.698-.706.735.735 0 01.706-.698.735.735 0 01.698.706z" fill="url(#paint22_linear_858_8)"/><path fill-rule="evenodd" clip-rule="evenodd" d="M68.405 56.22a.735.735 0 01-.706.699.735.735 0 01-.698-.706.735.735 0 01.706-.699c.368-.01.661.304.698.706z" fill="url(#paint23_linear_858_8)"/><path fill-rule="evenodd" clip-rule="evenodd" d="M81.978 57.514a.735.735 0 01-.706.699.735.735 0 01-.698-.706.735.735 0 01.706-.698c.428-.003.721.311.698.705z" fill="url(#paint24_linear_858_8)"/><path fill-rule="evenodd" clip-rule="evenodd" d="M91.325 49.435a.735.735 0 01-.706.698.735.735 0 01-.698-.706.735.735 0 01.705-.698c.429-.003.722.312.699.706z" fill="url(#paint25_linear_858_8)"/><path fill-rule="evenodd" clip-rule="evenodd" d="M90.208 33.823a.735.735 0 01-.706.698c-.368.011-.688-.338-.699-.706a.735.735 0 01.706-.698.735.735 0 01.699.706z" fill="url(#paint26_linear_858_8)"/><path fill-rule="evenodd" clip-rule="evenodd" d="M83.403 25.657a.735.735 0 01-.706.699.735.735 0 01-.698-.706.735.735 0 01.706-.699.735.735 0 01.698.706z" fill="url(#paint27_linear_858_8)"/><path fill-rule="evenodd" clip-rule="evenodd" d="M71.747 24.196a.735.735 0 01-.706.699.735.735 0 01-.699-.706.735.735 0 01.706-.699.735.735 0 01.699.706z" fill="url(#paint28_linear_858_8)"/><g filter="url(#filter2_d_858_8)"><path fill-rule="evenodd" clip-rule="evenodd" d="M80.475 92.874l2.32.01-2.956 37.056-1.584-.032 2.22-37.034z" fill="url(#paint29_linear_858_8)"/></g><g filter="url(#filter3_d_858_8)"><path fill-rule="evenodd" clip-rule="evenodd" d="M79.979 101.147c.046-.775-1.079-.929-1.242-.169a.633.633 0 00-.014.122l-.468 28.808 1.724-28.761z" fill="url(#paint30_linear_858_8)"/></g><path fill-rule="evenodd" clip-rule="evenodd" d="M99.177 36.844s4.105-.756 1.046 3.992l-1.046-3.992z" fill="url(#paint31_linear_858_8)"/><path fill-rule="evenodd" clip-rule="evenodd" d="M51.513 35.502s-3.812 1.07-1.156 3.784l1.156-3.784z" fill="url(#paint32_linear_858_8)"/><path fill-rule="evenodd" clip-rule="evenodd" d="M60.16 92.405c.003.428-.26.79-.594.775-.334-.015-.56-.381-.562-.81-.003-.428.26-.79.594-.774.334.014.559.381.562.81z" fill="url(#paint33_linear_858_8)"/><path fill-rule="evenodd" clip-rule="evenodd" d="M89.528 90.773c.003.429-.294.816-.654.767-.334-.015-.653-.364-.622-.818-.003-.428.294-.815.654-.766.36.049.62.39.622.817z" fill="url(#paint34_linear_858_8)"/><path fill-rule="evenodd" clip-rule="evenodd" d="M75.773 90.371c.003.429-.354.808-.808.777-.428.003-.807-.354-.776-.808-.003-.429.354-.808.808-.777a.81.81 0 01.776.808z" fill="url(#paint35_linear_858_8)"/><defs><linearGradient id="paint0_linear_858_8" x1="63.667" y1="115.276" x2="64.694" y2="136.897" gradientUnits="userSpaceOnUse"><stop offset=".107" stop-color="#7AC6FF"/><stop offset=".885" stop-color="#1D147C" stop-opacity=".19"/></linearGradient><linearGradient id="paint1_linear_858_8" x1="77.483" y1="114.202" x2="78.63" y2="138.381" gradientUnits="userSpaceOnUse"><stop offset=".107" stop-color="#7AC6FF"/><stop offset=".885" stop-color="#1D147C" stop-opacity=".19"/></linearGradient><linearGradient id="paint2_linear_858_8" x1="70.915" y1="119.702" x2="72.168" y2="142.245" gradientUnits="userSpaceOnUse"><stop offset=".107" stop-color="#7AC6FF"/><stop offset=".885" stop-color="#1D147C" stop-opacity=".19"/></linearGradient><linearGradient id="paint3_linear_858_8" x1="24.876" y1="47.252" x2="153.653" y2="102.167" gradientUnits="userSpaceOnUse"><stop offset=".649" stop-color="#1673FF"/><stop offset=".905" stop-color="#5192E2"/></linearGradient><linearGradient id="paint4_linear_858_8" x1="-31.196" y1="20.6" x2="111.343" y2="35.523" gradientUnits="userSpaceOnUse"><stop offset=".649" stop-color="#1673FF"/><stop offset=".905" stop-color="#5192E2"/></linearGradient><linearGradient id="paint5_linear_858_8" x1="114.322" y1=".431" x2="3.547" y2="-38.406" gradientUnits="userSpaceOnUse"><stop offset=".121" stop-color="#5CB6FF"/><stop offset=".692" stop-color="#005BFF"/></linearGradient><linearGradient id="paint6_linear_858_8" x1="74.691" y1="15.145" x2="76.039" y2="-3.371" gradientUnits="userSpaceOnUse"><stop offset=".444" stop-color="#D3ECFF"/><stop offset="1" stop-color="#548EF7"/></linearGradient><linearGradient id="paint7_linear_858_8" x1="97.175" y1="70.842" x2="49.559" y2="42.365" gradientUnits="userSpaceOnUse"><stop offset=".121" stop-color="#5CB6FF"/><stop offset=".655" stop-color="#56A8EB"/><stop offset="1" stop-color="#005BFF"/></linearGradient><linearGradient id="paint8_linear_858_8" x1="-31.849" y1="-58.477" x2="163.6" y2="11.139" gradientUnits="userSpaceOnUse"><stop offset=".649" stop-color="#1673FF"/><stop offset=".905" stop-color="#5192E2"/></linearGradient><linearGradient id="paint9_linear_858_8" x1="-31.85" y1="-59.606" x2="163.61" y2="10.058" gradientUnits="userSpaceOnUse"><stop offset=".649" stop-color="#1673FF"/><stop offset=".905" stop-color="#5192E2"/></linearGradient><linearGradient id="paint10_linear_858_8" x1="-8.906" y1="-39.298" x2="145.479" y2="15.571" gradientUnits="userSpaceOnUse"><stop offset=".649" stop-color="#1673FF"/><stop offset=".905" stop-color="#5192E2"/></linearGradient><linearGradient id="paint11_linear_858_8" x1="71.195" y1="98.148" x2="78.89" y2="-13.056" gradientUnits="userSpaceOnUse"><stop offset=".444" stop-color="#D3ECFF"/><stop offset="1" stop-color="#548EF7"/></linearGradient><linearGradient id="paint12_linear_858_8" x1="73.921" y1="93.576" x2="75.59" y2="93.594" gradientUnits="userSpaceOnUse"><stop offset=".649" stop-color="#1673FF"/><stop offset=".905" stop-color="#5192E2"/></linearGradient><linearGradient id="paint13_linear_858_8" x1="2.029" y1="32.506" x2="127.812" y2="100.089" gradientUnits="userSpaceOnUse"><stop offset=".649" stop-color="#1673FF"/><stop offset=".905" stop-color="#5192E2"/></linearGradient><linearGradient id="paint14_linear_858_8" x1="30.147" y1="60.223" x2="78.7" y2="96.781" gradientUnits="userSpaceOnUse"><stop offset=".649" stop-color="#1673FF"/><stop offset=".905" stop-color="#5192E2"/></linearGradient><linearGradient id="paint15_linear_858_8" x1="109.5" y1="83.5" x2="69.269" y2="64.663" gradientUnits="userSpaceOnUse"><stop offset=".121" stop-color="#5CB6FF"/><stop offset=".271" stop-color="#56A8EB"/><stop offset="1" stop-color="#005BFF"/></linearGradient><linearGradient id="paint16_linear_858_8" x1="5.371" y1="-41.034" x2="130.857" y2="15.12" gradientUnits="userSpaceOnUse"><stop offset=".649" stop-color="#1673FF"/><stop offset=".905" stop-color="#5192E2"/></linearGradient><linearGradient id="paint17_linear_858_8" x1="68.617" y1="75.677" x2="77.656" y2="78.897" gradientUnits="userSpaceOnUse"><stop offset=".649" stop-color="#1673FF"/><stop offset=".905" stop-color="#5192E2"/></linearGradient><linearGradient id="paint18_linear_858_8" x1="69.651" y1="76.727" x2="76.748" y2="79.332" gradientUnits="userSpaceOnUse"><stop offset=".649" stop-color="#1673FF"/><stop offset=".905" stop-color="#5192E2"/></linearGradient><linearGradient id="paint19_linear_858_8" x1="68.655" y1="71.345" x2="77.704" y2="74.603" gradientUnits="userSpaceOnUse"><stop offset=".649" stop-color="#1673FF"/><stop offset=".905" stop-color="#5192E2"/></linearGradient><linearGradient id="paint20_linear_858_8" x1="69.727" y1="72.365" x2="76.812" y2="74.917" gradientUnits="userSpaceOnUse"><stop offset=".649" stop-color="#1673FF"/><stop offset=".905" stop-color="#5192E2"/></linearGradient><linearGradient id="paint21_linear_858_8" x1="59.411" y1="48.934" x2="59.748" y2="43.595" gradientUnits="userSpaceOnUse"><stop offset=".444" stop-color="#D3ECFF"/><stop offset="1" stop-color="#548EF7"/></linearGradient><linearGradient id="paint22_linear_858_8" x1="61.158" y1="36.523" x2="61.495" y2="31.183" gradientUnits="userSpaceOnUse"><stop offset=".444" stop-color="#D3ECFF"/><stop offset="1" stop-color="#548EF7"/></linearGradient><linearGradient id="paint23_linear_858_8" x1="67.495" y1="58.923" x2="67.832" y2="53.584" gradientUnits="userSpaceOnUse"><stop offset=".444" stop-color="#D3ECFF"/><stop offset="1" stop-color="#548EF7"/></linearGradient><linearGradient id="paint24_linear_858_8" x1="81.049" y1="60.233" x2="81.328" y2="54.839" gradientUnits="userSpaceOnUse"><stop offset=".444" stop-color="#D3ECFF"/><stop offset="1" stop-color="#548EF7"/></linearGradient><linearGradient id="paint25_linear_858_8" x1="90.395" y1="52.153" x2="90.675" y2="46.76" gradientUnits="userSpaceOnUse"><stop offset=".444" stop-color="#D3ECFF"/><stop offset="1" stop-color="#548EF7"/></linearGradient><linearGradient id="paint26_linear_858_8" x1="89.298" y1="36.526" x2="89.635" y2="31.186" gradientUnits="userSpaceOnUse"><stop offset=".444" stop-color="#D3ECFF"/><stop offset="1" stop-color="#548EF7"/></linearGradient><linearGradient id="paint27_linear_858_8" x1="82.493" y1="28.36" x2="82.83" y2="23.021" gradientUnits="userSpaceOnUse"><stop offset=".444" stop-color="#D3ECFF"/><stop offset="1" stop-color="#548EF7"/></linearGradient><linearGradient id="paint28_linear_858_8" x1="70.837" y1="26.899" x2="71.174" y2="21.56" gradientUnits="userSpaceOnUse"><stop offset=".444" stop-color="#D3ECFF"/><stop offset="1" stop-color="#548EF7"/></linearGradient><linearGradient id="paint29_linear_858_8" x1=".36" y1="32.371" x2="147.011" y2="76.7" gradientUnits="userSpaceOnUse"><stop offset=".649" stop-color="#1673FF"/><stop offset=".905" stop-color="#5192E2"/></linearGradient><linearGradient id="paint30_linear_858_8" x1="2.504" y1="34.847" x2="143.023" y2="74.484" gradientUnits="userSpaceOnUse"><stop offset=".649" stop-color="#1673FF"/><stop offset=".905" stop-color="#5192E2"/></linearGradient><linearGradient id="paint31_linear_858_8" x1="100.627" y1="45.169" x2="103.253" y2="32.664" gradientUnits="userSpaceOnUse"><stop offset=".444" stop-color="#D3ECFF"/><stop offset="1" stop-color="#548EF7"/></linearGradient><linearGradient id="paint32_linear_858_8" x1="49.755" y1="42.896" x2="49.238" y2="31.985" gradientUnits="userSpaceOnUse"><stop offset=".444" stop-color="#D3ECFF"/><stop offset="1" stop-color="#548EF7"/></linearGradient><linearGradient id="paint33_linear_858_8" x1="55.577" y1="88.47" x2="62.921" y2="90.784" gradientUnits="userSpaceOnUse"><stop offset=".649" stop-color="#1673FF"/><stop offset=".905" stop-color="#5192E2"/></linearGradient><linearGradient id="paint34_linear_858_8" x1="84.708" y1="86.668" x2="92.365" y2="89.08" gradientUnits="userSpaceOnUse"><stop offset=".649" stop-color="#1673FF"/><stop offset=".905" stop-color="#5192E2"/></linearGradient><linearGradient id="paint35_linear_858_8" x1="70.479" y1="86.062" x2="78.718" y2="88.981" gradientUnits="userSpaceOnUse"><stop offset=".649" stop-color="#1673FF"/><stop offset=".905" stop-color="#5192E2"/></linearGradient><filter id="filter0_d_858_8" x="72.517" y="87.776" width="48.472" height="70.385" filterUnits="userSpaceOnUse" color-interpolation-filters="sRGB"><feFlood flood-opacity="0" result="BackgroundImageFix"/><feColorMatrix in="SourceAlpha" values="0 0 0 0 0 0 0 0 0 0 0 0 0 0 0 0 0 0 127 0" result="hardAlpha"/><feOffset dy="9"/><feGaussianBlur stdDeviation="9.5"/><feComposite in2="hardAlpha" operator="out"/><feColorMatrix values="0 0 0 0 0 0 0 0 0 0 0 0 0 0 0 0 0 0 0.15 0"/><feBlend in2="BackgroundImageFix" result="effect1_dropShadow_858_8"/><feBlend in="SourceGraphic" in2="effect1_dropShadow_858_8" result="shape"/></filter><filter id="filter1_d_858_8" x="27.203" y="86.999" width="48.322" height="70.558" filterUnits="userSpaceOnUse" color-interpolation-filters="sRGB"><feFlood flood-opacity="0" result="BackgroundImageFix"/><feColorMatrix in="SourceAlpha" values="0 0 0 0 0 0 0 0 0 0 0 0 0 0 0 0 0 0 127 0" result="hardAlpha"/><feOffset dy="9"/><feGaussianBlur stdDeviation="9.5"/><feComposite in2="hardAlpha" operator="out"/><feColorMatrix values="0 0 0 0 0 0 0 0 0 0 0 0 0 0 0 0 0 0 0.15 0"/><feBlend in2="BackgroundImageFix" result="effect1_dropShadow_858_8"/><feBlend in="SourceGraphic" in2="effect1_dropShadow_858_8" result="shape"/></filter><filter id="filter2_d_858_8" x="59.255" y="82.874" width="42.541" height="75.067" filterUnits="userSpaceOnUse" color-interpolation-filters="sRGB"><feFlood flood-opacity="0" result="BackgroundImageFix"/><feColorMatrix in="SourceAlpha" values="0 0 0 0 0 0 0 0 0 0 0 0 0 0 0 0 0 0 127 0" result="hardAlpha"/><feOffset dy="9"/><feGaussianBlur stdDeviation="9.5"/><feComposite in2="hardAlpha" operator="out"/><feColorMatrix values="0 0 0 0 0 0 0 0 0 0 0 0 0 0 0 0 0 0 0.15 0"/><feBlend in2="BackgroundImageFix" result="effect1_dropShadow_858_8"/><feBlend in="SourceGraphic" in2="effect1_dropShadow_858_8" result="shape"/></filter><filter id="filter3_d_858_8" x="59.255" y="90.481" width="39.726" height="67.428" filterUnits="userSpaceOnUse" color-interpolation-filters="sRGB"><feFlood flood-opacity="0" result="BackgroundImageFix"/><feColorMatrix in="SourceAlpha" values="0 0 0 0 0 0 0 0 0 0 0 0 0 0 0 0 0 0 127 0" result="hardAlpha"/><feOffset dy="9"/><feGaussianBlur stdDeviation="9.5"/><feComposite in2="hardAlpha" operator="out"/><feColorMatrix values="0 0 0 0 0 0 0 0 0 0 0 0 0 0 0 0 0 0 0.15 0"/><feBlend in2="BackgroundImageFix" result="effect1_dropShadow_858_8"/><feBlend in="SourceGraphic" in2="effect1_dropShadow_858_8" result="shape"/></filter></defs></svg>