<svg xmlns="http://www.w3.org/2000/svg" xmlns:xlink="http://www.w3.org/1999/xlink" width="134" height="148" fill="none"><path opacity=".88" d="M21.889 131l35.708-52.583 6.685 5.032L21.889 131z" fill="url(#A)"/><path opacity=".88" d="M28.539 134.365L70.94 80.94l6.685 5.032-49.085 48.393z" fill="url(#B)"/><path opacity=".88" d="M12.888 147.999l43.88-59.871 7.403 5.53L12.888 148z" fill="url(#C)"/><g fill-rule="evenodd"><path d="M87.052 87.21l7.621 4.025S85.982 104.464 67.1 112l-.642-.514 15.114-18.154-1.284-1.113 6.765-5.01z" fill="url(#D)"/><path d="M56.61 63.276l-5.866-6.636S39.912 68.2 37 88.323l.642.514L51.728 69.87l1.37.985 3.511-7.578z" fill="url(#E)"/><path d="M128.497 3.248c-8.606-6.808-38.491 3.382-52.62 23.549-14.129 20.209-27.616 55.618-27.616 55.618l10.961 8.82 11.132 8.606s31.255-21.408 47.568-39.861c16.313-18.54 19.138-50.01 10.575-56.732z" fill="url(#F)"/></g><path d="M132.95 22.729C125.8 9.542 110.129 3.077 109.958 2.991l.086-.257c.171.086 15.927 6.594 23.12 19.824l-.214.171z" fill="#4b50da"/><g fill-rule="evenodd"><path d="M125.072 1.664l6.209 5.395c-.043 0-1.456-4.924-6.209-5.395z" fill="#53345f"/><path d="M126.185 2.049a17.19 17.19 0 003.725 2.783s1.712-3.639.685-4.624-4.41 1.841-4.41 1.841z" fill="url(#G)"/><path d="M57.937 59.636S81.4 68.2 92.104 83.613C83.926 90.25 74.311 99.086 70.08 96.547c-1.923-1.154-1.538 1.154-13.078-8.078s-4.845-18.086.935-28.833z" fill="url(#H)"/><path d="M117.794 15.365c-8.264-5.523-21.108-.599-27.83 7.193s-3.211 18.582 4.838 24.576 18.882 5.694 24.961-3.853c5.438-8.649 7.193-21.793-1.969-27.916z" fill="url(#I)"/><path d="M118.478 14.466c-8.263-5.523-21.108-.599-27.83 7.193s-3.211 18.582 4.838 24.576 18.881 5.694 24.961-3.853c5.48-8.649 7.193-21.793-1.97-27.916z" fill="url(#J)"/><path d="M116.722 17.763c-7.321-5.052-16.526-.514-21.793 5.566s-2.483 14.514 3.853 19.224 14.814 4.496 19.524-2.954c4.324-6.765 6.079-16.57-1.585-21.836z" fill="#541fa2"/><path d="M107.09 45.422c-2.868-.086-5.737-1.113-8.263-2.997-6.037-4.496-8.906-13.316-3.896-19.096a21.822 21.822 0 016.08-4.881c4.539-2.398 9.976-2.911 14.9.342 7.279 4.838 5.609 14.343 1.499 20.808-2.569 4.153-6.38 5.909-10.319 5.823z" fill="url(#K)"/></g><path d="M94.62 46.995L76.925 69.463l.202.159 17.695-22.469-.202-.159z" fill="#4b50da"/><path d="M57.894 59.765l.086-.257c26.203 10.618 34.167 23.891 34.253 24.02l-.214.128c-.128-.128-8.049-13.316-34.124-23.891z" fill="#938eff"/><path d="M62.133 50.945l.043-.257c.086 0 10.062.899 22.264 9.505l-.171.214c-12.16-8.563-22.05-9.462-22.136-9.462z" fill="#4b50da"/><g fill-rule="evenodd"><path d="M50.015 85.194c.662-1.304 2.273-1.786 3.524-1.029 3.218 1.949 9.326 5.818 15.241 10.502 1.277 1.011 1.401 2.889.303 4.092a2.866 2.866 0 01-3.821.373L50.777 88.42a2.567 2.567 0 01-.762-3.226z" fill="url(#L)"/><path d="M104.436 4.832s17.169 3.34 28.129 22.136l.471-4.324s-5.78-11.56-23.034-19.781l-5.566 1.97z" fill="url(#M)"/><g fill="#6b3dd9"><path d="M82.641 61.306c-.3.385-.856.428-1.242.129s-.428-.856-.129-1.242.856-.428 1.242-.128c.342.3.428.856.128 1.242z"/><path d="M82.47 61.178a.734.734 0 01-.985.128.734.734 0 01-.128-.985.734.734 0 01.985-.128c.3.257.385.685.129.985zm2.826-3.297c-.3.385-.856.428-1.242.128s-.428-.856-.128-1.242.856-.428 1.242-.128.428.856.129 1.242z"/><path d="M85.169 57.753a.734.734 0 01-.985.128.734.734 0 01-.128-.985.735.735 0 01.985-.128c.3.257.343.685.128.985z"/></g><path d="M92.104 25.555a.735.735 0 01-.985.129.735.735 0 01-.129-.985.735.735 0 01.985-.128c.3.257.343.685.129.985z" fill="url(#N)"/><path d="M101.009 16.735a.734.734 0 01-.985.128.735.735 0 01-.129-.985.734.734 0 01.984-.128c.3.257.343.685.129.985z" fill="url(#O)"/><path d="M92.489 38.4a.734.734 0 01-.985.128.734.734 0 01-.128-.985c.257-.3.685-.343.985-.128s.343.642.129.985z" fill="url(#P)"/><path d="M102.508 47.648a.734.734 0 01-.985.128.734.734 0 01-.128-.985.734.734 0 01.984-.129c.343.257.386.685.129.985z" fill="url(#Q)"/><path d="M114.839 46.877a.734.734 0 01-.985.128.735.735 0 01-.128-.985.733.733 0 01.984-.128c.343.257.386.685.129.985z" fill="url(#R)"/><path d="M123.402 33.776c-.257.3-.685.343-.984.129s-.343-.685-.129-.985a.734.734 0 01.985-.128c.3.257.342.685.128.985z" fill="url(#S)"/><path d="M122.932 23.158a.734.734 0 01-.985.128.735.735 0 01-.129-.985.735.735 0 01.985-.129c.3.257.343.685.129.985z" fill="url(#T)"/><path d="M114.539 14.937a.735.735 0 01-.985.129.736.736 0 01-.128-.985.734.734 0 01.985-.128.736.736 0 01.128.985z" fill="url(#U)"/><path d="M79.902 74.879l1.841 1.413-24.79 27.701-1.242-.984 24.191-28.13z" fill="url(#V)"/><path d="M79.902 74.879l-6.337 5.438-17.854 22.693 24.191-28.13z" fill="url(#W)"/><path d="M128.71 41.611s3.725 1.884-1.584 3.811l1.584-3.811z" fill="url(#X)"/><path d="M91.591 11.683s-3.682-1.456-3.211 2.312l3.211-2.312z" fill="url(#Y)"/><path d="M64.017 62.205c-.257.343-.685.471-.942.257s-.214-.642.043-.985.685-.471.942-.257.214.642-.043.985zm24.361 16.484c-.257.343-.728.471-.985.214-.257-.214-.3-.685 0-1.028.257-.343.728-.471.985-.214s.257.685 0 1.028zm-10.703-8.648c-.257.343-.771.428-1.113.129-.343-.257-.428-.771-.129-1.113.257-.343.771-.428 1.113-.128a.81.81 0 01.128 1.113z" fill="#6b3dd9"/></g><defs><linearGradient id="A" x1="57.707" y1="80.151" x2="3.5" y2="141" xlink:href="#Z"><stop offset=".107" stop-color="#864dff"/><stop offset=".885" stop-color="#1d147c" stop-opacity=".19"/></linearGradient><linearGradient id="B" x1="71.051" y1="82.673" x2="16" y2="165" xlink:href="#Z"><stop offset=".107" stop-color="#864dff"/><stop offset=".885" stop-color="#1d147c" stop-opacity=".19"/></linearGradient><linearGradient id="C" x1="56.897" y1="90.042" x2="-10.5" y2="164" xlink:href="#Z"><stop offset=".078" stop-color="#8354e7"/><stop offset=".885" stop-color="#1d147c" stop-opacity=".19"/></linearGradient><linearGradient id="D" x1="90.609" y1="-15.825" x2="31.331" y2="3.338" xlink:href="#Z"><stop offset=".377" stop-color="#583dff"/><stop offset=".822" stop-color="#5800e2"/></linearGradient><linearGradient id="E" x1="53.785" y1="-77.181" x2="9.603" y2="-69.538" xlink:href="#Z"><stop offset=".377" stop-color="#583dff"/><stop offset=".822" stop-color="#5800e2"/></linearGradient><linearGradient id="F" x1="162.813" y1="21.802" x2="98.168" y2="-76.179" xlink:href="#Z"><stop offset=".118" stop-color="#5cb6ff"/><stop offset=".921" stop-color="#005bff"/></linearGradient><linearGradient id="G" x1="122.363" y1="9.516" x2="134.646" y2="-4.404" xlink:href="#Z"><stop offset=".444" stop-color="#d3ecff"/><stop offset="1" stop-color="#548ef7"/></linearGradient><linearGradient id="H" x1="106.532" y1="67.456" x2="84.935" y2="25.289" xlink:href="#Z"><stop offset=".118" stop-color="#5cb6ff"/><stop offset=".921" stop-color="#005bff"/></linearGradient><linearGradient id="I" x1="207.852" y1="51.63" x2="175.98" y2="-23.216" xlink:href="#Z"><stop offset=".042" stop-color="#4e9cdb"/><stop offset=".321" stop-color="#5761d7"/><stop offset=".875" stop-color="#7628da"/></linearGradient><linearGradient id="J" x1="119.501" y1="-146.371" x2="38.131" y2="-123.427" xlink:href="#Z"><stop offset=".377" stop-color="#583dff"/><stop offset=".822" stop-color="#5800e2"/></linearGradient><linearGradient id="K" x1="69.322" y1="73.457" x2="142.78" y2="-10.386" xlink:href="#Z"><stop offset=".444" stop-color="#d3ecff"/><stop offset="1" stop-color="#548ef7"/></linearGradient><linearGradient id="L" x1="72.335" y1="91.831" x2="65.181" y2="71.666" xlink:href="#Z"><stop offset=".118" stop-color="#5cb6ff"/><stop offset=".618" stop-color="#4d42d5"/></linearGradient><linearGradient id="M" x1="128.916" y1="-97.324" x2="69.317" y2="-77.239" xlink:href="#Z"><stop offset=".377" stop-color="#583dff"/><stop offset=".822" stop-color="#5800e2"/></linearGradient><linearGradient id="N" x1="89.743" y1="27.156" x2="93.243" y2="23.11" xlink:href="#Z"><stop offset=".444" stop-color="#d3ecff"/><stop offset="1" stop-color="#548ef7"/></linearGradient><linearGradient id="O" x1="98.648" y1="18.336" x2="102.149" y2="14.29" xlink:href="#Z"><stop offset=".444" stop-color="#d3ecff"/><stop offset="1" stop-color="#548ef7"/></linearGradient><linearGradient id="P" x1="90.129" y1="40" x2="93.629" y2="35.955" xlink:href="#Z"><stop offset=".444" stop-color="#d3ecff"/><stop offset="1" stop-color="#548ef7"/></linearGradient><linearGradient id="Q" x1="100.122" y1="49.249" x2="103.61" y2="45.125" xlink:href="#Z"><stop offset=".444" stop-color="#d3ecff"/><stop offset="1" stop-color="#548ef7"/></linearGradient><linearGradient id="R" x1="112.453" y1="48.478" x2="115.941" y2="44.355" xlink:href="#Z"><stop offset=".444" stop-color="#d3ecff"/><stop offset="1" stop-color="#548ef7"/></linearGradient><linearGradient id="S" x1="121.042" y1="35.376" x2="124.542" y2="31.331" xlink:href="#Z"><stop offset=".444" stop-color="#d3ecff"/><stop offset="1" stop-color="#548ef7"/></linearGradient><linearGradient id="T" x1="120.571" y1="24.758" x2="124.072" y2="20.712" xlink:href="#Z"><stop offset=".444" stop-color="#d3ecff"/><stop offset="1" stop-color="#548ef7"/></linearGradient><linearGradient id="U" x1="112.178" y1="16.537" x2="115.679" y2="12.492" xlink:href="#Z"><stop offset=".444" stop-color="#d3ecff"/><stop offset="1" stop-color="#548ef7"/></linearGradient><linearGradient id="V" x1="178.262" y1="127.313" x2="146.624" y2="42.867" xlink:href="#Z"><stop offset=".042" stop-color="#4e9cdb"/><stop offset=".351" stop-color="#62369d"/><stop offset="1" stop-color="#5e04d0"/></linearGradient><linearGradient id="W" x1="76.417" y1="-42.036" x2="23.443" y2="-29.097" xlink:href="#Z"><stop offset=".377" stop-color="#583dff"/><stop offset=".822" stop-color="#5800e2"/></linearGradient><linearGradient id="X" x1="124.824" y1="49.115" x2="134.485" y2="40.752" xlink:href="#Z"><stop offset=".444" stop-color="#d3ecff"/><stop offset="1" stop-color="#548ef7"/></linearGradient><linearGradient id="Y" x1="85.714" y1="16.504" x2="91.91" y2="7.507" xlink:href="#Z"><stop offset=".444" stop-color="#d3ecff"/><stop offset="1" stop-color="#548ef7"/></linearGradient><linearGradient id="Z" gradientUnits="userSpaceOnUse"/></defs></svg>