<svg width="146" height="158" viewBox="0 0 146 158" fill="none" xmlns="http://www.w3.org/2000/svg"><g filter="url(#filter0_d_166_4800)"><path fill-rule="evenodd" clip-rule="evenodd" d="M92.29 100.655a4.49 4.49 0 013.628-3.115l.312-.046c2.92-.44 5.509 1.727 5.203 4.654-.633 6.046-2.73 16.388-9.497 27.351a.515.515 0 01-.953-.3l1.315-22.311a.764.764 0 00-.705-.805.764.764 0 01-.672-.985l1.37-4.443z" fill="url(#paint0_linear_166_4800)"/></g><g filter="url(#filter1_d_166_4800)"><path fill-rule="evenodd" clip-rule="evenodd" d="M54.836 99.65a4.498 4.498 0 00-3.47-3.49l-.37-.078c-2.923-.625-5.67 1.397-5.546 4.372.255 6.087 1.704 16.52 7.743 27.858.085.16.252.265.434.272a.511.511 0 00.533-.509l.07-22.339a.77.77 0 01.763-.766.77.77 0 00.747-.924l-.904-4.396z" fill="url(#paint1_linear_166_4800)"/></g><path fill-rule="evenodd" clip-rule="evenodd" d="M76.55 5.793c-11.014-.37-29.09 25.574-28.484 50.19.631 24.65 10.845 61.15 10.845 61.15l14.117.59 14.128.316s12.495-35.783 14.675-60.318c2.129-24.603-14.352-51.603-25.28-51.928z" fill="url(#paint2_linear_166_4800)"/><path d="M91.766 18.825c-13.642-6.367-30.162-2.266-30.351-2.233l-.084-.257c.19-.033 16.804-4.15 30.506 2.225l-.071.265z" fill="#4B50DA"/><path fill-rule="evenodd" clip-rule="evenodd" d="M72.838 6.551l8.234.655c-.035.026-4.112-3.098-8.234-.655z" fill="#53345F"/><path fill-rule="evenodd" clip-rule="evenodd" d="M73.966 6.2s2.205-.342 4.67.029c0 0-.786-3.946-2.204-4.128-1.417-.182-2.466 4.1-2.466 4.1z" fill="url(#paint3_linear_166_4800)"/><path fill-rule="evenodd" clip-rule="evenodd" d="M53.149 93.059s24.068-7.04 41.91-.992c-2.652 10.196-5.154 23.015-10.087 23.484-2.243.213-.555 1.842-15.386 1.265-14.83-.578-14.7-11.678-16.437-23.757z" fill="url(#paint4_linear_166_4800)"/><path fill-rule="evenodd" clip-rule="evenodd" d="M75.125 21.897c-9.971.462-17.416 12.05-18.202 22.311-.786 10.261 8.485 16.86 18.564 16.904 10.08.044 18.656-6.628 17.876-17.92-.763-10.189-7.182-21.808-18.238-21.295z" fill="url(#paint5_linear_166_4800)"/><path fill-rule="evenodd" clip-rule="evenodd" d="M75.143 20.767c-9.972.462-17.416 12.05-18.203 22.311-.786 10.262 8.485 16.86 18.565 16.904 10.08.044 18.655-6.628 17.875-17.92-.728-10.214-7.181-21.808-18.237-21.295z" fill="url(#paint6_linear_166_4800)"/><g filter="url(#filter2_d_166_4800)"><path fill-rule="evenodd" clip-rule="evenodd" d="M75.69 24.463c-8.93.28-13.663 9.398-14.294 17.417-.63 8.02 6.648 13.154 14.577 13.182 7.93.028 14.653-5.178 14.017-13.969-.539-8.01-4.966-16.943-14.3-16.63z" fill="url(#paint7_linear_166_4800)"/></g><path fill-rule="evenodd" clip-rule="evenodd" d="M84.397 52.438c-2.37 1.634-5.3 2.51-8.466 2.494-7.56-.033-15.137-5.427-14.535-13.052.2-2.542.875-5.166 2.003-7.538 2.239-4.623 6.327-8.265 12.246-8.57 8.767-.428 13.086 8.212 13.619 15.854.4 4.867-1.633 8.543-4.867 10.812z" fill="url(#paint8_linear_166_4800)"/><path d="M75.257 61.107l-.904 28.586.258.008.904-28.586-.258-.008z" fill="#4B50DA"/><path d="M53.19 93.188l-.084-.258c27.509-7.012 41.859-1.06 42.005-1.008l-.097.231c-.18-.027-14.445-5.936-41.824 1.035z" fill="#938EFF"/><path d="M51.357 83.574l-.118-.232c.069-.051 8.667-5.25 23.66-5.57l-.01.274c-14.933.328-23.462 5.477-23.532 5.528z" fill="#4B50DA"/><path fill-rule="evenodd" clip-rule="evenodd" d="M61.986 118.325a2.496 2.496 0 012.23-2.917c3.762-.342 11.006-.855 18.581-.599 1.636.056 2.858 1.496 2.688 3.117a2.868 2.868 0 01-2.861 2.565l-18.097-.02a2.577 2.577 0 01-2.541-2.146z" fill="url(#paint9_linear_166_4800)"/><g filter="url(#filter3_d_166_4800)"><path fill-rule="evenodd" clip-rule="evenodd" d="M58.048 21.353s15.867-7.506 35.933 1.111l-2.198-3.76s-11.564-5.87-30.41-2.24l-3.325 4.889z" fill="url(#paint10_linear_166_4800)"/></g><path fill-rule="evenodd" clip-rule="evenodd" d="M74.11 79.736c-.013.488-.438.853-.928.84-.49-.012-.856-.434-.844-.922.013-.488.437-.853.927-.841.456.038.857.435.844.923z" fill="#6B3DD9"/><path fill-rule="evenodd" clip-rule="evenodd" d="M73.894 79.735a.737.737 0 01-.72.688.736.736 0 01-.69-.717.737.737 0 01.719-.688c.395.03.72.323.69.717zm.319-4.332c-.013.488-.437.853-.927.84-.49-.012-.857-.434-.844-.922.012-.488.436-.853.927-.84.49.012.856.434.844.922z" fill="#6B3DD9"/><path fill-rule="evenodd" clip-rule="evenodd" d="M74.032 75.376a.737.737 0 01-.72.688.736.736 0 01-.69-.716.736.736 0 01.72-.689.736.736 0 01.69.717z" fill="#6B3DD9"/><path fill-rule="evenodd" clip-rule="evenodd" d="M60.44 45.35a.737.737 0 01-.72.687.736.736 0 01-.69-.716.737.737 0 01.718-.688.736.736 0 01.691.716z" fill="url(#paint11_linear_166_4800)"/><path fill-rule="evenodd" clip-rule="evenodd" d="M62.377 32.965a.737.737 0 01-.72.688.736.736 0 01-.69-.716.737.737 0 01.719-.688.736.736 0 01.69.716z" fill="url(#paint12_linear_166_4800)"/><path fill-rule="evenodd" clip-rule="evenodd" d="M68.41 55.456a.737.737 0 01-.72.688.736.736 0 01-.69-.716.737.737 0 01.72-.688c.369-.005.659.314.69.716z" fill="url(#paint13_linear_166_4800)"/><path fill-rule="evenodd" clip-rule="evenodd" d="M82.022 56.95a.736.736 0 01-.72.688.736.736 0 01-.69-.716.736.736 0 01.719-.688c.43.003.72.323.69.716z" fill="url(#paint14_linear_166_4800)"/><path fill-rule="evenodd" clip-rule="evenodd" d="M91.527 49.01a.737.737 0 01-.719.687.736.736 0 01-.691-.716.737.737 0 01.72-.688c.43.003.72.322.69.716z" fill="url(#paint15_linear_166_4800)"/><path fill-rule="evenodd" clip-rule="evenodd" d="M90.636 33.382a.737.737 0 01-.72.688c-.37.006-.685-.348-.69-.716a.737.737 0 01.719-.688.736.736 0 01.69.716z" fill="url(#paint16_linear_166_4800)"/><path fill-rule="evenodd" clip-rule="evenodd" d="M83.924 25.117a.737.737 0 01-.72.688.736.736 0 01-.69-.716.737.737 0 01.719-.688.736.736 0 01.69.716z" fill="url(#paint17_linear_166_4800)"/><path fill-rule="evenodd" clip-rule="evenodd" d="M72.24 23.485a.737.737 0 01-.72.688.736.736 0 01-.691-.716.737.737 0 01.72-.688.736.736 0 01.69.716z" fill="url(#paint18_linear_166_4800)"/><g filter="url(#filter4_d_166_4800)"><path fill-rule="evenodd" clip-rule="evenodd" d="M79.989 92.284l2.33.044-3.517 37.009-1.59-.055 2.777-36.998z" fill="url(#paint19_linear_166_4800)"/></g><g filter="url(#filter5_d_166_4800)"><path fill-rule="evenodd" clip-rule="evenodd" d="M79.368 100.551c.059-.775-1.07-.947-1.244-.19a.635.635 0 00-.016.122l-.896 28.799 2.156-28.731z" fill="url(#paint20_linear_166_4800)"/></g><path fill-rule="evenodd" clip-rule="evenodd" d="M99.599 36.535s4.133-.695.992 4.007l-.992-4.007z" fill="url(#paint21_linear_166_4800)"/><path fill-rule="evenodd" clip-rule="evenodd" d="M51.753 34.491s-3.844 1.015-1.217 3.767l1.217-3.767z" fill="url(#paint22_linear_166_4800)"/><path fill-rule="evenodd" clip-rule="evenodd" d="M59.594 91.516c-.003.428-.273.786-.608.766-.335-.02-.556-.39-.552-.818.003-.428.272-.785.608-.766.335.02.556.39.552.818zm29.518-1.199c-.003.428-.307.811-.668.757-.335-.02-.65-.373-.612-.827.003-.428.307-.811.668-.757.36.054.616.399.612.827zm-13.807-.604a.77.77 0 01-.824.764c-.43-.004-.805-.366-.767-.82a.77.77 0 01.823-.764.811.811 0 01.767.82z" fill="#6B3DD9"/><defs><linearGradient id="paint0_linear_166_4800" x1="24.829" y1="45.848" x2="127.295" y2="45.8" gradientUnits="userSpaceOnUse"><stop stop-color="#7345D3"/><stop offset=".473" stop-color="#5DB7FF"/><stop offset=".889" stop-color="#C2DEFF"/></linearGradient><linearGradient id="paint1_linear_166_4800" x1="-31.086" y1="18.373" x2="48.4" y2="-2.86" gradientUnits="userSpaceOnUse"><stop stop-color="#7345D3"/><stop offset=".473" stop-color="#5DB7FF"/><stop offset=".889" stop-color="#C2DEFF"/></linearGradient><linearGradient id="paint2_linear_166_4800" x1="115.347" y1=".349" x2="4.792" y2="-40.424" gradientUnits="userSpaceOnUse"><stop offset=".121" stop-color="#5CB6FF"/><stop offset=".501" stop-color="#005BFF"/></linearGradient><linearGradient id="paint3_linear_166_4800" x1="75.33" y1="14.478" x2="76.943" y2="-4.017" gradientUnits="userSpaceOnUse"><stop offset=".444" stop-color="#D3ECFF"/><stop offset="1" stop-color="#548EF7"/></linearGradient><linearGradient id="paint4_linear_166_4800" x1="97.085" y1="70.5" x2="54.56" y2="49.245" gradientUnits="userSpaceOnUse"><stop offset=".118" stop-color="#5CB6FF"/><stop offset=".921" stop-color="#005BFF"/></linearGradient><linearGradient id="paint5_linear_166_4800" x1="-30.571" y1="-60.705" x2="112.731" y2="-69.997" gradientUnits="userSpaceOnUse"><stop stop-color="#7345D3"/><stop offset=".473" stop-color="#5DB7FF"/><stop offset=".889" stop-color="#C2DEFF"/></linearGradient><linearGradient id="paint6_linear_166_4800" x1="-30.555" y1="-61.833" x2="112.793" y2="-71.101" gradientUnits="userSpaceOnUse"><stop stop-color="#7345D3"/><stop offset=".473" stop-color="#5DB7FF"/><stop offset=".889" stop-color="#C2DEFF"/></linearGradient><linearGradient id="paint7_linear_166_4800" x1="-7.816" y1="-41.19" x2="105.276" y2="-48.602" gradientUnits="userSpaceOnUse"><stop stop-color="#7345D3"/><stop offset=".712" stop-color="#5DB7FF"/><stop offset=".889" stop-color="#C2DEFF"/></linearGradient><linearGradient id="paint8_linear_166_4800" x1="70.591" y1="97.421" x2="79.883" y2="-13.665" gradientUnits="userSpaceOnUse"><stop offset=".444" stop-color="#D3ECFF"/><stop offset="1" stop-color="#548EF7"/></linearGradient><linearGradient id="paint9_linear_166_4800" x1="83.982" y1="110.417" x2="66.225" y2="98.367" gradientUnits="userSpaceOnUse"><stop offset=".118" stop-color="#5CB6FF"/><stop offset=".618" stop-color="#4D42D5"/></linearGradient><linearGradient id="paint10_linear_166_4800" x1="6.548" y1="-42.716" x2="187.228" y2="-49.391" gradientUnits="userSpaceOnUse"><stop stop-color="#7345D3"/><stop offset=".44" stop-color="#5DB7FF"/><stop offset=".889" stop-color="#C2DEFF"/></linearGradient><linearGradient id="paint11_linear_166_4800" x1="59.486" y1="48.039" x2="59.899" y2="42.705" gradientUnits="userSpaceOnUse"><stop offset=".444" stop-color="#D3ECFF"/><stop offset="1" stop-color="#548EF7"/></linearGradient><linearGradient id="paint12_linear_166_4800" x1="61.423" y1="35.654" x2="61.837" y2="30.32" gradientUnits="userSpaceOnUse"><stop offset=".444" stop-color="#D3ECFF"/><stop offset="1" stop-color="#548EF7"/></linearGradient><linearGradient id="paint13_linear_166_4800" x1="67.457" y1="58.146" x2="67.87" y2="52.812" gradientUnits="userSpaceOnUse"><stop offset=".444" stop-color="#D3ECFF"/><stop offset="1" stop-color="#548EF7"/></linearGradient><linearGradient id="paint14_linear_166_4800" x1="81.047" y1="59.655" x2="81.405" y2="54.266" gradientUnits="userSpaceOnUse"><stop offset=".444" stop-color="#D3ECFF"/><stop offset="1" stop-color="#548EF7"/></linearGradient><linearGradient id="paint15_linear_166_4800" x1="90.553" y1="51.714" x2="90.911" y2="46.324" gradientUnits="userSpaceOnUse"><stop offset=".444" stop-color="#D3ECFF"/><stop offset="1" stop-color="#548EF7"/></linearGradient><linearGradient id="paint16_linear_166_4800" x1="89.682" y1="36.072" x2="90.095" y2="30.738" gradientUnits="userSpaceOnUse"><stop offset=".444" stop-color="#D3ECFF"/><stop offset="1" stop-color="#548EF7"/></linearGradient><linearGradient id="paint17_linear_166_4800" x1="82.97" y1="27.807" x2="83.383" y2="22.473" gradientUnits="userSpaceOnUse"><stop offset=".444" stop-color="#D3ECFF"/><stop offset="1" stop-color="#548EF7"/></linearGradient><linearGradient id="paint18_linear_166_4800" x1="71.286" y1="26.175" x2="71.699" y2="20.84" gradientUnits="userSpaceOnUse"><stop offset=".444" stop-color="#D3ECFF"/><stop offset="1" stop-color="#548EF7"/></linearGradient><linearGradient id="paint19_linear_166_4800" x1=".43" y1="30.607" x2="101.428" y2="19.323" gradientUnits="userSpaceOnUse"><stop stop-color="#7345D3"/><stop offset=".473" stop-color="#5DB7FF"/><stop offset=".889" stop-color="#C2DEFF"/></linearGradient><linearGradient id="paint20_linear_166_4800" x1="2.547" y1="33.115" x2="97.105" y2="20.939" gradientUnits="userSpaceOnUse"><stop stop-color="#7345D3"/><stop offset=".473" stop-color="#5DB7FF"/><stop offset=".889" stop-color="#C2DEFF"/></linearGradient><linearGradient id="paint21_linear_166_4800" x1="100.932" y1="44.881" x2="103.73" y2="32.41" gradientUnits="userSpaceOnUse"><stop offset=".444" stop-color="#D3ECFF"/><stop offset="1" stop-color="#548EF7"/></linearGradient><linearGradient id="paint22_linear_166_4800" x1="49.878" y1="41.859" x2="49.523" y2="30.941" gradientUnits="userSpaceOnUse"><stop offset=".444" stop-color="#D3ECFF"/><stop offset="1" stop-color="#548EF7"/></linearGradient><filter id="filter0_d_166_4800" x="71.887" y="87.437" width="48.571" height="70.306" filterUnits="userSpaceOnUse" color-interpolation-filters="sRGB"><feFlood flood-opacity="0" result="BackgroundImageFix"/><feColorMatrix in="SourceAlpha" values="0 0 0 0 0 0 0 0 0 0 0 0 0 0 0 0 0 0 127 0" result="hardAlpha"/><feOffset dy="9"/><feGaussianBlur stdDeviation="9.5"/><feComposite in2="hardAlpha" operator="out"/><feColorMatrix values="0 0 0 0 0 0 0 0 0 0 0 0 0 0 0 0 0 0 0.15 0"/><feBlend in2="BackgroundImageFix" result="effect1_dropShadow_166_4800"/><feBlend in="SourceGraphic" in2="effect1_dropShadow_166_4800" result="shape"/></filter><filter id="filter1_d_166_4800" x="26.446" y="85.968" width="48.31" height="70.617" filterUnits="userSpaceOnUse" color-interpolation-filters="sRGB"><feFlood flood-opacity="0" result="BackgroundImageFix"/><feColorMatrix in="SourceAlpha" values="0 0 0 0 0 0 0 0 0 0 0 0 0 0 0 0 0 0 127 0" result="hardAlpha"/><feOffset dy="9"/><feGaussianBlur stdDeviation="9.5"/><feComposite in2="hardAlpha" operator="out"/><feColorMatrix values="0 0 0 0 0 0 0 0 0 0 0 0 0 0 0 0 0 0 0.15 0"/><feBlend in2="BackgroundImageFix" result="effect1_dropShadow_166_4800"/><feBlend in="SourceGraphic" in2="effect1_dropShadow_166_4800" result="shape"/></filter><filter id="filter2_d_166_4800" x="42.357" y="14.455" width="66.675" height="68.607" filterUnits="userSpaceOnUse" color-interpolation-filters="sRGB"><feFlood flood-opacity="0" result="BackgroundImageFix"/><feColorMatrix in="SourceAlpha" values="0 0 0 0 0 0 0 0 0 0 0 0 0 0 0 0 0 0 127 0" result="hardAlpha"/><feOffset dy="9"/><feGaussianBlur stdDeviation="9.5"/><feComposite in2="hardAlpha" operator="out"/><feColorMatrix values="0 0 0 0 0 0 0 0 0 0 0 0 0 0 0 0 0 0 0.15 0"/><feBlend in2="BackgroundImageFix" result="effect1_dropShadow_166_4800"/><feBlend in="SourceGraphic" in2="effect1_dropShadow_166_4800" result="shape"/></filter><filter id="filter3_d_166_4800" x="39.049" y="5.279" width="73.933" height="45.185" filterUnits="userSpaceOnUse" color-interpolation-filters="sRGB"><feFlood flood-opacity="0" result="BackgroundImageFix"/><feColorMatrix in="SourceAlpha" values="0 0 0 0 0 0 0 0 0 0 0 0 0 0 0 0 0 0 127 0" result="hardAlpha"/><feOffset dy="9"/><feGaussianBlur stdDeviation="9.5"/><feComposite in2="hardAlpha" operator="out"/><feColorMatrix values="0 0 0 0 0 0 0 0 0 0 0 0 0 0 0 0 0 0 0.15 0"/><feBlend in2="BackgroundImageFix" result="effect1_dropShadow_166_4800"/><feBlend in="SourceGraphic" in2="effect1_dropShadow_166_4800" result="shape"/></filter><filter id="filter4_d_166_4800" x="58.212" y="82.284" width="43.107" height="75.053" filterUnits="userSpaceOnUse" color-interpolation-filters="sRGB"><feFlood flood-opacity="0" result="BackgroundImageFix"/><feColorMatrix in="SourceAlpha" values="0 0 0 0 0 0 0 0 0 0 0 0 0 0 0 0 0 0 127 0" result="hardAlpha"/><feOffset dy="9"/><feGaussianBlur stdDeviation="9.5"/><feComposite in2="hardAlpha" operator="out"/><feColorMatrix values="0 0 0 0 0 0 0 0 0 0 0 0 0 0 0 0 0 0 0.15 0"/><feBlend in2="BackgroundImageFix" result="effect1_dropShadow_166_4800"/><feBlend in="SourceGraphic" in2="effect1_dropShadow_166_4800" result="shape"/></filter><filter id="filter5_d_166_4800" x="58.212" y="89.874" width="40.158" height="67.408" filterUnits="userSpaceOnUse" color-interpolation-filters="sRGB"><feFlood flood-opacity="0" result="BackgroundImageFix"/><feColorMatrix in="SourceAlpha" values="0 0 0 0 0 0 0 0 0 0 0 0 0 0 0 0 0 0 127 0" result="hardAlpha"/><feOffset dy="9"/><feGaussianBlur stdDeviation="9.5"/><feComposite in2="hardAlpha" operator="out"/><feColorMatrix values="0 0 0 0 0 0 0 0 0 0 0 0 0 0 0 0 0 0 0.15 0"/><feBlend in2="BackgroundImageFix" result="effect1_dropShadow_166_4800"/><feBlend in="SourceGraphic" in2="effect1_dropShadow_166_4800" result="shape"/></filter></defs></svg>