<svg width="134" height="148" viewBox="0 0 134 148" fill="none" xmlns="http://www.w3.org/2000/svg"><path opacity=".88" d="M21.889 131l35.708-52.583 6.684 5.032L21.888 131z" fill="url(#paint0_linear_858_10)"/><path opacity=".88" d="M28.54 134.365l42.4-53.425 6.685 5.032-49.086 48.393z" fill="url(#paint1_linear_858_10)"/><path opacity=".88" d="M12.888 147.999l43.88-59.871 7.403 5.53-51.283 54.341z" fill="url(#paint2_linear_858_10)"/><path fill-rule="evenodd" clip-rule="evenodd" d="M87.052 87.21l7.621 4.024S85.983 104.464 67.1 112l-.642-.514 15.114-18.154-1.285-1.113 6.765-5.01z" fill="url(#paint3_linear_858_10)"/><path fill-rule="evenodd" clip-rule="evenodd" d="M56.61 63.276l-5.866-6.637S39.91 68.2 37 88.323l.642.514L51.73 69.869l1.37.985 3.51-7.578z" fill="url(#paint4_linear_858_10)"/><path fill-rule="evenodd" clip-rule="evenodd" d="M128.497 3.248c-8.606-6.807-38.491 3.383-52.62 23.549C61.747 47.006 48.26 82.414 48.26 82.414l10.96 8.82 11.133 8.606s31.255-21.407 47.568-39.861c16.313-18.54 19.138-50.009 10.575-56.73z" fill="url(#paint5_linear_858_10)"/><path d="M132.95 22.73C125.8 9.541 110.129 3.076 109.958 2.99l.086-.257c.171.086 15.927 6.594 23.12 19.824l-.214.171z" fill="#4B50DA"/><path fill-rule="evenodd" clip-rule="evenodd" d="M125.072 1.664l6.209 5.395c-.043 0-1.456-4.924-6.209-5.395z" fill="#53345F"/><path fill-rule="evenodd" clip-rule="evenodd" d="M126.185 2.05s1.969 1.027 3.725 2.782c0 0 1.712-3.639.685-4.624-1.028-.984-4.41 1.841-4.41 1.841z" fill="url(#paint6_linear_858_10)"/><path fill-rule="evenodd" clip-rule="evenodd" d="M57.937 59.636S81.4 68.2 92.104 83.613C83.926 90.25 74.311 99.086 70.08 96.547c-1.923-1.154-1.538 1.154-13.078-8.077-11.54-9.232-4.845-18.087.935-28.834z" fill="url(#paint7_linear_858_10)"/><path fill-rule="evenodd" clip-rule="evenodd" d="M117.794 15.365c-8.264-5.523-21.108-.6-27.83 7.193-6.722 7.793-3.211 18.582 4.838 24.576 8.049 5.995 18.882 5.695 24.961-3.853 5.438-8.649 7.193-21.793-1.969-27.916z" fill="url(#paint8_linear_858_10)"/><path fill-rule="evenodd" clip-rule="evenodd" d="M118.478 14.466c-8.263-5.523-21.108-.6-27.83 7.193-6.722 7.792-3.21 18.582 4.839 24.576s18.881 5.695 24.961-3.853c5.48-8.649 7.193-21.793-1.97-27.916z" fill="url(#paint9_linear_858_10)"/><path fill-rule="evenodd" clip-rule="evenodd" d="M116.722 17.763c-7.321-5.052-16.526-.514-21.793 5.566-5.266 6.08-2.483 14.514 3.854 19.224 6.336 4.71 14.814 4.496 19.524-2.954 4.324-6.765 6.079-16.57-1.585-21.836z" fill="#541FA2"/><path fill-rule="evenodd" clip-rule="evenodd" d="M107.09 45.422c-2.868-.086-5.737-1.113-8.263-2.997-6.037-4.496-8.906-13.316-3.897-19.096a21.821 21.821 0 016.08-4.881c4.539-2.398 9.976-2.912 14.9.342 7.279 4.838 5.609 14.344 1.499 20.809-2.569 4.153-6.38 5.908-10.319 5.823z" fill="url(#paint10_linear_858_10)"/><path d="M94.62 46.995L76.925 69.463l.202.16 17.695-22.47-.202-.158z" fill="#4B50DA"/><path d="M57.894 59.765l.085-.257c26.203 10.618 34.167 23.891 34.253 24.02l-.214.128c-.129-.128-8.05-13.316-34.124-23.891z" fill="#938EFF"/><path d="M62.133 50.945l.043-.257c.085 0 10.061.9 22.264 9.505l-.171.214c-12.16-8.563-22.05-9.462-22.136-9.462z" fill="#4B50DA"/><path fill-rule="evenodd" clip-rule="evenodd" d="M50.015 85.194c.662-1.303 2.273-1.786 3.524-1.029 3.219 1.95 9.326 5.819 15.242 10.502 1.277 1.011 1.4 2.89.303 4.093a2.865 2.865 0 01-3.82.372L50.776 88.42a2.566 2.566 0 01-.762-3.226z" fill="url(#paint11_linear_858_10)"/><path fill-rule="evenodd" clip-rule="evenodd" d="M104.436 4.832s17.169 3.34 28.129 22.136l.471-4.324s-5.78-11.56-23.034-19.781l-5.566 1.97z" fill="url(#paint12_linear_858_10)"/><path fill-rule="evenodd" clip-rule="evenodd" d="M82.641 61.306c-.3.386-.856.428-1.242.129-.385-.3-.428-.857-.128-1.242s.856-.428 1.242-.128c.342.3.428.856.128 1.241z" fill="#6B3DD9"/><path fill-rule="evenodd" clip-rule="evenodd" d="M82.47 61.178a.735.735 0 01-.985.128.735.735 0 01-.129-.984.735.735 0 01.985-.129c.3.257.386.685.129.985zm2.826-3.297c-.3.385-.856.428-1.241.129-.386-.3-.429-.857-.129-1.242.3-.386.856-.428 1.242-.129.385.3.428.857.128 1.242z" fill="#6B3DD9"/><path fill-rule="evenodd" clip-rule="evenodd" d="M85.169 57.753a.735.735 0 01-.985.128.735.735 0 01-.128-.985.735.735 0 01.984-.128c.3.257.343.685.129.985z" fill="#6B3DD9"/><path fill-rule="evenodd" clip-rule="evenodd" d="M92.103 25.555a.735.735 0 01-.984.129.735.735 0 01-.129-.985.735.735 0 01.985-.129c.3.257.343.686.129.985z" fill="url(#paint13_linear_858_10)"/><path fill-rule="evenodd" clip-rule="evenodd" d="M101.009 16.735a.735.735 0 01-.985.129.735.735 0 01-.129-.985.735.735 0 01.985-.129c.3.257.343.686.129.985z" fill="url(#paint14_linear_858_10)"/><path fill-rule="evenodd" clip-rule="evenodd" d="M92.49 38.4a.735.735 0 01-.986.128.735.735 0 01-.128-.984.735.735 0 01.985-.129c.3.214.342.642.128.985z" fill="url(#paint15_linear_858_10)"/><path fill-rule="evenodd" clip-rule="evenodd" d="M102.508 47.648a.735.735 0 01-.985.128.733.733 0 01-.128-.984.734.734 0 01.984-.129c.343.257.386.685.129.985z" fill="url(#paint16_linear_858_10)"/><path fill-rule="evenodd" clip-rule="evenodd" d="M114.839 46.877a.735.735 0 01-.985.129.734.734 0 01-.128-.985.734.734 0 01.984-.128c.343.257.386.685.129.984z" fill="url(#paint17_linear_858_10)"/><path fill-rule="evenodd" clip-rule="evenodd" d="M123.402 33.776a.734.734 0 01-.984.128c-.3-.214-.343-.685-.129-.985a.735.735 0 01.985-.128c.3.257.342.685.128.985z" fill="url(#paint18_linear_858_10)"/><path fill-rule="evenodd" clip-rule="evenodd" d="M122.932 23.157a.735.735 0 01-.985.129.735.735 0 01-.129-.985.735.735 0 01.985-.128c.3.257.343.685.129.985z" fill="url(#paint19_linear_858_10)"/><path fill-rule="evenodd" clip-rule="evenodd" d="M114.539 14.937a.735.735 0 01-.985.128.736.736 0 01-.128-.984.735.735 0 01.985-.129.735.735 0 01.128.985z" fill="url(#paint20_linear_858_10)"/><path fill-rule="evenodd" clip-rule="evenodd" d="M79.902 74.879l1.84 1.413-24.79 27.701-1.241-.984 24.19-28.13z" fill="url(#paint21_linear_858_10)"/><path fill-rule="evenodd" clip-rule="evenodd" d="M79.902 74.879l-6.337 5.437-17.854 22.693 24.19-28.13z" fill="url(#paint22_linear_858_10)"/><path fill-rule="evenodd" clip-rule="evenodd" d="M128.71 41.611s3.725 1.884-1.584 3.81l1.584-3.81z" fill="url(#paint23_linear_858_10)"/><path fill-rule="evenodd" clip-rule="evenodd" d="M91.59 11.683s-3.681-1.456-3.21 2.312l3.21-2.312z" fill="url(#paint24_linear_858_10)"/><path fill-rule="evenodd" clip-rule="evenodd" d="M64.017 62.205c-.257.343-.685.471-.942.257-.257-.214-.214-.642.043-.984.257-.343.685-.471.942-.257.257.214.214.642-.043.984zM88.378 78.69c-.257.342-.728.47-.984.213-.257-.214-.3-.684 0-1.027.256-.343.727-.471.984-.214s.257.685 0 1.027zm-10.703-8.65c-.257.343-.77.429-1.113.13-.343-.258-.428-.772-.129-1.114.257-.343.77-.428 1.113-.129a.81.81 0 01.129 1.114z" fill="#6B3DD9"/><defs><linearGradient id="paint0_linear_858_10" x1="57.707" y1="80.15" x2="3.5" y2="141" gradientUnits="userSpaceOnUse"><stop offset=".107" stop-color="#864DFF"/><stop offset=".885" stop-color="#1D147C" stop-opacity=".19"/></linearGradient><linearGradient id="paint1_linear_858_10" x1="71.051" y1="82.673" x2="16" y2="165" gradientUnits="userSpaceOnUse"><stop offset=".107" stop-color="#864DFF"/><stop offset=".885" stop-color="#1D147C" stop-opacity=".19"/></linearGradient><linearGradient id="paint2_linear_858_10" x1="56.897" y1="90.042" x2="-10.5" y2="164" gradientUnits="userSpaceOnUse"><stop offset=".078" stop-color="#8354E7"/><stop offset=".885" stop-color="#1D147C" stop-opacity=".19"/></linearGradient><linearGradient id="paint3_linear_858_10" x1="90.609" y1="-15.825" x2="31.331" y2="3.338" gradientUnits="userSpaceOnUse"><stop offset=".377" stop-color="#583DFF"/><stop offset=".822" stop-color="#5800E2"/></linearGradient><linearGradient id="paint4_linear_858_10" x1="53.785" y1="-77.181" x2="9.603" y2="-69.538" gradientUnits="userSpaceOnUse"><stop offset=".377" stop-color="#583DFF"/><stop offset=".822" stop-color="#5800E2"/></linearGradient><linearGradient id="paint5_linear_858_10" x1="162.813" y1="21.802" x2="98.168" y2="-76.179" gradientUnits="userSpaceOnUse"><stop offset=".118" stop-color="#5CB6FF"/><stop offset=".921" stop-color="#005BFF"/></linearGradient><linearGradient id="paint6_linear_858_10" x1="122.363" y1="9.516" x2="134.646" y2="-4.404" gradientUnits="userSpaceOnUse"><stop offset=".444" stop-color="#D3ECFF"/><stop offset="1" stop-color="#548EF7"/></linearGradient><linearGradient id="paint7_linear_858_10" x1="106.532" y1="67.456" x2="84.935" y2="25.289" gradientUnits="userSpaceOnUse"><stop offset=".118" stop-color="#5CB6FF"/><stop offset=".921" stop-color="#005BFF"/></linearGradient><linearGradient id="paint8_linear_858_10" x1="207.852" y1="51.63" x2="175.98" y2="-23.216" gradientUnits="userSpaceOnUse"><stop offset=".042" stop-color="#4E9CDB"/><stop offset=".321" stop-color="#5761D7"/><stop offset=".875" stop-color="#7628DA"/></linearGradient><linearGradient id="paint9_linear_858_10" x1="119.501" y1="-146.371" x2="38.131" y2="-123.427" gradientUnits="userSpaceOnUse"><stop offset=".377" stop-color="#583DFF"/><stop offset=".822" stop-color="#5800E2"/></linearGradient><linearGradient id="paint10_linear_858_10" x1="69.322" y1="73.457" x2="142.78" y2="-10.386" gradientUnits="userSpaceOnUse"><stop offset=".444" stop-color="#D3ECFF"/><stop offset="1" stop-color="#548EF7"/></linearGradient><linearGradient id="paint11_linear_858_10" x1="72.335" y1="91.831" x2="65.181" y2="71.666" gradientUnits="userSpaceOnUse"><stop offset=".118" stop-color="#5CB6FF"/><stop offset=".618" stop-color="#4D42D5"/></linearGradient><linearGradient id="paint12_linear_858_10" x1="128.916" y1="-97.324" x2="69.317" y2="-77.24" gradientUnits="userSpaceOnUse"><stop offset=".377" stop-color="#583DFF"/><stop offset=".822" stop-color="#5800E2"/></linearGradient><linearGradient id="paint13_linear_858_10" x1="89.743" y1="27.156" x2="93.243" y2="23.11" gradientUnits="userSpaceOnUse"><stop offset=".444" stop-color="#D3ECFF"/><stop offset="1" stop-color="#548EF7"/></linearGradient><linearGradient id="paint14_linear_858_10" x1="98.648" y1="18.336" x2="102.149" y2="14.29" gradientUnits="userSpaceOnUse"><stop offset=".444" stop-color="#D3ECFF"/><stop offset="1" stop-color="#548EF7"/></linearGradient><linearGradient id="paint15_linear_858_10" x1="90.129" y1="40" x2="93.629" y2="35.955" gradientUnits="userSpaceOnUse"><stop offset=".444" stop-color="#D3ECFF"/><stop offset="1" stop-color="#548EF7"/></linearGradient><linearGradient id="paint16_linear_858_10" x1="100.122" y1="49.248" x2="103.61" y2="45.125" gradientUnits="userSpaceOnUse"><stop offset=".444" stop-color="#D3ECFF"/><stop offset="1" stop-color="#548EF7"/></linearGradient><linearGradient id="paint17_linear_858_10" x1="112.453" y1="48.478" x2="115.941" y2="44.355" gradientUnits="userSpaceOnUse"><stop offset=".444" stop-color="#D3ECFF"/><stop offset="1" stop-color="#548EF7"/></linearGradient><linearGradient id="paint18_linear_858_10" x1="121.042" y1="35.376" x2="124.542" y2="31.331" gradientUnits="userSpaceOnUse"><stop offset=".444" stop-color="#D3ECFF"/><stop offset="1" stop-color="#548EF7"/></linearGradient><linearGradient id="paint19_linear_858_10" x1="120.571" y1="24.758" x2="124.072" y2="20.712" gradientUnits="userSpaceOnUse"><stop offset=".444" stop-color="#D3ECFF"/><stop offset="1" stop-color="#548EF7"/></linearGradient><linearGradient id="paint20_linear_858_10" x1="112.178" y1="16.537" x2="115.679" y2="12.492" gradientUnits="userSpaceOnUse"><stop offset=".444" stop-color="#D3ECFF"/><stop offset="1" stop-color="#548EF7"/></linearGradient><linearGradient id="paint21_linear_858_10" x1="178.262" y1="127.313" x2="146.624" y2="42.867" gradientUnits="userSpaceOnUse"><stop offset=".042" stop-color="#4E9CDB"/><stop offset=".351" stop-color="#62369D"/><stop offset="1" stop-color="#5E04D0"/></linearGradient><linearGradient id="paint22_linear_858_10" x1="76.417" y1="-42.036" x2="23.443" y2="-29.097" gradientUnits="userSpaceOnUse"><stop offset=".377" stop-color="#583DFF"/><stop offset=".822" stop-color="#5800E2"/></linearGradient><linearGradient id="paint23_linear_858_10" x1="124.824" y1="49.115" x2="134.485" y2="40.752" gradientUnits="userSpaceOnUse"><stop offset=".444" stop-color="#D3ECFF"/><stop offset="1" stop-color="#548EF7"/></linearGradient><linearGradient id="paint24_linear_858_10" x1="85.714" y1="16.504" x2="91.91" y2="7.507" gradientUnits="userSpaceOnUse"><stop offset=".444" stop-color="#D3ECFF"/><stop offset="1" stop-color="#548EF7"/></linearGradient></defs></svg>