<svg version="1.1" id="Слой_1" xmlns="http://www.w3.org/2000/svg" xmlns:xlink="http://www.w3.org/1999/xlink" x="0" y="0" viewBox="0 0 550.1 729.1" xml:space="preserve"><defs><path id="SVGID_1_" d="M0 0h550.1v729.1H0z"/></defs><clipPath id="SVGID_2_"><use xlink:href="#SVGID_1_" overflow="visible"/></clipPath><path clip-path="url(#SVGID_2_)" fill="#04002F" d="M3062-185.3s305.3-5.3 648.5-76.7l134.3-10 39 525.6L1236 617.3s-1614.9 272.8-2150.6-37c-98-56.7-273.1-330.1-138.6-474C-918.8-37.6-613.2-29.1-297-9.7 86.1 13.8 117.5 37.7 408.4 18.1 774.8-6.7 1075-135.3 1346.6-176.7c248-37.8 346.8 64.4 584.1 29.5 237.4-34.9 500.6-48.1 609.3-45.2 108.6 2.9 522 7.1 522 7.1z"/><linearGradient id="SVGID_3_" gradientUnits="userSpaceOnUse" x1="1343.572" y1="745.474" x2="1566.502" y2="-632.751" gradientTransform="matrix(1 0 0 -1 0 568.253)"><stop offset="0" stop-color="#040114"/><stop offset=".124" stop-color="#080435"/><stop offset=".454" stop-color="#130f3d"/><stop offset="1" stop-opacity="0"/></linearGradient><path clip-path="url(#SVGID_2_)" fill="url(#SVGID_3_)" d="M3062-185.3s305.3-5.3 648.5-76.7l134.3-10 39 525.6L1236 617.3s-1614.9 272.8-2150.6-37c-98-56.7-273.1-330.1-138.6-474C-918.8-37.6-613.2-29.1-297-9.7 86.1 13.8 117.5 37.7 408.4 18.1 774.8-6.7 1075-135.3 1346.6-176.7c248-37.8 346.8 64.4 584.1 29.5 237.4-34.9 500.6-48.1 609.3-45.2 108.6 2.9 522 7.1 522 7.1z"/></svg>