<svg width="1920" height="891" viewBox="0 0 1920 891" fill="none" xmlns="http://www.w3.org/2000/svg">
<path d="M3746.97 -23.3883C3746.97 -23.3883 4052.31 -28.7224 4395.45 -100.068L4529.7 -110.028L4568.69 415.529L1920.96 779.175C1920.96 779.175 306.041 1051.98 -229.655 742.199C-327.697 685.504 -502.71 412.08 -368.265 268.18C-233.82 124.279 71.728 132.798 387.939 152.206C771.077 175.722 802.428 199.595 1093.4 179.951C1459.75 155.219 1760 26.5823 2031.52 -14.8348C2279.56 -52.6692 2378.27 49.5977 2615.65 14.6634C2853.04 -20.271 3116.27 -33.42 3224.94 -30.5428C3333.61 -27.6655 3746.97 -23.3883 3746.97 -23.3883Z" fill="#04002F"/>
<path d="M3746.97 -23.3883C3746.97 -23.3883 4052.31 -28.7224 4395.45 -100.068L4529.7 -110.028L4568.69 415.529L1920.96 779.175C1920.96 779.175 306.041 1051.98 -229.655 742.199C-327.697 685.504 -502.71 412.08 -368.265 268.18C-233.82 124.279 71.728 132.798 387.939 152.206C771.077 175.722 802.428 199.595 1093.4 179.951C1459.75 155.219 1760 26.5823 2031.52 -14.8348C2279.56 -52.6692 2378.27 49.5977 2615.65 14.6634C2853.04 -20.271 3116.27 -33.42 3224.94 -30.5428C3333.61 -27.6655 3746.97 -23.3883 3746.97 -23.3883Z" fill="url(#paint0_linear_82_20793)"/>
<defs>
<linearGradient id="paint0_linear_82_20793" x1="2046.64" y1="-18.2754" x2="2269.57" y2="1359.95" gradientUnits="userSpaceOnUse">
<stop stop-color="#040114"/>
<stop offset="0.123946" stop-color="#080435"/>
<stop offset="0.453633" stop-color="#130F3D"/>
<stop offset="1" stop-opacity="0"/>
</linearGradient>
</defs>
</svg>
