<svg width="1920" height="891" viewBox="0 0 1920 891" fill="none" xmlns="http://www.w3.org/2000/svg"><path d="M3746.97-23.388s305.34-5.334 648.48-76.68l134.25-9.96 38.99 525.557-2647.73 363.646S306.041 1051.98-229.655 742.199c-98.042-56.695-273.055-330.119-138.61-474.019C-233.82 124.279 71.728 132.798 387.939 152.206c383.138 23.516 414.489 47.389 705.461 27.745 366.35-24.732 666.6-153.369 938.12-194.786 248.04-37.834 346.75 64.433 584.13 29.498 237.39-34.934 500.62-48.083 609.29-45.206 108.67 2.877 522.03 7.155 522.03 7.155z" fill="#04002F"/><path d="M3746.97-23.388s305.34-5.334 648.48-76.68l134.25-9.96 38.99 525.557-2647.73 363.646S306.041 1051.98-229.655 742.199c-98.042-56.695-273.055-330.119-138.61-474.019C-233.82 124.279 71.728 132.798 387.939 152.206c383.138 23.516 414.489 47.389 705.461 27.745 366.35-24.732 666.6-153.369 938.12-194.786 248.04-37.834 346.75 64.433 584.13 29.498 237.39-34.934 500.62-48.083 609.29-45.206 108.67 2.877 522.03 7.155 522.03 7.155z" fill="url(#paint0_linear_82_20793)"/><defs><linearGradient id="paint0_linear_82_20793" x1="2046.64" y1="-18.275" x2="2269.57" y2="1359.95" gradientUnits="userSpaceOnUse"><stop stop-color="#040114"/><stop offset=".124" stop-color="#080435"/><stop offset=".454" stop-color="#130F3D"/><stop offset="1" stop-opacity="0"/></linearGradient></defs></svg>