<svg width="320" height="736" viewBox="0 0 320 736" fill="none" xmlns="http://www.w3.org/2000/svg"><path d="M1945.29-117.676s199.41 2.526 421.83-59.862l87.47-6.49 39 525.557L723 667.5s-870.45 211.964-1228.5-111c-65.529-59.108-315.246-348.786-231.083-488.956 84.162-140.17 284.062-123.812 491.21-96.312C5.618 4.552 26.721 29.185 216.373 17.059 455.149 1.793 648.064-118.88 824.442-153.238c161.12-31.386 228.258 73.223 382.498 44.458 154.24-28.765 325.93-35.122 397.01-29.456 71.09 5.665 341.34 20.56 341.34 20.56z" fill="url(#paint0_linear_268_1569)"/><defs><linearGradient id="paint0_linear_268_1569" x1="834.235" y1="-156.283" x2="1118.46" y2="1203.49" gradientUnits="userSpaceOnUse"><stop stop-color="#040114"/><stop offset=".124" stop-color="#080435"/><stop offset=".454" stop-color="#130F3D"/><stop offset="1" stop-color="#130F3D" stop-opacity=".73"/></linearGradient></defs></svg>