<svg width="1920" height="1107" viewBox="0 0 1920 1107" fill="none" xmlns="http://www.w3.org/2000/svg"><path d="M-1629.14 37.82c293.24 55.546 551.28 38.654 551.28 38.654s348.746-35.98 440.337-47.438C-545.931 17.58-703.147 47.94-501 69.917c202.148 21.979 807.581-37.535 1044-17.5 206.5 17.5 362.998 46.29 673.5 46.93 246.62.508 366.23 8.717 688.5-46.93 265.97-45.926 385.09-107.063 505.78 46.93 120.69 153.992 839 572.68 739.49 620.138-546.11 260.453-1422.48 346.445-1976.95 340.455-195.729-1.25-800.089-90.687-1164.727 25.25l-131.702 20.87-1626.521-467.201 6.66-602.297 113.83 1.258z" fill="url(#paint0_linear_167_5303)"/><defs><linearGradient id="paint0_linear_167_5303" x1="357.803" y1="-45.631" x2="155.596" y2="1532.29" gradientUnits="userSpaceOnUse"><stop stop-color="#040114"/><stop offset=".124" stop-color="#080435"/><stop offset=".454" stop-color="#130F3D"/><stop offset="1"/></linearGradient></defs></svg>