<svg width="18" height="19" viewBox="0 0 18 19" fill="none" xmlns="http://www.w3.org/2000/svg"><g clip-path="url(#clip0_168_5601)"><path d="M15.56 10.595l-7.237 8.323a8.323 8.323 0 008.319-8.044.271.271 0 00-.272-.279h-.81z" fill="#0761E1"/><path d="M8.044 2.277A8.326 8.326 0 00.632 7.409v3.186h7.69V2.548a.271.271 0 00-.278-.271z" fill="url(#paint0_linear_168_5601)"/><path d="M.632 7.41A8.298 8.298 0 000 10.594c0 2.298.932 4.38 2.438 5.885h5.885v-5.885L.632 7.41z" fill="#3B88F5"/><path d="M8.323 10.595L2.437 16.48a8.297 8.297 0 005.886 2.438c3.996 0 7.236-3.726 7.236-8.323H8.323z" fill="#3B88F5"/><path d="M9.825.918h-.026l7.114 8.454h.816A.271.271 0 0018 9.094 8.46 8.46 0 009.825.918z" fill="url(#paint1_linear_168_5601)"/><path d="M9.799.919h-.01c-.133-.006-.243.118-.243.27a.27.27 0 01.253-.27z" fill="url(#paint2_linear_168_5601)"/><path d="M9.799.919a.271.271 0 00-.253.27v7.912c0 .15.122.271.272.271h7.095v-.278C16.788 4.647 13.673 1.068 9.8.919z" fill="url(#paint3_linear_168_5601)"/></g><defs><linearGradient id="paint0_linear_168_5601" x1="13.613" y1="10.414" x2="7.689" y2="-17.023" gradientUnits="userSpaceOnUse"><stop offset=".104" stop-color="#93CAF7"/><stop offset=".555" stop-color="#6773FF"/><stop offset="1" stop-color="#7628DA"/></linearGradient><linearGradient id="paint1_linear_168_5601" x1="23.642" y1="9.188" x2="17.88" y2="-18.811" gradientUnits="userSpaceOnUse"><stop offset=".104" stop-color="#93CAF7"/><stop offset=".555" stop-color="#6773FF"/><stop offset="1" stop-color="#7628DA"/></linearGradient><linearGradient id="paint2_linear_168_5601" x1="9.973" y1="1.184" x2="9.78" y2=".287" gradientUnits="userSpaceOnUse"><stop offset=".104" stop-color="#93CAF7"/><stop offset=".555" stop-color="#6773FF"/><stop offset="1" stop-color="#7628DA"/></linearGradient><linearGradient id="paint3_linear_168_5601" x1="21.981" y1="9.188" x2="15.63" y2="-18.54" gradientUnits="userSpaceOnUse"><stop offset=".104" stop-color="#DDF0FF"/><stop offset=".848" stop-color="#6773FF"/><stop offset="1" stop-color="#7628DA"/></linearGradient><clipPath id="clip0_168_5601"><path fill="#fff" transform="translate(0 .918)" d="M0 0h18v18H0z"/></clipPath></defs></svg>