<svg width="42" height="42" viewBox="0 0 42 42" fill="none" xmlns="http://www.w3.org/2000/svg"><g clip-path="url(#clip0_84_24204)"><path d="M4.087 23.495c3.219-4.634 5.113-7.619 6.493-9.825C5.274 14.139.188 20.74.188 20.74l3.503 3.502a3.64 3.64 0 01.396-.747z" fill="url(#paint0_linear_84_24204)"/><path d="M17.76 38.313l3.5 3.5s6.602-5.086 7.072-10.391c-2.206 1.38-5.19 3.273-9.826 6.493a3.643 3.643 0 01-.745.398z" fill="url(#paint1_linear_84_24204)"/><path d="M12.438 36.504c-.6.242-1.191.5-1.807.706-1.644.55-3.337.921-5.054 1.158-.72.1-1.446.183-2.174.239l.021-.27c.15-1.75.417-3.49.847-5.193.207-.822.471-1.621.755-2.42.177-.495.397-.97.619-1.445l-.385-.385a9.553 9.553 0 00-2.233 2.125c-.936 1.217-1.637 2.597-2.128 4.05a16.86 16.86 0 00-.89 4.863c-.006.231-.022.468.014.698a1.622 1.622 0 001.103 1.291c.237.077.476.078.722.076 1.496-.013 3.016-.272 4.448-.698 2.619-.778 5.263-2.242 6.813-4.556l-.374-.374c-.099.046-.197.091-.297.135z" fill="url(#paint2_linear_84_24204)"/><path d="M41.574.428a1.452 1.452 0 00-1.055-.425c-4.675.091-16.21.966-22.335 7.092-2.781 2.78-3.685 4.228-5.666 7.4-1.426 2.284-3.38 5.412-6.949 10.55-.4.577-.331 1.359.166 1.856l9.365 9.365a1.45 1.45 0 001.856.166c5.14-3.57 8.266-5.523 10.55-6.95 3.171-1.98 4.619-2.884 7.4-5.665C41.043 17.68 41.911 6.153 42 1.482a1.452 1.452 0 00-.425-1.054zM30.73 18.098a4.828 4.828 0 11-6.827-6.828 4.828 4.828 0 016.827 6.828z" fill="url(#paint3_linear_84_24204)"/></g><defs><linearGradient id="paint0_linear_84_24204" x1="11.308" y1="19.427" x2="5.931" y2="-31.155" gradientUnits="userSpaceOnUse"><stop offset=".042" stop-color="#4E9CDB"/><stop offset=".469" stop-color="#5761D7"/><stop offset="1" stop-color="#7628DA"/></linearGradient><linearGradient id="paint1_linear_84_24204" x1="29.072" y1="37.08" x2="23.963" y2="-12.667" gradientUnits="userSpaceOnUse"><stop offset=".042" stop-color="#4E9CDB"/><stop offset=".469" stop-color="#5761D7"/><stop offset="1" stop-color="#7628DA"/></linearGradient><linearGradient id="paint2_linear_84_24204" x1="14.027" y1="36.03" x2="7.479" y2="-26.68" gradientUnits="userSpaceOnUse"><stop offset=".042" stop-color="#4E9CDB"/><stop offset=".469" stop-color="#5761D7"/><stop offset="1" stop-color="#7628DA"/></linearGradient><linearGradient id="paint3_linear_84_24204" x1="44.569" y1="19.982" x2="26.225" y2="-155.603" gradientUnits="userSpaceOnUse"><stop offset=".042" stop-color="#4E9CDB"/><stop offset=".469" stop-color="#5761D7"/><stop offset="1" stop-color="#7628DA"/></linearGradient><clipPath id="clip0_84_24204"><path fill="#fff" d="M0 0h42v42H0z"/></clipPath></defs></svg>