<svg width="236" height="36" viewBox="0 0 236 36" fill="none" xmlns="http://www.w3.org/2000/svg"><path d="M63.594 26h-6.725V9.125h6.725c2.466 0 4.541.817 6.225 2.45 1.683 1.633 2.525 3.633 2.525 6s-.842 4.367-2.525 6C68.152 25.192 66.077 26 63.594 26zm0-14.55h-4.225v12.225h4.225c1.75 0 3.208-.583 4.375-1.75 1.183-1.183 1.775-2.633 1.775-4.35 0-1.733-.592-3.192-1.775-4.375-1.167-1.167-2.625-1.75-4.375-1.75zM85.88 21.2h-9.3a3.77 3.77 0 001.275 2.15c.684.55 1.492.825 2.425.825 1.25 0 2.242-.467 2.975-1.4l2.2.675c-.5.867-1.216 1.558-2.15 2.075a6.054 6.054 0 01-3.025.775c-1.7 0-3.133-.567-4.3-1.7-1.15-1.133-1.725-2.542-1.725-4.225 0-1.7.559-3.108 1.675-4.225 1.134-1.133 2.525-1.7 4.175-1.7 1.634 0 3.017.567 4.15 1.7 1.117 1.117 1.675 2.525 1.675 4.225 0 .317-.016.592-.05.825zm-9.275-1.8h7c-.2-.85-.625-1.533-1.275-2.05-.65-.517-1.408-.775-2.275-.775a3.41 3.41 0 00-2.225.8c-.633.517-1.041 1.192-1.225 2.025zM90.312 26h-2.25V14.75h2.25v1.425c.767-1.15 1.908-1.725 3.425-1.725.783 0 1.492.183 2.125.55.65.35 1.158.833 1.525 1.45.783-1.333 2.042-2 3.775-2 1.283 0 2.35.4 3.2 1.2.85.8 1.275 1.8 1.275 3V26h-2.25v-6.725c0-.75-.25-1.375-.75-1.875-.5-.517-1.133-.775-1.9-.775-.783 0-1.442.258-1.975.775-.517.5-.775 1.133-.775 1.9V26h-2.275v-6.725c0-.75-.25-1.375-.75-1.875-.5-.517-1.125-.775-1.875-.775-.783 0-1.442.258-1.975.775-.533.5-.8 1.133-.8 1.9V26zm19.286-1.4c-1.116-1.117-1.675-2.525-1.675-4.225 0-1.7.559-3.108 1.675-4.225 1.134-1.133 2.542-1.7 4.225-1.7 1.684 0 3.092.567 4.225 1.7 1.134 1.133 1.7 2.542 1.7 4.225 0 1.683-.566 3.092-1.7 4.225-1.133 1.133-2.541 1.7-4.225 1.7-1.683 0-3.091-.567-4.225-1.7zm1.675-6.825c-.666.683-1 1.55-1 2.6s.334 1.917 1 2.6c.667.7 1.517 1.05 2.55 1.05 1 0 1.842-.35 2.525-1.05.684-.717 1.025-1.583 1.025-2.6 0-1.017-.341-1.883-1.025-2.6-.683-.7-1.525-1.05-2.525-1.05-1.033 0-1.883.35-2.55 1.05zM124.272 26h-2.25V7.875h2.25V26zm2.779-4.15v-7.1h2.275v6.475c0 .833.275 1.525.825 2.075.55.55 1.233.825 2.05.825.866 0 1.583-.283 2.15-.85.583-.583.875-1.275.875-2.075v-6.45h2.25V26h-2.25v-1.625c-.85 1.283-2.075 1.925-3.675 1.925-1.3 0-2.375-.425-3.225-1.275-.85-.85-1.275-1.908-1.275-3.175zm12.133-5.1v-2h1.7V12.5h2.275v2.25h3.05v2h-3.05v5.525c0 .433.141.8.425 1.1.283.3.633.45 1.05.45h1.575V26h-1.725c-1.017 0-1.875-.325-2.575-.975a3.37 3.37 0 01-1.025-2.475v-5.8h-1.7zM150.566 26h-2.25V14.75h2.25V26zm-1.125-16.35c.417 0 .767.142 1.05.425.283.283.425.633.425 1.05 0 .667-.308 1.125-.925 1.375s-1.158.15-1.625-.3c-.45-.467-.55-1.008-.3-1.625.25-.617.708-.925 1.375-.925zm5.104 14.95c-1.117-1.117-1.675-2.525-1.675-4.225 0-1.7.558-3.108 1.675-4.225 1.133-1.133 2.541-1.7 4.225-1.7 1.683 0 3.091.567 4.225 1.7 1.133 1.133 1.7 2.542 1.7 4.225 0 1.683-.567 3.092-1.7 4.225-1.134 1.133-2.542 1.7-4.225 1.7-1.684 0-3.092-.567-4.225-1.7zm1.675-6.825c-.667.683-1 1.55-1 2.6s.333 1.917 1 2.6c.666.7 1.516 1.05 2.55 1.05 1 0 1.841-.35 2.525-1.05.683-.717 1.025-1.583 1.025-2.6 0-1.017-.342-1.883-1.025-2.6-.684-.7-1.525-1.05-2.525-1.05-1.034 0-1.884.35-2.55 1.05zM166.968 26V14.75h2.25v1.625c.85-1.283 2.075-1.925 3.675-1.925 1.3 0 2.375.425 3.225 1.275.85.817 1.275 1.867 1.275 3.15V26h-2.275v-6.475c0-.833-.275-1.525-.825-2.075-.55-.55-1.233-.825-2.05-.825-.85 0-1.566.283-2.15.85-.583.55-.875 1.242-.875 2.075V26h-2.25zm19.355-8.425c0-2.5.833-4.583 2.5-6.25 1.667-1.667 3.742-2.5 6.225-2.5 1.683 0 3.208.4 4.575 1.2a7.95 7.95 0 013.125 3.3l-2.4.925a5.942 5.942 0 00-2.225-2.225c-.917-.533-1.942-.8-3.075-.8-1.767 0-3.233.608-4.4 1.825-1.167 1.183-1.75 2.692-1.75 4.525 0 1.8.583 3.308 1.75 4.525 1.183 1.2 2.65 1.8 4.4 1.8 1.133 0 2.158-.267 3.075-.8a5.942 5.942 0 002.225-2.225l2.4.925a7.95 7.95 0 01-3.125 3.3c-1.367.8-2.892 1.2-4.575 1.2-2.483 0-4.558-.833-6.225-2.5-1.667-1.667-2.5-3.742-2.5-6.225zM207.451 26h-2.25V7.875h2.25V26zm2.778-4.15v-7.1h2.275v6.475c0 .833.275 1.525.825 2.075.55.55 1.234.825 2.05.825.867 0 1.584-.283 2.15-.85.584-.583.875-1.275.875-2.075v-6.45h2.25V26h-2.25v-1.625c-.85 1.283-2.075 1.925-3.675 1.925-1.3 0-2.375-.425-3.225-1.275-.85-.85-1.275-1.908-1.275-3.175zM223.463 26V7.875h2.25v8.05c1.033-.983 2.275-1.475 3.725-1.475 1.566 0 2.875.567 3.925 1.7 1.066 1.117 1.6 2.525 1.6 4.225 0 1.7-.534 3.108-1.6 4.225-1.05 1.133-2.359 1.7-3.925 1.7-1.45 0-2.692-.492-3.725-1.475V26h-2.25zm8.15-8.225c-.65-.7-1.459-1.05-2.425-1.05-.95 0-1.767.35-2.45 1.05-.65.7-.975 1.567-.975 2.6 0 1.033.325 1.9.975 2.6.683.7 1.5 1.05 2.45 1.05.966 0 1.775-.35 2.425-1.05.666-.683 1-1.55 1-2.6s-.334-1.917-1-2.6z" fill="#fff"/><g clip-path="url(#clip0_240_11048)"><path d="M38.14 21.863c.133-.423.35-1.038.579-1.738a.35.35 0 00.096.061c.74.305 2.042-.396 2.973-1.248.932-.854 1.212-3.564 1.212-3.564a4.993 4.993 0 00-3.477 1.806c.095-.5.153-.974.153-1.393 0-.23-.004-.474-.012-.724a.336.336 0 00.17.072c.792.093 1.87-.935 2.55-2.01.68-1.076.258-3.767.258-3.767-2.51.943-3.08 3.186-3.08 3.186s-.022.106-.05.273c-.093-.911-.225-1.785-.384-2.467.79-.106 1.596-1.366 2.008-2.575.414-1.21-.617-3.721-.617-3.721C38.298 5.582 38.26 7.9 38.26 7.9s.003.092.012.239a65.918 65.918 0 00-1.066-2.286c.625-.336.937-1.627.937-2.76 0-1.139-1.58-2.929-1.58-2.929a4.708 4.708 0 00-.894 3.394c-.221-.287-.447-.568-.658-.754-.408-1.043-1.427-2.753-4.298-2.64 0 0 .79 3.906 3.953 3.906l.2-.14c.148.167.383.436.658.766a1.602 1.602 0 00-.196-.066c-.77-.201-2.476-.448-3.602.316 0 0 1.626 2.045 3.337 2.13 1.234.06 1.733-.25 1.916-.429.408.637.706 1.243.706 1.654v.013a1.625 1.625 0 00-.443-.306c-.726-.34-2.363-.896-3.599-.351 0 0 1.26 2.312 2.931 2.71 1.052.249 1.6.118 1.862-.014.167.574.338 1.373.244 2.017a1.502 1.502 0 00-.347-.376c-.655-.505-2.204-1.433-3.69-1.157 0 0 .57 2.616 2.207 3.39.928.438 1.525.473 1.869.422.03.46.107 1.762.056 2.714a1.576 1.576 0 00-.184-.402c-.445-.694-1.572-2.06-2.99-2.166 0 0-.24 2.852 1.012 4.082.674.662 1.183.869 1.511.92-.257.687-.555 1.44-.809 2.066a1.867 1.867 0 00-.035-.155c-.222-.836-.896-2.597-2.181-3.368 0 0-1.001 2.448-.176 4.148.443.912.859 1.342 1.148 1.544l-1.192 1.39c0-.039-.001-.077-.005-.117-.077-.845-.463-2.667-1.728-3.65 0 0-1.606 2.163-1.039 3.953.333 1.05.745 1.539 1.03 1.765l-2.118 1.75c.114-.165.212-.363.26-.6.176-.85.323-2.71-.7-3.861 0 0-2.324 1.926-2.273 3.781.035 1.284.423 1.808.659 2.01a410.3 410.3 0 01-1.985 1.052c.006-.01.013-.021.018-.033.377-.773.974-2.533.267-3.92 0 0-2.717 1.235-3.12 3.042-.238 1.06-.097 1.66.06 1.975-.837.22-1.84.47-2.72.706-.854-.22-1.757-.442-2.484-.634a.096.096 0 00-.006-.009c.145-.11.692-.645.387-2.226-.35-1.814-3.223-3.173-3.223-3.173-.83 1.343-.27 3.12.1 3.906s1.274.965 1.274.965l.183.07a7.195 7.195 0 00-.248-.026 294.52 294.52 0 01-3.119-1.621c.264-.188.71-.689.81-1.966.143-1.84-2.274-3.866-2.274-3.866-1.158 1.093-1.089 2.95-.94 3.8.04.228.128.423.236.586l-2.037-1.658c.24-.13.706-.533 1.07-1.754.51-1.72-.92-3.98-.92-3.98-1.135.87-1.484 2.636-1.555 3.463-.031.37.062.671.175.893L7.047 23.9c.288-.143.75-.514 1.25-1.477.83-1.6-.145-4.075-.145-4.075-1.281.653-1.961 2.325-2.189 3.125a1.666 1.666 0 00-.048.242 64.762 64.762 0 01-.937-2.412c.322-.024.894-.192 1.742-.894 1.407-1.164 1.499-3.812 1.499-3.812-1.443.123-2.74 1.412-3.27 2.065-.31.383-.376.783-.377 1.049-.092-1.171.057-3.069.057-3.069l.002-.014c.35.006.884-.08 1.668-.432 1.68-.754 2.508-3.28 2.508-3.28-1.424-.257-3.032.645-3.725 1.136-.19.135-.33.288-.432.44-.095-.75.156-1.693.34-2.25a.749.749 0 00.112-.13c.285.141.868.286 1.987.094 1.824-.314 3.295-2.55 3.295-2.55-1.308-.601-3.102-.128-3.902.175a1.741 1.741 0 00-.815.626c.005-.487.427-1.243.955-2 .165.178.673.545 2.075.545 1.852 0 3.704-1.953 3.704-1.953-1.178-.813-3.03-.651-3.872-.488-.25.048-.455.14-.62.245.45-.532.789-.896.789-.896 3.367 0 4.209-3.906 4.209-3.906-3.783-.14-4.548 2.512-4.795 3.236-.215.24-.437.534-.649.801.036-.082.055-.132.055-.132s.674-1.952-.841-3.905c0 0-1.684 1.79-1.684 2.929 0 1.139.337 2.441 1.01 2.766a.36.36 0 00.315-.005 44.722 44.722 0 00-.807 1.652c-.163-.781-.682-2.227-2.329-3.291 0 0-1.098 2.51-.657 3.721.372 1.024 1.045 2.082 1.753 2.447a15.28 15.28 0 00-.359 1.874c-.262-.634-1.089-2.165-3.178-2.9 0 0-.45 2.69.275 3.765.707 1.05 1.815 2.051 2.65 2.013-.013.34-.02.668-.02.976 0 .285.028.597.076.926-.518-.602-1.705-1.665-3.722-1.827 0 0 .298 2.71 1.291 3.563.993.854 2.379 1.554 3.166 1.25l.018-.01c.24.746.482 1.425.65 1.925-.12-.079-2.042-1.3-4.628-.383 0 0 1.454 2.336 2.726 2.705 1.114.323 2.45.417 3.156.034.54.708 1.22 1.532 1.883 2.318-.343-.213-.618-.355-.618-.355s-2.169-.993-4.635.38c0 0 1.843 2.063 3.161 2.218 1.319.155 2.87-.032 3.34-.716.007-.011.012-.023.018-.034l.179.211c.404.478 1.108 1.035 1.922 1.598-.558-.098-2.496-.296-4.331 1.203 0 0 2.193 1.713 3.52 1.638 1.325-.074 2.818-.526 3.153-1.28a.383.383 0 00.023-.07c.656.384 1.275.73 1.776 1.004a5.363 5.363 0 00-3.136 2.367s2.647.939 3.878.456c.954-.375 1.926-.997 2.346-1.638.348.098.717.198 1.08.294a5.256 5.256 0 00-.332.123c-1.161.488-2.323 1.302-2.323 1.465 0 .162.664.65.83.488.155-.152 1.908-1.444 3.22-1.743.254.053.482.093.665.115 1.347.163 3.367 1.627 3.535 1.79.168.163.842-.325.842-.488 0-.162-1.178-.976-2.357-1.464a9.92 9.92 0 00-.937-.31 53.3 53.3 0 001.87-.508c.186.773 1.296 1.585 2.378 2.038 1.155.483 3.64-.456 3.64-.456-1.268-2.174-3.277-2.47-3.583-2.503a65.717 65.717 0 001.964-1.116.365.365 0 00.028.157c.314.753 1.716 1.205 2.96 1.28 1.245.074 3.305-1.639 3.305-1.639-1.724-1.5-3.544-1.301-4.067-1.203.9-.617 1.692-1.238 2.129-1.76l.166-.2a.392.392 0 00.033.347c.44.684 1.897.871 3.135.716 1.238-.155 2.968-2.218 2.968-2.218-2.314-1.372-4.35-.38-4.35-.38s-.623.341-1.138.762a91.085 91.085 0 002.254-2.772c.64.435 1.948.349 3.034.013 1.195-.369 2.56-2.704 2.56-2.704-2.128-.807-3.776.03-4.228.304zm3.38-4.95c-.215.397-2.161 2.233-2.161 2.233.287-.53 2.16-2.234 2.16-2.234zm.087-5.67c-.105.442-1.513 2.74-1.513 2.74.141-.589 1.513-2.74 1.513-2.74zM33.6 5.3c.968-.013 2.59.871 2.59.871-.445-.007-2.59-.87-2.59-.87zm3.082-3.217c.13.381.165 2.793.165 2.793-.172-.508-.165-2.793-.165-2.793zm-4.386-.616c.852.18 2.214 1.78 2.214 1.78-.34-.19-2.214-1.78-2.214-1.78zm4.008 10.466c.956.38 2.105 1.883 2.105 1.883-.434-.188-2.105-1.883-2.105-1.883zm-25.94-6.625s-2.356.753-2.838.739c0 0 1.794-.8 2.838-.74zM1.842 11.08s1.462 2.15 1.612 2.74c0 0-1.5-2.299-1.612-2.74zm-.265 5.506s1.996 1.703 2.301 2.234c0 0-2.072-1.837-2.301-2.234zM5.212 26.87s2.644.302 3.208.57c0-.001-2.786-.37-3.208-.57zm4.327 4.095s2.658-.159 3.261.008c0 0-2.809.116-3.261-.008zm7.342-1.8s1.42 2.133 1.491 2.608c0 0-1.372-1.572-1.491-2.608zm-3.813-2.423s.806 2.412.75 2.89c0 0-.91-1.86-.75-2.89zm-3.077-3.09s.099 2.396-.048 2.84c0 0-.3-1.888.048-2.84zm-2.513-3.43s-.36 2.373-.59 2.783c0 0 .067-1.908.59-2.783zm-.632-4.148s-1.282 2.053-1.658 2.346c0 0 .825-1.736 1.658-2.346zm.227-4.095s-1.808 1.644-2.251 1.828c0 0 1.278-1.456 2.25-1.828zm1.351-3.725s-2.184 1.14-2.66 1.208c0 0 1.621-1.09 2.66-1.208zm2.798-6.95s-1.834 1.46-2.304 1.747v-.027c.27-.288 1.5-1.562 2.304-1.72zM6.55 1.92s.008 2.284-.176 2.792c0 0 .038-2.411.176-2.792zM4.68 9.166v.002c-.02-.054-.891-2.58-.892-3.03 0 0 .888 2.415.892 3.028zm-2.083 12.98s2.553.73 3.061 1.086c0 0-2.68-.82-3.061-1.087zm12.16 11.78s1.697-.674 2.632-.92l.122.037c-.722.266-2.389.865-2.754.883zm18.781-2.96c-.425.124-3.063.008-3.063.008.568-.167 3.063-.008 3.063-.008zm4.4-3.933c-.397.201-3.013.57-3.013.57.53-.268 3.013-.57 3.013-.57zm2.01-20.895c-.002.455-.839 3.032-.839 3.032 0-.607.838-3.032.838-3.032zm-4.52 2.211c.955.165 2.406 1.334 2.406 1.334-.438-.09-2.406-1.334-2.406-1.334zm2.705 10.513c-.337-.308-1.354-2.499-1.354-2.499.752.643 1.354 2.5 1.354 2.5zm-2.37 1.447c.521.935.573 2.888.573 2.888-.228-.437-.573-2.888-.573-2.888zm-2.283 3.363c.386.998.046 2.885.046 2.885-.163-.463-.046-2.885-.046-2.885zm-3.16 3.038c.101 1.044-.822 2.87-.822 2.87-.031-.482.822-2.87.822-2.87zm-3.808 2.752c-.156 1.035-1.495 2.552-1.495 2.552.088-.475 1.495-2.552 1.495-2.552zm-.44 3.62c.59.03 2.902 1.007 2.902 1.007-.44-.023-2.902-1.008-2.902-1.008zm11.446-9.687c.477-.356 2.875-1.087 2.875-1.087-.358.267-2.875 1.087-2.875 1.087z" fill="#fff"/><path d="M12.463 9.375s2.175 0 4.35-.731c2.175-.732 4.467-1.97 4.467-1.97s3.442 1.787 4.827 1.97c1.384.182 4.485.731 4.485.731s1.186 13-9.065 17.477c0 0-10.25-3.39-9.064-17.477z" fill="#E9E9E9"/><path d="M13.804 10.254s1.852 0 3.705-.651c1.852-.651 3.803-1.752 3.803-1.752s2.932 1.59 4.11 1.752c1.179.162 3.82.65 3.82.65s1.01 11.565-7.719 15.546c0 0-8.729-3.015-7.719-15.545z" fill="#fff"/><path d="M21.664 17.332c-2.764 0-4.423-2.184-4.44-2.206l-.038-.052.043-.049c.02-.022 1.997-2.2 4.44-2.055 2.293.136 4.087 2.035 4.105 2.054l.04.044-.03.051c-.013.022-1.351 2.213-4.12 2.213zm-4.262-2.25c.268.328 1.823 2.088 4.262 2.088 2.436 0 3.725-1.757 3.942-2.08-.283-.284-1.918-1.837-3.947-1.958-2.159-.13-3.95 1.632-4.257 1.95z" fill="#000"/><path d="M17.429 14.343l-.11-.123c.08-.067 1.98-1.652 3.457-1.613l-.005.162c-1.42-.036-3.323 1.558-3.342 1.574zm3.586-1.586l-.055-.154c.201-.067.658-.045.709-.042l-.01.162c-.13-.007-.5-.014-.644.034zM21.5 16.6c-.789 0-1.43-.62-1.43-1.383 0-.762.641-1.383 1.43-1.383.79 0 1.431.62 1.431 1.383s-.642 1.383-1.43 1.383zm0-2.603c-.696 0-1.263.547-1.263 1.22 0 .674.567 1.221 1.263 1.221.697 0 1.263-.547 1.263-1.22 0-.674-.567-1.221-1.263-1.221z" fill="#000"/><path d="M21.5 15.299c.07 0 .127-.055.127-.122a.124.124 0 00-.126-.123.125.125 0 00-.127.123c0 .067.057.122.127.122z" fill="#fff"/><path d="M21.5 15.299c.07 0 .127-.055.127-.122a.124.124 0 00-.126-.123.125.125 0 00-.127.123c0 .067.057.122.127.122z" fill="#fff"/><path d="M21.368 15.922a.383.383 0 01-.114-.067.545.545 0 01-.1-.111l.097-.158a.387.387 0 00.112.124.232.232 0 00.134.041c.068 0 .117-.018.15-.053.033-.035.05-.089.05-.16v-.002a.21.21 0 00-.025-.108.154.154 0 00-.062-.06.438.438 0 00-.101-.037l-.004-.001-.008-.002-.007-.002a.82.82 0 01-.154-.053.245.245 0 01-.1-.107.478.478 0 01-.041-.22.62.62 0 01.037-.232.283.283 0 01.112-.138.349.349 0 01.187-.047.355.355 0 01.193.056.597.597 0 01.094.07l-.087.161a.42.42 0 00-.102-.071.233.233 0 00-.098-.023c-.062 0-.109.017-.14.051-.031.035-.047.087-.047.156v.001a.2.2 0 00.027.112c.018.027.04.047.067.06a.865.865 0 00.111.04l.006.001.006.002.007.002.006.002a.54.54 0 01.14.06.271.271 0 01.093.115.51.51 0 01.038.216v.002c0 .09-.013.164-.04.223a.274.274 0 01-.116.134.386.386 0 01-.193.044.343.343 0 01-.128-.021zm.071-1.547h.144v.217h-.144v-.217zm0 1.494h.144v.23h-.144v-.23zm-.006-2.101a.132.132 0 00.134-.13c0-.071-.06-.13-.134-.13a.132.132 0 00-.134.13c0 .072.06.13.134.13zm-.454.05c.07 0 .127-.055.127-.123a.125.125 0 00-.127-.123.125.125 0 00-.127.123c0 .068.056.123.127.123zm-.408.15c.067 0 .12-.052.12-.116a.118.118 0 00-.12-.116.118.118 0 00-.12.116c0 .064.054.116.12.116zm-.344.239c.063 0 .114-.05.114-.111a.112.112 0 00-.114-.11.112.112 0 00-.115.11c0 .06.052.11.115.11zm-.267.311c.06 0 .109-.047.109-.105a.107.107 0 00-.109-.105.107.107 0 00-.108.105c0 .058.048.105.108.105zm-.172.368a.103.103 0 00.104-.1c0-.056-.047-.1-.104-.1a.102.102 0 00-.104.1c0 .055.046.1.104.1zm-.061.412c.056 0 .1-.043.1-.097a.099.099 0 00-.1-.097.1.1 0 00-.1.097.1.1 0 00.1.097zm.062.412a.096.096 0 00.097-.094.096.096 0 00-.097-.093.096.096 0 00-.098.093c0 .052.044.094.098.094zm.171.372a.094.094 0 00.096-.093.094.094 0 00-.096-.093.094.094 0 00-.096.093c0 .051.043.093.096.093zm.266.315a.094.094 0 00.095-.092.094.094 0 00-.095-.092.094.094 0 00-.095.092c0 .051.043.092.095.092zm.346.246a.094.094 0 00.095-.093.094.094 0 00-.096-.093.094.094 0 00-.095.093c0 .051.043.093.096.093zm.408.159a.096.096 0 00.097-.094.096.096 0 00-.097-.094.096.096 0 00-.097.094c0 .052.043.094.097.094zm.453.058c.056 0 .1-.043.1-.097a.099.099 0 00-.1-.097c-.055 0-.1.043-.1.097 0 .054.045.097.1.097zm.453-.052a.102.102 0 00.105-.1.103.103 0 00-.105-.101.103.103 0 00-.104.1c0 .056.047.101.104.101zm.408-.153c.06 0 .109-.047.109-.105a.107.107 0 00-.109-.105.107.107 0 00-.108.105c0 .058.048.105.108.105zm.346-.239c.063 0 .114-.05.114-.11a.113.113 0 00-.114-.111.113.113 0 00-.115.11c0 .061.052.11.115.11zm.265-.311c.067 0 .12-.052.12-.116a.118.118 0 00-.12-.116.118.118 0 00-.12.116c0 .064.054.116.12.116zm.173-.366c.07 0 .128-.055.128-.123a.125.125 0 00-.128-.123.125.125 0 00-.127.123c0 .068.057.123.127.123zm.062-.409a.132.132 0 00.133-.129c0-.072-.06-.13-.134-.13a.132.132 0 00-.134.13c0 .072.06.13.134.13zm-1.154-1.537c.07 0 .126-.055.126-.122a.124.124 0 00-.126-.122.124.124 0 00-.126.122c0 .067.057.122.126.122zm1.092 1.12c.07 0 .126-.055.126-.122a.124.124 0 00-.126-.122.124.124 0 00-.126.122c0 .067.056.122.126.122zm-.135-.341c.07 0 .126-.055.126-.122a.124.124 0 00-.126-.122.124.124 0 00-.126.122c0 .067.057.122.126.122zm-.235-.357c.07 0 .126-.055.126-.122a.124.124 0 00-.126-.122.124.124 0 00-.126.122c0 .067.056.122.126.122zm-.336-.244c.07 0 .126-.054.126-.121a.124.124 0 00-.126-.122.124.124 0 00-.126.122c0 .067.056.121.126.121z" fill="#000"/></g><defs><clipPath id="clip0_240_11048"><path fill="#fff" d="M0 0h43v36H0z"/></clipPath></defs></svg>