<svg xmlns="http://www.w3.org/2000/svg" xmlns:xlink="http://www.w3.org/1999/xlink" width="146" height="158" fill="none" xmlns:v="https://vecta.io/nano"><style><![CDATA[.B{fill-rule:evenodd}.C{color-interpolation-filters:sRGB}.D{flood-opacity:0}.E{fill:#4b50da}]]></style><g filter="url(#A)" class="B"><path d="M92.29 100.655a4.49 4.49 0 0 1 3.628-3.115l.312-.047c2.921-.439 5.509 1.727 5.203 4.654-.633 6.046-2.731 16.388-9.497 27.351a.52.52 0 0 1-.458.244c-.289-.011-.512-.256-.495-.544l1.315-22.311c.025-.414-.289-.773-.705-.805-.489-.038-.816-.518-.673-.985l1.37-4.443z" fill="url(#G)"/></g><g filter="url(#B)" class="B"><path d="M54.836 99.65a4.5 4.5 0 0 0-3.47-3.489l-.369-.079c-2.924-.624-5.671 1.397-5.547 4.372.255 6.087 1.704 16.52 7.743 27.858.085.16.252.265.434.272a.51.51 0 0 0 .533-.509l.07-22.339a.77.77 0 0 1 .763-.766.77.77 0 0 0 .747-.924l-.904-4.396z" fill="url(#H)"/></g><path d="M76.55 5.793c-11.014-.369-29.091 25.574-28.485 50.19.631 24.65 10.845 61.15 10.845 61.15l14.117.59 14.128.316s12.495-35.783 14.675-60.318C103.96 33.118 87.479 6.118 76.55 5.793z" fill="url(#I)" class="B"/><path d="M91.766 18.825c-13.642-6.366-30.161-2.265-30.351-2.232l-.084-.257c.19-.033 16.804-4.151 30.506 2.225l-.071.265z" class="E"/><g class="B"><path d="M72.838 6.551l8.234.655c-.035.025-4.112-3.098-8.234-.655z" fill="#53345f"/><path d="M73.966 6.201s2.204-.342 4.67.028c0 0-.786-3.945-2.204-4.128s-2.466 4.1-2.466 4.1z" fill="url(#J)"/><path d="M53.149 93.059s24.068-7.039 41.91-.991c-2.652 10.196-5.153 23.015-10.087 23.484-2.242.213-.555 1.842-15.386 1.265s-14.7-11.678-16.437-23.757z" fill="url(#K)"/><path d="M75.125 21.897c-9.972.462-17.416 12.05-18.202 22.311s8.485 16.859 18.564 16.904 18.655-6.628 17.875-17.92c-.763-10.188-7.182-21.807-18.237-21.294z" fill="url(#L)"/><path d="M75.143 20.767c-9.972.462-17.416 12.05-18.202 22.311s8.485 16.859 18.564 16.904S94.16 53.354 93.38 42.061c-.728-10.213-7.182-21.807-18.237-21.294z" fill="url(#M)"/></g><g filter="url(#C)" class="B"><path d="M75.69 24.463c-8.93.281-13.663 9.399-14.294 17.418s6.648 13.154 14.577 13.182 14.653-5.178 14.017-13.969c-.539-8.011-4.967-16.943-14.301-16.63z" fill="url(#N)"/></g><path d="M84.397 52.438c-2.369 1.634-5.3 2.511-8.465 2.494-7.56-.033-15.137-5.427-14.535-13.053.201-2.542.875-5.165 2.003-7.537 2.238-4.624 6.326-8.266 12.246-8.57 8.767-.428 13.085 8.212 13.619 15.854.4 4.867-1.633 8.542-4.867 10.812z" fill="url(#O)" class="B"/><path d="M75.257 61.107l-.903 28.586.258.008.903-28.586-.258-.008z" class="E"/><path d="M53.19 93.188l-.084-.258c27.508-7.013 41.859-1.06 42.004-1.008l-.096.231c-.18-.027-14.445-5.936-41.824 1.035z" fill="#938eff"/><path d="M51.357 83.574l-.119-.232c.069-.051 8.668-5.25 23.661-5.57l-.011.274c-14.933.329-23.462 5.477-23.532 5.528z" class="E"/><path d="M61.986 118.325c-.242-1.441.77-2.784 2.231-2.917 3.761-.342 11.005-.855 18.581-.599 1.636.056 2.858 1.496 2.688 3.117a2.87 2.87 0 0 1-2.861 2.565l-18.097-.02c-1.259-.001-2.334-.909-2.541-2.146z" fill="url(#P)" class="B"/><g filter="url(#D)" class="B"><path d="M58.048 21.353s15.867-7.506 35.933 1.111l-2.198-3.759s-11.564-5.871-30.411-2.241l-3.324 4.889z" fill="url(#Q)"/></g><g class="B"><g fill="#6b3dd9"><path d="M74.109 79.736c-.012.488-.437.853-.927.841s-.857-.435-.844-.923.437-.853.927-.841c.456.038.857.435.844.923z"/><path d="M73.894 79.735c-.029.394-.349.682-.719.688-.395-.029-.685-.348-.691-.716.029-.394.349-.682.719-.688.395.029.72.323.691.716zm.319-4.332c-.013.488-.437.853-.927.841s-.857-.435-.844-.923.437-.853.927-.841.857.435.844.923z"/><use xlink:href="#b"/></g><use xlink:href="#b" x="-13.593" y="-30.027" fill="url(#R)"/><use xlink:href="#b" x="-11.655" y="-42.411" fill="url(#S)"/><path d="M68.41 55.457c-.029.394-.349.682-.719.688-.395-.029-.685-.348-.691-.716.029-.394.349-.682.719-.688s.66.314.691.716z" fill="url(#T)"/><use xlink:href="#c" fill="url(#U)"/><use xlink:href="#c" x="9.505" y="-7.941" fill="url(#V)"/><path d="M90.636 33.382c-.029.394-.349.682-.719.688s-.685-.348-.691-.716c.029-.394.349-.682.719-.688.395.029.685.348.691.716z" fill="url(#W)"/><use xlink:href="#b" x="9.892" y="-50.258" fill="url(#S)"/><use xlink:href="#b" x="-1.793" y="-51.891" fill="url(#R)"/></g><g filter="url(#E)" class="B"><path d="M79.989 92.284l2.33.044-3.517 37.009-1.591-.055 2.777-36.998z" fill="url(#X)"/></g><g filter="url(#F)" class="B"><path d="M79.368 100.551c.058-.775-1.07-.947-1.244-.19-.009.04-.015.081-.016.122l-.896 28.799 2.157-28.731z" fill="url(#Y)"/></g><g class="B"><path d="M99.599 36.536s4.133-.696.992 4.007l-.992-4.007z" fill="url(#Z)"/><path d="M51.753 34.491s-3.844 1.015-1.216 3.767l1.216-3.767z" fill="url(#a)"/><path d="M59.594 91.516c-.003.428-.273.786-.608.766s-.556-.39-.553-.818.273-.786.608-.766.556.39.553.818zm29.519-1.199c-.003.428-.307.811-.668.757-.335-.02-.651-.373-.613-.827.003-.428.307-.811.668-.757s.616.399.613.827zm-13.808-.604a.77.77 0 0 1-.823.764c-.43-.003-.806-.366-.768-.819a.77.77 0 0 1 .823-.764.81.81 0 0 1 .768.82z" fill="#6b3dd9"/></g><defs><filter id="A" x="71.887" y="87.437" width="48.571" height="70.307" filterUnits="userSpaceOnUse" class="C"><feFlood result="A" class="D"/><feColorMatrix in="SourceAlpha" values="0 0 0 0 0 0 0 0 0 0 0 0 0 0 0 0 0 0 127 0" result="B"/><feOffset dy="9"/><feGaussianBlur stdDeviation="9.5"/><feComposite in2="B" operator="out"/><feColorMatrix values="0 0 0 0 0 0 0 0 0 0 0 0 0 0 0 0 0 0 0.15 0"/><feBlend in2="A"/><feBlend in="SourceGraphic"/></filter><filter id="B" x="26.446" y="85.968" width="48.31" height="70.617" filterUnits="userSpaceOnUse" class="C"><feFlood result="A" class="D"/><feColorMatrix in="SourceAlpha" values="0 0 0 0 0 0 0 0 0 0 0 0 0 0 0 0 0 0 127 0" result="B"/><feOffset dy="9"/><feGaussianBlur stdDeviation="9.5"/><feComposite in2="B" operator="out"/><feColorMatrix values="0 0 0 0 0 0 0 0 0 0 0 0 0 0 0 0 0 0 0.15 0"/><feBlend in2="A"/><feBlend in="SourceGraphic"/></filter><filter id="C" x="42.357" y="14.455" width="66.675" height="68.607" filterUnits="userSpaceOnUse" class="C"><feFlood result="A" class="D"/><feColorMatrix in="SourceAlpha" values="0 0 0 0 0 0 0 0 0 0 0 0 0 0 0 0 0 0 127 0" result="B"/><feOffset dy="9"/><feGaussianBlur stdDeviation="9.5"/><feComposite in2="B" operator="out"/><feColorMatrix values="0 0 0 0 0 0 0 0 0 0 0 0 0 0 0 0 0 0 0.15 0"/><feBlend in2="A"/><feBlend in="SourceGraphic"/></filter><filter id="D" x="39.049" y="5.279" width="73.933" height="45.185" filterUnits="userSpaceOnUse" class="C"><feFlood result="A" class="D"/><feColorMatrix in="SourceAlpha" values="0 0 0 0 0 0 0 0 0 0 0 0 0 0 0 0 0 0 127 0" result="B"/><feOffset dy="9"/><feGaussianBlur stdDeviation="9.5"/><feComposite in2="B" operator="out"/><feColorMatrix values="0 0 0 0 0 0 0 0 0 0 0 0 0 0 0 0 0 0 0.15 0"/><feBlend in2="A"/><feBlend in="SourceGraphic"/></filter><filter id="E" x="58.212" y="82.284" width="43.107" height="75.053" filterUnits="userSpaceOnUse" class="C"><feFlood result="A" class="D"/><feColorMatrix in="SourceAlpha" values="0 0 0 0 0 0 0 0 0 0 0 0 0 0 0 0 0 0 127 0" result="B"/><feOffset dy="9"/><feGaussianBlur stdDeviation="9.5"/><feComposite in2="B" operator="out"/><feColorMatrix values="0 0 0 0 0 0 0 0 0 0 0 0 0 0 0 0 0 0 0.15 0"/><feBlend in2="A"/><feBlend in="SourceGraphic"/></filter><filter id="F" x="58.212" y="89.874" width="40.158" height="67.408" filterUnits="userSpaceOnUse" class="C"><feFlood result="A" class="D"/><feColorMatrix in="SourceAlpha" values="0 0 0 0 0 0 0 0 0 0 0 0 0 0 0 0 0 0 127 0" result="B"/><feOffset dy="9"/><feGaussianBlur stdDeviation="9.5"/><feComposite in2="B" operator="out"/><feColorMatrix values="0 0 0 0 0 0 0 0 0 0 0 0 0 0 0 0 0 0 0.15 0"/><feBlend in2="A"/><feBlend in="SourceGraphic"/></filter><linearGradient id="G" x1="24.83" y1="45.848" x2="127.295" y2="45.8" xlink:href="#d"><stop stop-color="#7345d3"/><stop offset=".473" stop-color="#5db7ff"/><stop offset=".889" stop-color="#c2deff"/></linearGradient><linearGradient id="H" x1="-31.086" y1="18.373" x2="48.4" y2="-2.86" xlink:href="#d"><stop stop-color="#7345d3"/><stop offset=".473" stop-color="#5db7ff"/><stop offset=".889" stop-color="#c2deff"/></linearGradient><linearGradient id="I" x1="115.347" y1=".349" x2="4.792" y2="-40.424" xlink:href="#d"><stop offset=".121" stop-color="#5cb6ff"/><stop offset=".501" stop-color="#005bff"/></linearGradient><linearGradient id="J" x1="75.33" y1="14.478" x2="76.943" y2="-4.017" xlink:href="#d"><stop offset=".444" stop-color="#d3ecff"/><stop offset="1" stop-color="#548ef7"/></linearGradient><linearGradient id="K" x1="97.085" y1="70.5" x2="54.56" y2="49.245" xlink:href="#d"><stop offset=".118" stop-color="#5cb6ff"/><stop offset=".921" stop-color="#005bff"/></linearGradient><linearGradient id="L" x1="-30.571" y1="-60.704" x2="112.731" y2="-69.997" xlink:href="#d"><stop stop-color="#7345d3"/><stop offset=".473" stop-color="#5db7ff"/><stop offset=".889" stop-color="#c2deff"/></linearGradient><linearGradient id="M" x1="-30.555" y1="-61.833" x2="112.793" y2="-71.101" xlink:href="#d"><stop stop-color="#7345d3"/><stop offset=".473" stop-color="#5db7ff"/><stop offset=".889" stop-color="#c2deff"/></linearGradient><linearGradient id="N" x1="-7.816" y1="-41.19" x2="105.276" y2="-48.602" xlink:href="#d"><stop stop-color="#7345d3"/><stop offset=".712" stop-color="#5db7ff"/><stop offset=".889" stop-color="#c2deff"/></linearGradient><linearGradient id="O" x1="70.591" y1="97.421" x2="79.883" y2="-13.665" xlink:href="#d"><stop offset=".444" stop-color="#d3ecff"/><stop offset="1" stop-color="#548ef7"/></linearGradient><linearGradient id="P" x1="83.982" y1="110.417" x2="66.225" y2="98.367" xlink:href="#d"><stop offset=".118" stop-color="#5cb6ff"/><stop offset=".618" stop-color="#4d42d5"/></linearGradient><linearGradient id="Q" x1="6.548" y1="-42.716" x2="187.228" y2="-49.391" xlink:href="#d"><stop stop-color="#7345d3"/><stop offset=".44" stop-color="#5db7ff"/><stop offset=".889" stop-color="#c2deff"/></linearGradient><linearGradient id="R" x1="73.079" y1="78.066" x2="73.492" y2="72.732" xlink:href="#d"><stop offset=".444" stop-color="#d3ecff"/><stop offset="1" stop-color="#548ef7"/></linearGradient><linearGradient id="S" x1="73.078" y1="78.065" x2="73.492" y2="72.731" xlink:href="#d"><stop offset=".444" stop-color="#d3ecff"/><stop offset="1" stop-color="#548ef7"/></linearGradient><linearGradient id="T" x1="67.457" y1="58.146" x2="67.87" y2="52.812" xlink:href="#d"><stop offset=".444" stop-color="#d3ecff"/><stop offset="1" stop-color="#548ef7"/></linearGradient><linearGradient id="U" x1="81.048" y1="59.655" x2="81.405" y2="54.266" xlink:href="#d"><stop offset=".444" stop-color="#d3ecff"/><stop offset="1" stop-color="#548ef7"/></linearGradient><linearGradient id="V" x1="81.048" y1="59.655" x2="81.406" y2="54.265" xlink:href="#d"><stop offset=".444" stop-color="#d3ecff"/><stop offset="1" stop-color="#548ef7"/></linearGradient><linearGradient id="W" x1="89.682" y1="36.072" x2="90.095" y2="30.738" xlink:href="#d"><stop offset=".444" stop-color="#d3ecff"/><stop offset="1" stop-color="#548ef7"/></linearGradient><linearGradient id="X" x1=".43" y1="30.607" x2="101.428" y2="19.323" xlink:href="#d"><stop stop-color="#7345d3"/><stop offset=".473" stop-color="#5db7ff"/><stop offset=".889" stop-color="#c2deff"/></linearGradient><linearGradient id="Y" x1="2.547" y1="33.115" x2="97.105" y2="20.939" xlink:href="#d"><stop stop-color="#7345d3"/><stop offset=".473" stop-color="#5db7ff"/><stop offset=".889" stop-color="#c2deff"/></linearGradient><linearGradient id="Z" x1="100.932" y1="44.881" x2="103.73" y2="32.41" xlink:href="#d"><stop offset=".444" stop-color="#d3ecff"/><stop offset="1" stop-color="#548ef7"/></linearGradient><linearGradient id="a" x1="49.878" y1="41.859" x2="49.524" y2="30.941" xlink:href="#d"><stop offset=".444" stop-color="#d3ecff"/><stop offset="1" stop-color="#548ef7"/></linearGradient><path id="b" d="M74.032 75.376c-.029.394-.349.682-.719.688-.395-.029-.685-.348-.691-.716.029-.394.349-.682.719-.688.395.029.685.348.691.716z"/><path id="c" d="M82.022 56.95c-.029.394-.349.682-.719.688-.395-.029-.685-.348-.691-.716.029-.394.349-.682.719-.688.43.003.72.322.691.716z"/><linearGradient id="d" gradientUnits="userSpaceOnUse"/></defs></svg>