<svg width="146" height="159" viewBox="0 0 146 159" fill="none" xmlns="http://www.w3.org/2000/svg">
<path opacity="0.88" d="M67.116 132.619L62.1854 114.85L72.1687 114.522L68.9051 132.936L67.116 132.619Z" fill="url(#paint0_linear_858_8)" fill-opacity="0.8"/>
<path opacity="0.88" d="M81.3396 133.596L75.8256 113.726L86.9901 113.359L83.3404 133.951L81.3396 133.596Z" fill="url(#paint1_linear_858_8)" fill-opacity="0.8"/>
<path opacity="0.88" d="M73.4287 137.83L69.4225 119.267L79.6663 118.849L75.2424 138.149L73.4287 137.83Z" fill="url(#paint2_linear_858_8)" fill-opacity="0.8"/>
<g filter="url(#filter0_d_858_8)">
<path fill-rule="evenodd" clip-rule="evenodd" d="M92.8441 101.068C93.3258 99.4114 94.7147 98.178 96.4165 97.8955L96.7256 97.8442C99.6256 97.3627 102.231 99.4864 101.97 102.415C101.43 108.469 99.4951 118.844 92.9184 129.909C92.824 130.068 92.6495 130.165 92.4648 130.161C92.1774 130.154 91.9517 129.912 91.9644 129.625L92.945 107.296C92.9633 106.881 92.646 106.528 92.2314 106.501C91.7441 106.47 91.411 105.996 91.5473 105.527L92.8441 101.068Z" fill="url(#paint3_linear_858_8)"/>
</g>
<g filter="url(#filter1_d_858_8)">
<path fill-rule="evenodd" clip-rule="evenodd" d="M55.542 100.603C55.1597 98.8653 53.7853 97.518 52.0399 97.1704L51.6731 97.0974C48.7513 96.5155 46.0422 98.5801 46.2106 101.554C46.5549 107.638 48.1517 118.047 54.3294 129.291C54.4167 129.45 54.5835 129.553 54.7647 129.557C55.0541 129.564 55.2917 129.329 55.2883 129.04L55.0293 106.702C55.0244 106.282 55.3574 105.936 55.7773 105.925C56.2598 105.912 56.611 105.462 56.5073 104.991L55.542 100.603Z" fill="url(#paint4_linear_858_8)"/>
</g>
<path fill-rule="evenodd" clip-rule="evenodd" d="M75.7775 6.44243C64.8064 6.23534 47.1922 32.4405 48.1579 57.0448C49.1495 81.6833 59.8555 118.029 59.8555 118.029L73.9191 118.412L87.9894 118.521C87.9894 118.521 99.9019 82.5586 101.711 57.995C103.468 33.3634 86.6626 6.60729 75.7775 6.44243Z" fill="url(#paint5_linear_858_8)"/>
<path d="M91.1179 19.25C77.4426 13.0843 61.0566 17.4273 60.8684 17.4629L60.781 17.2066C60.9692 17.171 77.4493 12.8102 91.1845 18.984L91.1179 19.25Z" fill="#4B50DA"/>
<path fill-rule="evenodd" clip-rule="evenodd" d="M72.0928 7.25525L80.3001 7.78964C80.266 7.81556 76.1603 4.75245 72.0928 7.25525Z" fill="#53345F"/>
<path fill-rule="evenodd" clip-rule="evenodd" d="M73.2116 6.88848C73.2116 6.88848 75.4012 6.51375 77.8612 6.84792C77.8612 6.84792 77.0206 2.91457 75.6066 2.75303C74.1925 2.5915 73.2116 6.88848 73.2116 6.88848Z" fill="url(#paint6_linear_858_8)"/>
<path fill-rule="evenodd" clip-rule="evenodd" d="M53.7656 94.0425C53.7656 94.0425 77.6236 86.6508 95.4751 92.4367C92.9851 102.67 90.6833 115.524 85.7788 116.066C83.5495 116.312 85.2533 117.915 70.4798 117.556C55.7063 117.196 55.6726 106.095 53.7656 94.0425Z" fill="url(#paint7_linear_858_8)"/>
<path fill-rule="evenodd" clip-rule="evenodd" d="M74.5964 22.5661C64.6757 23.1739 57.4346 34.8699 56.8031 45.1416C56.1716 55.4134 65.4987 61.8745 75.5342 61.7712C85.5697 61.6679 94.0092 54.8704 93.0667 43.5905C92.1574 33.4149 85.5957 21.891 74.5964 22.5661Z" fill="url(#paint8_linear_858_8)"/>
<path fill-rule="evenodd" clip-rule="evenodd" d="M74.5964 21.4362C64.6757 22.044 57.4346 33.7399 56.8031 44.0117C56.1716 54.2835 65.4987 60.7446 75.5342 60.6412C85.5697 60.5379 94.0092 53.7405 93.0667 42.4605C92.1915 32.259 85.5957 20.7611 74.5964 21.4362Z" fill="url(#paint9_linear_858_8)"/>
<path fill-rule="evenodd" clip-rule="evenodd" d="M75.1961 25.1231C66.3102 25.5353 61.7321 34.721 61.2221 42.7484C60.7122 50.7757 68.0342 55.8034 75.929 55.7148C83.8238 55.6262 90.441 50.3228 89.6783 41.5421C89.0238 33.5398 84.4842 24.6738 75.1961 25.1231Z" fill="url(#paint10_linear_858_8)"/>
<path fill-rule="evenodd" clip-rule="evenodd" d="M84.2767 52.968C81.9418 54.6368 79.0366 55.5559 75.8855 55.5862C68.3589 55.6637 60.7354 50.3812 61.2224 42.7479C61.3847 40.2035 62.0174 37.5702 63.1056 35.1821C65.2658 30.5259 69.2822 26.8246 75.1711 26.4329C83.8933 25.8762 88.3196 34.4519 88.963 42.086C89.4332 46.9467 87.4634 50.6511 84.2767 52.968Z" fill="url(#paint11_linear_858_8)"/>
<path d="M75.3053 61.7698L74.8271 90.3661L75.084 90.3704L75.5622 61.7741L75.3053 61.7698Z" fill="url(#paint12_linear_858_8)"/>
<path d="M53.8089 94.1708L53.7215 93.9145C81.0046 86.4993 95.3791 92.2406 95.5251 92.291L95.4325 92.5228C95.2525 92.4983 80.9638 86.7993 53.8089 94.1708Z" fill="url(#paint13_linear_858_8)"/>
<path d="M51.8421 84.5847L51.7206 84.3543C51.7887 84.3025 60.2726 78.9776 75.1948 78.4382L75.1881 78.7123C60.3259 79.2599 51.9102 84.5328 51.8421 84.5847Z" fill="url(#paint14_linear_858_8)"/>
<path fill-rule="evenodd" clip-rule="evenodd" d="M62.4549 116.539C62.4549 116.539 74.6107 114.88 86.5914 115.455L86.0957 121.004L63.3256 121.315L62.4549 116.539Z" fill="url(#paint15_linear_858_8)"/>
<path fill-rule="evenodd" clip-rule="evenodd" d="M57.5871 22.2723C57.5871 22.2723 73.2732 14.5345 93.3772 22.8567L91.1337 19.1299C91.1337 19.1299 79.534 13.4295 60.8243 17.3347L57.5871 22.2723Z" fill="url(#paint16_linear_858_8)"/>
<path fill-rule="evenodd" clip-rule="evenodd" d="M74.4372 80.4136C74.432 80.9017 74.0149 81.2728 73.5268 81.2676C73.0386 81.2624 72.6675 80.8453 72.6727 80.3572C72.6779 79.8691 73.095 79.498 73.5831 79.5032C74.0372 79.5343 74.4424 79.9254 74.4372 80.4136Z" fill="url(#paint17_linear_858_8)"/>
<path fill-rule="evenodd" clip-rule="evenodd" d="M74.2224 80.4154C74.1995 80.8094 73.8846 81.1028 73.5165 81.1139C73.1224 81.0909 72.8291 80.7761 72.818 80.4079C72.841 80.0138 73.1558 79.7205 73.524 79.7094C73.918 79.7324 74.2454 80.0213 74.2224 80.4154Z" fill="url(#paint18_linear_858_8)"/>
<path fill-rule="evenodd" clip-rule="evenodd" d="M74.4762 76.0798C74.471 76.5679 74.054 76.939 73.5658 76.9338C73.0777 76.9286 72.7066 76.5115 72.7118 76.0234C72.717 75.5352 73.1341 75.1642 73.6222 75.1694C74.1103 75.1746 74.4814 75.5916 74.4762 76.0798Z" fill="url(#paint19_linear_858_8)"/>
<path fill-rule="evenodd" clip-rule="evenodd" d="M74.2967 76.0548C74.2737 76.4488 73.9589 76.7422 73.5907 76.7533C73.1966 76.7303 72.9033 76.4155 72.8922 76.0473C72.9152 75.6532 73.23 75.3599 73.5982 75.3488C73.9922 75.3718 74.2856 75.6866 74.2967 76.0548Z" fill="url(#paint20_linear_858_8)"/>
<path fill-rule="evenodd" clip-rule="evenodd" d="M60.3211 46.2312C60.2981 46.6253 59.9833 46.9186 59.6151 46.9297C59.2211 46.9067 58.9277 46.5919 58.9166 46.2238C58.9396 45.8297 59.2544 45.5364 59.6226 45.5253C60.0167 45.5483 60.31 45.8631 60.3211 46.2312Z" fill="url(#paint21_linear_858_8)"/>
<path fill-rule="evenodd" clip-rule="evenodd" d="M62.0681 33.8197C62.0452 34.2138 61.7303 34.5071 61.3622 34.5182C60.9681 34.4952 60.6748 34.1804 60.6637 33.8123C60.6867 33.4182 61.0015 33.1249 61.3697 33.1138C61.7637 33.1368 62.0571 33.4516 62.0681 33.8197Z" fill="url(#paint22_linear_858_8)"/>
<path fill-rule="evenodd" clip-rule="evenodd" d="M68.4051 56.2204C68.3821 56.6144 68.0673 56.9078 67.6991 56.9189C67.305 56.8959 67.0117 56.581 67.0006 56.2129C67.0236 55.8188 67.3384 55.5255 67.7066 55.5144C68.0747 55.5033 68.368 55.8181 68.4051 56.2204Z" fill="url(#paint23_linear_858_8)"/>
<path fill-rule="evenodd" clip-rule="evenodd" d="M81.9783 57.5144C81.9553 57.9085 81.6405 58.2018 81.2724 58.2129C80.8783 58.1899 80.585 57.8751 80.5739 57.507C80.5968 57.1129 80.9117 56.8196 81.2798 56.8085C81.708 56.8055 82.0013 57.1204 81.9783 57.5144Z" fill="url(#paint24_linear_858_8)"/>
<path fill-rule="evenodd" clip-rule="evenodd" d="M91.325 49.4347C91.302 49.8288 90.9872 50.1221 90.619 50.1332C90.225 50.1102 89.9316 49.7954 89.9205 49.4273C89.9435 49.0332 90.2584 48.7399 90.6265 48.7288C91.0546 48.7258 91.348 49.0406 91.325 49.4347Z" fill="url(#paint25_linear_858_8)"/>
<path fill-rule="evenodd" clip-rule="evenodd" d="M90.2078 33.8227C90.1848 34.2167 89.87 34.51 89.5018 34.5211C89.1337 34.5322 88.8145 34.1833 88.8034 33.8152C88.8263 33.4211 89.1412 33.1278 89.5093 33.1167C89.9034 33.1397 90.1967 33.4545 90.2078 33.8227Z" fill="url(#paint26_linear_858_8)"/>
<path fill-rule="evenodd" clip-rule="evenodd" d="M83.4031 25.6572C83.3801 26.0513 83.0653 26.3446 82.6972 26.3557C82.3031 26.3327 82.0098 26.0179 81.9987 25.6497C82.0216 25.2557 82.3365 24.9623 82.7046 24.9512C83.0987 24.9742 83.392 25.289 83.4031 25.6572Z" fill="url(#paint27_linear_858_8)"/>
<path fill-rule="evenodd" clip-rule="evenodd" d="M71.7469 24.1964C71.7239 24.5904 71.4091 24.8838 71.0409 24.8949C70.6468 24.8719 70.3535 24.5571 70.3424 24.1889C70.3654 23.7948 70.6802 23.5015 71.0484 23.4904C71.4424 23.5134 71.7358 23.8282 71.7469 24.1964Z" fill="url(#paint28_linear_858_8)"/>
<g filter="url(#filter2_d_858_8)">
<path fill-rule="evenodd" clip-rule="evenodd" d="M80.475 92.8737L82.7957 92.8834L79.8395 129.94L78.255 129.908L80.475 92.8737Z" fill="url(#paint29_linear_858_8)"/>
</g>
<g filter="url(#filter3_d_858_8)">
<path fill-rule="evenodd" clip-rule="evenodd" d="M79.979 101.147C80.0255 100.372 78.9001 100.218 78.7372 100.978C78.7286 101.018 78.724 101.059 78.7233 101.1L78.2551 129.908L79.979 101.147Z" fill="url(#paint30_linear_858_8)"/>
</g>
<path fill-rule="evenodd" clip-rule="evenodd" d="M99.1768 36.8441C99.1768 36.8441 103.282 36.0879 100.223 40.836L99.1768 36.8441Z" fill="url(#paint31_linear_858_8)"/>
<path fill-rule="evenodd" clip-rule="evenodd" d="M51.5131 35.5017C51.5131 35.5017 47.7012 36.5727 50.3574 39.2861L51.5131 35.5017Z" fill="url(#paint32_linear_858_8)"/>
<path fill-rule="evenodd" clip-rule="evenodd" d="M60.1599 92.4054C60.1629 92.8335 59.8999 93.195 59.5658 93.1802C59.2318 93.1653 59.0066 92.7987 59.0036 92.3705C59.0007 91.9424 59.2637 91.5809 59.5977 91.5957C59.9318 91.6105 60.157 91.9772 60.1599 92.4054Z" fill="url(#paint33_linear_858_8)"/>
<path fill-rule="evenodd" clip-rule="evenodd" d="M89.5284 90.7735C89.5314 91.2017 89.2343 91.5891 88.8743 91.5402C88.5402 91.5253 88.221 91.1764 88.2521 90.7224C88.2492 90.2942 88.5462 89.9068 88.9062 89.9557C89.2662 90.0046 89.5255 90.3454 89.5284 90.7735Z" fill="url(#paint34_linear_858_8)"/>
<path fill-rule="evenodd" clip-rule="evenodd" d="M75.7735 90.3715C75.7764 90.7996 75.4194 91.1789 74.9653 91.1477C74.5372 91.1507 74.1579 90.7936 74.189 90.3396C74.1861 89.9114 74.5431 89.5322 74.9972 89.5633C75.4513 89.5944 75.7705 89.9433 75.7735 90.3715Z" fill="url(#paint35_linear_858_8)"/>
<defs>
<filter id="filter0_d_858_8" x="72.5166" y="87.7759" width="48.4717" height="70.3848" filterUnits="userSpaceOnUse" color-interpolation-filters="sRGB">
<feFlood flood-opacity="0" result="BackgroundImageFix"/>
<feColorMatrix in="SourceAlpha" type="matrix" values="0 0 0 0 0 0 0 0 0 0 0 0 0 0 0 0 0 0 127 0" result="hardAlpha"/>
<feOffset dy="9"/>
<feGaussianBlur stdDeviation="9.5"/>
<feComposite in2="hardAlpha" operator="out"/>
<feColorMatrix type="matrix" values="0 0 0 0 0 0 0 0 0 0 0 0 0 0 0 0 0 0 0.15 0"/>
<feBlend mode="normal" in2="BackgroundImageFix" result="effect1_dropShadow_858_8"/>
<feBlend mode="normal" in="SourceGraphic" in2="effect1_dropShadow_858_8" result="shape"/>
</filter>
<filter id="filter1_d_858_8" x="27.2031" y="86.999" width="48.3223" height="70.5581" filterUnits="userSpaceOnUse" color-interpolation-filters="sRGB">
<feFlood flood-opacity="0" result="BackgroundImageFix"/>
<feColorMatrix in="SourceAlpha" type="matrix" values="0 0 0 0 0 0 0 0 0 0 0 0 0 0 0 0 0 0 127 0" result="hardAlpha"/>
<feOffset dy="9"/>
<feGaussianBlur stdDeviation="9.5"/>
<feComposite in2="hardAlpha" operator="out"/>
<feColorMatrix type="matrix" values="0 0 0 0 0 0 0 0 0 0 0 0 0 0 0 0 0 0 0.15 0"/>
<feBlend mode="normal" in2="BackgroundImageFix" result="effect1_dropShadow_858_8"/>
<feBlend mode="normal" in="SourceGraphic" in2="effect1_dropShadow_858_8" result="shape"/>
</filter>
<filter id="filter2_d_858_8" x="59.2549" y="82.8737" width="42.541" height="75.0665" filterUnits="userSpaceOnUse" color-interpolation-filters="sRGB">
<feFlood flood-opacity="0" result="BackgroundImageFix"/>
<feColorMatrix in="SourceAlpha" type="matrix" values="0 0 0 0 0 0 0 0 0 0 0 0 0 0 0 0 0 0 127 0" result="hardAlpha"/>
<feOffset dy="9"/>
<feGaussianBlur stdDeviation="9.5"/>
<feComposite in2="hardAlpha" operator="out"/>
<feColorMatrix type="matrix" values="0 0 0 0 0 0 0 0 0 0 0 0 0 0 0 0 0 0 0.15 0"/>
<feBlend mode="normal" in2="BackgroundImageFix" result="effect1_dropShadow_858_8"/>
<feBlend mode="normal" in="SourceGraphic" in2="effect1_dropShadow_858_8" result="shape"/>
</filter>
<filter id="filter3_d_858_8" x="59.2549" y="90.4807" width="39.7256" height="67.4276" filterUnits="userSpaceOnUse" color-interpolation-filters="sRGB">
<feFlood flood-opacity="0" result="BackgroundImageFix"/>
<feColorMatrix in="SourceAlpha" type="matrix" values="0 0 0 0 0 0 0 0 0 0 0 0 0 0 0 0 0 0 127 0" result="hardAlpha"/>
<feOffset dy="9"/>
<feGaussianBlur stdDeviation="9.5"/>
<feComposite in2="hardAlpha" operator="out"/>
<feColorMatrix type="matrix" values="0 0 0 0 0 0 0 0 0 0 0 0 0 0 0 0 0 0 0.15 0"/>
<feBlend mode="normal" in2="BackgroundImageFix" result="effect1_dropShadow_858_8"/>
<feBlend mode="normal" in="SourceGraphic" in2="effect1_dropShadow_858_8" result="shape"/>
</filter>
<linearGradient id="paint0_linear_858_8" x1="63.6672" y1="115.276" x2="64.6935" y2="136.897" gradientUnits="userSpaceOnUse">
<stop offset="0.107499" stop-color="#7AC6FF"/>
<stop offset="0.885131" stop-color="#1D147C" stop-opacity="0.19"/>
</linearGradient>
<linearGradient id="paint1_linear_858_8" x1="77.4828" y1="114.202" x2="78.6304" y2="138.381" gradientUnits="userSpaceOnUse">
<stop offset="0.107499" stop-color="#7AC6FF"/>
<stop offset="0.885131" stop-color="#1D147C" stop-opacity="0.19"/>
</linearGradient>
<linearGradient id="paint2_linear_858_8" x1="70.9152" y1="119.702" x2="72.1682" y2="142.245" gradientUnits="userSpaceOnUse">
<stop offset="0.107499" stop-color="#7AC6FF"/>
<stop offset="0.885131" stop-color="#1D147C" stop-opacity="0.19"/>
</linearGradient>
<linearGradient id="paint3_linear_858_8" x1="24.8763" y1="47.252" x2="153.653" y2="102.167" gradientUnits="userSpaceOnUse">
<stop offset="0.649036" stop-color="#1673FF"/>
<stop offset="0.904668" stop-color="#5192E2"/>
</linearGradient>
<linearGradient id="paint4_linear_858_8" x1="-31.1956" y1="20.6002" x2="111.343" y2="35.5227" gradientUnits="userSpaceOnUse">
<stop offset="0.649036" stop-color="#1673FF"/>
<stop offset="0.904668" stop-color="#5192E2"/>
</linearGradient>
<linearGradient id="paint5_linear_858_8" x1="114.322" y1="0.430833" x2="3.54711" y2="-38.4059" gradientUnits="userSpaceOnUse">
<stop offset="0.120943" stop-color="#5CB6FF"/>
<stop offset="0.692214" stop-color="#005BFF"/>
</linearGradient>
<linearGradient id="paint6_linear_858_8" x1="74.6909" y1="15.1446" x2="76.0386" y2="-3.37089" gradientUnits="userSpaceOnUse">
<stop offset="0.443606" stop-color="#D3ECFF"/>
<stop offset="1" stop-color="#548EF7"/>
</linearGradient>
<linearGradient id="paint7_linear_858_8" x1="97.1747" y1="70.8417" x2="49.5595" y2="42.3648" gradientUnits="userSpaceOnUse">
<stop offset="0.120943" stop-color="#5CB6FF"/>
<stop offset="0.654504" stop-color="#56A8EB"/>
<stop offset="1" stop-color="#005BFF"/>
</linearGradient>
<linearGradient id="paint8_linear_858_8" x1="-31.8488" y1="-58.4768" x2="163.6" y2="11.1395" gradientUnits="userSpaceOnUse">
<stop offset="0.649036" stop-color="#1673FF"/>
<stop offset="0.904668" stop-color="#5192E2"/>
</linearGradient>
<linearGradient id="paint9_linear_858_8" x1="-31.8503" y1="-59.6056" x2="163.61" y2="10.0579" gradientUnits="userSpaceOnUse">
<stop offset="0.649036" stop-color="#1673FF"/>
<stop offset="0.904668" stop-color="#5192E2"/>
</linearGradient>
<linearGradient id="paint10_linear_858_8" x1="-8.9064" y1="-39.2982" x2="145.479" y2="15.5713" gradientUnits="userSpaceOnUse">
<stop offset="0.649036" stop-color="#1673FF"/>
<stop offset="0.904668" stop-color="#5192E2"/>
</linearGradient>
<linearGradient id="paint11_linear_858_8" x1="71.1945" y1="98.1484" x2="78.8897" y2="-13.0561" gradientUnits="userSpaceOnUse">
<stop offset="0.443606" stop-color="#D3ECFF"/>
<stop offset="1" stop-color="#548EF7"/>
</linearGradient>
<linearGradient id="paint12_linear_858_8" x1="73.9205" y1="93.5759" x2="75.5895" y2="93.5941" gradientUnits="userSpaceOnUse">
<stop offset="0.649036" stop-color="#1673FF"/>
<stop offset="0.904668" stop-color="#5192E2"/>
</linearGradient>
<linearGradient id="paint13_linear_858_8" x1="2.0291" y1="32.5059" x2="127.812" y2="100.089" gradientUnits="userSpaceOnUse">
<stop offset="0.649036" stop-color="#1673FF"/>
<stop offset="0.904668" stop-color="#5192E2"/>
</linearGradient>
<linearGradient id="paint14_linear_858_8" x1="30.1472" y1="60.2228" x2="78.6999" y2="96.7806" gradientUnits="userSpaceOnUse">
<stop offset="0.649036" stop-color="#1673FF"/>
<stop offset="0.904668" stop-color="#5192E2"/>
</linearGradient>
<linearGradient id="paint15_linear_858_8" x1="109.5" y1="83.5" x2="69.2688" y2="64.6629" gradientUnits="userSpaceOnUse">
<stop offset="0.120943" stop-color="#5CB6FF"/>
<stop offset="0.271469" stop-color="#56A8EB"/>
<stop offset="1" stop-color="#005BFF"/>
</linearGradient>
<linearGradient id="paint16_linear_858_8" x1="5.37119" y1="-41.0341" x2="130.857" y2="15.1201" gradientUnits="userSpaceOnUse">
<stop offset="0.649036" stop-color="#1673FF"/>
<stop offset="0.904668" stop-color="#5192E2"/>
</linearGradient>
<linearGradient id="paint17_linear_858_8" x1="68.6173" y1="75.6775" x2="77.6565" y2="78.8974" gradientUnits="userSpaceOnUse">
<stop offset="0.649036" stop-color="#1673FF"/>
<stop offset="0.904668" stop-color="#5192E2"/>
</linearGradient>
<linearGradient id="paint18_linear_858_8" x1="69.6515" y1="76.7273" x2="76.7483" y2="79.3315" gradientUnits="userSpaceOnUse">
<stop offset="0.649036" stop-color="#1673FF"/>
<stop offset="0.904668" stop-color="#5192E2"/>
</linearGradient>
<linearGradient id="paint19_linear_858_8" x1="68.6552" y1="71.3446" x2="77.7036" y2="74.6035" gradientUnits="userSpaceOnUse">
<stop offset="0.649036" stop-color="#1673FF"/>
<stop offset="0.904668" stop-color="#5192E2"/>
</linearGradient>
<linearGradient id="paint20_linear_858_8" x1="69.7273" y1="72.3655" x2="76.8122" y2="74.9172" gradientUnits="userSpaceOnUse">
<stop offset="0.649036" stop-color="#1673FF"/>
<stop offset="0.904668" stop-color="#5192E2"/>
</linearGradient>
<linearGradient id="paint21_linear_858_8" x1="59.4114" y1="48.9343" x2="59.7477" y2="43.595" gradientUnits="userSpaceOnUse">
<stop offset="0.443606" stop-color="#D3ECFF"/>
<stop offset="1" stop-color="#548EF7"/>
</linearGradient>
<linearGradient id="paint22_linear_858_8" x1="61.1584" y1="36.5228" x2="61.4948" y2="31.1835" gradientUnits="userSpaceOnUse">
<stop offset="0.443606" stop-color="#D3ECFF"/>
<stop offset="1" stop-color="#548EF7"/>
</linearGradient>
<linearGradient id="paint23_linear_858_8" x1="67.4954" y1="58.9235" x2="67.8317" y2="53.5841" gradientUnits="userSpaceOnUse">
<stop offset="0.443606" stop-color="#D3ECFF"/>
<stop offset="1" stop-color="#548EF7"/>
</linearGradient>
<linearGradient id="paint24_linear_858_8" x1="81.0485" y1="60.2328" x2="81.3283" y2="54.8392" gradientUnits="userSpaceOnUse">
<stop offset="0.443606" stop-color="#D3ECFF"/>
<stop offset="1" stop-color="#548EF7"/>
</linearGradient>
<linearGradient id="paint25_linear_858_8" x1="90.3951" y1="52.1531" x2="90.6749" y2="46.7595" gradientUnits="userSpaceOnUse">
<stop offset="0.443606" stop-color="#D3ECFF"/>
<stop offset="1" stop-color="#548EF7"/>
</linearGradient>
<linearGradient id="paint26_linear_858_8" x1="89.2981" y1="36.5257" x2="89.6345" y2="31.1864" gradientUnits="userSpaceOnUse">
<stop offset="0.443606" stop-color="#D3ECFF"/>
<stop offset="1" stop-color="#548EF7"/>
</linearGradient>
<linearGradient id="paint27_linear_858_8" x1="82.4934" y1="28.3603" x2="82.8298" y2="23.021" gradientUnits="userSpaceOnUse">
<stop offset="0.443606" stop-color="#D3ECFF"/>
<stop offset="1" stop-color="#548EF7"/>
</linearGradient>
<linearGradient id="paint28_linear_858_8" x1="70.8371" y1="26.8995" x2="71.1735" y2="21.5602" gradientUnits="userSpaceOnUse">
<stop offset="0.443606" stop-color="#D3ECFF"/>
<stop offset="1" stop-color="#548EF7"/>
</linearGradient>
<linearGradient id="paint29_linear_858_8" x1="0.359713" y1="32.3706" x2="147.011" y2="76.6995" gradientUnits="userSpaceOnUse">
<stop offset="0.649036" stop-color="#1673FF"/>
<stop offset="0.904668" stop-color="#5192E2"/>
</linearGradient>
<linearGradient id="paint30_linear_858_8" x1="2.50449" y1="34.8469" x2="143.023" y2="74.484" gradientUnits="userSpaceOnUse">
<stop offset="0.649036" stop-color="#1673FF"/>
<stop offset="0.904668" stop-color="#5192E2"/>
</linearGradient>
<linearGradient id="paint31_linear_858_8" x1="100.627" y1="45.1689" x2="103.253" y2="32.6636" gradientUnits="userSpaceOnUse">
<stop offset="0.443606" stop-color="#D3ECFF"/>
<stop offset="1" stop-color="#548EF7"/>
</linearGradient>
<linearGradient id="paint32_linear_858_8" x1="49.7553" y1="42.8964" x2="49.2384" y2="31.985" gradientUnits="userSpaceOnUse">
<stop offset="0.443606" stop-color="#D3ECFF"/>
<stop offset="1" stop-color="#548EF7"/>
</linearGradient>
<linearGradient id="paint33_linear_858_8" x1="55.5771" y1="88.4702" x2="62.9208" y2="90.7844" gradientUnits="userSpaceOnUse">
<stop offset="0.649036" stop-color="#1673FF"/>
<stop offset="0.904668" stop-color="#5192E2"/>
</linearGradient>
<linearGradient id="paint34_linear_858_8" x1="84.7084" y1="86.6679" x2="92.3651" y2="89.0801" gradientUnits="userSpaceOnUse">
<stop offset="0.649036" stop-color="#1673FF"/>
<stop offset="0.904668" stop-color="#5192E2"/>
</linearGradient>
<linearGradient id="paint35_linear_858_8" x1="70.4791" y1="86.062" x2="78.7179" y2="88.9812" gradientUnits="userSpaceOnUse">
<stop offset="0.649036" stop-color="#1673FF"/>
<stop offset="0.904668" stop-color="#5192E2"/>
</linearGradient>
</defs>
</svg>
