<svg width="134" height="148" viewBox="0 0 134 148" fill="none" xmlns="http://www.w3.org/2000/svg">
<path opacity="0.88" d="M21.8885 131L57.5967 78.4172L64.2812 83.449L21.8885 131Z" fill="url(#paint0_linear_858_10)"/>
<path opacity="0.88" d="M28.5392 134.365L70.94 80.9399L77.6246 85.9716L28.5392 134.365Z" fill="url(#paint1_linear_858_10)"/>
<path opacity="0.88" d="M12.888 147.999L56.7678 88.1275L64.1709 93.6574L12.888 147.999Z" fill="url(#paint2_linear_858_10)"/>
<path fill-rule="evenodd" clip-rule="evenodd" d="M87.0523 87.2097L94.6735 91.2344C94.6735 91.2344 85.9819 104.464 67.1002 112L66.458 111.486L81.5719 93.3324L80.2875 92.2192L87.0523 87.2097Z" fill="url(#paint3_linear_858_10)"/>
<path fill-rule="evenodd" clip-rule="evenodd" d="M56.6096 63.2758L50.7438 56.6393C50.7438 56.6393 39.9115 68.1996 37 88.3229L37.6422 88.8367L51.7286 69.8694L53.0987 70.8541L56.6096 63.2758Z" fill="url(#paint4_linear_858_10)"/>
<path fill-rule="evenodd" clip-rule="evenodd" d="M128.497 3.24827C119.891 -3.55942 90.006 6.63071 75.8768 26.7969C61.7477 47.0059 48.2607 82.4144 48.2607 82.4144L59.2215 91.2344L70.3536 99.8404C70.3536 99.8404 101.609 78.4325 117.922 59.979C134.235 41.4398 137.06 9.97033 128.497 3.24827Z" fill="url(#paint5_linear_858_10)"/>
<path d="M132.95 22.7293C125.8 9.54212 110.129 3.07696 109.958 2.99133L110.044 2.73444C110.215 2.82007 125.971 9.32805 133.164 22.5581L132.95 22.7293Z" fill="#4B50DA"/>
<path fill-rule="evenodd" clip-rule="evenodd" d="M125.072 1.66406L131.281 7.05883C131.238 7.05883 129.825 2.13503 125.072 1.66406Z" fill="#53345F"/>
<path fill-rule="evenodd" clip-rule="evenodd" d="M126.185 2.04942C126.185 2.04942 128.154 3.07699 129.91 4.83244C129.91 4.83244 131.622 1.19311 130.595 0.208347C129.567 -0.776413 126.185 2.04942 126.185 2.04942Z" fill="url(#paint6_linear_858_10)"/>
<path fill-rule="evenodd" clip-rule="evenodd" d="M57.9373 59.6364C57.9373 59.6364 81.4002 68.1995 92.1041 83.6132C83.9264 90.2496 74.3114 99.086 70.0802 96.5473C68.157 95.3933 68.5419 97.7012 57.0023 88.4696C45.4627 79.238 52.1572 70.3831 57.9373 59.6364Z" fill="url(#paint7_linear_858_10)"/>
<path fill-rule="evenodd" clip-rule="evenodd" d="M117.794 15.3651C109.53 9.84185 96.6858 14.7657 89.9637 22.5581C83.2417 30.3505 86.7526 41.1401 94.8019 47.1343C102.851 53.1285 113.684 52.8288 119.763 43.2809C125.201 34.6321 126.956 21.4877 117.794 15.3651Z" fill="url(#paint8_linear_858_10)"/>
<path fill-rule="evenodd" clip-rule="evenodd" d="M118.478 14.466C110.215 8.94274 97.3704 13.8665 90.6483 21.659C83.9262 29.4514 87.4371 40.241 95.4865 46.2352C103.536 52.2294 114.368 51.9297 120.448 42.3818C125.928 33.733 127.641 20.5886 118.478 14.466Z" fill="url(#paint9_linear_858_10)"/>
<path fill-rule="evenodd" clip-rule="evenodd" d="M116.722 17.7628C109.401 12.7106 100.196 17.249 94.9293 23.3288C89.6629 29.4087 92.446 37.8433 98.7827 42.5531C105.119 47.2628 113.597 47.0487 118.307 39.5988C122.631 32.8339 124.386 23.0291 116.722 17.7628Z" fill="#541FA2"/>
<path fill-rule="evenodd" clip-rule="evenodd" d="M107.09 45.4217C104.222 45.336 101.353 44.3085 98.8268 42.4246C92.7898 37.9289 89.9211 29.1089 94.9305 23.3288C96.6003 21.4021 98.6983 19.6895 101.01 18.4478C105.549 16.0501 110.986 15.5363 115.91 18.7903C123.189 23.6285 121.519 33.1336 117.409 39.5987C114.84 43.7519 111.029 45.5073 107.09 45.4217Z" fill="url(#paint10_linear_858_10)"/>
<path d="M94.6202 46.9945L76.9248 69.4633L77.1266 69.6223L94.822 47.1534L94.6202 46.9945Z" fill="#4B50DA"/>
<path d="M57.8936 59.7649L57.9792 59.508C84.1824 70.1263 92.1461 83.3991 92.2317 83.5276L92.0176 83.656C91.8892 83.5276 83.9683 70.3404 57.8936 59.7649Z" fill="#938EFF"/>
<path d="M62.1328 50.9449L62.1756 50.688C62.2613 50.688 72.2373 51.5871 84.4398 60.1931L84.2685 60.4071C72.1089 51.844 62.2184 50.9449 62.1328 50.9449Z" fill="#4B50DA"/>
<path fill-rule="evenodd" clip-rule="evenodd" d="M50.0151 85.1944C50.6774 83.8907 52.2884 83.408 53.5393 84.1655C56.7576 86.1144 62.8652 89.9837 68.7807 94.6674C70.0577 95.6784 70.1814 97.5562 69.0838 98.7595C68.094 99.8446 66.444 100.006 65.2631 99.1324L50.7772 88.42C49.7698 87.675 49.4476 86.3115 50.0151 85.1944Z" fill="url(#paint11_linear_858_10)"/>
<path fill-rule="evenodd" clip-rule="evenodd" d="M104.436 4.83243C104.436 4.83243 121.605 8.17205 132.565 26.9681L133.036 22.6437C133.036 22.6437 127.256 11.0835 110.002 2.86292L104.436 4.83243Z" fill="url(#paint12_linear_858_10)"/>
<path fill-rule="evenodd" clip-rule="evenodd" d="M82.641 61.3063C82.3413 61.6917 81.7847 61.7345 81.3994 61.4348C81.014 61.1351 80.9712 60.5785 81.2709 60.1931C81.5706 59.8078 82.1272 59.765 82.5126 60.0647C82.8551 60.3644 82.9407 60.921 82.641 61.3063Z" fill="#6B3DD9"/>
<path fill-rule="evenodd" clip-rule="evenodd" d="M82.4697 61.1779C82.2128 61.4776 81.7846 61.5204 81.4849 61.3063C81.1852 61.0494 81.1424 60.6213 81.3565 60.3216C81.6133 60.0219 82.0415 59.979 82.3412 60.1931C82.6409 60.45 82.7266 60.8782 82.4697 61.1779Z" fill="#6B3DD9"/>
<path fill-rule="evenodd" clip-rule="evenodd" d="M85.2963 57.8811C84.9966 58.2664 84.44 58.3092 84.0546 58.0095C83.6693 57.7098 83.6265 57.1532 83.9262 56.7679C84.2259 56.3825 84.7825 56.3397 85.1678 56.6394C85.5532 56.9391 85.596 57.4957 85.2963 57.8811Z" fill="#6B3DD9"/>
<path fill-rule="evenodd" clip-rule="evenodd" d="M85.1689 57.7526C84.912 58.0523 84.4838 58.0951 84.1841 57.881C83.8844 57.6241 83.8416 57.196 84.0557 56.8963C84.3126 56.5966 84.7407 56.5538 85.0404 56.7678C85.3401 57.0247 85.383 57.4529 85.1689 57.7526Z" fill="#6B3DD9"/>
<path fill-rule="evenodd" clip-rule="evenodd" d="M92.1035 25.5552C91.8466 25.8549 91.4184 25.8977 91.1187 25.6837C90.819 25.4268 90.7762 24.9986 90.9902 24.6989C91.2471 24.3992 91.6753 24.3564 91.975 24.5704C92.2747 24.8273 92.3175 25.2555 92.1035 25.5552Z" fill="url(#paint13_linear_858_10)"/>
<path fill-rule="evenodd" clip-rule="evenodd" d="M101.009 16.7352C100.752 17.0349 100.324 17.0777 100.024 16.8636C99.7243 16.6067 99.6814 16.1786 99.8955 15.8789C100.152 15.5792 100.581 15.5364 100.88 15.7504C101.18 16.0073 101.223 16.4355 101.009 16.7352Z" fill="url(#paint14_linear_858_10)"/>
<path fill-rule="evenodd" clip-rule="evenodd" d="M92.4892 38.3999C92.2323 38.6996 91.8041 38.7425 91.5044 38.5284C91.2047 38.2715 91.1619 37.8433 91.376 37.5436C91.6329 37.2439 92.061 37.2011 92.3607 37.4152C92.6605 37.6292 92.7033 38.0574 92.4892 38.3999Z" fill="url(#paint15_linear_858_10)"/>
<path fill-rule="evenodd" clip-rule="evenodd" d="M102.508 47.6481C102.251 47.9478 101.823 47.9906 101.523 47.7765C101.223 47.5197 101.18 47.0915 101.395 46.7918C101.651 46.4921 102.08 46.4493 102.379 46.6633C102.722 46.9202 102.765 47.3484 102.508 47.6481Z" fill="url(#paint16_linear_858_10)"/>
<path fill-rule="evenodd" clip-rule="evenodd" d="M114.839 46.8774C114.582 47.1771 114.154 47.2199 113.854 47.0059C113.554 46.749 113.512 46.3208 113.726 46.0211C113.982 45.7214 114.411 45.6786 114.71 45.8926C115.053 46.1495 115.096 46.5777 114.839 46.8774Z" fill="url(#paint17_linear_858_10)"/>
<path fill-rule="evenodd" clip-rule="evenodd" d="M123.402 33.7758C123.145 34.0756 122.717 34.1184 122.418 33.9043C122.118 33.6902 122.075 33.2192 122.289 32.9195C122.546 32.6198 122.974 32.577 123.274 32.7911C123.574 33.048 123.616 33.4761 123.402 33.7758Z" fill="url(#paint18_linear_858_10)"/>
<path fill-rule="evenodd" clip-rule="evenodd" d="M122.932 23.1575C122.675 23.4572 122.247 23.5 121.947 23.2859C121.647 23.0291 121.604 22.6009 121.818 22.3012C122.075 22.0015 122.503 21.9587 122.803 22.1727C123.103 22.4296 123.146 22.8578 122.932 23.1575Z" fill="url(#paint19_linear_858_10)"/>
<path fill-rule="evenodd" clip-rule="evenodd" d="M114.539 14.9369C114.282 15.2366 113.854 15.2794 113.554 15.0654C113.255 14.8085 113.212 14.3803 113.426 14.0806C113.683 13.7809 114.111 13.7381 114.411 13.9522C114.71 14.2091 114.753 14.6372 114.539 14.9369Z" fill="url(#paint20_linear_858_10)"/>
<path fill-rule="evenodd" clip-rule="evenodd" d="M79.9018 74.8788L81.7429 76.2918L56.9526 103.993L55.7109 103.009L79.9018 74.8788Z" fill="url(#paint21_linear_858_10)"/>
<path fill-rule="evenodd" clip-rule="evenodd" d="M79.9018 74.8788L73.5651 80.3164L55.7109 103.009L79.9018 74.8788Z" fill="url(#paint22_linear_858_10)"/>
<path fill-rule="evenodd" clip-rule="evenodd" d="M128.71 41.611C128.71 41.611 132.435 43.4949 127.126 45.4216L128.71 41.611Z" fill="url(#paint23_linear_858_10)"/>
<path fill-rule="evenodd" clip-rule="evenodd" d="M91.5907 11.683C91.5907 11.683 87.9085 10.2273 88.3795 13.9951L91.5907 11.683Z" fill="url(#paint24_linear_858_10)"/>
<path fill-rule="evenodd" clip-rule="evenodd" d="M64.0169 62.2054C63.76 62.548 63.3318 62.6764 63.0749 62.4623C62.818 62.2483 62.8609 61.8201 63.1178 61.4776C63.3746 61.1351 63.8028 61.0066 64.0597 61.2207C64.3166 61.4348 64.2738 61.8629 64.0169 62.2054Z" fill="#6B3DD9"/>
<path fill-rule="evenodd" clip-rule="evenodd" d="M88.3784 78.6894C88.1215 79.032 87.6505 79.1604 87.3936 78.9035C87.1367 78.6894 87.0939 78.2185 87.3936 77.8759C87.6505 77.5334 88.1215 77.405 88.3784 77.6619C88.6353 77.9188 88.6353 78.3469 88.3784 78.6894Z" fill="#6B3DD9"/>
<path fill-rule="evenodd" clip-rule="evenodd" d="M77.6749 70.0407C77.418 70.3832 76.9042 70.4689 76.5617 70.1692C76.2192 69.9123 76.1335 69.3985 76.4332 69.0559C76.6901 68.7134 77.2039 68.6278 77.5464 68.9275C77.889 69.2272 77.9318 69.6982 77.6749 70.0407Z" fill="#6B3DD9"/>
<defs>
<linearGradient id="paint0_linear_858_10" x1="57.7071" y1="80.1505" x2="3.50049" y2="141" gradientUnits="userSpaceOnUse">
<stop offset="0.107499" stop-color="#864DFF"/>
<stop offset="0.885131" stop-color="#1D147C" stop-opacity="0.19"/>
</linearGradient>
<linearGradient id="paint1_linear_858_10" x1="71.0509" y1="82.6734" x2="16" y2="165" gradientUnits="userSpaceOnUse">
<stop offset="0.107499" stop-color="#864DFF"/>
<stop offset="0.885131" stop-color="#1D147C" stop-opacity="0.19"/>
</linearGradient>
<linearGradient id="paint2_linear_858_10" x1="56.8968" y1="90.0416" x2="-10.5" y2="164" gradientUnits="userSpaceOnUse">
<stop offset="0.078163" stop-color="#8354E7"/>
<stop offset="0.885131" stop-color="#1D147C" stop-opacity="0.19"/>
</linearGradient>
<linearGradient id="paint3_linear_858_10" x1="90.6086" y1="-15.8248" x2="31.3305" y2="3.33829" gradientUnits="userSpaceOnUse">
<stop offset="0.376761" stop-color="#583DFF"/>
<stop offset="0.821651" stop-color="#5800E2"/>
</linearGradient>
<linearGradient id="paint4_linear_858_10" x1="53.7845" y1="-77.181" x2="9.6033" y2="-69.5383" gradientUnits="userSpaceOnUse">
<stop offset="0.376761" stop-color="#583DFF"/>
<stop offset="0.821651" stop-color="#5800E2"/>
</linearGradient>
<linearGradient id="paint5_linear_858_10" x1="162.813" y1="21.8022" x2="98.1678" y2="-76.1792" gradientUnits="userSpaceOnUse">
<stop offset="0.118076" stop-color="#5CB6FF"/>
<stop offset="0.920634" stop-color="#005BFF"/>
</linearGradient>
<linearGradient id="paint6_linear_858_10" x1="122.363" y1="9.51574" x2="134.646" y2="-4.40382" gradientUnits="userSpaceOnUse">
<stop offset="0.443606" stop-color="#D3ECFF"/>
<stop offset="1" stop-color="#548EF7"/>
</linearGradient>
<linearGradient id="paint7_linear_858_10" x1="106.532" y1="67.4558" x2="84.9347" y2="25.2887" gradientUnits="userSpaceOnUse">
<stop offset="0.118076" stop-color="#5CB6FF"/>
<stop offset="0.920634" stop-color="#005BFF"/>
</linearGradient>
<linearGradient id="paint8_linear_858_10" x1="207.852" y1="51.6299" x2="175.98" y2="-23.2156" gradientUnits="userSpaceOnUse">
<stop offset="0.0416667" stop-color="#4E9CDB"/>
<stop offset="0.320563" stop-color="#5761D7"/>
<stop offset="0.874857" stop-color="#7628DA"/>
</linearGradient>
<linearGradient id="paint9_linear_858_10" x1="119.501" y1="-146.371" x2="38.1314" y2="-123.427" gradientUnits="userSpaceOnUse">
<stop offset="0.376761" stop-color="#583DFF"/>
<stop offset="0.821651" stop-color="#5800E2"/>
</linearGradient>
<linearGradient id="paint10_linear_858_10" x1="69.3223" y1="73.4574" x2="142.78" y2="-10.3856" gradientUnits="userSpaceOnUse">
<stop offset="0.443606" stop-color="#D3ECFF"/>
<stop offset="1" stop-color="#548EF7"/>
</linearGradient>
<linearGradient id="paint11_linear_858_10" x1="72.3354" y1="91.8307" x2="65.1811" y2="71.6659" gradientUnits="userSpaceOnUse">
<stop offset="0.118076" stop-color="#5CB6FF"/>
<stop offset="0.617582" stop-color="#4D42D5"/>
</linearGradient>
<linearGradient id="paint12_linear_858_10" x1="128.916" y1="-97.3243" x2="69.3174" y2="-77.2395" gradientUnits="userSpaceOnUse">
<stop offset="0.376761" stop-color="#583DFF"/>
<stop offset="0.821651" stop-color="#5800E2"/>
</linearGradient>
<linearGradient id="paint13_linear_858_10" x1="89.7428" y1="27.1556" x2="93.2434" y2="23.11" gradientUnits="userSpaceOnUse">
<stop offset="0.443606" stop-color="#D3ECFF"/>
<stop offset="1" stop-color="#548EF7"/>
</linearGradient>
<linearGradient id="paint14_linear_858_10" x1="98.648" y1="18.3356" x2="102.149" y2="14.29" gradientUnits="userSpaceOnUse">
<stop offset="0.443606" stop-color="#D3ECFF"/>
<stop offset="1" stop-color="#548EF7"/>
</linearGradient>
<linearGradient id="paint15_linear_858_10" x1="90.1285" y1="40.0004" x2="93.6291" y2="35.9548" gradientUnits="userSpaceOnUse">
<stop offset="0.443606" stop-color="#D3ECFF"/>
<stop offset="1" stop-color="#548EF7"/>
</linearGradient>
<linearGradient id="paint16_linear_858_10" x1="100.122" y1="49.2485" x2="103.61" y2="45.1254" gradientUnits="userSpaceOnUse">
<stop offset="0.443606" stop-color="#D3ECFF"/>
<stop offset="1" stop-color="#548EF7"/>
</linearGradient>
<linearGradient id="paint17_linear_858_10" x1="112.453" y1="48.4778" x2="115.941" y2="44.3547" gradientUnits="userSpaceOnUse">
<stop offset="0.443606" stop-color="#D3ECFF"/>
<stop offset="1" stop-color="#548EF7"/>
</linearGradient>
<linearGradient id="paint18_linear_858_10" x1="121.042" y1="35.3763" x2="124.542" y2="31.3307" gradientUnits="userSpaceOnUse">
<stop offset="0.443606" stop-color="#D3ECFF"/>
<stop offset="1" stop-color="#548EF7"/>
</linearGradient>
<linearGradient id="paint19_linear_858_10" x1="120.571" y1="24.7579" x2="124.072" y2="20.7123" gradientUnits="userSpaceOnUse">
<stop offset="0.443606" stop-color="#D3ECFF"/>
<stop offset="1" stop-color="#548EF7"/>
</linearGradient>
<linearGradient id="paint20_linear_858_10" x1="112.178" y1="16.5374" x2="115.679" y2="12.4917" gradientUnits="userSpaceOnUse">
<stop offset="0.443606" stop-color="#D3ECFF"/>
<stop offset="1" stop-color="#548EF7"/>
</linearGradient>
<linearGradient id="paint21_linear_858_10" x1="178.262" y1="127.313" x2="146.624" y2="42.8669" gradientUnits="userSpaceOnUse">
<stop offset="0.0416667" stop-color="#4E9CDB"/>
<stop offset="0.351465" stop-color="#62369D"/>
<stop offset="0.9999" stop-color="#5E04D0"/>
</linearGradient>
<linearGradient id="paint22_linear_858_10" x1="76.4167" y1="-42.036" x2="23.4432" y2="-29.0968" gradientUnits="userSpaceOnUse">
<stop offset="0.376761" stop-color="#583DFF"/>
<stop offset="0.821651" stop-color="#5800E2"/>
</linearGradient>
<linearGradient id="paint23_linear_858_10" x1="124.824" y1="49.1146" x2="134.485" y2="40.7518" gradientUnits="userSpaceOnUse">
<stop offset="0.443606" stop-color="#D3ECFF"/>
<stop offset="1" stop-color="#548EF7"/>
</linearGradient>
<linearGradient id="paint24_linear_858_10" x1="85.7144" y1="16.5038" x2="91.9097" y2="7.50695" gradientUnits="userSpaceOnUse">
<stop offset="0.443606" stop-color="#D3ECFF"/>
<stop offset="1" stop-color="#548EF7"/>
</linearGradient>
</defs>
</svg>
