<svg width="155" height="138" viewBox="0 0 155 138" fill="none" xmlns="http://www.w3.org/2000/svg">
<path opacity="0.88" d="M70.4258 113.023L64.8788 33.2171L74.5684 32.8773L70.4258 113.023Z" fill="url(#paint0_linear_858_11)"/>
<path opacity="0.88" d="M66.2012 99.9613L60.6542 20.1556L70.3438 19.8158L66.2012 99.9613Z" fill="url(#paint1_linear_858_11)"/>
<path opacity="0.88" d="M85.2012 99.9613L79.6542 20.1556L89.3438 19.8158L85.2012 99.9613Z" fill="url(#paint2_linear_858_11)"/>
<path opacity="0.88" d="M79.8836 110.073L79.7969 24.1555L89.4865 23.8157L79.8836 110.073Z" fill="url(#paint3_linear_858_11)"/>
<path opacity="0.88" d="M74.5262 137.814L71.1312 44.4011L81.8315 43.9828L74.5262 137.814Z" fill="url(#paint4_linear_858_11)"/>
<path fill-rule="evenodd" clip-rule="evenodd" d="M40.8594 27.5999C40.8594 27.5999 56.2508 1.02484 75.1117 0.0282754C94.6739 -1.04211 111.911 28.6334 111.911 28.6334L40.8594 27.5999Z" fill="url(#paint5_linear_858_11)"/>
<g filter="url(#filter0_d_858_11)">
<path fill-rule="evenodd" clip-rule="evenodd" d="M135.571 38.7466C135.275 39.7432 113.868 48.9337 77.4007 48.9337C43.7389 48.9337 18.8986 40.2968 19.2308 38.7466C19.4523 37.6762 45.2892 34.0591 77.4007 34.0591C109.512 34.0591 135.792 38.0084 135.571 38.7466Z" fill="url(#paint6_linear_858_11)"/>
</g>
<g filter="url(#filter1_d_858_11)">
<path fill-rule="evenodd" clip-rule="evenodd" d="M19.2305 38.7466C19.2305 38.7466 36.1352 22.4325 75.1488 22.4325C114.162 22.4325 135.607 38.7466 135.607 38.7466C135.607 38.7466 119.625 35.0556 75.1488 35.0556C39.6416 35.0556 19.2305 38.7466 19.2305 38.7466Z" fill="url(#paint7_linear_858_11)"/>
</g>
<g filter="url(#filter2_d_858_11)">
<path d="M124.017 43.2496L123.759 43.1758C123.981 42.4745 122.689 41.8839 121.581 41.5517C114.089 39.1157 90.2819 38.3037 71.3103 38.562C47.6511 38.8573 31.1524 40.7028 30.3404 43.1389L30.082 43.065C31.1524 39.9277 52.1172 38.562 71.3472 38.2668C90.3188 38.0084 114.163 38.8573 121.692 41.2934C123.501 41.8839 124.239 42.5114 124.017 43.2496Z" fill="url(#paint8_linear_858_11)"/>
</g>
<g filter="url(#filter3_d_858_11)">
<path fill-rule="evenodd" clip-rule="evenodd" d="M53.5928 47.4943C53.5928 47.4943 73.3764 44.8737 99.8408 47.7158C99.8408 47.7158 76.1447 50.2995 53.5928 47.4943Z" fill="url(#paint9_linear_858_11)"/>
</g>
<path fill-rule="evenodd" clip-rule="evenodd" d="M55.918 47.7158C55.918 47.7158 74.5574 45.3536 97.4046 47.9741C97.4046 47.9741 75.9231 50.4471 55.918 47.7158Z" fill="url(#paint10_linear_858_11)"/>
<path fill-rule="evenodd" clip-rule="evenodd" d="M60.2734 47.2729C60.2734 47.2729 81.7549 49.0076 92.385 47.3836C92.385 47.3467 72.8228 46.1656 60.2734 47.2729Z" fill="url(#paint11_linear_858_11)"/>
<path fill-rule="evenodd" clip-rule="evenodd" d="M81.3122 42.696C81.3122 43.1758 79.5405 43.5449 77.3997 43.5449C75.2221 43.5449 73.4873 43.1758 73.4873 42.696C73.4873 42.6222 73.5242 42.5852 73.598 42.5114C74.004 42.1423 75.5543 41.847 77.4367 41.847C79.0607 41.847 80.4633 42.0685 81.0538 42.3638C81.2015 42.4376 81.3122 42.5483 81.3122 42.696Z" fill="url(#paint12_linear_858_11)"/>
<path fill-rule="evenodd" clip-rule="evenodd" d="M81.0173 42.3638C81.0173 42.7698 79.3195 43.102 77.2525 43.102C75.407 43.102 73.8937 42.8436 73.5615 42.5114C73.9675 42.1423 75.5177 41.847 77.4001 41.847C79.0242 41.847 80.4267 42.0316 81.0173 42.3638Z" fill="url(#paint13_linear_858_11)"/>
<path fill-rule="evenodd" clip-rule="evenodd" d="M99.8039 43.1388C99.8039 43.5817 98.6966 43.9139 97.294 43.9139C96.1498 43.9139 95.1902 43.6925 94.8949 43.3603C94.8211 43.2865 94.7842 43.2126 94.7842 43.1388C94.7842 43.065 94.8211 43.0281 94.858 42.9543C95.1164 42.6221 96.1129 42.3637 97.294 42.3637C98.0322 42.3637 98.6966 42.4744 99.1395 42.6221C99.3241 42.6959 99.4717 42.7697 99.5825 42.8435C99.7301 42.9174 99.8039 43.0281 99.8039 43.1388Z" fill="url(#paint14_linear_858_11)"/>
<path fill-rule="evenodd" clip-rule="evenodd" d="M99.2503 42.8435C99.2503 43.2865 98.143 43.6186 96.7404 43.6186C96.0022 43.6186 95.3378 43.5079 94.8949 43.3603C94.8211 43.2865 94.7842 43.2126 94.7842 43.1388C94.7842 43.065 94.8211 43.0281 94.858 42.9543C95.1164 42.6221 96.1129 42.3637 97.294 42.3637C98.0322 42.3637 98.6966 42.4744 99.1395 42.6221C99.2134 42.6959 99.2503 42.7697 99.2503 42.8435Z" fill="url(#paint15_linear_858_11)"/>
<path fill-rule="evenodd" clip-rule="evenodd" d="M112.132 45.3904C112.132 45.6488 111.21 45.9071 110.102 45.9071C109.18 45.9071 108.404 45.7595 108.146 45.538C108.109 45.5011 108.072 45.4642 108.072 45.3904C108.072 45.3535 108.072 45.3166 108.109 45.2797C108.331 45.0582 109.106 44.8737 110.102 44.8737C110.693 44.8737 111.247 44.9475 111.616 45.0213C111.763 45.0582 111.911 45.0951 111.985 45.1689C112.095 45.2428 112.132 45.3166 112.132 45.3904Z" fill="url(#paint16_linear_858_11)"/>
<path fill-rule="evenodd" clip-rule="evenodd" d="M111.689 45.2058C111.689 45.4642 110.767 45.6857 109.659 45.6857C109.069 45.6857 108.515 45.6119 108.146 45.538C108.109 45.5011 108.072 45.4642 108.072 45.3904C108.072 45.3535 108.072 45.3166 108.109 45.2797C108.331 45.0582 109.106 44.8737 110.102 44.8737C110.693 44.8737 111.247 44.9475 111.616 45.0213C111.653 45.0951 111.689 45.132 111.689 45.2058Z" fill="url(#paint17_linear_858_11)"/>
<path fill-rule="evenodd" clip-rule="evenodd" d="M56.8779 43.1036C56.8779 43.5465 57.9852 43.8787 59.3878 43.8787C60.532 43.8787 61.4917 43.6572 61.7869 43.3251C61.8608 43.2512 61.8977 43.1774 61.8977 43.1036C61.8977 43.0298 61.8608 42.9929 61.8238 42.919C61.5655 42.5869 60.5689 42.3285 59.3878 42.3285C58.6496 42.3285 57.9852 42.4392 57.5423 42.5869C57.3578 42.6607 57.2101 42.7345 57.0994 42.8083C56.9517 42.8821 56.8779 42.9929 56.8779 43.1036Z" fill="url(#paint18_linear_858_11)"/>
<path fill-rule="evenodd" clip-rule="evenodd" d="M57.4316 42.7698C57.4316 43.2127 58.5389 43.5449 59.9415 43.5449C60.6797 43.5449 61.3441 43.4342 61.787 43.2865C61.8608 43.2127 61.8977 43.1389 61.8977 43.0651C61.8977 42.9913 61.8608 42.9544 61.8239 42.8805C61.5655 42.5483 60.569 42.29 59.3879 42.29C58.6497 42.29 57.9853 42.4007 57.5424 42.5483C57.4686 42.6222 57.4316 42.696 57.4316 42.7698Z" fill="url(#paint19_linear_858_11)"/>
<path fill-rule="evenodd" clip-rule="evenodd" d="M42.2246 45.2796C42.2246 45.538 43.1474 45.7964 44.2546 45.7964C45.1774 45.7964 45.9525 45.6487 46.2109 45.4273C46.2478 45.3903 46.2847 45.3534 46.2847 45.2796C46.2847 45.2427 46.2847 45.2058 46.2478 45.1689C46.0263 44.9474 45.2512 44.7629 44.2546 44.7629C43.6641 44.7629 43.1104 44.8367 42.7413 44.9105C42.5937 44.9474 42.4461 44.9843 42.3722 45.0582C42.2615 45.1689 42.2246 45.2427 42.2246 45.2796Z" fill="url(#paint20_linear_858_11)"/>
<path fill-rule="evenodd" clip-rule="evenodd" d="M42.667 45.095C42.667 45.3534 43.5897 45.5748 44.697 45.5748C45.2876 45.5748 45.8412 45.501 46.2103 45.4272C46.2472 45.3903 46.2842 45.3534 46.2842 45.2796C46.2842 45.2426 46.2842 45.2057 46.2472 45.1688C46.0258 44.9474 45.2507 44.7628 44.2541 44.7628C43.6636 44.7628 43.1099 44.8366 42.7408 44.9105C42.7039 45.0212 42.667 45.0581 42.667 45.095Z" fill="url(#paint21_linear_858_11)"/>
<g filter="url(#filter4_d_858_11)">
<path d="M126.453 33.69C101.244 22.9492 75.7024 23.3922 58.687 25.6806C40.2321 28.1535 27.609 33.2102 27.4613 33.284L27.3506 33.0625C27.4613 33.0256 40.1214 27.9321 58.6132 25.4591C75.6655 23.1707 101.281 22.7278 126.564 33.5055L126.453 33.69Z" fill="url(#paint22_linear_858_11)"/>
</g>
<g filter="url(#filter5_d_858_11)">
<path d="M19.2303 38.8942L19.1934 38.6359C19.3779 38.599 36.7255 34.9449 78.286 34.9449C119.846 34.9449 135.459 38.599 135.607 38.6359L135.533 38.8942C135.385 38.8573 119.809 35.2402 78.286 35.2402C36.7624 35.2033 19.4148 38.8573 19.2303 38.8942Z" fill="url(#paint23_linear_858_11)"/>
</g>
<path d="M32.1123 37.1225L31.9277 36.9379C32.0016 36.8641 39.0144 30.368 44.2925 28.0057L44.4032 28.2272C39.1621 30.5525 32.1861 37.0486 32.1123 37.1225Z" fill="#77439F"/>
<path d="M124.792 37.3071C116.746 30.7003 104.787 26.9724 104.64 26.9355L104.713 26.6771C104.824 26.714 116.857 30.4788 124.94 37.1226L124.792 37.3071Z" fill="#77439F"/>
<path fill-rule="evenodd" clip-rule="evenodd" d="M53.7041 23.5398C53.7041 23.5398 63.559 17.2652 77.5109 16.5639C91.4628 15.8995 101.539 23.3184 101.539 23.3184C101.539 23.3184 77.0311 18.1141 53.7041 23.5398Z" fill="url(#paint24_linear_858_11)"/>
<path fill-rule="evenodd" clip-rule="evenodd" d="M40.8594 27.5997L41.6714 26.3079C41.6714 26.3079 84.2653 13.6109 110.656 26.5662L111.431 27.7842C111.431 27.7842 99.546 22.9491 75.5177 22.9491C51.5263 22.986 40.8594 27.5997 40.8594 27.5997Z" fill="url(#paint25_radial_858_11)"/>
<path fill-rule="evenodd" clip-rule="evenodd" d="M77.8057 35.2402C77.8057 35.6093 77.4366 35.9046 76.9937 35.9046C76.5507 35.9046 76.1816 35.6093 76.1816 35.2402C76.1816 34.8711 76.5507 34.5759 76.9937 34.5759C77.4366 34.5759 77.8057 34.8711 77.8057 35.2402Z" fill="url(#paint26_linear_858_11)"/>
<path fill-rule="evenodd" clip-rule="evenodd" d="M77.6211 35.2404C77.6211 35.5356 77.3259 35.7571 76.9937 35.7571C76.6246 35.7571 76.3662 35.5356 76.3662 35.2404C76.3662 34.9451 76.6615 34.7236 76.9937 34.7236C77.3628 34.7236 77.6211 34.982 77.6211 35.2404Z" fill="url(#paint27_linear_858_11)"/>
<path fill-rule="evenodd" clip-rule="evenodd" d="M125.715 37.0118C125.715 37.3809 125.346 37.6762 124.903 37.6762C124.46 37.6762 124.091 37.3809 124.091 37.0118C124.091 36.6427 124.46 36.3474 124.903 36.3474C125.346 36.3474 125.715 36.6427 125.715 37.0118Z" fill="url(#paint28_linear_858_11)"/>
<path fill-rule="evenodd" clip-rule="evenodd" d="M125.53 37.0119C125.53 37.3071 125.235 37.5286 124.903 37.5286C124.534 37.5286 124.275 37.3071 124.275 37.0119C124.275 36.7166 124.571 36.4951 124.903 36.4951C125.235 36.4951 125.53 36.7166 125.53 37.0119Z" fill="url(#paint29_linear_858_11)"/>
<path fill-rule="evenodd" clip-rule="evenodd" d="M32.2598 37.0118C32.2598 37.3809 31.8907 37.6762 31.4478 37.6762C31.0048 37.6762 30.6357 37.3809 30.6357 37.0118C30.6357 36.6427 31.0048 36.3474 31.4478 36.3474C31.8907 36.3474 32.2598 36.6427 32.2598 37.0118Z" fill="url(#paint30_linear_858_11)"/>
<path fill-rule="evenodd" clip-rule="evenodd" d="M32.1124 37.0119C32.1124 37.3071 31.8171 37.5286 31.4849 37.5286C31.1158 37.5286 30.8574 37.3071 30.8574 37.0119C30.8574 36.7166 31.1527 36.4951 31.4849 36.4951C31.8171 36.4951 32.1124 36.7166 32.1124 37.0119Z" fill="url(#paint31_linear_858_11)"/>
<defs>
<filter id="filter0_d_858_11" x="0.227539" y="24.0591" width="154.345" height="52.8746" filterUnits="userSpaceOnUse" color-interpolation-filters="sRGB">
<feFlood flood-opacity="0" result="BackgroundImageFix"/>
<feColorMatrix in="SourceAlpha" type="matrix" values="0 0 0 0 0 0 0 0 0 0 0 0 0 0 0 0 0 0 127 0" result="hardAlpha"/>
<feOffset dy="9"/>
<feGaussianBlur stdDeviation="9.5"/>
<feComposite in2="hardAlpha" operator="out"/>
<feColorMatrix type="matrix" values="0 0 0 0 0 0 0 0 0 0 0 0 0 0 0 0 0 0 0.15 0"/>
<feBlend mode="normal" in2="BackgroundImageFix" result="effect1_dropShadow_858_11"/>
<feBlend mode="normal" in="SourceGraphic" in2="effect1_dropShadow_858_11" result="shape"/>
</filter>
<filter id="filter1_d_858_11" x="0.230469" y="12.4325" width="154.377" height="54.3141" filterUnits="userSpaceOnUse" color-interpolation-filters="sRGB">
<feFlood flood-opacity="0" result="BackgroundImageFix"/>
<feColorMatrix in="SourceAlpha" type="matrix" values="0 0 0 0 0 0 0 0 0 0 0 0 0 0 0 0 0 0 127 0" result="hardAlpha"/>
<feOffset dy="9"/>
<feGaussianBlur stdDeviation="9.5"/>
<feComposite in2="hardAlpha" operator="out"/>
<feColorMatrix type="matrix" values="0 0 0 0 0 0 0 0 0 0 0 0 0 0 0 0 0 0 0.15 0"/>
<feBlend mode="normal" in2="BackgroundImageFix" result="effect1_dropShadow_858_11"/>
<feBlend mode="normal" in="SourceGraphic" in2="effect1_dropShadow_858_11" result="shape"/>
</filter>
<filter id="filter2_d_858_11" x="11.082" y="28.2223" width="131.974" height="43.0273" filterUnits="userSpaceOnUse" color-interpolation-filters="sRGB">
<feFlood flood-opacity="0" result="BackgroundImageFix"/>
<feColorMatrix in="SourceAlpha" type="matrix" values="0 0 0 0 0 0 0 0 0 0 0 0 0 0 0 0 0 0 127 0" result="hardAlpha"/>
<feOffset dy="9"/>
<feGaussianBlur stdDeviation="9.5"/>
<feComposite in2="hardAlpha" operator="out"/>
<feColorMatrix type="matrix" values="0 0 0 0 0 0 0 0 0 0 0 0 0 0 0 0 0 0 0.15 0"/>
<feBlend mode="normal" in2="BackgroundImageFix" result="effect1_dropShadow_858_11"/>
<feBlend mode="normal" in="SourceGraphic" in2="effect1_dropShadow_858_11" result="shape"/>
</filter>
<filter id="filter3_d_858_11" x="34.5928" y="36.3926" width="84.248" height="40.4086" filterUnits="userSpaceOnUse" color-interpolation-filters="sRGB">
<feFlood flood-opacity="0" result="BackgroundImageFix"/>
<feColorMatrix in="SourceAlpha" type="matrix" values="0 0 0 0 0 0 0 0 0 0 0 0 0 0 0 0 0 0 127 0" result="hardAlpha"/>
<feOffset dy="9"/>
<feGaussianBlur stdDeviation="9.5"/>
<feComposite in2="hardAlpha" operator="out"/>
<feColorMatrix type="matrix" values="0 0 0 0 0 0 0 0 0 0 0 0 0 0 0 0 0 0 0.15 0"/>
<feBlend mode="normal" in2="BackgroundImageFix" result="effect1_dropShadow_858_11"/>
<feBlend mode="normal" in="SourceGraphic" in2="effect1_dropShadow_858_11" result="shape"/>
</filter>
<filter id="filter4_d_858_11" x="8.35059" y="14.1331" width="137.214" height="47.5569" filterUnits="userSpaceOnUse" color-interpolation-filters="sRGB">
<feFlood flood-opacity="0" result="BackgroundImageFix"/>
<feColorMatrix in="SourceAlpha" type="matrix" values="0 0 0 0 0 0 0 0 0 0 0 0 0 0 0 0 0 0 127 0" result="hardAlpha"/>
<feOffset dy="9"/>
<feGaussianBlur stdDeviation="9.5"/>
<feComposite in2="hardAlpha" operator="out"/>
<feColorMatrix type="matrix" values="0 0 0 0 0 0 0 0 0 0 0 0 0 0 0 0 0 0 0.15 0"/>
<feBlend mode="normal" in2="BackgroundImageFix" result="effect1_dropShadow_858_11"/>
<feBlend mode="normal" in="SourceGraphic" in2="effect1_dropShadow_858_11" result="shape"/>
</filter>
<filter id="filter5_d_858_11" x="0.193359" y="24.9449" width="154.413" height="41.9493" filterUnits="userSpaceOnUse" color-interpolation-filters="sRGB">
<feFlood flood-opacity="0" result="BackgroundImageFix"/>
<feColorMatrix in="SourceAlpha" type="matrix" values="0 0 0 0 0 0 0 0 0 0 0 0 0 0 0 0 0 0 127 0" result="hardAlpha"/>
<feOffset dy="9"/>
<feGaussianBlur stdDeviation="9.5"/>
<feComposite in2="hardAlpha" operator="out"/>
<feColorMatrix type="matrix" values="0 0 0 0 0 0 0 0 0 0 0 0 0 0 0 0 0 0 0.15 0"/>
<feBlend mode="normal" in2="BackgroundImageFix" result="effect1_dropShadow_858_11"/>
<feBlend mode="normal" in="SourceGraphic" in2="effect1_dropShadow_858_11" result="shape"/>
</filter>
<linearGradient id="paint0_linear_858_11" x1="66.2289" y1="34.8311" x2="60.6251" y2="137.339" gradientUnits="userSpaceOnUse">
<stop offset="0.107499" stop-color="#864DFF"/>
<stop offset="0.885131" stop-color="#1D147C" stop-opacity="0.19"/>
</linearGradient>
<linearGradient id="paint1_linear_858_11" x1="62.0043" y1="21.7696" x2="56.4005" y2="124.278" gradientUnits="userSpaceOnUse">
<stop offset="0.107499" stop-color="#864DFF"/>
<stop offset="0.885131" stop-color="#1D147C" stop-opacity="0.19"/>
</linearGradient>
<linearGradient id="paint2_linear_858_11" x1="81.0043" y1="21.7696" x2="75.4005" y2="124.278" gradientUnits="userSpaceOnUse">
<stop offset="0.107499" stop-color="#864DFF"/>
<stop offset="0.885131" stop-color="#1D147C" stop-opacity="0.19"/>
</linearGradient>
<linearGradient id="paint3_linear_858_11" x1="81.1476" y1="25.7695" x2="93.0555" y2="149.807" gradientUnits="userSpaceOnUse">
<stop offset="0.107499" stop-color="#864DFF"/>
<stop offset="0.885131" stop-color="#1D147C" stop-opacity="0.19"/>
</linearGradient>
<linearGradient id="paint4_linear_858_11" x1="72.6285" y1="46.1779" x2="64.2042" y2="171.942" gradientUnits="userSpaceOnUse">
<stop offset="0.078163" stop-color="#8354E7"/>
<stop offset="0.885131" stop-color="#1D147C" stop-opacity="0.19"/>
</linearGradient>
<linearGradient id="paint5_linear_858_11" x1="-16.4471" y1="56.3831" x2="29.1638" y2="-74.4173" gradientUnits="userSpaceOnUse">
<stop offset="0.443606" stop-color="#D3ECFF"/>
<stop offset="1" stop-color="#548EF7"/>
</linearGradient>
<linearGradient id="paint6_linear_858_11" x1="6.11027" y1="-15.3248" x2="24.2187" y2="98.897" gradientUnits="userSpaceOnUse">
<stop offset="0.593655" stop-color="#7229A8"/>
<stop offset="0.917805" stop-color="#D57EFF"/>
</linearGradient>
<linearGradient id="paint7_linear_858_11" x1="6.10957" y1="-31.7304" x2="27.779" y2="92.9269" gradientUnits="userSpaceOnUse">
<stop offset="0.593655" stop-color="#901BE7"/>
<stop offset="0.917805" stop-color="#D57EFF"/>
</linearGradient>
<linearGradient id="paint8_linear_858_11" x1="19.487" y1="21.5316" x2="22.1008" y2="60.933" gradientUnits="userSpaceOnUse">
<stop offset="0.376674" stop-color="#450674"/>
<stop offset="0.917805" stop-color="#D57EFF"/>
</linearGradient>
<linearGradient id="paint9_linear_858_11" x1="48.3785" y1="38.396" x2="49.5979" y2="57.2778" gradientUnits="userSpaceOnUse">
<stop offset="0.376674" stop-color="#450674"/>
<stop offset="0.917805" stop-color="#D57EFF"/>
</linearGradient>
<linearGradient id="paint10_linear_858_11" x1="58.289" y1="45.7334" x2="58.1939" y2="49.7632" gradientUnits="userSpaceOnUse">
<stop stop-color="#7DC6FD"/>
<stop offset="0.303" stop-color="#548EF7"/>
<stop offset="1" stop-color="#A728DA"/>
</linearGradient>
<linearGradient id="paint11_linear_858_11" x1="64.8404" y1="46.9856" x2="64.0463" y2="49.6505" gradientUnits="userSpaceOnUse">
<stop stop-color="#7DC6FD"/>
<stop offset="0.224325" stop-color="#548EF7" stop-opacity="0.28"/>
<stop offset="1" stop-color="#A728DA"/>
</linearGradient>
<linearGradient id="paint12_linear_858_11" x1="67.1762" y1="45.1903" x2="68.7538" y2="36.7875" gradientUnits="userSpaceOnUse">
<stop offset="0.443606" stop-color="#D3ECFF"/>
<stop offset="1" stop-color="#548EF7"/>
</linearGradient>
<linearGradient id="paint13_linear_858_11" x1="67.5481" y1="44.3182" x2="68.4651" y2="38.022" gradientUnits="userSpaceOnUse">
<stop offset="0.443606" stop-color="#D3ECFF"/>
<stop offset="1" stop-color="#548EF7"/>
</linearGradient>
<linearGradient id="paint14_linear_858_11" x1="90.7355" y1="45.4163" x2="92.7165" y2="38.003" gradientUnits="userSpaceOnUse">
<stop offset="0.443606" stop-color="#D3ECFF"/>
<stop offset="1" stop-color="#548EF7"/>
</linearGradient>
<linearGradient id="paint15_linear_858_11" x1="91.1821" y1="44.8348" x2="92.6581" y2="38.764" gradientUnits="userSpaceOnUse">
<stop offset="0.443606" stop-color="#D3ECFF"/>
<stop offset="1" stop-color="#548EF7"/>
</linearGradient>
<linearGradient id="paint16_linear_858_11" x1="104.798" y1="46.9087" x2="105.91" y2="41.8586" gradientUnits="userSpaceOnUse">
<stop offset="0.443606" stop-color="#D3ECFF"/>
<stop offset="1" stop-color="#548EF7"/>
</linearGradient>
<linearGradient id="paint17_linear_858_11" x1="105.155" y1="46.4726" x2="105.934" y2="42.4635" gradientUnits="userSpaceOnUse">
<stop offset="0.443606" stop-color="#D3ECFF"/>
<stop offset="1" stop-color="#548EF7"/>
</linearGradient>
<linearGradient id="paint18_linear_858_11" x1="52.8293" y1="45.3811" x2="54.8102" y2="37.9678" gradientUnits="userSpaceOnUse">
<stop offset="0.443606" stop-color="#D3ECFF"/>
<stop offset="1" stop-color="#548EF7"/>
</linearGradient>
<linearGradient id="paint19_linear_858_11" x1="53.8295" y1="44.7611" x2="55.3056" y2="38.6903" gradientUnits="userSpaceOnUse">
<stop offset="0.443606" stop-color="#D3ECFF"/>
<stop offset="1" stop-color="#548EF7"/>
</linearGradient>
<linearGradient id="paint20_linear_858_11" x1="38.95" y1="46.7979" x2="40.0623" y2="41.7478" gradientUnits="userSpaceOnUse">
<stop offset="0.443606" stop-color="#D3ECFF"/>
<stop offset="1" stop-color="#548EF7"/>
</linearGradient>
<linearGradient id="paint21_linear_858_11" x1="39.7496" y1="46.3618" x2="40.5283" y2="42.3526" gradientUnits="userSpaceOnUse">
<stop offset="0.443606" stop-color="#D3ECFF"/>
<stop offset="1" stop-color="#548EF7"/>
</linearGradient>
<linearGradient id="paint22_linear_858_11" x1="16.1647" y1="-7.596" x2="25.0246" y2="66.5776" gradientUnits="userSpaceOnUse">
<stop offset="0.376674" stop-color="#450674"/>
<stop offset="0.917805" stop-color="#D57EFF"/>
</linearGradient>
<linearGradient id="paint23_linear_858_11" x1="6.0683" y1="21.8331" x2="7.37385" y2="52.8672" gradientUnits="userSpaceOnUse">
<stop offset="0.593655" stop-color="#901BE7"/>
<stop offset="0.917805" stop-color="#D57EFF"/>
</linearGradient>
<linearGradient id="paint24_linear_858_11" x1="15.1227" y1="30.3413" x2="19.6151" y2="-5.04591" gradientUnits="userSpaceOnUse">
<stop offset="0.443606" stop-color="#D3ECFF"/>
<stop offset="1" stop-color="#548EF7"/>
</linearGradient>
<radialGradient id="paint25_radial_858_11" cx="0" cy="0" r="1" gradientUnits="userSpaceOnUse" gradientTransform="translate(75.2424 20.9064) scale(18.9266 28.5452)">
<stop offset="0.0223464" stop-color="#725EB0"/>
<stop offset="0.3834" stop-color="#6D52AA"/>
<stop offset="0.9944" stop-color="#61349C"/>
</radialGradient>
<linearGradient id="paint26_linear_858_11" x1="74.8718" y1="37.1924" x2="78.0824" y2="32.6574" gradientUnits="userSpaceOnUse">
<stop offset="0.443606" stop-color="#D3ECFF"/>
<stop offset="1" stop-color="#548EF7"/>
</linearGradient>
<linearGradient id="paint27_linear_858_11" x1="75.354" y1="36.7587" x2="77.8565" y2="33.2468" gradientUnits="userSpaceOnUse">
<stop offset="0.443606" stop-color="#D3ECFF"/>
<stop offset="1" stop-color="#548EF7"/>
</linearGradient>
<linearGradient id="paint28_linear_858_11" x1="122.781" y1="38.9639" x2="125.992" y2="34.4289" gradientUnits="userSpaceOnUse">
<stop offset="0.443606" stop-color="#D3ECFF"/>
<stop offset="1" stop-color="#548EF7"/>
</linearGradient>
<linearGradient id="paint29_linear_858_11" x1="123.263" y1="38.5302" x2="125.766" y2="35.0183" gradientUnits="userSpaceOnUse">
<stop offset="0.443606" stop-color="#D3ECFF"/>
<stop offset="1" stop-color="#548EF7"/>
</linearGradient>
<linearGradient id="paint30_linear_858_11" x1="29.3259" y1="38.9639" x2="32.5365" y2="34.4289" gradientUnits="userSpaceOnUse">
<stop offset="0.443606" stop-color="#D3ECFF"/>
<stop offset="1" stop-color="#548EF7"/>
</linearGradient>
<linearGradient id="paint31_linear_858_11" x1="29.8453" y1="38.5302" x2="32.3478" y2="35.0183" gradientUnits="userSpaceOnUse">
<stop offset="0.443606" stop-color="#D3ECFF"/>
<stop offset="1" stop-color="#548EF7"/>
</linearGradient>
</defs>
</svg>
