<svg width="181" height="173" viewBox="0 0 181 173" fill="none" xmlns="http://www.w3.org/2000/svg">
<g opacity="0.3">
<path opacity="0.2" d="M90.7178 173C140.546 173 180.94 134.273 180.94 86.5003C180.94 38.7277 140.546 0.000488281 90.7178 0.000488281C40.8892 0.000488281 0.495117 38.7277 0.495117 86.5003C0.495117 134.273 40.8892 173 90.7178 173Z" fill="url(#paint0_linear_165_3583)"/>
<path opacity="0.2" d="M90.7178 173C140.546 173 180.94 134.273 180.94 86.5003C180.94 38.7277 140.546 0.000488281 90.7178 0.000488281C40.8892 0.000488281 0.495117 38.7277 0.495117 86.5003C0.495117 134.273 40.8892 173 90.7178 173Z" fill="url(#paint1_linear_165_3583)"/>
<path opacity="0.2" d="M90.7179 138.489C140.482 138.489 180.825 116.159 180.825 88.6149C180.825 61.0704 140.482 38.7411 90.7179 38.7411C40.9534 38.7411 0.611328 61.0704 0.611328 88.6149C0.611328 116.159 40.9534 138.489 90.7179 138.489Z" fill="url(#paint2_linear_165_3583)"/>
<path opacity="0.2" d="M161.782 70.3575C151.215 107.985 110.923 146.727 71.6751 156.746C32.4276 166.765 9.08815 144.5 19.6548 106.872C30.2214 69.2443 70.5139 30.5031 109.761 20.4838C149.009 10.4645 172.348 32.7296 161.782 70.3575Z" fill="url(#paint3_linear_165_3583)"/>
<path opacity="0.2" d="M109.761 156.857C70.5139 146.727 30.1053 108.097 19.6548 70.4688C9.08816 32.8409 32.4276 10.4645 71.6751 20.5951C110.923 30.7257 151.331 69.3556 161.782 106.984C172.232 144.612 149.009 166.877 109.761 156.857Z" fill="url(#paint4_linear_165_3583)"/>
<path opacity="0.2" d="M90.7176 172.777C119.448 172.777 142.738 134.099 142.738 86.3885C142.738 38.6774 119.448 0 90.7176 0C61.9875 0 38.6973 38.6774 38.6973 86.3885C38.6973 134.099 61.9875 172.777 90.7176 172.777Z" fill="url(#paint5_linear_165_3583)"/>
</g>
<defs>
<linearGradient id="paint0_linear_165_3583" x1="193.58" y1="94.332" x2="146.57" y2="-39.9392" gradientUnits="userSpaceOnUse">
<stop offset="0.0416667" stop-color="#0129B4"/>
<stop offset="0.358336" stop-color="#7628DA"/>
<stop offset="0.733513" stop-color="#8C95FF"/>
</linearGradient>
<linearGradient id="paint1_linear_165_3583" x1="193.58" y1="94.332" x2="146.57" y2="-39.9392" gradientUnits="userSpaceOnUse">
<stop offset="0.0416667" stop-color="#4E9CDB"/>
<stop offset="0.46875" stop-color="#5761D7"/>
<stop offset="0.9999" stop-color="#7628DA"/>
</linearGradient>
<linearGradient id="paint2_linear_165_3583" x1="193.447" y1="93.1305" x2="176.571" y2="9.63455" gradientUnits="userSpaceOnUse">
<stop offset="0.0416667" stop-color="#4E9CDB"/>
<stop offset="0.46875" stop-color="#5761D7"/>
<stop offset="0.9999" stop-color="#7628DA"/>
</linearGradient>
<linearGradient id="paint3_linear_165_3583" x1="174.635" y1="95.0007" x2="136.321" y2="-14.4948" gradientUnits="userSpaceOnUse">
<stop offset="0.0416667" stop-color="#4E9CDB"/>
<stop offset="0.46875" stop-color="#5761D7"/>
<stop offset="0.9999" stop-color="#7628DA"/>
</linearGradient>
<linearGradient id="paint4_linear_165_3583" x1="174.593" y1="95.0947" x2="136.252" y2="-14.4175" gradientUnits="userSpaceOnUse">
<stop offset="0.0416667" stop-color="#4E9CDB"/>
<stop offset="0.46875" stop-color="#5761D7"/>
<stop offset="0.9999" stop-color="#7628DA"/>
</linearGradient>
<linearGradient id="paint5_linear_165_3583" x1="150.025" y1="94.2101" x2="83.2814" y2="-15.8495" gradientUnits="userSpaceOnUse">
<stop offset="0.0416667" stop-color="#4E9CDB"/>
<stop offset="0.46875" stop-color="#5761D7"/>
<stop offset="0.9999" stop-color="#7628DA"/>
</linearGradient>
</defs>
</svg>
