<?xml version="1.0" encoding="utf-8"?>
<!-- Generator: Adobe Illustrator 23.0.5, SVG Export Plug-In . SVG Version: 6.00 Build 0)  -->
<svg version="1.1" id="Слой_1" xmlns="http://www.w3.org/2000/svg" xmlns:xlink="http://www.w3.org/1999/xlink" x="0px" y="0px"
	 viewBox="0 0 40 47" enable-background="new 0 0 40 47" xml:space="preserve">
<path fill="#A547DE" d="M35.2,20.1c-0.5,0-0.9-0.4-0.9-0.9c0-0.6-0.7-1.3-2-2c-1.5-0.8-3.6-1.4-6.1-1.7c-0.5-0.1-0.8-0.5-0.8-1
	c0.1-0.5,0.5-0.9,1-0.8c2.7,0.4,5,1,6.7,1.9c2.5,1.3,3,2.7,3,3.6C36.1,19.7,35.7,20.1,35.2,20.1z"/>
<path fill="#6D05AC" d="M31.8,21.5l-2.2-1c-0.4-0.2-1,0-1.2,0.5c-0.2,0.5,0,1,0.5,1.2l0.1,0c-2.3,0.6-5.2,0.9-8.1,0.9
	c-3.7,0-7.2-0.5-9.8-1.4c-2.6-0.9-3.6-2-3.6-2.6c0-0.6,0.7-1.3,2-2c1.5-0.8,3.6-1.4,6.1-1.7c0.5-0.1,0.8-0.5,0.8-1
	c-0.1-0.5-0.5-0.9-1-0.8c-2.7,0.4-5,1-6.7,1.9c-2.5,1.3-3,2.7-3,3.6c0,1.2,0.8,3,4.8,4.4c2.8,1,6.5,1.5,10.4,1.5
	c3.2,0,6.3-0.4,8.9-1l-0.1,0.3c-0.2,0.5,0,1,0.5,1.2c0.1,0.1,0.2,0.1,0.4,0.1c0.3,0,0.7-0.2,0.8-0.6l0.9-2.3
	C32.5,22.3,32.3,21.7,31.8,21.5z"/>
<path fill="#A547DE" d="M31.8,21.5l-2.2-1c-0.4-0.2-1,0-1.2,0.5c-0.2,0.5,0,1,0.5,1.2l0.1,0c-2.3,0.6-5.2,0.9-8.1,0.9V25
	c3.2,0,6.3-0.4,8.9-1l-0.1,0.3c-0.2,0.5,0,1,0.5,1.2c0.1,0.1,0.2,0.1,0.4,0.1c0.3,0,0.7-0.2,0.8-0.6l0.9-2.3
	C32.5,22.3,32.3,21.7,31.8,21.5z"/>
<path fill="#6D05AC" d="M27.1,9.6l-6.1,4l-6.1-4C15,9.3,15.2,9.1,15.4,9l5-2.6c0.4-0.2,0.8-0.2,1.1,0l5,2.6
	C26.8,9.1,27,9.3,27.1,9.6z"/>
<path fill="#6D05AC" d="M26.5,9l-5-2.6c-0.2-0.1-0.4-0.1-0.6-0.1v7.4l6.1-4C27,9.3,26.8,9.1,26.5,9z"/>
<path fill="#9212DF" d="M27.1,9.6l-5.6,2.9c-0.4,0.2-0.8,0.2-1.1,0l-5.6-2.9c-0.1,0.2-0.1,0.4-0.1,0.6v6.5c0,0.5,0.3,0.9,0.7,1.2
	l5,2.6c0.2,0.1,0.4,0.1,0.6,0.1c0.2,0,0.4,0,0.6-0.1l5-2.6c0.4-0.2,0.7-0.7,0.7-1.2v-6.5C27.2,9.9,27.2,9.7,27.1,9.6z"/>
<path fill="#9212DF" d="M21.5,20.4l5-2.6c0.4-0.2,0.7-0.7,0.7-1.2v-6.5c0-0.2,0-0.4-0.1-0.6l-5.6,2.9c-0.2,0.1-0.4,0.1-0.6,0.1v7.9
	C21.2,20.5,21.3,20.5,21.5,20.4z"/>
</svg>
