<?xml version="1.0" encoding="utf-8"?>
<!-- Generator: Adobe Illustrator 23.0.5, SVG Export Plug-In . SVG Version: 6.00 Build 0)  -->
<svg version="1.1" id="Слой_1" xmlns="http://www.w3.org/2000/svg" xmlns:xlink="http://www.w3.org/1999/xlink" x="0px" y="0px"
	 viewBox="0 0 40 47" enable-background="new 0 0 40 47" xml:space="preserve">
<path fill="#385A81" d="M31.6,21.1L21.3,16c-0.2-0.1-0.4-0.1-0.6,0l-10.4,5.2c-0.2,0.1-0.4,0.3-0.4,0.6c0,0.2,0.1,0.5,0.4,0.6
	l10.4,5.2c0.1,0,0.2,0.1,0.3,0.1c0.1,0,0.2,0,0.3-0.1l10.4-5.2c0.2-0.1,0.4-0.3,0.4-0.6C32,21.5,31.8,21.2,31.6,21.1z"/>
<path fill="#274265" d="M31.6,21.1L21.3,16c-0.1,0-0.2-0.1-0.3-0.1v11.6c0,0,0,0,0,0c0.1,0,0.2,0,0.3-0.1l10.4-5.2
	c0.2-0.1,0.4-0.3,0.4-0.6C32,21.5,31.8,21.2,31.6,21.1z"/>
<path fill="#EDF6FC" d="M31.6,16l-10.4-5.2c-0.2-0.1-0.4-0.1-0.6,0L10.3,16c-0.2,0.1-0.4,0.3-0.4,0.6c0,0.2,0.1,0.5,0.4,0.6
	l10.4,5.2c0.1,0,0.2,0.1,0.3,0.1c0.1,0,0.2,0,0.3-0.1l10.4-5.2c0.2-0.1,0.4-0.3,0.4-0.6C32,16.3,31.8,16.1,31.6,16z"/>
<path fill="#D2E1FE" d="M31.6,16l-10.4-5.2c-0.1,0-0.2-0.1-0.3-0.1v11.6c0,0,0,0,0,0c0.1,0,0.2,0,0.3-0.1l10.4-5.2
	c0.2-0.1,0.4-0.3,0.4-0.6C32,16.3,31.8,16.1,31.6,16z"/>
<g>
	<path fill="#389FFE" d="M31.6,10.8L21.3,5.6c-0.2-0.1-0.4-0.1-0.6,0l-10.4,5.2c-0.2,0.1-0.4,0.3-0.4,0.6c0,0.2,0.1,0.5,0.4,0.6
		l10.4,5.2c0.1,0,0.2,0.1,0.3,0.1c0.1,0,0.2,0,0.3-0.1l10.4-5.2c0.2-0.1,0.4-0.3,0.4-0.6C32,11.1,31.8,10.9,31.6,10.8z"/>
</g>
<g>
	<path fill="#389FFE" d="M31.6,10.8L21.3,5.6c-0.1,0-0.2-0.1-0.3-0.1v11.6c0,0,0,0,0,0c0.1,0,0.2,0,0.3-0.1l10.4-5.2
		c0.2-0.1,0.4-0.3,0.4-0.6C32,11.1,31.8,10.9,31.6,10.8z"/>
</g>
</svg>
