<?xml version="1.0" encoding="utf-8"?>
<!-- Generator: Adobe Illustrator 23.0.5, SVG Export Plug-In . SVG Version: 6.00 Build 0)  -->
<svg version="1.1" id="Слой_1" xmlns="http://www.w3.org/2000/svg" xmlns:xlink="http://www.w3.org/1999/xlink" x="0px" y="0px"
	 viewBox="0 0 40 47" enable-background="new 0 0 40 47" xml:space="preserve">
<g>
	<path fill="#AD33F8" d="M27.2,5.1v19.1l-1.6,1.5H14.4l-1.6-1.5V5.1c0-0.8,0.7-1.5,1.6-1.5h11.3C26.5,3.6,27.2,4.3,27.2,5.1z"/>
</g>
<path fill="#6D05AC" d="M20,10.5c2.9,0,5.2,2.2,5.2,5s-2.3,5-5.2,5c-2.9,0-5.2-2.2-5.2-5S17.1,10.5,20,10.5z"/>
<path fill="#C47EB8" d="M20,12v3.8l-2-0.4L20,12z"/>
<path fill="#620774" d="M22,15.4l-2,3.4v-3.1L22,15.4z"/>
<path fill="#9D2888" d="M20,15.8v3.1l-2-3.4L20,15.8z"/>
<path fill="#9D2888" d="M20,12l2,3.4l-2,0.4V12z"/>
<path fill="#6D05AC" d="M27.2,24.2v1.5c0,0.8-0.7,1.5-1.6,1.5H14.4c-0.9,0-1.6-0.7-1.6-1.5v-1.5l1.6,1.5h11.3L27.2,24.2z"/>
<path fill="#6D05AC" d="M13.9,5v0.7c0,0.3,0.4,0.5,0.7,0.3l0.7-0.7C15.6,5,15.4,4.6,15,4.6l-0.7,0C14.1,4.6,13.9,4.8,13.9,5z"/>
</svg>
