<svg width="421" height="196" viewBox="0 0 421 196" fill="none" xmlns="http://www.w3.org/2000/svg"><path d="M3.252 79.737a2.358 2.358 0 110-4.717 2.358 2.358 0 010 4.717z" fill="#fff"/><path opacity=".5" d="M256.401 15.113a2.358 2.358 0 110-4.717 2.358 2.358 0 010 4.717z" fill="#fff"/><path d="M352.943 43.416a2.358 2.358 0 110-4.717 2.358 2.358 0 010 4.717zm-215.255 79.403c0 1.258 1.101 2.359 2.359 2.359s2.358-1.101 2.358-2.359c0-1.257-1.1-2.358-2.358-2.358s-2.359 1.101-2.359 2.358z" fill="#fff"/><path opacity=".5" d="M78.567 43.887a2.359 2.359 0 110-4.717 2.359 2.359 0 010 4.717z" fill="#fff"/><path d="M43.19 182.097a2.358 2.358 0 110-4.717 2.358 2.358 0 010 4.717z" fill="#fff"/><path opacity=".5" d="M116.147 12.755a2.358 2.358 0 110-4.717 2.358 2.358 0 010 4.717z" fill="#fff"/><path d="M313.006 88.542c0 .943.786 1.572 1.572 1.572.943 0 1.572-.786 1.572-1.572 0-.944-.786-1.572-1.572-1.572-.943-.158-1.572.629-1.572 1.572z" fill="#fff"/><path opacity=".5" d="M74.48 127.379c0 .629.471 1.101 1.1 1.101.629 0 1.1-.472 1.1-1.101s-.471-1.1-1.1-1.1c-.629 0-1.1.471-1.1 1.1z" fill="#fff"/><path d="M418.039 194.047c0 .629.472 1.101 1.101 1.101s1.1-.472 1.1-1.101-.471-1.101-1.1-1.101c-.629.158-1.101.629-1.101 1.101zm-364-170.129a1.1 1.1 0 110-2.2 1.1 1.1 0 010 2.2zm129.09-1.729c0 .314.314.629.629.629.314 0 .629-.315.629-.63 0-.314-.315-.628-.629-.628-.315 0-.629.314-.629.629zM335.176 1.12c0 .314.314.628.629.628.314 0 .629-.314.629-.629 0-.314-.315-.629-.629-.629-.315 0-.629.157-.629.63z" fill="#fff"/><path opacity=".5" d="M332.503 7.566c0 .314.314.629.629.629.314 0 .629-.315.629-.63 0-.314-.315-.628-.629-.628-.315 0-.629.314-.629.629z" fill="#fff"/><path d="M399.957 20.302c0 .314.314.629.629.629.314 0 .629-.315.629-.63 0-.314-.315-.628-.629-.628-.315 0-.629.314-.629.629zM19.604 101.75a1.572 1.572 0 110-3.144 1.572 1.572 0 010 3.144zM80.77 25.49c0 .944.785 1.573 1.572 1.573.943 0 1.572-.786 1.572-1.572 0-.944-.786-1.572-1.572-1.572-.787 0-1.573.786-1.573 1.572z" fill="#fff"/></svg>