<svg width="236" height="36" viewBox="0 0 236 36" fill="none" xmlns="http://www.w3.org/2000/svg">
<path d="M63.5936 26H56.8686V9.125H63.5936C66.0602 9.125 68.1352 9.94167 69.8186 11.575C71.5019 13.2083 72.3436 15.2083 72.3436 17.575C72.3436 19.9417 71.5019 21.9417 69.8186 23.575C68.1519 25.1917 66.0769 26 63.5936 26ZM63.5936 11.45H59.3686V23.675H63.5936C65.3436 23.675 66.8019 23.0917 67.9686 21.925C69.1519 20.7417 69.7436 19.2917 69.7436 17.575C69.7436 15.8417 69.1519 14.3833 67.9686 13.2C66.8019 12.0333 65.3436 11.45 63.5936 11.45ZM85.8814 21.2H76.5814C76.7648 22.0667 77.1898 22.7833 77.8564 23.35C78.5398 23.9 79.3481 24.175 80.2814 24.175C81.5314 24.175 82.5231 23.7083 83.2564 22.775L85.4564 23.45C84.9564 24.3167 84.2398 25.0083 83.3064 25.525C82.3898 26.0417 81.3814 26.3 80.2814 26.3C78.5814 26.3 77.1481 25.7333 75.9814 24.6C74.8314 23.4667 74.2564 22.0583 74.2564 20.375C74.2564 18.675 74.8148 17.2667 75.9314 16.15C77.0648 15.0167 78.4564 14.45 80.1064 14.45C81.7398 14.45 83.1231 15.0167 84.2564 16.15C85.3731 17.2667 85.9314 18.675 85.9314 20.375C85.9314 20.6917 85.9148 20.9667 85.8814 21.2ZM76.6064 19.4H83.6064C83.4064 18.55 82.9814 17.8667 82.3314 17.35C81.6814 16.8333 80.9231 16.575 80.0564 16.575C79.2231 16.575 78.4814 16.8417 77.8314 17.375C77.1981 17.8917 76.7898 18.5667 76.6064 19.4ZM90.3121 26H88.0621V14.75H90.3121V16.175C91.0788 15.025 92.2204 14.45 93.7371 14.45C94.5204 14.45 95.2288 14.6333 95.8621 15C96.5121 15.35 97.0204 15.8333 97.3871 16.45C98.1704 15.1167 99.4288 14.45 101.162 14.45C102.445 14.45 103.512 14.85 104.362 15.65C105.212 16.45 105.637 17.45 105.637 18.65V26H103.387V19.275C103.387 18.525 103.137 17.9 102.637 17.4C102.137 16.8833 101.504 16.625 100.737 16.625C99.9538 16.625 99.2954 16.8833 98.7621 17.4C98.2454 17.9 97.9871 18.5333 97.9871 19.3V26H95.7121V19.275C95.7121 18.525 95.4621 17.9 94.9621 17.4C94.4621 16.8833 93.8371 16.625 93.0871 16.625C92.3038 16.625 91.6454 16.8833 91.1121 17.4C90.5788 17.9 90.3121 18.5333 90.3121 19.3V26ZM109.598 24.6C108.482 23.4833 107.923 22.075 107.923 20.375C107.923 18.675 108.482 17.2667 109.598 16.15C110.732 15.0167 112.14 14.45 113.823 14.45C115.507 14.45 116.915 15.0167 118.048 16.15C119.182 17.2833 119.748 18.6917 119.748 20.375C119.748 22.0583 119.182 23.4667 118.048 24.6C116.915 25.7333 115.507 26.3 113.823 26.3C112.14 26.3 110.732 25.7333 109.598 24.6ZM111.273 17.775C110.607 18.4583 110.273 19.325 110.273 20.375C110.273 21.425 110.607 22.2917 111.273 22.975C111.94 23.675 112.79 24.025 113.823 24.025C114.823 24.025 115.665 23.675 116.348 22.975C117.032 22.2583 117.373 21.3917 117.373 20.375C117.373 19.3583 117.032 18.4917 116.348 17.775C115.665 17.075 114.823 16.725 113.823 16.725C112.79 16.725 111.94 17.075 111.273 17.775ZM124.272 26H122.022V7.875H124.272V26ZM127.051 21.85V14.75H129.326V21.225C129.326 22.0583 129.601 22.75 130.151 23.3C130.701 23.85 131.384 24.125 132.201 24.125C133.067 24.125 133.784 23.8417 134.351 23.275C134.934 22.6917 135.226 22 135.226 21.2V14.75H137.476V26H135.226V24.375C134.376 25.6583 133.151 26.3 131.551 26.3C130.251 26.3 129.176 25.875 128.326 25.025C127.476 24.175 127.051 23.1167 127.051 21.85ZM139.184 16.75V14.75H140.884V12.5H143.159V14.75H146.209V16.75H143.159V22.275C143.159 22.7083 143.3 23.075 143.584 23.375C143.867 23.675 144.217 23.825 144.634 23.825H146.209V26H144.484C143.467 26 142.609 25.675 141.909 25.025C141.225 24.3417 140.884 23.5167 140.884 22.55V16.75H139.184ZM150.566 26H148.316V14.75H150.566V26ZM149.441 9.65C149.858 9.65 150.208 9.79167 150.491 10.075C150.774 10.3583 150.916 10.7083 150.916 11.125C150.916 11.7917 150.608 12.25 149.991 12.5C149.374 12.75 148.833 12.65 148.366 12.2C147.916 11.7333 147.816 11.1917 148.066 10.575C148.316 9.95833 148.774 9.65 149.441 9.65ZM154.545 24.6C153.428 23.4833 152.87 22.075 152.87 20.375C152.87 18.675 153.428 17.2667 154.545 16.15C155.678 15.0167 157.086 14.45 158.77 14.45C160.453 14.45 161.861 15.0167 162.995 16.15C164.128 17.2833 164.695 18.6917 164.695 20.375C164.695 22.0583 164.128 23.4667 162.995 24.6C161.861 25.7333 160.453 26.3 158.77 26.3C157.086 26.3 155.678 25.7333 154.545 24.6ZM156.22 17.775C155.553 18.4583 155.22 19.325 155.22 20.375C155.22 21.425 155.553 22.2917 156.22 22.975C156.886 23.675 157.736 24.025 158.77 24.025C159.77 24.025 160.611 23.675 161.295 22.975C161.978 22.2583 162.32 21.3917 162.32 20.375C162.32 19.3583 161.978 18.4917 161.295 17.775C160.611 17.075 159.77 16.725 158.77 16.725C157.736 16.725 156.886 17.075 156.22 17.775ZM166.968 26V14.75H169.218V16.375C170.068 15.0917 171.293 14.45 172.893 14.45C174.193 14.45 175.268 14.875 176.118 15.725C176.968 16.5417 177.393 17.5917 177.393 18.875V26H175.118V19.525C175.118 18.6917 174.843 18 174.293 17.45C173.743 16.9 173.06 16.625 172.243 16.625C171.393 16.625 170.677 16.9083 170.093 17.475C169.51 18.025 169.218 18.7167 169.218 19.55V26H166.968ZM186.323 17.575C186.323 15.075 187.156 12.9917 188.823 11.325C190.49 9.65833 192.565 8.825 195.048 8.825C196.731 8.825 198.256 9.225 199.623 10.025C200.99 10.825 202.031 11.925 202.748 13.325L200.348 14.25C199.798 13.3 199.056 12.5583 198.123 12.025C197.206 11.4917 196.181 11.225 195.048 11.225C193.281 11.225 191.815 11.8333 190.648 13.05C189.481 14.2333 188.898 15.7417 188.898 17.575C188.898 19.375 189.481 20.8833 190.648 22.1C191.831 23.3 193.298 23.9 195.048 23.9C196.181 23.9 197.206 23.6333 198.123 23.1C199.056 22.5667 199.798 21.825 200.348 20.875L202.748 21.8C202.031 23.2 200.99 24.3 199.623 25.1C198.256 25.9 196.731 26.3 195.048 26.3C192.565 26.3 190.49 25.4667 188.823 23.8C187.156 22.1333 186.323 20.0583 186.323 17.575ZM207.451 26H205.201V7.875H207.451V26ZM210.229 21.85V14.75H212.504V21.225C212.504 22.0583 212.779 22.75 213.329 23.3C213.879 23.85 214.563 24.125 215.379 24.125C216.246 24.125 216.963 23.8417 217.529 23.275C218.113 22.6917 218.404 22 218.404 21.2V14.75H220.654V26H218.404V24.375C217.554 25.6583 216.329 26.3 214.729 26.3C213.429 26.3 212.354 25.875 211.504 25.025C210.654 24.175 210.229 23.1167 210.229 21.85ZM223.463 26V7.875H225.713V15.925C226.746 14.9417 227.988 14.45 229.438 14.45C231.004 14.45 232.313 15.0167 233.363 16.15C234.429 17.2667 234.963 18.675 234.963 20.375C234.963 22.075 234.429 23.4833 233.363 24.6C232.313 25.7333 231.004 26.3 229.438 26.3C227.988 26.3 226.746 25.8083 225.713 24.825V26H223.463ZM231.613 17.775C230.963 17.075 230.154 16.725 229.188 16.725C228.238 16.725 227.421 17.075 226.738 17.775C226.088 18.475 225.763 19.3417 225.763 20.375C225.763 21.4083 226.088 22.275 226.738 22.975C227.421 23.675 228.238 24.025 229.188 24.025C230.154 24.025 230.963 23.675 231.613 22.975C232.279 22.2917 232.613 21.425 232.613 20.375C232.613 19.325 232.279 18.4583 231.613 17.775Z" fill="white"/>
<g clip-path="url(#clip0_240_11048)">
<path d="M38.1392 21.8629C38.2729 21.4398 38.4895 20.8245 38.7189 20.1247C38.7471 20.1494 38.7784 20.1711 38.8155 20.1865C39.555 20.491 40.857 19.7899 41.7881 18.9375C42.72 18.0845 43 15.3741 43 15.3741C41.1279 15.5353 40.0177 16.5755 39.5231 17.1802C39.6176 16.6805 39.6764 16.2055 39.6764 15.7873C39.6764 15.5563 39.672 15.3135 39.6643 15.0634C39.7128 15.1017 39.7691 15.127 39.8349 15.135C40.6262 15.2283 41.7032 14.1999 42.3839 13.1244C43.0646 12.049 42.6421 9.35843 42.6421 9.35843C40.1321 10.301 39.562 12.5444 39.562 12.5444C39.562 12.5444 39.5403 12.6501 39.5128 12.8169C39.4188 11.9058 39.2872 11.0317 39.128 10.3504C39.9174 10.2442 40.724 8.98408 41.1362 7.77529C41.5498 6.56463 40.5188 4.05373 40.5188 4.05373C38.2978 5.58248 38.2613 7.90129 38.2613 7.90129C38.2613 7.90129 38.2639 7.99271 38.2735 8.1397C37.9476 7.41088 37.5602 6.56402 37.2074 5.85365C37.8318 5.51824 38.1444 4.22668 38.1444 3.09446C38.1444 1.95544 36.5637 0.165385 36.5637 0.165385C35.5852 1.50824 35.5788 2.85109 35.6703 3.55896C35.4485 3.27235 35.2228 2.99131 35.0119 2.80538C34.6041 1.76211 33.5847 0.0517305 30.7143 0.165385C30.7143 0.165385 31.5049 4.07102 34.6668 4.07102L34.8668 3.9308C35.0151 4.09758 35.2503 4.36689 35.5245 4.69736C35.4625 4.67265 35.3986 4.64918 35.329 4.63126C34.5581 4.4299 32.8535 4.18282 31.7273 4.9469C31.7273 4.9469 33.3527 6.99206 35.0643 7.07608C36.2985 7.13662 36.7971 6.82651 36.9805 6.64803C37.3883 7.28483 37.6861 7.89079 37.6861 8.30216C37.6861 8.30652 37.6861 8.31022 37.6861 8.31453C37.5685 8.20085 37.4234 8.09341 37.2426 8.00878C36.5171 7.66906 34.8796 7.11253 33.6442 7.65791C33.6442 7.65791 34.9039 9.96992 36.5753 10.3671C37.6267 10.6167 38.1744 10.4857 38.4371 10.3542C38.6039 10.928 38.7746 11.7272 38.6813 12.3709V12.3715C38.5969 12.2412 38.4851 12.1115 38.3342 11.9953C37.6791 11.49 36.1304 10.5623 34.6431 10.8378C34.6431 10.8378 35.2132 13.4537 36.8507 14.2277C37.7788 14.6662 38.3757 14.7014 38.7196 14.6501C38.7503 15.1109 38.827 16.4124 38.7759 17.3643C38.7363 17.2315 38.6774 17.0956 38.5918 16.9621C38.1469 16.2679 37.0195 14.9028 35.6012 14.7959C35.6012 14.7959 35.3616 17.6478 36.6136 18.8776C37.2879 19.5404 37.7973 19.7467 38.1252 19.7973C37.8683 20.4848 37.5698 21.2378 37.316 21.8641C37.3071 21.8135 37.2956 21.7616 37.2815 21.7085C37.0585 20.8734 36.3854 19.1117 35.0995 18.3414C35.0995 18.3414 34.0986 20.7887 34.9237 22.4886C35.3673 23.4015 35.7827 23.8308 36.0723 24.0328L34.8803 25.4226C34.8796 25.3843 34.879 25.346 34.8751 25.3059C34.7985 24.4609 34.4124 22.6393 33.1469 21.6553C33.1469 21.6553 31.5413 23.8185 32.1083 25.6091C32.4406 26.6586 32.8535 27.1478 33.1386 27.3739L31.0204 29.1238C31.1342 28.9595 31.232 28.7612 31.2806 28.5234C31.4557 27.6741 31.6027 25.8136 30.5807 24.6628C30.5807 24.6628 28.2561 26.5894 28.3073 28.4443C28.3424 29.7279 28.7297 30.2523 28.9655 30.4543C28.3418 30.7866 27.5933 31.1844 26.981 31.5062C26.9867 31.4951 26.9938 31.4846 26.9995 31.4729C27.376 30.6995 27.973 28.9403 27.2661 27.553C27.2661 27.553 24.5491 28.7884 24.1451 30.5951C23.908 31.6557 24.0493 32.2542 24.2065 32.5699C23.3692 32.7892 22.3651 33.0399 21.4856 33.2759C20.6317 33.0566 19.7286 32.8336 19.0019 32.6421C18.9999 32.639 18.998 32.6366 18.9955 32.6335C19.1412 32.5223 19.6883 31.988 19.3834 30.4067C19.0338 28.5926 16.1596 27.2336 16.1596 27.2336C15.3306 28.5772 15.8905 30.3536 16.2599 31.1399C16.6294 31.9262 17.5344 32.1047 17.5344 32.1047L17.7166 32.1752C17.6334 32.1647 17.5504 32.156 17.4692 32.1486C16.8793 31.8527 15.3926 31.075 14.3502 30.5278C14.6135 30.34 15.0596 29.8391 15.1593 28.5623C15.3031 26.7222 12.8859 24.6962 12.8859 24.6962C11.7277 25.7895 11.7974 27.6451 11.9457 28.4968C11.9853 28.7241 12.0741 28.9187 12.1815 29.0824L10.1445 27.4245C10.3849 27.2936 10.8514 26.8908 11.2145 25.6703C11.7258 23.95 10.2948 21.6906 10.2948 21.6906C9.16027 22.5608 8.81065 24.3262 8.74036 25.1533C8.70904 25.5221 8.80173 25.8241 8.91486 26.0458L7.04728 23.9006C7.33548 23.7579 7.79632 23.3867 8.29613 22.4243C9.12704 20.8245 8.15232 18.3488 8.15232 18.3488C6.87087 19.0018 6.19078 20.6744 5.96325 21.4744C5.93963 21.5578 5.92492 21.6374 5.91468 21.7159C5.59828 20.9394 5.2391 20.0339 4.97769 19.3038C5.30046 19.2797 5.87247 19.1117 6.72 18.41C8.12679 17.2457 8.21879 14.5983 8.21879 14.5983C6.77627 14.7212 5.47878 16.0097 4.94893 16.6626C4.6383 17.0455 4.57311 17.4458 4.57183 17.712C4.48043 16.5409 4.62871 14.6433 4.62871 14.6433C4.62871 14.6433 4.62999 14.6372 4.63127 14.6285C4.98088 14.6353 5.5152 14.5495 6.29945 14.1974C7.97915 13.4426 8.80682 10.9175 8.80682 10.9175C7.38278 10.6599 5.77469 11.5623 5.0825 12.0527C4.8914 12.188 4.75271 12.3413 4.65044 12.4926C4.55457 11.7439 4.80576 10.8001 4.98919 10.243C5.02946 10.2071 5.06717 10.1639 5.10232 10.1139C5.38737 10.2541 5.97031 10.3986 7.08943 10.2065C8.91294 9.89336 10.3836 7.65791 10.3836 7.65791C9.07592 7.0557 7.28181 7.52882 6.48222 7.83152C6.07383 7.98592 5.8188 8.24349 5.66671 8.45843C5.67181 7.97111 6.09363 7.21506 6.62221 6.45774C6.7871 6.63627 7.29524 7.00256 8.69688 7.00256C10.5491 7.00256 12.4014 5.05005 12.4014 5.05005C11.2228 4.23656 9.37055 4.39901 8.52881 4.56208C8.27824 4.61026 8.0737 4.70229 7.90818 4.8073C8.35878 4.27548 8.69752 3.91104 8.69752 3.91104C12.0652 3.91104 12.907 0.00540379 12.907 0.00540379C9.12449 -0.135429 8.35878 2.51692 8.11208 3.24085C7.89666 3.48113 7.67492 3.77453 7.46331 4.04199C7.49915 3.95984 7.51831 3.91042 7.51831 3.91042C7.51831 3.91042 8.19198 1.95791 6.67652 0.00478642C6.67652 0.00478642 4.99303 1.79484 4.99303 2.93386C4.99303 4.07287 5.32988 5.37495 6.00354 5.69986C6.10579 5.7493 6.21191 5.74185 6.31797 5.6949C6.06422 6.18287 5.78175 6.76785 5.51138 7.34724C5.34777 6.56584 4.8294 5.11986 3.18232 4.05558C3.18232 4.05558 2.08426 6.56584 2.52464 7.77717C2.89662 8.80063 3.57028 9.85873 4.27782 10.2238C4.13848 10.7328 4.01704 11.3857 3.91925 12.0985C3.6572 11.4641 2.83015 9.93347 0.740773 9.19719C0.740773 9.19719 0.29081 11.8879 1.0156 12.9632C1.72314 14.0121 2.83079 15.014 3.6668 14.9756C3.65338 15.3154 3.6457 15.644 3.6457 15.9516C3.6457 16.237 3.67382 16.5489 3.72176 16.8775C3.20405 16.2765 2.01651 15.2135 0 15.051C0 15.051 0.298479 17.7614 1.29108 18.6145C2.28368 19.4675 3.66999 20.168 4.45742 19.8634C4.46381 19.8609 4.46893 19.8572 4.47532 19.8548C4.715 20.6003 4.95659 21.2791 5.12406 21.7789C5.00453 21.7004 3.08261 20.4786 0.496616 21.3965C0.496616 21.3965 1.95068 23.732 3.22258 24.1007C4.33662 24.4238 5.67308 24.5177 6.37871 24.1354C6.91881 24.8432 7.59948 25.6672 8.26163 26.4529C7.91906 26.2398 7.64359 26.0984 7.64359 26.0984C7.64359 26.0984 5.47496 25.1051 3.00911 26.4776C3.00911 26.4776 4.85178 28.5407 6.17034 28.6957C7.4889 28.8508 9.04078 28.6636 9.50926 27.9798C9.51691 27.9687 9.52206 27.957 9.52779 27.9458C9.58916 28.0181 9.6492 28.0886 9.70675 28.1571C10.1107 28.6346 10.815 29.1923 11.6293 29.7545C11.0713 29.6568 9.13341 29.4592 7.29779 30.9583C7.29779 30.9583 9.49137 32.6712 10.8176 32.5964C12.1432 32.5217 13.6363 32.0702 13.9711 31.3165C13.9814 31.2931 13.989 31.269 13.9942 31.2456C14.6499 31.6304 15.2692 31.9763 15.7703 32.2499C14.9465 32.479 13.5921 33.0763 12.634 34.6169C12.634 34.6169 15.2814 35.5558 16.5118 35.0727C17.466 34.6978 18.4381 34.0764 18.8575 33.4352C19.2064 33.5328 19.5752 33.6335 19.9389 33.7287C19.8104 33.7725 19.6967 33.8139 19.6059 33.8522C18.4446 34.3401 17.2832 35.1543 17.2832 35.3167C17.2832 35.4792 17.9467 35.9678 18.1128 35.8047C18.2682 35.6527 20.0207 34.3611 21.3322 34.0616C21.5872 34.1147 21.8148 34.1548 21.9976 34.1771C23.3449 34.3395 25.3653 35.8041 25.5333 35.9671C25.7014 36.1302 26.3751 35.6416 26.3751 35.4792C26.3751 35.3167 25.1965 34.5026 24.0179 34.0146C23.8032 33.9257 23.4753 33.8201 23.0809 33.7058C23.6945 33.552 24.3637 33.3667 24.9511 33.1968C25.1371 33.9702 26.2466 34.7818 27.3287 35.2346C28.4837 35.7176 30.9699 34.7787 30.9699 34.7787C29.7006 32.6051 27.6917 32.3092 27.3862 32.2765C27.8944 31.9991 28.5929 31.6088 29.3503 31.1603C29.3484 31.2122 29.3561 31.2647 29.3778 31.3165C29.6917 32.0702 31.0939 32.5217 32.3383 32.5964C33.5828 32.6712 35.6427 30.9583 35.6427 30.9583C33.919 29.4586 32.0993 29.6568 31.5759 29.7545C32.4764 29.138 33.2683 28.5172 33.7048 27.9941C33.7586 27.9298 33.8141 27.8631 33.871 27.7951C33.8314 27.9187 33.8359 28.0366 33.9043 28.1423C34.344 28.8261 35.8013 29.0132 37.0393 28.8582C38.2773 28.7032 40.0075 26.64 40.0075 26.64C37.6925 25.2676 35.6562 26.2608 35.6562 26.2608C35.6562 26.2608 35.0336 26.6012 34.5191 27.0224C35.2618 26.1354 36.101 25.1249 36.7734 24.2503C37.4132 24.6851 38.7215 24.5986 39.8074 24.2632C41.002 23.8945 42.3666 21.559 42.3666 21.559C40.2389 20.7517 38.5905 21.5899 38.1392 21.8629ZM41.5197 16.9121C41.305 17.3099 39.3587 19.1463 39.3587 19.1463C39.6457 18.6157 41.5197 16.9121 41.5197 16.9121ZM41.6073 11.243C41.5019 11.6846 40.0938 13.9837 40.0938 13.9837C40.235 13.3944 41.6073 11.243 41.6073 11.243ZM33.5994 5.30021C34.5671 5.28723 36.1899 6.17116 36.1899 6.17116C35.7437 6.16376 33.5994 5.30021 33.5994 5.30021ZM36.6814 2.0833C36.8111 2.46442 36.8463 4.87586 36.8463 4.87586C36.6743 4.36813 36.6814 2.0833 36.6814 2.0833ZM32.2955 1.46747C33.1469 1.6466 34.5089 3.24703 34.5089 3.24703C34.1682 3.05616 32.2955 1.46747 32.2955 1.46747ZM36.303 11.9329C37.2585 12.3128 38.4083 13.8163 38.4083 13.8163C37.9744 13.6285 36.303 11.9329 36.303 11.9329ZM10.3632 5.30762C10.3632 5.30762 8.0066 6.06118 7.52468 6.04699C7.52468 6.04699 9.31943 5.24774 10.3632 5.30762ZM1.84202 11.0805C1.84202 11.0805 3.30376 13.2319 3.45396 13.8212C3.45396 13.8212 1.95451 11.5222 1.84202 11.0805ZM1.57678 16.5866C1.57678 16.5866 3.57284 18.2902 3.87835 18.8207C3.87835 18.8201 1.80559 16.9844 1.57678 16.5866ZM5.21162 26.8711C5.21162 26.8711 7.85642 27.1725 8.41951 27.4406C8.41951 27.44 5.63411 27.0718 5.21162 26.8711ZM9.53867 30.9657C9.53867 30.9657 12.1969 30.807 12.8003 30.9737C12.8003 30.9731 9.99118 31.0905 9.53867 30.9657ZM16.8805 29.1664C16.8805 29.1664 18.3001 31.2987 18.3723 31.7743C18.3723 31.7743 17.0001 30.2023 16.8805 29.1664ZM13.068 26.7426C13.068 26.7426 13.874 29.1553 13.8178 29.6328C13.8178 29.6328 12.9089 27.7735 13.068 26.7426ZM9.99055 23.6523C9.99055 23.6523 10.0896 26.0489 9.94261 26.4931C9.94261 26.4931 9.64283 24.6054 9.99055 23.6523ZM7.47802 20.2229C7.47802 20.2229 7.11756 22.5961 6.88812 23.0062C6.88812 23.0062 6.95459 21.0976 7.47802 20.2229ZM6.84592 16.0746C6.84592 16.0746 5.56378 18.1283 5.18797 18.4205C5.18797 18.4211 6.0131 16.6854 6.84592 16.0746ZM7.07281 11.9805C7.07281 11.9805 5.26467 13.6242 4.82174 13.8076C4.8211 13.8076 6.10005 12.3518 7.07281 11.9805ZM8.42396 8.25526C8.42396 8.25526 6.23999 9.39549 5.76322 9.46283C5.76322 9.46283 7.38538 8.37259 8.42396 8.25526ZM11.2215 1.3044C11.2215 1.3044 9.38844 2.76461 8.91804 3.05246C8.91868 3.04257 8.91804 3.03454 8.91868 3.02528C9.18841 2.73743 10.4181 1.46315 11.2215 1.3044ZM6.55065 1.92085C6.55065 1.92085 6.55893 4.20506 6.37488 4.71341C6.37488 4.71341 6.41257 2.30197 6.55065 1.92085ZM4.68112 9.1657C4.68112 9.16631 4.68048 9.16692 4.68048 9.16758C4.66195 9.11383 3.78951 6.5881 3.78887 6.1378C3.78887 6.1378 4.67665 8.55294 4.68112 9.1657ZM2.5975 22.1452C2.5975 22.1452 5.1509 22.8759 5.65901 23.2323C5.65901 23.2323 2.97843 22.4126 2.5975 22.1452ZM14.7579 33.9257C14.7579 33.9257 16.4549 33.2524 17.3899 33.0066C17.4283 33.0183 17.4692 33.03 17.512 33.043C16.7898 33.3086 15.1235 33.9084 14.7579 33.9257ZM33.5393 30.9657C33.1143 31.0905 30.4765 30.9737 30.4765 30.9737C31.0435 30.807 33.5393 30.9657 33.5393 30.9657ZM37.9386 27.0335C37.5417 27.2343 34.9262 27.603 34.9262 27.603C35.4555 27.335 37.9386 27.0335 37.9386 27.0335ZM39.9481 6.1378C39.9474 6.59302 39.1101 9.17001 39.1101 9.17001C39.1108 8.56283 39.9481 6.1378 39.9481 6.1378ZM35.4293 8.34911C36.3842 8.51405 37.8351 9.68268 37.8351 9.68268C37.3966 9.59314 35.4293 8.34911 35.4293 8.34911ZM38.1342 18.8622C37.7973 18.5539 36.7804 16.363 36.7804 16.363C37.5315 17.006 38.1342 18.8622 38.1342 18.8622ZM35.7642 20.3088C36.2851 21.244 36.3375 23.1971 36.3375 23.1971C36.1093 22.7598 35.7642 20.3088 35.7642 20.3088ZM33.4812 23.6721C33.8672 24.6696 33.5272 26.5573 33.5272 26.5573C33.3642 26.094 33.4812 23.6721 33.4812 23.6721ZM30.3206 26.7105C30.4222 27.7538 29.4986 29.5802 29.4986 29.5802C29.468 29.0978 30.3206 26.7105 30.3206 26.7105ZM26.5132 29.4616C26.3566 30.4969 25.0182 32.0139 25.0182 32.0139C25.1064 31.5395 26.5132 29.4616 26.5132 29.4616ZM26.0734 33.0813C26.6621 33.1116 28.9752 34.0888 28.9752 34.0888C28.5342 34.0659 26.0734 33.0813 26.0734 33.0813ZM37.5187 23.3953C37.9955 23.0389 40.3936 22.3082 40.3936 22.3082C40.0356 22.5751 37.5187 23.3953 37.5187 23.3953Z" fill="white"/>
<path d="M12.4627 9.37548C12.4627 9.37548 14.6377 9.37548 16.8128 8.64352C18.9878 7.91155 21.2798 6.67432 21.2798 6.67432C21.2798 6.67432 24.7223 8.46068 26.1066 8.64352C27.491 8.82636 30.5915 9.37548 30.5915 9.37548C30.5915 9.37548 31.7778 22.3759 21.5271 26.8517C21.5271 26.8517 11.2765 23.4618 12.4627 9.37548Z" fill="#E9E9E9"/>
<path d="M13.804 10.2539C13.804 10.2539 15.6562 10.2539 17.5085 9.60286C19.3608 8.95181 21.312 7.85107 21.312 7.85107C21.312 7.85107 24.2438 9.4404 25.4224 9.60286C26.601 9.76531 29.2413 10.2539 29.2413 10.2539C29.2413 10.2539 30.2518 21.8176 21.523 25.7992C21.5223 25.7992 12.7941 22.7837 13.804 10.2539Z" fill="white"/>
<path d="M21.664 17.3325C18.9003 17.3325 17.2411 15.1483 17.2245 15.1261L17.1855 15.0742L17.229 15.0254C17.2488 15.0032 19.2263 12.8252 21.6692 12.9698C23.9618 13.1063 25.7565 15.005 25.7738 15.0242L25.8147 15.0681L25.784 15.1193C25.7712 15.1409 24.4329 17.3325 21.664 17.3325ZM17.4022 15.0829C17.67 15.4103 19.225 17.17 21.664 17.17C24.0998 17.17 25.389 15.4127 25.6057 15.0891C25.3232 14.8055 23.6876 13.2533 21.6589 13.1322C19.5005 13.0019 17.7083 14.7642 17.4022 15.0829Z" fill="black"/>
<path d="M17.4289 14.343L17.3184 14.2201C17.3983 14.1527 19.2984 12.5678 20.7755 12.6067L20.771 12.7691C19.3515 12.7333 17.4481 14.3269 17.4289 14.343Z" fill="black"/>
<path d="M21.0149 12.7567L20.96 12.6029C21.1613 12.5356 21.6176 12.5584 21.6688 12.5609L21.6592 12.7233C21.5288 12.7165 21.1587 12.7085 21.0149 12.7567Z" fill="black"/>
<path d="M21.5004 16.6005C20.711 16.6005 20.0693 15.9803 20.0693 15.2175C20.0693 14.4546 20.711 13.8345 21.5004 13.8345C22.2897 13.8345 22.9314 14.4546 22.9314 15.2175C22.9314 15.9803 22.2891 16.6005 21.5004 16.6005ZM21.5004 13.9969C20.8037 13.9969 20.2374 14.5442 20.2374 15.2175C20.2374 15.8907 20.8037 16.438 21.5004 16.438C22.197 16.438 22.7633 15.8907 22.7633 15.2175C22.7633 14.5442 22.1964 13.9969 21.5004 13.9969Z" fill="black"/>
<path d="M21.5006 15.2988C21.5705 15.2988 21.6271 15.244 21.6271 15.1765C21.6271 15.109 21.5705 15.0542 21.5006 15.0542C21.4307 15.0542 21.374 15.109 21.374 15.1765C21.374 15.244 21.4307 15.2988 21.5006 15.2988Z" fill="white"/>
<path d="M21.5006 15.2988C21.5705 15.2988 21.6271 15.244 21.6271 15.1765C21.6271 15.109 21.5705 15.0542 21.5006 15.0542C21.4307 15.0542 21.374 15.109 21.374 15.1765C21.374 15.244 21.4307 15.2988 21.5006 15.2988Z" fill="white"/>
<path d="M21.3684 15.9217C21.3275 15.9069 21.2898 15.8846 21.254 15.855C21.2182 15.8253 21.185 15.7883 21.1543 15.7438L21.2508 15.5857C21.2847 15.6413 21.3224 15.6827 21.3633 15.7098C21.4042 15.7376 21.4489 15.7512 21.4975 15.7512C21.5646 15.7512 21.6145 15.7333 21.6471 15.6981C21.6803 15.6629 21.6963 15.6091 21.6963 15.5375V15.5363C21.6963 15.4905 21.688 15.4541 21.672 15.4276C21.656 15.401 21.6356 15.3806 21.61 15.3676C21.5845 15.354 21.5519 15.3423 21.5128 15.3324C21.5116 15.3318 21.5103 15.3312 21.509 15.3312C21.5077 15.3312 21.5065 15.3306 21.5052 15.33C21.5027 15.3294 21.5 15.3287 21.4975 15.3281C21.495 15.3275 21.4924 15.3269 21.4899 15.3263C21.4266 15.3102 21.3761 15.2923 21.3364 15.2731C21.2975 15.2533 21.2642 15.2176 21.2361 15.1656C21.2086 15.1138 21.1945 15.0402 21.1945 14.9451C21.1945 14.8525 21.2073 14.7753 21.2323 14.7141C21.2572 14.653 21.2943 14.6067 21.3441 14.5757C21.394 14.5449 21.456 14.5294 21.5307 14.5294C21.564 14.5294 21.5959 14.5338 21.6285 14.543C21.6605 14.5523 21.6924 14.5665 21.7244 14.585C21.7564 14.6036 21.787 14.6271 21.8184 14.6548L21.7315 14.816C21.6969 14.7845 21.6624 14.7605 21.6292 14.745C21.5959 14.7296 21.5633 14.7215 21.5307 14.7215C21.4687 14.7215 21.4221 14.7389 21.3908 14.7734C21.3595 14.808 21.3441 14.8599 21.3441 14.9291V14.9303C21.3441 14.9779 21.3531 15.0155 21.3709 15.0421C21.3888 15.0687 21.4112 15.0891 21.438 15.1014C21.4649 15.1138 21.502 15.1274 21.5493 15.1415C21.5512 15.1422 21.5531 15.1428 21.555 15.1434C21.557 15.144 21.5589 15.1446 21.5614 15.1452C21.564 15.1459 21.5659 15.1465 21.5678 15.1471C21.5698 15.1477 21.5723 15.1483 21.5742 15.149C21.6298 15.1656 21.6765 15.1854 21.7136 15.2095C21.7506 15.2336 21.7819 15.2719 21.8068 15.3244C21.8318 15.3769 21.8446 15.4492 21.8446 15.54V15.5418C21.8446 15.6314 21.8318 15.7061 21.8056 15.7654C21.78 15.8247 21.741 15.8692 21.6893 15.8989C21.6375 15.9285 21.5729 15.9433 21.4956 15.9433C21.4521 15.9446 21.4093 15.9365 21.3684 15.9217ZM21.4394 14.375H21.5832V14.5924H21.4394V14.375ZM21.4394 15.8692H21.5832V16.099H21.4394V15.8692Z" fill="black"/>
<path d="M21.4331 13.7682C21.5072 13.7682 21.5673 13.7101 21.5673 13.6385C21.5673 13.5668 21.5072 13.5088 21.4331 13.5088C21.3589 13.5088 21.2988 13.5668 21.2988 13.6385C21.2988 13.7101 21.3589 13.7682 21.4331 13.7682Z" fill="black"/>
<path d="M20.9788 13.8176C21.049 13.8176 21.1059 13.7626 21.1059 13.6947C21.1059 13.6268 21.049 13.5718 20.9788 13.5718C20.9085 13.5718 20.8516 13.6268 20.8516 13.6947C20.8516 13.7626 20.9085 13.8176 20.9788 13.8176Z" fill="black"/>
<path d="M20.5714 13.9681C20.6377 13.9681 20.6915 13.9161 20.6915 13.852C20.6915 13.7878 20.6377 13.7358 20.5714 13.7358C20.505 13.7358 20.4512 13.7878 20.4512 13.852C20.4512 13.9161 20.505 13.9681 20.5714 13.9681Z" fill="black"/>
<path d="M20.2267 14.2065C20.2899 14.2065 20.3411 14.1569 20.3411 14.0959C20.3411 14.0348 20.2899 13.9854 20.2267 13.9854C20.1635 13.9854 20.1123 14.0348 20.1123 14.0959C20.1123 14.1569 20.1635 14.2065 20.2267 14.2065Z" fill="black"/>
<path d="M19.9602 14.5176C20.0202 14.5176 20.0688 14.4706 20.0688 14.4126C20.0688 14.3546 20.0202 14.3076 19.9602 14.3076C19.9002 14.3076 19.8516 14.3546 19.8516 14.4126C19.8516 14.4706 19.9002 14.5176 19.9602 14.5176Z" fill="black"/>
<path d="M19.7878 14.8864C19.8453 14.8864 19.892 14.8413 19.892 14.7857C19.892 14.7301 19.8453 14.6851 19.7878 14.6851C19.7303 14.6851 19.6836 14.7301 19.6836 14.7857C19.6836 14.8413 19.7303 14.8864 19.7878 14.8864Z" fill="black"/>
<path d="M19.7273 15.2979C19.7827 15.2979 19.8276 15.2545 19.8276 15.201C19.8276 15.1475 19.7827 15.104 19.7273 15.104C19.6719 15.104 19.627 15.1475 19.627 15.201C19.627 15.2545 19.6719 15.2979 19.7273 15.2979Z" fill="black"/>
<path d="M19.7886 15.7102C19.8422 15.7102 19.8857 15.6682 19.8857 15.6163C19.8857 15.5645 19.8422 15.5225 19.7886 15.5225C19.7349 15.5225 19.6914 15.5645 19.6914 15.6163C19.6914 15.6682 19.7349 15.7102 19.7886 15.7102Z" fill="black"/>
<path d="M19.9601 16.0818C20.0131 16.0818 20.056 16.0403 20.056 15.9891C20.056 15.938 20.0131 15.8965 19.9601 15.8965C19.9072 15.8965 19.8643 15.938 19.8643 15.9891C19.8643 16.0403 19.9072 16.0818 19.9601 16.0818Z" fill="black"/>
<path d="M20.2261 16.3974C20.2787 16.3974 20.3213 16.3562 20.3213 16.3054C20.3213 16.2546 20.2787 16.2134 20.2261 16.2134C20.1735 16.2134 20.1309 16.2546 20.1309 16.3054C20.1309 16.3562 20.1735 16.3974 20.2261 16.3974Z" fill="black"/>
<path d="M20.5715 16.6428C20.6244 16.6428 20.6673 16.6014 20.6673 16.5502C20.6673 16.499 20.6244 16.4575 20.5715 16.4575C20.5185 16.4575 20.4756 16.499 20.4756 16.5502C20.4756 16.6014 20.5185 16.6428 20.5715 16.6428Z" fill="black"/>
<path d="M20.98 16.8015C21.0336 16.8015 21.0771 16.7595 21.0771 16.7076C21.0771 16.6558 21.0336 16.6138 20.98 16.6138C20.9263 16.6138 20.8828 16.6558 20.8828 16.7076C20.8828 16.7595 20.9263 16.8015 20.98 16.8015Z" fill="black"/>
<path d="M21.4333 16.86C21.4888 16.86 21.5337 16.8166 21.5337 16.763C21.5337 16.7094 21.4888 16.666 21.4333 16.666C21.3779 16.666 21.333 16.7094 21.333 16.763C21.333 16.8166 21.3779 16.86 21.4333 16.86Z" fill="black"/>
<path d="M21.8864 16.8083C21.944 16.8083 21.9906 16.7632 21.9906 16.7076C21.9906 16.652 21.944 16.6069 21.8864 16.6069C21.8289 16.6069 21.7822 16.652 21.7822 16.7076C21.7822 16.7632 21.8289 16.8083 21.8864 16.8083Z" fill="black"/>
<path d="M22.2942 16.6553C22.3542 16.6553 22.4028 16.6083 22.4028 16.5503C22.4028 16.4923 22.3542 16.4453 22.2942 16.4453C22.2342 16.4453 22.1855 16.4923 22.1855 16.5503C22.1855 16.6083 22.2342 16.6553 22.2942 16.6553Z" fill="black"/>
<path d="M22.6398 16.4159C22.703 16.4159 22.7542 16.3665 22.7542 16.3054C22.7542 16.2444 22.703 16.1948 22.6398 16.1948C22.5766 16.1948 22.5254 16.2444 22.5254 16.3054C22.5254 16.3665 22.5766 16.4159 22.6398 16.4159Z" fill="black"/>
<path d="M22.9053 16.1053C22.9717 16.1053 23.0254 16.0533 23.0254 15.9892C23.0254 15.9251 22.9717 15.873 22.9053 15.873C22.8389 15.873 22.7852 15.9251 22.7852 15.9892C22.7852 16.0533 22.8389 16.1053 22.9053 16.1053Z" fill="black"/>
<path d="M23.0784 15.739C23.1486 15.739 23.2056 15.684 23.2056 15.6161C23.2056 15.5482 23.1486 15.4932 23.0784 15.4932C23.0081 15.4932 22.9512 15.5482 22.9512 15.6161C22.9512 15.684 23.0081 15.739 23.0784 15.739Z" fill="black"/>
<path d="M23.1391 15.3307C23.2132 15.3307 23.2733 15.2726 23.2733 15.201C23.2733 15.1293 23.2132 15.0713 23.1391 15.0713C23.065 15.0713 23.0049 15.1293 23.0049 15.201C23.0049 15.2726 23.065 15.3307 23.1391 15.3307Z" fill="black"/>
<path d="M21.9863 13.7927C22.0558 13.7927 22.1121 13.7382 22.1121 13.671C22.1121 13.6038 22.0558 13.5493 21.9863 13.5493C21.9167 13.5493 21.8604 13.6038 21.8604 13.671C21.8604 13.7382 21.9167 13.7927 21.9863 13.7927Z" fill="black"/>
<path d="M23.078 14.9128C23.1476 14.9128 23.2039 14.8584 23.2039 14.7911C23.2039 14.7239 23.1476 14.6694 23.078 14.6694C23.0085 14.6694 22.9521 14.7239 22.9521 14.7911C22.9521 14.8584 23.0085 14.9128 23.078 14.9128Z" fill="black"/>
<path d="M22.9433 14.5715C23.0128 14.5715 23.0692 14.517 23.0692 14.4498C23.0692 14.3826 23.0128 14.3281 22.9433 14.3281C22.8738 14.3281 22.8174 14.3826 22.8174 14.4498C22.8174 14.517 22.8738 14.5715 22.9433 14.5715Z" fill="black"/>
<path d="M22.708 14.2146C22.7775 14.2146 22.8339 14.1601 22.8339 14.0929C22.8339 14.0257 22.7775 13.9712 22.708 13.9712C22.6384 13.9712 22.582 14.0257 22.582 14.0929C22.582 14.1601 22.6384 14.2146 22.708 14.2146Z" fill="black"/>
<path d="M22.372 13.9714C22.4416 13.9714 22.4979 13.9169 22.4979 13.8497C22.4979 13.7825 22.4416 13.728 22.372 13.728C22.3025 13.728 22.2461 13.7825 22.2461 13.8497C22.2461 13.9169 22.3025 13.9714 22.372 13.9714Z" fill="black"/>
</g>
<defs>
<clipPath id="clip0_240_11048">
<rect width="43" height="36" fill="white"/>
</clipPath>
</defs>
</svg>
