<svg width="24" height="15" viewBox="0 0 24 15" fill="none" xmlns="http://www.w3.org/2000/svg"><path d="M12.363 10.447c0-1.848-.879-3.214-2.695-3.726 1.325-.631 2.016-1.587 2.016-3.074C11.684.715 9.492 0 6.963 0H0v14.721h7.158c2.684 0 5.205-1.283 5.205-4.274zM3.246 2.513h3.046c1.171 0 2.225.328 2.225 1.682 0 1.25-.82 1.753-1.98 1.753H3.246V2.513zm-.001 9.708V8.167h3.538c1.429 0 2.333.594 2.333 2.102 0 1.487-1.079 1.952-2.4 1.952H3.245zM18.796 15c2.554 0 4.208-1.147 5.004-3.585h-2.592c-.279.91-1.429 1.391-2.32 1.391-1.722 0-2.626-1.005-2.626-2.713h7.713c.244-3.418-1.66-6.33-5.18-6.33-3.259 0-5.47 2.441-5.47 5.64 0 3.32 2.095 5.597 5.471 5.597zm-.092-9.026c1.475 0 2.217.864 2.341 2.277h-4.779c.097-1.4 1.03-2.277 2.438-2.277zM15.667.773h5.988v1.45h-5.988V.773z" fill="#456AE7"/></svg>