<svg width="18" height="18" viewBox="0 0 18 18" fill="none" xmlns="http://www.w3.org/2000/svg"><path d="M14.127 3.185a.415.415 0 100 .831.415.415 0 000-.83zM9.159 4.89A3.683 3.683 0 005.48 8.568a3.683 3.683 0 003.679 3.679 3.683 3.683 0 003.678-3.679A3.683 3.683 0 009.16 4.89z" fill="#456AE7"/><path d="M13.019.023h-7.72A4.69 4.69 0 00.612 4.708v7.72a4.69 4.69 0 004.685 4.686h7.721a4.69 4.69 0 004.685-4.686v-7.72A4.69 4.69 0 0013.02.023zm-3.86 13.233A4.693 4.693 0 014.47 8.568a4.693 4.693 0 014.69-4.687 4.693 4.693 0 014.688 4.687 4.693 4.693 0 01-4.688 4.688zm4.968-8.232A1.426 1.426 0 0112.703 3.6c0-.785.639-1.424 1.424-1.424.785 0 1.424.639 1.424 1.424 0 .785-.639 1.424-1.424 1.424z" fill="#456AE7"/></svg>