<svg width="26" height="18" viewBox="0 0 26 18" fill="none" xmlns="http://www.w3.org/2000/svg"><path d="M16.588 10.063l-2.144 2.15c-.87.873-2.4.892-3.288 0l-2.144-2.15-7.7 7.725c.286.133.602.212.938.212h21.1c.336 0 .652-.079.939-.212l-7.701-7.726z" fill="#456AE7"/><path d="M23.35 0H2.25c-.336 0-.652.08-.938.212L9.54 8.468l.002.001v.001l2.676 2.685c.285.284.88.284 1.164 0l2.675-2.684.001-.002.002-.001L24.289.212A2.226 2.226 0 0023.35 0zM.24 1.26c-.149.3-.24.634-.24.99v13.5c0 .357.09.69.24.99L7.952 9 .24 1.26zm25.12 0L17.647 9l7.713 7.74c.149-.3.24-.633.24-.99V2.25c0-.357-.091-.69-.24-.99z" fill="#456AE7"/></svg>