<svg width="27" height="23" viewBox="0 0 27 23" fill="none" xmlns="http://www.w3.org/2000/svg">
<path d="M0.466594 11.0284L6.55349 13.3002L8.9095 20.8771C9.06025 21.3624 9.65365 21.5418 10.0475 21.2197L13.4405 18.4538C13.7961 18.164 14.3027 18.1495 14.6744 18.4193L20.794 22.8623C21.2154 23.1686 21.8123 22.9377 21.918 22.4286L26.4009 0.864654C26.5163 0.308498 25.9698 -0.155465 25.4403 0.0493517L0.459461 9.68619C-0.157012 9.92394 -0.151641 10.7967 0.466594 11.0284ZM8.5298 12.0909L20.4259 4.76409C20.6397 4.6328 20.8596 4.92188 20.676 5.09218L10.8583 14.2182C10.5132 14.5394 10.2906 14.9693 10.2276 15.4359L9.89316 17.9143C9.84887 18.2452 9.38402 18.2781 9.29271 17.9578L8.00649 13.4384C7.85917 12.9229 8.07385 12.3723 8.5298 12.0909Z" fill="#456AE7"/>
</svg>
