<svg width="17" height="19" viewBox="0 0 17 19" fill="none" xmlns="http://www.w3.org/2000/svg"><path d="M16.11 5.04A4.543 4.543 0 0111.562.535H8.626V8.56l-.003 4.396a2.658 2.658 0 01-2.813 2.653 2.647 2.647 0 01-1.216-.373 2.658 2.658 0 01-1.3-2.24 2.66 2.66 0 013.503-2.562V7.452a5.779 5.779 0 00-.847-.063 5.631 5.631 0 00-4.232 1.893 5.51 5.51 0 00-1.39 3.323 5.502 5.502 0 001.64 4.287 5.632 5.632 0 003.983 1.63 5.613 5.613 0 003.983-1.63 5.498 5.498 0 001.648-3.913l-.015-6.564a7.424 7.424 0 004.553 1.547V5.04h-.008z" fill="#456AE7"/></svg>