<svg version="1.1" id="Слой_1" xmlns="http://www.w3.org/2000/svg" x="0" y="0" viewBox="0 0 40 47" xml:space="preserve"><path fill="#A547DE" d="M35.2 20.1c-.5 0-.9-.4-.9-.9 0-.6-.7-1.3-2-2-1.5-.8-3.6-1.4-6.1-1.7-.5-.1-.8-.5-.8-1 .1-.5.5-.9 1-.8 2.7.4 5 1 6.7 1.9 2.5 1.3 3 2.7 3 3.6 0 .5-.4.9-.9.9z"/><path fill="#6D05AC" d="M31.8 21.5l-2.2-1c-.4-.2-1 0-1.2.5-.2.5 0 1 .5 1.2h.1c-2.3.6-5.2.9-8.1.9-3.7 0-7.2-.5-9.8-1.4-2.6-.9-3.6-2-3.6-2.6 0-.6.7-1.3 2-2 1.5-.8 3.6-1.4 6.1-1.7.5-.1.8-.5.8-1-.1-.5-.5-.9-1-.8-2.7.4-5 1-6.7 1.9-2.5 1.3-3 2.7-3 3.6 0 1.2.8 3 4.8 4.4 2.8 1 6.5 1.5 10.4 1.5 3.2 0 6.3-.4 8.9-1l-.1.3c-.2.5 0 1 .5 1.2.1.1.2.1.4.1.3 0 .7-.2.8-.6l.9-2.3c.2-.4 0-1-.5-1.2z"/><path fill="#A547DE" d="M31.8 21.5l-2.2-1c-.4-.2-1 0-1.2.5-.2.5 0 1 .5 1.2h.1c-2.3.6-5.2.9-8.1.9V25c3.2 0 6.3-.4 8.9-1l-.1.3c-.2.5 0 1 .5 1.2.1.1.2.1.4.1.3 0 .7-.2.8-.6l.9-2.3c.2-.4 0-1-.5-1.2z"/><path fill="#6D05AC" d="M27.1 9.6l-6.1 4-6.1-4c.1-.3.3-.5.5-.6l5-2.6c.4-.2.8-.2 1.1 0l5 2.6c.3.1.5.3.6.6z"/><path fill="#6D05AC" d="M26.5 9l-5-2.6c-.2-.1-.4-.1-.6-.1v7.4l6.1-4c0-.4-.2-.6-.5-.7z"/><path fill="#9212DF" d="M27.1 9.6l-5.6 2.9c-.4.2-.8.2-1.1 0l-5.6-2.9c-.1.2-.1.4-.1.6v6.5c0 .5.3.9.7 1.2l5 2.6c.2.1.4.1.6.1.2 0 .4 0 .6-.1l5-2.6c.4-.2.7-.7.7-1.2v-6.5c-.1-.3-.1-.5-.2-.6z"/><path fill="#9212DF" d="M21.5 20.4l5-2.6c.4-.2.7-.7.7-1.2v-6.5c0-.2 0-.4-.1-.6l-5.6 2.9c-.2.1-.4.1-.6.1v7.9c.3.1.4.1.6 0z"/></svg>