<svg version="1.1" id="Слой_1" xmlns="http://www.w3.org/2000/svg" x="0" y="0" viewBox="0 0 40 47" xml:space="preserve"><path fill="#AD33F8" d="M27.2 5.1v19.1l-1.6 1.5H14.4l-1.6-1.5V5.1c0-.8.7-1.5 1.6-1.5h11.3c.8 0 1.5.7 1.5 1.5z"/><path fill="#6D05AC" d="M20 10.5c2.9 0 5.2 2.2 5.2 5s-2.3 5-5.2 5c-2.9 0-5.2-2.2-5.2-5s2.3-5 5.2-5z"/><path fill="#C47EB8" d="M20 12v3.8l-2-.4 2-3.4z"/><path fill="#620774" d="M22 15.4l-2 3.4v-3.1l2-.3z"/><path fill="#9D2888" d="M20 15.8v3.1l-2-3.4 2 .3zm0-3.8l2 3.4-2 .4V12z"/><path fill="#6D05AC" d="M27.2 24.2v1.5c0 .8-.7 1.5-1.6 1.5H14.4c-.9 0-1.6-.7-1.6-1.5v-1.5l1.6 1.5h11.3l1.5-1.5zM13.9 5v.7c0 .3.4.5.7.3l.7-.7c.3-.3.1-.7-.3-.7h-.7c-.2 0-.4.2-.4.4z"/></svg>