<svg version="1.1" id="Слой_1" xmlns="http://www.w3.org/2000/svg" x="0" y="0" viewBox="0 0 40 47" xml:space="preserve"><path fill="#385A81" d="M31.6 21.1L21.3 16c-.2-.1-.4-.1-.6 0l-10.4 5.2c-.2.1-.4.3-.4.6 0 .2.1.5.4.6l10.4 5.2c.1 0 .2.1.3.1.1 0 .2 0 .3-.1l10.4-5.2c.2-.1.4-.3.4-.6-.1-.3-.3-.6-.5-.7z"/><path fill="#274265" d="M31.6 21.1L21.3 16c-.1 0-.2-.1-.3-.1v11.6c.1 0 .2 0 .3-.1l10.4-5.2c.2-.1.4-.3.4-.6-.1-.1-.3-.4-.5-.5z"/><path fill="#EDF6FC" d="M31.6 16l-10.4-5.2c-.2-.1-.4-.1-.6 0L10.3 16c-.2.1-.4.3-.4.6 0 .2.1.5.4.6l10.4 5.2c.1 0 .2.1.3.1.1 0 .2 0 .3-.1l10.4-5.2c.2-.1.4-.3.4-.6-.1-.3-.3-.5-.5-.6z"/><path fill="#D2E1FE" d="M31.6 16l-10.4-5.2c-.1 0-.2-.1-.3-.1v11.6c.1 0 .2 0 .3-.1L31.6 17c.2-.1.4-.3.4-.6 0-.1-.2-.3-.4-.4z"/><path fill="#389FFE" d="M31.6 10.8L21.3 5.6c-.2-.1-.4-.1-.6 0l-10.4 5.2c-.2.1-.4.3-.4.6 0 .2.1.5.4.6l10.4 5.2c.1 0 .2.1.3.1.1 0 .2 0 .3-.1L31.7 12c.2-.1.4-.3.4-.6-.1-.3-.3-.5-.5-.6z"/><path fill="#389FFE" d="M31.6 10.8L21.3 5.6c-.1 0-.2-.1-.3-.1v11.6c.1 0 .2 0 .3-.1l10.4-5.2c.2-.1.4-.3.4-.6-.1-.1-.3-.3-.5-.4z"/></svg>