<svg width="10" height="11" viewBox="0 0 10 11" fill="none" xmlns="http://www.w3.org/2000/svg"><path d="M9.769 2.938A2.706 2.706 0 017.059.255h-1.75v4.781l-.002 2.619a1.584 1.584 0 01-1.675 1.58 1.584 1.584 0 01-1.498-1.557 1.585 1.585 0 012.085-1.526V4.375a3.442 3.442 0 00-.504-.037c-.968 0-1.874.403-2.521 1.128a3.282 3.282 0 00-.828 1.98c-.06.963.293 1.878.976 2.553a3.355 3.355 0 002.373.971A3.344 3.344 0 006.088 10c.63-.623.978-1.45.982-2.33l-.01-3.911a4.42 4.42 0 002.714.922V2.938h-.005z" fill="#456AE7"/></svg>