<svg width="27" height="23" viewBox="0 0 27 23" fill="none" xmlns="http://www.w3.org/2000/svg"><path d="M.467 11.028L6.553 13.3l2.356 7.577a.716.716 0 001.138.343l3.393-2.766c.356-.29.863-.305 1.234-.035l6.12 4.443a.717.717 0 001.124-.433L26.401.865a.718.718 0 00-.96-.816L.458 9.686c-.616.238-.61 1.11.008 1.342zm8.063 1.063l11.896-7.327c.214-.131.434.158.25.328l-9.818 9.126a2.035 2.035 0 00-.63 1.218l-.335 2.478c-.044.331-.509.364-.6.044l-1.287-4.52a1.198 1.198 0 01.524-1.347z" fill="#456AE7"/></svg>