<svg width="24" height="15" viewBox="0 0 24 15" fill="none" xmlns="http://www.w3.org/2000/svg">
<path d="M12.363 10.447C12.363 8.59898 11.484 7.23298 9.66798 6.72098C10.993 6.08998 11.684 5.13399 11.684 3.64699C11.684 0.714999 9.49198 0 6.96298 0H0V14.721H7.15798C9.84198 14.721 12.363 13.438 12.363 10.447ZM3.24599 2.51299H6.29199C7.46298 2.51299 8.51698 2.84099 8.51698 4.19499C8.51698 5.44499 7.69698 5.94799 6.53698 5.94799H3.24599V2.51299ZM3.24499 12.221V8.16698H6.78298C8.21198 8.16698 9.11598 8.76098 9.11598 10.269C9.11598 11.756 8.03698 12.221 6.71598 12.221H3.24499Z" fill="#456AE7"/>
<path d="M18.7962 15.0001C21.3502 15.0001 23.0042 13.8531 23.8002 11.4151H21.2082C20.9292 12.3251 19.7792 12.8061 18.8872 12.8061C17.1662 12.8061 16.2622 11.8011 16.2622 10.0931H23.9752C24.2192 6.67508 22.3152 3.76208 18.7952 3.76208C15.5362 3.76208 13.3242 6.20408 13.3242 9.40307C13.3242 12.7231 15.4202 15.0001 18.7962 15.0001ZM18.7042 5.97408C20.1792 5.97408 20.9212 6.83808 21.0452 8.25107H16.2662C16.3632 6.85008 17.2962 5.97408 18.7042 5.97408Z" fill="#456AE7"/>
<path d="M15.667 0.772827H21.655V2.22282H15.667V0.772827Z" fill="#456AE7"/>
</svg>
