<svg width="26" height="18" viewBox="0 0 26 18" fill="none" xmlns="http://www.w3.org/2000/svg">
<path d="M16.588 10.0625L14.444 12.2138C13.5745 13.0863 12.0447 13.1051 11.1565 12.2138L9.01232 10.0625L1.31152 17.7883C1.59817 17.9209 1.91422 18 2.25022 18H23.3502C23.6862 18 24.0022 17.921 24.2887 17.7884L16.588 10.0625Z" fill="#456AE7"/>
<path d="M23.3501 0H2.25012C1.91412 0 1.59807 0.0791001 1.31152 0.21165L9.54038 8.4678C9.54093 8.46835 9.54158 8.46845 9.54213 8.469C9.54268 8.46955 9.54278 8.4703 9.54278 8.4703L12.2184 11.1548C12.5026 11.439 13.0977 11.439 13.3819 11.1548L16.057 8.47075C16.057 8.47075 16.0577 8.46955 16.0582 8.469C16.0582 8.469 16.0594 8.46835 16.06 8.4678L24.2886 0.2116C24.0021 0.0790001 23.6861 0 23.3501 0Z" fill="#456AE7"/>
<path d="M0.2393 1.26074C0.091 1.56064 0 1.89354 0 2.25014V15.7501C0 16.1067 0.0909 16.4396 0.23925 16.7395L7.9534 9.00039L0.2393 1.26074Z" fill="#456AE7"/>
<path d="M25.3605 1.2605L17.6465 9.00025L25.3605 16.7395C25.5088 16.4396 25.5998 16.1067 25.5998 15.75V2.25C25.5998 1.8933 25.5088 1.5604 25.3605 1.2605Z" fill="#456AE7"/>
</svg>
