<svg width="20" height="17" viewBox="0 0 20 17" fill="none" xmlns="http://www.w3.org/2000/svg">
<path d="M1.16571 8.26172L5.36581 9.82933L6.99151 15.0576C7.09553 15.3924 7.50499 15.5162 7.77677 15.294L10.118 13.3854C10.3634 13.1854 10.7129 13.1754 10.9694 13.3616L15.1921 16.4274C15.4829 16.6387 15.8947 16.4794 15.9677 16.1281L19.061 1.24849C19.1406 0.864726 18.7635 0.544581 18.3981 0.685909L1.16079 7.33555C0.735408 7.49961 0.739114 8.10186 1.16571 8.26172ZM6.72951 8.99485L14.9381 3.93919C15.0856 3.84859 15.2374 4.04807 15.1107 4.16558L8.33625 10.4628C8.09813 10.6844 7.94453 10.981 7.90103 11.303L7.67026 13.0132C7.6397 13.2415 7.31894 13.2642 7.25594 13.0432L6.36841 9.92466C6.26676 9.56897 6.4149 9.18904 6.72951 8.99485Z" fill="#456AE7"/>
</svg>
