<svg width="17" height="19" viewBox="0 0 17 19" fill="none" xmlns="http://www.w3.org/2000/svg">
<path d="M16.1106 5.03925C15.0825 5.03925 14.1339 4.69866 13.3722 4.1241C12.4986 3.46545 11.8709 2.49928 11.6492 1.3857C11.5943 1.11056 11.5648 0.826619 11.5619 0.535645H8.6251V8.5605L8.62158 12.9561C8.62158 14.1312 7.85632 15.1277 6.79552 15.4781C6.48765 15.5798 6.15516 15.628 5.80894 15.609C5.36703 15.5847 4.95291 15.4514 4.59297 15.236C3.82701 14.7779 3.30769 13.9469 3.29361 12.9962C3.27145 11.5104 4.47264 10.299 5.95742 10.299C6.25051 10.299 6.53198 10.3468 6.79552 10.4337V8.24032V7.45184C6.51756 7.41067 6.23468 7.38921 5.94863 7.38921C4.32346 7.38921 2.80349 8.06475 1.717 9.28178C0.895798 10.2015 0.403216 11.3749 0.327218 12.6053C0.227646 14.2217 0.819096 15.7582 1.96611 16.8918C2.13464 17.0582 2.31162 17.2127 2.49669 17.3552C3.48009 18.112 4.68234 18.5223 5.94863 18.5223C6.23468 18.5223 6.51756 18.5011 6.79552 18.46C7.97841 18.2848 9.06983 17.7433 9.93115 16.8918C10.9895 15.8458 11.5743 14.457 11.5806 12.979L11.5655 6.41495C12.0704 6.80445 12.6224 7.12673 13.2149 7.3769C14.1364 7.76568 15.1135 7.96272 16.119 7.96236V5.82984V5.03854C16.1197 5.03925 16.1113 5.03925 16.1106 5.03925Z" fill="#456AE7"/>
</svg>
