<svg width="43" height="40" viewBox="0 0 43 40" fill="none" xmlns="http://www.w3.org/2000/svg">
<path d="M29.5909 23.2829C32.5406 25.5223 33.1125 29.7005 30.8731 32.6502C28.6337 35.5998 24.4554 36.1717 21.5058 33.9323C18.5562 31.6929 17.9843 27.5147 20.2237 24.565C22.3957 21.6246 26.6413 21.0435 29.5909 23.2829Z" fill="url(#paint0_linear_165_3669)"/>
<path d="M15.8661 1.75105C16.9004 2.5363 17.065 3.9898 16.3088 4.98578C15.5236 6.02008 14.0701 6.18469 13.0741 5.42853C12.0398 4.64328 11.8752 3.18978 12.6313 2.19379C13.4166 1.1595 14.8701 0.994889 15.8661 1.75105Z" fill="url(#paint1_linear_165_3669)"/>
<path d="M38.6297 25.6158C39.051 25.9358 39.1341 26.5423 38.8141 26.9637C38.4942 27.385 37.8877 27.468 37.4663 27.1481C37.045 26.8282 36.9619 26.2217 37.2819 25.8003C37.6018 25.3789 38.2083 25.2959 38.6297 25.6158Z" fill="url(#paint2_linear_165_3669)"/>
<defs>
<linearGradient id="paint0_linear_165_3669" x1="18.8751" y1="29.5474" x2="32.1654" y2="27.7283" gradientUnits="userSpaceOnUse">
<stop stop-color="#7DC6FD"/>
<stop offset="0.303" stop-color="#548EF7"/>
<stop offset="1" stop-color="#A728DA"/>
</linearGradient>
<linearGradient id="paint1_linear_165_3669" x1="12.1772" y1="3.91629" x2="16.78" y2="3.28632" gradientUnits="userSpaceOnUse">
<stop stop-color="#7DC6FD"/>
<stop offset="0.303" stop-color="#548EF7"/>
<stop offset="1" stop-color="#A728DA"/>
</linearGradient>
<linearGradient id="paint2_linear_165_3669" x1="37.116" y1="26.5067" x2="39.0064" y2="26.248" gradientUnits="userSpaceOnUse">
<stop stop-color="#7DC6FD"/>
<stop offset="0.303" stop-color="#548EF7"/>
<stop offset="1" stop-color="#A728DA"/>
</linearGradient>
</defs>
</svg>
