<svg width="181" height="173" viewBox="0 0 181 173" fill="none" xmlns="http://www.w3.org/2000/svg"><g opacity=".3"><path opacity=".2" d="M90.718 173c49.828 0 90.222-38.727 90.222-86.5 0-47.772-40.394-86.5-90.222-86.5C40.889 0 .495 38.728.495 86.5c0 47.773 40.394 86.5 90.223 86.5z" fill="url(#paint0_linear_165_3583)"/><path opacity=".2" d="M90.718 173c49.828 0 90.222-38.727 90.222-86.5 0-47.772-40.394-86.5-90.222-86.5C40.889 0 .495 38.728.495 86.5c0 47.773 40.394 86.5 90.223 86.5z" fill="url(#paint1_linear_165_3583)"/><path opacity=".2" d="M90.718 138.489c49.764 0 90.107-22.33 90.107-49.874 0-27.545-40.343-49.874-90.107-49.874C40.953 38.741.61 61.071.61 88.615c0 27.544 40.342 49.874 90.107 49.874z" fill="url(#paint2_linear_165_3583)"/><path opacity=".2" d="M161.782 70.358c-10.567 37.627-50.859 76.369-90.107 86.388-39.247 10.019-62.587-12.246-52.02-49.874C30.22 69.244 70.514 30.503 109.76 20.484c39.248-10.02 62.587 12.246 52.021 49.873z" fill="url(#paint3_linear_165_3583)"/><path opacity=".2" d="M109.761 156.857c-39.247-10.13-79.656-48.76-90.106-86.388C9.088 32.84 32.428 10.465 71.675 20.595c39.248 10.13 79.656 48.76 90.107 86.389 10.45 37.628-12.773 59.893-52.021 49.873z" fill="url(#paint4_linear_165_3583)"/><path opacity=".2" d="M90.718 172.777c28.73 0 52.02-38.678 52.02-86.388C142.738 38.676 119.448 0 90.718 0c-28.73 0-52.02 38.677-52.02 86.388 0 47.711 23.29 86.389 52.02 86.389z" fill="url(#paint5_linear_165_3583)"/></g><defs><linearGradient id="paint0_linear_165_3583" x1="193.58" y1="94.332" x2="146.57" y2="-39.939" gradientUnits="userSpaceOnUse"><stop offset=".042" stop-color="#0129B4"/><stop offset=".358" stop-color="#7628DA"/><stop offset=".734" stop-color="#8C95FF"/></linearGradient><linearGradient id="paint1_linear_165_3583" x1="193.58" y1="94.332" x2="146.57" y2="-39.939" gradientUnits="userSpaceOnUse"><stop offset=".042" stop-color="#4E9CDB"/><stop offset=".469" stop-color="#5761D7"/><stop offset="1" stop-color="#7628DA"/></linearGradient><linearGradient id="paint2_linear_165_3583" x1="193.447" y1="93.13" x2="176.571" y2="9.635" gradientUnits="userSpaceOnUse"><stop offset=".042" stop-color="#4E9CDB"/><stop offset=".469" stop-color="#5761D7"/><stop offset="1" stop-color="#7628DA"/></linearGradient><linearGradient id="paint3_linear_165_3583" x1="174.635" y1="95.001" x2="136.321" y2="-14.495" gradientUnits="userSpaceOnUse"><stop offset=".042" stop-color="#4E9CDB"/><stop offset=".469" stop-color="#5761D7"/><stop offset="1" stop-color="#7628DA"/></linearGradient><linearGradient id="paint4_linear_165_3583" x1="174.593" y1="95.095" x2="136.252" y2="-14.418" gradientUnits="userSpaceOnUse"><stop offset=".042" stop-color="#4E9CDB"/><stop offset=".469" stop-color="#5761D7"/><stop offset="1" stop-color="#7628DA"/></linearGradient><linearGradient id="paint5_linear_165_3583" x1="150.025" y1="94.21" x2="83.281" y2="-15.85" gradientUnits="userSpaceOnUse"><stop offset=".042" stop-color="#4E9CDB"/><stop offset=".469" stop-color="#5761D7"/><stop offset="1" stop-color="#7628DA"/></linearGradient></defs></svg>