<svg xmlns="http://www.w3.org/2000/svg" xmlns:xlink="http://www.w3.org/1999/xlink" width="155" height="138" fill="none"><style>.B{fill-rule:evenodd}.C{color-interpolation-filters:sRGB}.D{flood-opacity:0}.E{opacity:.88}</style><path d="M70.426 113.023l-5.547-79.806 9.69-.34-4.143 80.146z" fill="url(#G)" class="E"/><path d="M66.201 99.961l-5.547-79.806 9.69-.34-4.143 80.146z" fill="url(#H)" class="E"/><path d="M85.201 99.961l-5.547-79.806 9.69-.34-4.143 80.146z" fill="url(#I)" class="E"/><path d="M79.884 110.073l-.087-85.917 9.69-.34-9.603 86.257z" fill="url(#J)" class="E"/><path d="M74.526 137.814l-3.395-93.413 10.7-.418-7.305 93.831z" fill="url(#K)" class="E"/><path d="M40.859 27.6S56.251 1.025 75.112.028c19.562-1.07 36.799 28.605 36.799 28.605L40.859 27.6z" fill="url(#L)" class="B"/><g filter="url(#A)" class="B"><path d="M135.571 38.747c-.296.997-21.703 10.187-58.17 10.187-33.662 0-58.502-8.637-58.17-10.187.222-1.07 26.058-4.687 58.17-4.687s58.391 3.949 58.17 4.688z" fill="url(#M)"/></g><g filter="url(#B)" class="B"><path d="M19.231 38.747s16.905-16.314 55.918-16.314 60.458 16.314 60.458 16.314-15.982-3.691-60.458-3.691c-35.507 0-55.918 3.691-55.918 3.691z" fill="url(#N)"/></g><g filter="url(#C)"><path d="M124.017 43.25l-.258-.074c.222-.701-1.07-1.292-2.178-1.624-7.492-2.436-31.299-3.248-50.271-2.99-23.659.295-40.158 2.141-40.97 4.577l-.258-.074c1.07-3.137 22.035-4.503 41.265-4.798 18.972-.258 42.816.59 50.345 3.027 1.809.59 2.547 1.218 2.325 1.956z" fill="url(#O)"/></g><g filter="url(#D)" class="B"><path d="M53.593 47.494s19.784-2.621 46.248.221c0 0-23.696 2.584-46.248-.221z" fill="url(#P)"/></g><g class="B"><path d="M55.918 47.716s18.639-2.362 41.487.258c0 0-21.481 2.473-41.487-.258z" fill="url(#Q)"/><path d="M60.273 47.273s21.482 1.735 32.112.111c0-.037-19.562-1.218-32.112-.111z" fill="url(#R)"/><path d="M81.312 42.696c0 .48-1.772.849-3.913.849-2.178 0-3.912-.369-3.912-.849 0-.074.037-.111.111-.185.406-.369 1.956-.664 3.839-.664 1.624 0 3.027.221 3.617.517.148.074.258.184.258.332z" fill="url(#S)"/><path d="M81.017 42.364c0 .406-1.698.738-3.765.738-1.846 0-3.359-.258-3.691-.591.406-.369 1.956-.664 3.839-.664 1.624 0 3.027.185 3.617.517z" fill="url(#T)"/><path d="M99.804 43.139c0 .443-1.107.775-2.51.775-1.144 0-2.104-.221-2.399-.554-.074-.074-.111-.148-.111-.221s.037-.111.074-.184c.258-.332 1.255-.591 2.436-.591.738 0 1.403.111 1.846.258a2.46 2.46 0 01.443.221c.148.074.221.185.221.295z" fill="url(#U)"/><path d="M99.25 42.844c0 .443-1.107.775-2.51.775-.738 0-1.403-.111-1.845-.258-.074-.074-.111-.148-.111-.221s.037-.111.074-.184c.258-.332 1.255-.591 2.436-.591.738 0 1.403.111 1.846.258.074.074.111.148.111.221z" fill="url(#V)"/><path d="M112.132 45.39c0 .258-.922.517-2.03.517-.922 0-1.698-.148-1.956-.369-.037-.037-.074-.074-.074-.148 0-.037 0-.074.037-.111.222-.221.997-.406 1.993-.406a8.05 8.05 0 011.514.148c.147.037.295.074.369.148.11.074.147.148.147.221z" fill="url(#W)"/><path d="M111.689 45.206c0 .258-.922.48-2.03.48-.59 0-1.144-.074-1.513-.148-.037-.037-.074-.074-.074-.148 0-.037 0-.074.037-.111.222-.221.997-.406 1.993-.406a8.05 8.05 0 011.514.148c.037.074.073.111.073.185z" fill="url(#X)"/><path d="M56.878 43.104c0 .443 1.107.775 2.51.775 1.144 0 2.104-.221 2.399-.554.074-.074.111-.148.111-.221s-.037-.111-.074-.185c-.258-.332-1.255-.59-2.436-.59-.738 0-1.403.111-1.846.258a2.558 2.558 0 00-.443.221c-.148.074-.222.185-.222.295z" fill="url(#Y)"/><path d="M57.432 42.77c0 .443 1.107.775 2.51.775.738 0 1.403-.111 1.846-.258.074-.074.111-.148.111-.221s-.037-.111-.074-.185c-.258-.332-1.255-.59-2.436-.59-.738 0-1.403.111-1.846.258-.074.074-.111.148-.111.221z" fill="url(#Z)"/><path d="M42.225 45.28c0 .258.923.517 2.03.517.923 0 1.698-.148 1.956-.369.037-.037.074-.074.074-.148 0-.037 0-.074-.037-.111-.221-.221-.997-.406-1.993-.406-.591 0-1.144.074-1.513.148-.148.037-.295.074-.369.148-.111.111-.148.184-.148.221z" fill="url(#a)"/><path d="M42.667 45.095c0 .258.923.48 2.03.48.591 0 1.144-.074 1.513-.148.037-.037.074-.074.074-.148 0-.037 0-.074-.037-.111-.221-.221-.996-.406-1.993-.406-.59 0-1.144.074-1.513.148-.037.111-.074.148-.074.184z" fill="url(#b)"/></g><g filter="url(#E)"><path d="M126.453 33.69c-25.209-10.741-50.751-10.298-67.766-8.009-18.455 2.473-31.078 7.53-31.226 7.603l-.111-.221c.111-.037 12.771-5.13 31.263-7.603 17.052-2.288 42.668-2.731 67.951 8.046l-.111.184z" fill="url(#c)"/></g><g filter="url(#F)"><path d="M19.23 38.894l-.037-.258c.184-.037 17.532-3.691 59.093-3.691s57.173 3.654 57.321 3.691l-.074.258c-.148-.037-15.724-3.654-57.247-3.654-41.524-.037-58.871 3.617-59.056 3.654z" fill="url(#d)"/></g><path d="M32.112 37.123l-.185-.185c.074-.074 7.087-6.57 12.365-8.932l.111.221c-5.241 2.325-12.217 8.821-12.291 8.895zm92.68.184c-8.046-6.607-20.005-10.335-20.152-10.372l.073-.258c.111.037 12.144 3.802 20.227 10.446l-.148.184z" fill="#77439f"/><g class="B"><path d="M53.704 23.54s9.855-6.275 23.807-6.976c13.952-.664 24.028 6.755 24.028 6.755s-24.508-5.204-47.835.221z" fill="url(#e)"/><path d="M40.859 27.6l.812-1.292s42.594-12.697 68.985.258l.775 1.218s-11.885-4.835-35.913-4.835C51.527 22.986 40.86 27.6 40.86 27.6z" fill="url(#f)"/><use xlink:href="#l" fill="url(#g)"/><path d="M77.621 35.24c0 .295-.295.517-.627.517-.369 0-.627-.221-.627-.517s.295-.517.627-.517c.369 0 .627.258.627.517z" fill="url(#h)"/><use xlink:href="#l" x="47.909" y="1.772" fill="url(#i)"/><path d="M125.53 37.012c0 .295-.295.517-.627.517-.369 0-.628-.221-.628-.517s.296-.517.628-.517.627.221.627.517z" fill="url(#j)"/><use xlink:href="#l" x="-45.546" y="1.772" fill="url(#g)"/><path d="M32.112 37.012c0 .295-.295.517-.628.517-.369 0-.628-.221-.628-.517s.295-.517.628-.517.628.221.628.517z" fill="url(#k)"/></g><defs><linearGradient id="G" x1="66.229" y1="34.831" x2="60.625" y2="137.339" xlink:href="#m"><stop offset=".107" stop-color="#864dff"/><stop offset=".885" stop-color="#1d147c" stop-opacity=".19"/></linearGradient><linearGradient id="H" x1="62.004" y1="21.77" x2="56.401" y2="124.278" xlink:href="#m"><stop offset=".107" stop-color="#864dff"/><stop offset=".885" stop-color="#1d147c" stop-opacity=".19"/></linearGradient><linearGradient id="I" x1="81.004" y1="21.77" x2="75.401" y2="124.278" xlink:href="#m"><stop offset=".107" stop-color="#864dff"/><stop offset=".885" stop-color="#1d147c" stop-opacity=".19"/></linearGradient><linearGradient id="J" x1="81.148" y1="25.77" x2="93.056" y2="149.807" xlink:href="#m"><stop offset=".107" stop-color="#864dff"/><stop offset=".885" stop-color="#1d147c" stop-opacity=".19"/></linearGradient><linearGradient id="K" x1="72.629" y1="46.178" x2="64.204" y2="171.942" xlink:href="#m"><stop offset=".078" stop-color="#8354e7"/><stop offset=".885" stop-color="#1d147c" stop-opacity=".19"/></linearGradient><linearGradient id="L" x1="-16.447" y1="56.383" x2="29.164" y2="-74.417" xlink:href="#m"><stop offset=".444" stop-color="#d3ecff"/><stop offset="1" stop-color="#548ef7"/></linearGradient><linearGradient id="M" x1="6.11" y1="-15.325" x2="24.219" y2="98.897" xlink:href="#m"><stop offset=".594" stop-color="#7229a8"/><stop offset=".918" stop-color="#d57eff"/></linearGradient><linearGradient id="N" x1="6.11" y1="-31.73" x2="27.779" y2="92.927" xlink:href="#m"><stop offset=".594" stop-color="#901be7"/><stop offset=".918" stop-color="#d57eff"/></linearGradient><linearGradient id="O" x1="19.487" y1="21.532" x2="22.101" y2="60.933" xlink:href="#m"><stop offset=".377" stop-color="#450674"/><stop offset=".918" stop-color="#d57eff"/></linearGradient><linearGradient id="P" x1="48.379" y1="38.396" x2="49.598" y2="57.278" xlink:href="#m"><stop offset=".377" stop-color="#450674"/><stop offset=".918" stop-color="#d57eff"/></linearGradient><linearGradient id="Q" x1="58.289" y1="45.733" x2="58.194" y2="49.763" xlink:href="#m"><stop stop-color="#7dc6fd"/><stop offset=".303" stop-color="#548ef7"/><stop offset="1" stop-color="#a728da"/></linearGradient><linearGradient id="R" x1="64.84" y1="46.986" x2="64.046" y2="49.651" xlink:href="#m"><stop stop-color="#7dc6fd"/><stop offset=".224" stop-color="#548ef7" stop-opacity=".28"/><stop offset="1" stop-color="#a728da"/></linearGradient><linearGradient id="S" x1="67.176" y1="45.19" x2="68.754" y2="36.788" xlink:href="#m"><stop offset=".444" stop-color="#d3ecff"/><stop offset="1" stop-color="#548ef7"/></linearGradient><linearGradient id="T" x1="67.548" y1="44.318" x2="68.465" y2="38.022" xlink:href="#m"><stop offset=".444" stop-color="#d3ecff"/><stop offset="1" stop-color="#548ef7"/></linearGradient><linearGradient id="U" x1="90.736" y1="45.416" x2="92.717" y2="38.003" xlink:href="#m"><stop offset=".444" stop-color="#d3ecff"/><stop offset="1" stop-color="#548ef7"/></linearGradient><linearGradient id="V" x1="91.182" y1="44.835" x2="92.658" y2="38.764" xlink:href="#m"><stop offset=".444" stop-color="#d3ecff"/><stop offset="1" stop-color="#548ef7"/></linearGradient><linearGradient id="W" x1="104.798" y1="46.909" x2="105.91" y2="41.859" xlink:href="#m"><stop offset=".444" stop-color="#d3ecff"/><stop offset="1" stop-color="#548ef7"/></linearGradient><linearGradient id="X" x1="105.155" y1="46.473" x2="105.934" y2="42.464" xlink:href="#m"><stop offset=".444" stop-color="#d3ecff"/><stop offset="1" stop-color="#548ef7"/></linearGradient><linearGradient id="Y" x1="52.829" y1="45.381" x2="54.81" y2="37.968" xlink:href="#m"><stop offset=".444" stop-color="#d3ecff"/><stop offset="1" stop-color="#548ef7"/></linearGradient><linearGradient id="Z" x1="53.83" y1="44.761" x2="55.306" y2="38.69" xlink:href="#m"><stop offset=".444" stop-color="#d3ecff"/><stop offset="1" stop-color="#548ef7"/></linearGradient><linearGradient id="a" x1="38.95" y1="46.798" x2="40.062" y2="41.748" xlink:href="#m"><stop offset=".444" stop-color="#d3ecff"/><stop offset="1" stop-color="#548ef7"/></linearGradient><linearGradient id="b" x1="39.75" y1="46.362" x2="40.528" y2="42.353" xlink:href="#m"><stop offset=".444" stop-color="#d3ecff"/><stop offset="1" stop-color="#548ef7"/></linearGradient><linearGradient id="c" x1="16.165" y1="-7.596" x2="25.025" y2="66.578" xlink:href="#m"><stop offset=".377" stop-color="#450674"/><stop offset=".918" stop-color="#d57eff"/></linearGradient><linearGradient id="d" x1="6.068" y1="21.833" x2="7.374" y2="52.867" xlink:href="#m"><stop offset=".594" stop-color="#901be7"/><stop offset=".918" stop-color="#d57eff"/></linearGradient><linearGradient id="e" x1="15.123" y1="30.341" x2="19.615" y2="-5.046" xlink:href="#m"><stop offset=".444" stop-color="#d3ecff"/><stop offset="1" stop-color="#548ef7"/></linearGradient><linearGradient id="g" x1="74.872" y1="37.192" x2="78.082" y2="32.657" xlink:href="#m"><stop offset=".444" stop-color="#d3ecff"/><stop offset="1" stop-color="#548ef7"/></linearGradient><linearGradient id="h" x1="75.354" y1="36.759" x2="77.857" y2="33.247" xlink:href="#m"><stop offset=".444" stop-color="#d3ecff"/><stop offset="1" stop-color="#548ef7"/></linearGradient><linearGradient id="i" x1="74.872" y1="37.192" x2="78.083" y2="32.657" xlink:href="#m"><stop offset=".444" stop-color="#d3ecff"/><stop offset="1" stop-color="#548ef7"/></linearGradient><linearGradient id="j" x1="123.263" y1="38.53" x2="125.766" y2="35.018" xlink:href="#m"><stop offset=".444" stop-color="#d3ecff"/><stop offset="1" stop-color="#548ef7"/></linearGradient><linearGradient id="k" x1="29.845" y1="38.53" x2="32.348" y2="35.018" xlink:href="#m"><stop offset=".444" stop-color="#d3ecff"/><stop offset="1" stop-color="#548ef7"/></linearGradient><linearGradient id="m" gradientUnits="userSpaceOnUse"/><filter id="A" x=".228" y="24.059" width="154.345" height="52.875" filterUnits="userSpaceOnUse" class="C"><feFlood result="A" class="D"/><feColorMatrix in="SourceAlpha" values="0 0 0 0 0 0 0 0 0 0 0 0 0 0 0 0 0 0 127 0" result="B"/><feOffset dy="9"/><feGaussianBlur stdDeviation="9.5"/><feComposite in2="B" operator="out"/><feColorMatrix values="0 0 0 0 0 0 0 0 0 0 0 0 0 0 0 0 0 0 0.15 0"/><feBlend in2="A"/><feBlend in="SourceGraphic"/></filter><filter id="B" x=".23" y="12.433" width="154.377" height="54.314" filterUnits="userSpaceOnUse" class="C"><feFlood result="A" class="D"/><feColorMatrix in="SourceAlpha" values="0 0 0 0 0 0 0 0 0 0 0 0 0 0 0 0 0 0 127 0" result="B"/><feOffset dy="9"/><feGaussianBlur stdDeviation="9.5"/><feComposite in2="B" operator="out"/><feColorMatrix values="0 0 0 0 0 0 0 0 0 0 0 0 0 0 0 0 0 0 0.15 0"/><feBlend in2="A"/><feBlend in="SourceGraphic"/></filter><filter id="C" x="11.082" y="28.222" width="131.974" height="43.027" filterUnits="userSpaceOnUse" class="C"><feFlood result="A" class="D"/><feColorMatrix in="SourceAlpha" values="0 0 0 0 0 0 0 0 0 0 0 0 0 0 0 0 0 0 127 0" result="B"/><feOffset dy="9"/><feGaussianBlur stdDeviation="9.5"/><feComposite in2="B" operator="out"/><feColorMatrix values="0 0 0 0 0 0 0 0 0 0 0 0 0 0 0 0 0 0 0.15 0"/><feBlend in2="A"/><feBlend in="SourceGraphic"/></filter><filter id="D" x="34.593" y="36.393" width="84.248" height="40.409" filterUnits="userSpaceOnUse" class="C"><feFlood result="A" class="D"/><feColorMatrix in="SourceAlpha" values="0 0 0 0 0 0 0 0 0 0 0 0 0 0 0 0 0 0 127 0" result="B"/><feOffset dy="9"/><feGaussianBlur stdDeviation="9.5"/><feComposite in2="B" operator="out"/><feColorMatrix values="0 0 0 0 0 0 0 0 0 0 0 0 0 0 0 0 0 0 0.15 0"/><feBlend in2="A"/><feBlend in="SourceGraphic"/></filter><filter id="E" x="8.351" y="14.133" width="137.214" height="47.557" filterUnits="userSpaceOnUse" class="C"><feFlood result="A" class="D"/><feColorMatrix in="SourceAlpha" values="0 0 0 0 0 0 0 0 0 0 0 0 0 0 0 0 0 0 127 0" result="B"/><feOffset dy="9"/><feGaussianBlur stdDeviation="9.5"/><feComposite in2="B" operator="out"/><feColorMatrix values="0 0 0 0 0 0 0 0 0 0 0 0 0 0 0 0 0 0 0.15 0"/><feBlend in2="A"/><feBlend in="SourceGraphic"/></filter><filter id="F" x=".193" y="24.945" width="154.413" height="41.949" filterUnits="userSpaceOnUse" class="C"><feFlood result="A" class="D"/><feColorMatrix in="SourceAlpha" values="0 0 0 0 0 0 0 0 0 0 0 0 0 0 0 0 0 0 127 0" result="B"/><feOffset dy="9"/><feGaussianBlur stdDeviation="9.5"/><feComposite in2="B" operator="out"/><feColorMatrix values="0 0 0 0 0 0 0 0 0 0 0 0 0 0 0 0 0 0 0.15 0"/><feBlend in2="A"/><feBlend in="SourceGraphic"/></filter><radialGradient id="f" cx="0" cy="0" r="1" gradientTransform="matrix(18.9266 0 0 28.5452 75.242 20.906)" xlink:href="#m"><stop offset=".022" stop-color="#725eb0"/><stop offset=".383" stop-color="#6d52aa"/><stop offset=".994" stop-color="#61349c"/></radialGradient><path id="l" d="M77.806 35.24c0 .369-.369.664-.812.664s-.812-.295-.812-.664.369-.664.812-.664.812.295.812.664z"/></defs></svg>