<svg width="146" height="158" viewBox="0 0 146 158" fill="none" xmlns="http://www.w3.org/2000/svg">
<g filter="url(#filter0_d_166_4800)">
<path fill-rule="evenodd" clip-rule="evenodd" d="M92.2902 100.655C92.7977 99.0079 94.2077 97.7975 95.918 97.5405L96.2297 97.4937C99.1506 97.0547 101.739 99.2209 101.433 102.148C100.8 108.194 98.7022 118.536 91.9365 129.499C91.8395 129.656 91.6632 129.75 91.4781 129.743C91.1894 129.732 90.9661 129.487 90.983 129.199L92.298 106.888C92.3225 106.474 92.009 106.115 91.5931 106.083C91.1044 106.045 90.7768 105.565 90.9206 105.098L92.2902 100.655Z" fill="url(#paint0_linear_166_4800)"/>
</g>
<g filter="url(#filter1_d_166_4800)">
<path fill-rule="evenodd" clip-rule="evenodd" d="M54.8361 99.6496C54.4774 97.9038 53.115 96.534 51.3657 96.1604L50.9967 96.0816C48.0727 95.4571 45.3252 97.4787 45.45 100.454C45.7053 106.541 47.154 116.974 53.1929 128.312C53.2784 128.472 53.4447 128.577 53.6268 128.584C53.9172 128.596 54.1589 128.365 54.1598 128.075L54.2301 105.736C54.2314 105.316 54.5708 104.975 54.9927 104.97C55.4777 104.964 55.8368 104.52 55.7396 104.046L54.8361 99.6496Z" fill="url(#paint1_linear_166_4800)"/>
</g>
<path fill-rule="evenodd" clip-rule="evenodd" d="M76.5504 5.79252C65.5361 5.42389 47.4597 31.3668 48.0656 55.9827C48.697 80.6331 58.9107 117.133 58.9107 117.133L73.0281 117.723L87.1564 118.039C87.1564 118.039 99.6511 82.2557 101.831 57.7214C103.96 33.1183 87.4792 6.11766 76.5504 5.79252Z" fill="url(#paint2_linear_166_4800)"/>
<path d="M91.7658 18.8246C78.1239 12.4582 61.6044 16.5594 61.4149 16.5922L61.3309 16.3347C61.5204 16.3019 78.1347 12.1842 91.8367 18.5597L91.7658 18.8246Z" fill="#4B50DA"/>
<path fill-rule="evenodd" clip-rule="evenodd" d="M72.8379 6.55096L81.072 7.20616C81.0374 7.23158 76.9596 4.10834 72.8379 6.55096Z" fill="#53345F"/>
<path fill-rule="evenodd" clip-rule="evenodd" d="M73.9662 6.20077C73.9662 6.20077 76.1706 5.85832 78.6361 6.22868C78.6361 6.22868 77.8501 2.28338 76.4324 2.10103C75.0148 1.91869 73.9662 6.20077 73.9662 6.20077Z" fill="url(#paint3_linear_166_4800)"/>
<path fill-rule="evenodd" clip-rule="evenodd" d="M53.149 93.0589C53.149 93.0589 77.2171 86.0194 95.0586 92.0675C92.4067 102.263 89.9051 115.082 84.9718 115.551C82.7294 115.764 84.4167 117.393 69.5861 116.816C54.7555 116.238 54.8857 105.138 53.149 93.0589Z" fill="url(#paint4_linear_166_4800)"/>
<path fill-rule="evenodd" clip-rule="evenodd" d="M75.1254 21.8971C65.1538 22.3587 57.709 33.9468 56.9229 44.2081C56.1368 54.4695 65.4078 61.0672 75.4873 61.1117C85.5668 61.1562 94.1425 54.4838 93.3628 43.1912C92.6002 33.0033 86.1812 21.384 75.1254 21.8971Z" fill="url(#paint5_linear_166_4800)"/>
<path fill-rule="evenodd" clip-rule="evenodd" d="M75.143 20.7673C65.1713 21.2289 57.7266 32.817 56.9405 43.0783C56.1544 53.3397 65.4254 59.9374 75.5049 59.9819C85.5844 60.0264 94.1601 53.354 93.3804 42.0613C92.6524 31.8481 86.1987 20.2542 75.143 20.7673Z" fill="url(#paint6_linear_166_4800)"/>
<g filter="url(#filter2_d_166_4800)">
<path fill-rule="evenodd" clip-rule="evenodd" d="M75.6896 24.4626C66.76 24.7439 62.0267 33.8612 61.3959 41.8802C60.7651 49.8991 68.0437 55.0341 75.9731 55.0618C83.9026 55.0895 90.6263 49.8841 89.9903 41.093C89.4514 33.0821 85.0237 24.1501 75.6896 24.4626Z" fill="url(#paint7_linear_166_4800)"/>
</g>
<path fill-rule="evenodd" clip-rule="evenodd" d="M84.3968 52.4382C82.0274 54.0724 79.0963 54.9487 75.9314 54.9325C68.3718 54.8992 60.7942 49.505 61.3962 41.8797C61.5968 39.338 62.2711 36.7143 63.3993 34.3424C65.6375 29.7186 69.7256 26.0768 75.6452 25.7719C84.4125 25.3438 88.7307 33.9837 89.2639 41.6264C89.6642 46.4935 87.6313 50.1685 84.3968 52.4382Z" fill="url(#paint8_linear_166_4800)"/>
<path d="M75.2567 61.107L74.3535 89.6931L74.6114 89.7011L75.5146 61.115L75.2567 61.107Z" fill="#4B50DA"/>
<path d="M53.1903 93.1879L53.1063 92.9303C80.6145 85.9177 94.9649 91.87 95.1107 91.9225L95.0143 92.153C94.8339 92.1259 80.5691 86.217 53.1903 93.1879Z" fill="#938EFF"/>
<path d="M51.3573 83.5738L51.2387 83.3417C51.3079 83.2909 59.9064 78.0915 74.8997 77.7719L74.8889 78.0459C59.9558 78.3745 51.4265 83.523 51.3573 83.5738Z" fill="#4B50DA"/>
<path fill-rule="evenodd" clip-rule="evenodd" d="M61.9858 118.325C61.7438 116.884 62.756 115.541 64.2167 115.408C67.9781 115.066 75.2222 114.553 82.7973 114.809C84.4334 114.865 85.655 116.305 85.4853 117.926C85.3326 119.385 84.0975 120.493 82.624 120.491L64.5273 120.471C63.2683 120.47 62.1935 119.562 61.9858 118.325Z" fill="url(#paint9_linear_166_4800)"/>
<g filter="url(#filter3_d_166_4800)">
<path fill-rule="evenodd" clip-rule="evenodd" d="M58.0484 21.3528C58.0484 21.3528 73.9153 13.8468 93.9813 22.4642L91.7834 18.7048C91.7834 18.7048 80.2189 12.8342 61.3723 16.4634L58.0484 21.3528Z" fill="url(#paint10_linear_166_4800)"/>
</g>
<path fill-rule="evenodd" clip-rule="evenodd" d="M74.1092 79.7359C74.0968 80.2239 73.6725 80.5888 73.1824 80.5765C72.6922 80.5641 72.3257 80.1416 72.3382 79.6536C72.3506 79.1656 72.7749 78.8007 73.2651 78.813C73.7206 78.8509 74.1217 79.2479 74.1092 79.7359Z" fill="#6B3DD9"/>
<path fill-rule="evenodd" clip-rule="evenodd" d="M73.8935 79.7346C73.8646 80.1282 73.5441 80.4169 73.1743 80.4226C72.7789 80.3938 72.489 80.0747 72.4833 79.7064C72.5122 79.3127 72.8327 79.0241 73.2025 79.0184C73.5979 79.0472 73.9224 79.3409 73.8935 79.7346Z" fill="#6B3DD9"/>
<path fill-rule="evenodd" clip-rule="evenodd" d="M74.2128 75.4032C74.2003 75.8912 73.776 76.2561 73.2859 76.2437C72.7957 76.2313 72.4292 75.8088 72.4417 75.3208C72.4541 74.8328 72.8784 74.4679 73.3686 74.4803C73.8587 74.4927 74.2252 74.9151 74.2128 75.4032Z" fill="#6B3DD9"/>
<path fill-rule="evenodd" clip-rule="evenodd" d="M74.0322 75.3756C74.0033 75.7693 73.6828 76.0579 73.3129 76.0636C72.9175 76.0348 72.6276 75.7157 72.6219 75.3475C72.6508 74.9538 72.9713 74.6651 73.3412 74.6595C73.7366 74.6882 74.0265 75.0073 74.0322 75.3756Z" fill="#6B3DD9"/>
<path fill-rule="evenodd" clip-rule="evenodd" d="M60.4394 45.3494C60.4105 45.7431 60.09 46.0317 59.7202 46.0374C59.3248 46.0086 59.0349 45.6895 59.0292 45.3212C59.0581 44.9275 59.3786 44.6389 59.7484 44.6332C60.1438 44.662 60.4337 44.9811 60.4394 45.3494Z" fill="url(#paint11_linear_166_4800)"/>
<path fill-rule="evenodd" clip-rule="evenodd" d="M62.3769 32.965C62.348 33.3587 62.0275 33.6473 61.6577 33.653C61.2623 33.6242 60.9724 33.3051 60.9667 32.9368C60.9956 32.5431 61.3161 32.2545 61.6859 32.2488C62.0813 32.2776 62.3712 32.5967 62.3769 32.965Z" fill="url(#paint12_linear_166_4800)"/>
<path fill-rule="evenodd" clip-rule="evenodd" d="M68.4101 55.4565C68.3812 55.8502 68.0607 56.1388 67.6909 56.1445C67.2955 56.1157 67.0056 55.7966 66.9999 55.4283C67.0288 55.0346 67.3493 54.746 67.7191 54.7403C68.089 54.7347 68.3789 55.0538 68.4101 55.4565Z" fill="url(#paint13_linear_166_4800)"/>
<path fill-rule="evenodd" clip-rule="evenodd" d="M82.0215 56.9503C81.9926 57.344 81.6721 57.6327 81.3022 57.6383C80.9068 57.6096 80.6169 57.2904 80.6112 56.9222C80.6401 56.5285 80.9606 56.2398 81.3305 56.2342C81.7605 56.2375 82.0504 56.5566 82.0215 56.9503Z" fill="url(#paint14_linear_166_4800)"/>
<path fill-rule="evenodd" clip-rule="evenodd" d="M91.5273 49.0091C91.4984 49.4028 91.1779 49.6914 90.808 49.6971C90.4127 49.6683 90.1227 49.3492 90.117 48.981C90.1459 48.5873 90.4664 48.2986 90.8363 48.2929C91.2663 48.2963 91.5562 48.6154 91.5273 49.0091Z" fill="url(#paint15_linear_166_4800)"/>
<path fill-rule="evenodd" clip-rule="evenodd" d="M90.6357 33.3823C90.6068 33.776 90.2863 34.0646 89.9164 34.0703C89.5466 34.076 89.2311 33.7224 89.2254 33.3541C89.2543 32.9604 89.5748 32.6718 89.9447 32.6661C90.3401 32.6949 90.63 33.014 90.6357 33.3823Z" fill="url(#paint16_linear_166_4800)"/>
<path fill-rule="evenodd" clip-rule="evenodd" d="M83.9238 25.1175C83.8949 25.5112 83.5744 25.7998 83.2045 25.8055C82.8091 25.7767 82.5192 25.4576 82.5135 25.0893C82.5424 24.6957 82.8629 24.407 83.2328 24.4013C83.6282 24.4301 83.9181 24.7492 83.9238 25.1175Z" fill="url(#paint17_linear_166_4800)"/>
<path fill-rule="evenodd" clip-rule="evenodd" d="M72.2392 23.4852C72.2103 23.8789 71.8898 24.1675 71.52 24.1732C71.1246 24.1444 70.8347 23.8253 70.829 23.457C70.8579 23.0633 71.1784 22.7747 71.5482 22.769C71.9436 22.7978 72.2335 23.1169 72.2392 23.4852Z" fill="url(#paint18_linear_166_4800)"/>
<g filter="url(#filter4_d_166_4800)">
<path fill-rule="evenodd" clip-rule="evenodd" d="M79.9889 92.2837L82.3193 92.3276L78.8025 129.337L77.2118 129.282L79.9889 92.2837Z" fill="url(#paint19_linear_166_4800)"/>
</g>
<g filter="url(#filter5_d_166_4800)">
<path fill-rule="evenodd" clip-rule="evenodd" d="M79.3683 100.551C79.4265 99.7759 78.2987 99.6044 78.1239 100.361C78.1147 100.401 78.1094 100.442 78.1081 100.483L77.2118 129.282L79.3683 100.551Z" fill="url(#paint20_linear_166_4800)"/>
</g>
<path fill-rule="evenodd" clip-rule="evenodd" d="M99.5986 36.5355C99.5986 36.5355 103.732 35.8399 100.591 40.5423L99.5986 36.5355Z" fill="url(#paint21_linear_166_4800)"/>
<path fill-rule="evenodd" clip-rule="evenodd" d="M51.7527 34.4913C51.7527 34.4913 47.9089 35.506 50.5362 38.2583L51.7527 34.4913Z" fill="url(#paint22_linear_166_4800)"/>
<path fill-rule="evenodd" clip-rule="evenodd" d="M59.5943 91.5162C59.5909 91.9443 59.3215 92.3019 58.9862 92.2822C58.6509 92.2624 58.4303 91.8925 58.4336 91.4643C58.437 91.0362 58.7064 90.6786 59.0417 90.6984C59.377 90.7181 59.5977 91.0881 59.5943 91.5162Z" fill="#6B3DD9"/>
<path fill-rule="evenodd" clip-rule="evenodd" d="M89.1125 90.317C89.1091 90.7452 88.8051 91.1281 88.4443 91.0739C88.109 91.0542 87.7936 90.7006 87.8316 90.2471C87.8349 89.8189 88.139 89.436 88.4998 89.4902C88.8606 89.5444 89.1159 89.8889 89.1125 90.317Z" fill="#6B3DD9"/>
<path fill-rule="evenodd" clip-rule="evenodd" d="M75.3045 89.7125C75.3011 90.1407 74.9369 90.5146 74.4814 90.4768C74.0514 90.4734 73.6758 90.1108 73.7138 89.6573C73.7172 89.2291 74.0814 88.8552 74.5369 88.893C74.9924 88.9308 75.3079 89.2844 75.3045 89.7125Z" fill="#6B3DD9"/>
<defs>
<filter id="filter0_d_166_4800" x="71.8867" y="87.4371" width="48.5713" height="70.3065" filterUnits="userSpaceOnUse" color-interpolation-filters="sRGB">
<feFlood flood-opacity="0" result="BackgroundImageFix"/>
<feColorMatrix in="SourceAlpha" type="matrix" values="0 0 0 0 0 0 0 0 0 0 0 0 0 0 0 0 0 0 127 0" result="hardAlpha"/>
<feOffset dy="9"/>
<feGaussianBlur stdDeviation="9.5"/>
<feComposite in2="hardAlpha" operator="out"/>
<feColorMatrix type="matrix" values="0 0 0 0 0 0 0 0 0 0 0 0 0 0 0 0 0 0 0.15 0"/>
<feBlend mode="normal" in2="BackgroundImageFix" result="effect1_dropShadow_166_4800"/>
<feBlend mode="normal" in="SourceGraphic" in2="effect1_dropShadow_166_4800" result="shape"/>
</filter>
<filter id="filter1_d_166_4800" x="26.4463" y="85.9681" width="48.3096" height="70.6166" filterUnits="userSpaceOnUse" color-interpolation-filters="sRGB">
<feFlood flood-opacity="0" result="BackgroundImageFix"/>
<feColorMatrix in="SourceAlpha" type="matrix" values="0 0 0 0 0 0 0 0 0 0 0 0 0 0 0 0 0 0 127 0" result="hardAlpha"/>
<feOffset dy="9"/>
<feGaussianBlur stdDeviation="9.5"/>
<feComposite in2="hardAlpha" operator="out"/>
<feColorMatrix type="matrix" values="0 0 0 0 0 0 0 0 0 0 0 0 0 0 0 0 0 0 0.15 0"/>
<feBlend mode="normal" in2="BackgroundImageFix" result="effect1_dropShadow_166_4800"/>
<feBlend mode="normal" in="SourceGraphic" in2="effect1_dropShadow_166_4800" result="shape"/>
</filter>
<filter id="filter2_d_166_4800" x="42.3574" y="14.4546" width="66.6748" height="68.6073" filterUnits="userSpaceOnUse" color-interpolation-filters="sRGB">
<feFlood flood-opacity="0" result="BackgroundImageFix"/>
<feColorMatrix in="SourceAlpha" type="matrix" values="0 0 0 0 0 0 0 0 0 0 0 0 0 0 0 0 0 0 127 0" result="hardAlpha"/>
<feOffset dy="9"/>
<feGaussianBlur stdDeviation="9.5"/>
<feComposite in2="hardAlpha" operator="out"/>
<feColorMatrix type="matrix" values="0 0 0 0 0 0 0 0 0 0 0 0 0 0 0 0 0 0 0.15 0"/>
<feBlend mode="normal" in2="BackgroundImageFix" result="effect1_dropShadow_166_4800"/>
<feBlend mode="normal" in="SourceGraphic" in2="effect1_dropShadow_166_4800" result="shape"/>
</filter>
<filter id="filter3_d_166_4800" x="39.0488" y="5.27917" width="73.9326" height="45.185" filterUnits="userSpaceOnUse" color-interpolation-filters="sRGB">
<feFlood flood-opacity="0" result="BackgroundImageFix"/>
<feColorMatrix in="SourceAlpha" type="matrix" values="0 0 0 0 0 0 0 0 0 0 0 0 0 0 0 0 0 0 127 0" result="hardAlpha"/>
<feOffset dy="9"/>
<feGaussianBlur stdDeviation="9.5"/>
<feComposite in2="hardAlpha" operator="out"/>
<feColorMatrix type="matrix" values="0 0 0 0 0 0 0 0 0 0 0 0 0 0 0 0 0 0 0.15 0"/>
<feBlend mode="normal" in2="BackgroundImageFix" result="effect1_dropShadow_166_4800"/>
<feBlend mode="normal" in="SourceGraphic" in2="effect1_dropShadow_166_4800" result="shape"/>
</filter>
<filter id="filter4_d_166_4800" x="58.2119" y="82.2837" width="43.1074" height="75.0531" filterUnits="userSpaceOnUse" color-interpolation-filters="sRGB">
<feFlood flood-opacity="0" result="BackgroundImageFix"/>
<feColorMatrix in="SourceAlpha" type="matrix" values="0 0 0 0 0 0 0 0 0 0 0 0 0 0 0 0 0 0 127 0" result="hardAlpha"/>
<feOffset dy="9"/>
<feGaussianBlur stdDeviation="9.5"/>
<feComposite in2="hardAlpha" operator="out"/>
<feColorMatrix type="matrix" values="0 0 0 0 0 0 0 0 0 0 0 0 0 0 0 0 0 0 0.15 0"/>
<feBlend mode="normal" in2="BackgroundImageFix" result="effect1_dropShadow_166_4800"/>
<feBlend mode="normal" in="SourceGraphic" in2="effect1_dropShadow_166_4800" result="shape"/>
</filter>
<filter id="filter5_d_166_4800" x="58.2119" y="89.8737" width="40.1582" height="67.4078" filterUnits="userSpaceOnUse" color-interpolation-filters="sRGB">
<feFlood flood-opacity="0" result="BackgroundImageFix"/>
<feColorMatrix in="SourceAlpha" type="matrix" values="0 0 0 0 0 0 0 0 0 0 0 0 0 0 0 0 0 0 127 0" result="hardAlpha"/>
<feOffset dy="9"/>
<feGaussianBlur stdDeviation="9.5"/>
<feComposite in2="hardAlpha" operator="out"/>
<feColorMatrix type="matrix" values="0 0 0 0 0 0 0 0 0 0 0 0 0 0 0 0 0 0 0.15 0"/>
<feBlend mode="normal" in2="BackgroundImageFix" result="effect1_dropShadow_166_4800"/>
<feBlend mode="normal" in="SourceGraphic" in2="effect1_dropShadow_166_4800" result="shape"/>
</filter>
<linearGradient id="paint0_linear_166_4800" x1="24.8295" y1="45.8482" x2="127.295" y2="45.8" gradientUnits="userSpaceOnUse">
<stop stop-color="#7345D3"/>
<stop offset="0.473258" stop-color="#5DB7FF"/>
<stop offset="0.889377" stop-color="#C2DEFF"/>
</linearGradient>
<linearGradient id="paint1_linear_166_4800" x1="-31.086" y1="18.3734" x2="48.3998" y2="-2.86047" gradientUnits="userSpaceOnUse">
<stop stop-color="#7345D3"/>
<stop offset="0.473258" stop-color="#5DB7FF"/>
<stop offset="0.889377" stop-color="#C2DEFF"/>
</linearGradient>
<linearGradient id="paint2_linear_166_4800" x1="115.347" y1="0.34919" x2="4.79211" y2="-40.4243" gradientUnits="userSpaceOnUse">
<stop offset="0.120943" stop-color="#5CB6FF"/>
<stop offset="0.501219" stop-color="#005BFF"/>
</linearGradient>
<linearGradient id="paint3_linear_166_4800" x1="75.3296" y1="14.4778" x2="76.9429" y2="-4.01708" gradientUnits="userSpaceOnUse">
<stop offset="0.443606" stop-color="#D3ECFF"/>
<stop offset="1" stop-color="#548EF7"/>
</linearGradient>
<linearGradient id="paint4_linear_166_4800" x1="97.0847" y1="70.4999" x2="54.5601" y2="49.2445" gradientUnits="userSpaceOnUse">
<stop offset="0.118076" stop-color="#5CB6FF"/>
<stop offset="0.920634" stop-color="#005BFF"/>
</linearGradient>
<linearGradient id="paint5_linear_166_4800" x1="-30.5714" y1="-60.7045" x2="112.731" y2="-69.997" gradientUnits="userSpaceOnUse">
<stop stop-color="#7345D3"/>
<stop offset="0.473258" stop-color="#5DB7FF"/>
<stop offset="0.889377" stop-color="#C2DEFF"/>
</linearGradient>
<linearGradient id="paint6_linear_166_4800" x1="-30.5553" y1="-61.8333" x2="112.793" y2="-71.1006" gradientUnits="userSpaceOnUse">
<stop stop-color="#7345D3"/>
<stop offset="0.473258" stop-color="#5DB7FF"/>
<stop offset="0.889377" stop-color="#C2DEFF"/>
</linearGradient>
<linearGradient id="paint7_linear_166_4800" x1="-7.81577" y1="-41.1902" x2="105.276" y2="-48.6022" gradientUnits="userSpaceOnUse">
<stop stop-color="#7345D3"/>
<stop offset="0.711593" stop-color="#5DB7FF"/>
<stop offset="0.889377" stop-color="#C2DEFF"/>
</linearGradient>
<linearGradient id="paint8_linear_166_4800" x1="70.5911" y1="97.4211" x2="79.8833" y2="-13.6648" gradientUnits="userSpaceOnUse">
<stop offset="0.443606" stop-color="#D3ECFF"/>
<stop offset="1" stop-color="#548EF7"/>
</linearGradient>
<linearGradient id="paint9_linear_166_4800" x1="83.9821" y1="110.417" x2="66.2246" y2="98.3666" gradientUnits="userSpaceOnUse">
<stop offset="0.118076" stop-color="#5CB6FF"/>
<stop offset="0.617582" stop-color="#4D42D5"/>
</linearGradient>
<linearGradient id="paint10_linear_166_4800" x1="6.54802" y1="-42.7157" x2="187.228" y2="-49.391" gradientUnits="userSpaceOnUse">
<stop stop-color="#7345D3"/>
<stop offset="0.440367" stop-color="#5DB7FF"/>
<stop offset="0.889377" stop-color="#C2DEFF"/>
</linearGradient>
<linearGradient id="paint11_linear_166_4800" x1="59.4859" y1="48.0388" x2="59.8991" y2="42.7047" gradientUnits="userSpaceOnUse">
<stop offset="0.443606" stop-color="#D3ECFF"/>
<stop offset="1" stop-color="#548EF7"/>
</linearGradient>
<linearGradient id="paint12_linear_166_4800" x1="61.4234" y1="35.6544" x2="61.8366" y2="30.3203" gradientUnits="userSpaceOnUse">
<stop offset="0.443606" stop-color="#D3ECFF"/>
<stop offset="1" stop-color="#548EF7"/>
</linearGradient>
<linearGradient id="paint13_linear_166_4800" x1="67.4566" y1="58.1459" x2="67.8698" y2="52.8118" gradientUnits="userSpaceOnUse">
<stop offset="0.443606" stop-color="#D3ECFF"/>
<stop offset="1" stop-color="#548EF7"/>
</linearGradient>
<linearGradient id="paint14_linear_166_4800" x1="81.0475" y1="59.6547" x2="81.4051" y2="54.2656" gradientUnits="userSpaceOnUse">
<stop offset="0.443606" stop-color="#D3ECFF"/>
<stop offset="1" stop-color="#548EF7"/>
</linearGradient>
<linearGradient id="paint15_linear_166_4800" x1="90.5533" y1="51.7135" x2="90.911" y2="46.3244" gradientUnits="userSpaceOnUse">
<stop offset="0.443606" stop-color="#D3ECFF"/>
<stop offset="1" stop-color="#548EF7"/>
</linearGradient>
<linearGradient id="paint16_linear_166_4800" x1="89.6822" y1="36.0717" x2="90.0954" y2="30.7376" gradientUnits="userSpaceOnUse">
<stop offset="0.443606" stop-color="#D3ECFF"/>
<stop offset="1" stop-color="#548EF7"/>
</linearGradient>
<linearGradient id="paint17_linear_166_4800" x1="82.9703" y1="27.8069" x2="83.3835" y2="22.4728" gradientUnits="userSpaceOnUse">
<stop offset="0.443606" stop-color="#D3ECFF"/>
<stop offset="1" stop-color="#548EF7"/>
</linearGradient>
<linearGradient id="paint18_linear_166_4800" x1="71.2857" y1="26.1746" x2="71.6989" y2="20.8405" gradientUnits="userSpaceOnUse">
<stop offset="0.443606" stop-color="#D3ECFF"/>
<stop offset="1" stop-color="#548EF7"/>
</linearGradient>
<linearGradient id="paint19_linear_166_4800" x1="0.429605" y1="30.6074" x2="101.428" y2="19.3229" gradientUnits="userSpaceOnUse">
<stop stop-color="#7345D3"/>
<stop offset="0.473258" stop-color="#5DB7FF"/>
<stop offset="0.889377" stop-color="#C2DEFF"/>
</linearGradient>
<linearGradient id="paint20_linear_166_4800" x1="2.54683" y1="33.1149" x2="97.1051" y2="20.9393" gradientUnits="userSpaceOnUse">
<stop stop-color="#7345D3"/>
<stop offset="0.473258" stop-color="#5DB7FF"/>
<stop offset="0.889377" stop-color="#C2DEFF"/>
</linearGradient>
<linearGradient id="paint21_linear_166_4800" x1="100.932" y1="44.8807" x2="103.73" y2="32.4103" gradientUnits="userSpaceOnUse">
<stop offset="0.443606" stop-color="#D3ECFF"/>
<stop offset="1" stop-color="#548EF7"/>
</linearGradient>
<linearGradient id="paint22_linear_166_4800" x1="49.8782" y1="41.8593" x2="49.5235" y2="30.9414" gradientUnits="userSpaceOnUse">
<stop offset="0.443606" stop-color="#D3ECFF"/>
<stop offset="1" stop-color="#548EF7"/>
</linearGradient>
</defs>
</svg>
