<svg width="155" height="138" viewBox="0 0 155 138" fill="none" xmlns="http://www.w3.org/2000/svg"><path opacity=".88" d="M70.426 113.023l-5.547-79.806 9.69-.34-4.143 80.146z" fill="url(#paint0_linear_858_11)"/><path opacity=".88" d="M66.201 99.961l-5.547-79.805 9.69-.34L66.2 99.96z" fill="url(#paint1_linear_858_11)"/><path opacity=".88" d="M85.201 99.961l-5.547-79.805 9.69-.34L85.2 99.96z" fill="url(#paint2_linear_858_11)"/><path opacity=".88" d="M79.884 110.073l-.087-85.917 9.69-.34-9.603 86.257z" fill="url(#paint3_linear_858_11)"/><path opacity=".88" d="M74.526 137.814l-3.395-93.413 10.7-.418-7.305 93.831z" fill="url(#paint4_linear_858_11)"/><path fill-rule="evenodd" clip-rule="evenodd" d="M40.86 27.6S56.25 1.025 75.111.028c19.562-1.07 36.799 28.605 36.799 28.605L40.859 27.6z" fill="url(#paint5_linear_858_11)"/><g filter="url(#filter0_d_858_11)"><path fill-rule="evenodd" clip-rule="evenodd" d="M135.571 38.747c-.296.996-21.703 10.187-58.17 10.187-33.662 0-58.502-8.637-58.17-10.187.221-1.07 26.058-4.688 58.17-4.688 32.111 0 58.391 3.95 58.17 4.688z" fill="url(#paint6_linear_858_11)"/></g><g filter="url(#filter1_d_858_11)"><path fill-rule="evenodd" clip-rule="evenodd" d="M19.23 38.747s16.906-16.314 55.92-16.314c39.013 0 60.458 16.314 60.458 16.314s-15.982-3.691-60.458-3.691c-35.507 0-55.919 3.69-55.919 3.69z" fill="url(#paint7_linear_858_11)"/></g><g filter="url(#filter2_d_858_11)"><path d="M124.017 43.25l-.258-.074c.222-.702-1.07-1.292-2.178-1.624-7.492-2.436-31.3-3.248-50.27-2.99-23.66.295-40.159 2.14-40.97 4.577l-.259-.074c1.07-3.137 22.035-4.503 41.265-4.798 18.972-.259 42.816.59 50.345 3.026 1.809.59 2.547 1.218 2.325 1.957z" fill="url(#paint8_linear_858_11)"/></g><g filter="url(#filter3_d_858_11)"><path fill-rule="evenodd" clip-rule="evenodd" d="M53.593 47.494s19.783-2.62 46.248.222c0 0-23.696 2.584-46.248-.222z" fill="url(#paint9_linear_858_11)"/></g><path fill-rule="evenodd" clip-rule="evenodd" d="M55.918 47.716s18.64-2.362 41.487.258c0 0-21.482 2.473-41.487-.258z" fill="url(#paint10_linear_858_11)"/><path fill-rule="evenodd" clip-rule="evenodd" d="M60.273 47.273s21.482 1.735 32.112.11c0-.036-19.562-1.217-32.112-.11z" fill="url(#paint11_linear_858_11)"/><path fill-rule="evenodd" clip-rule="evenodd" d="M81.312 42.696c0 .48-1.772.849-3.912.849-2.178 0-3.913-.37-3.913-.849 0-.074.037-.11.111-.185.406-.369 1.956-.664 3.839-.664 1.624 0 3.026.221 3.617.517.147.074.258.184.258.332z" fill="url(#paint12_linear_858_11)"/><path fill-rule="evenodd" clip-rule="evenodd" d="M81.017 42.364c0 .406-1.697.738-3.764.738-1.846 0-3.36-.258-3.692-.59.406-.37 1.957-.665 3.84-.665 1.623 0 3.026.185 3.616.517z" fill="url(#paint13_linear_858_11)"/><path fill-rule="evenodd" clip-rule="evenodd" d="M99.804 43.139c0 .443-1.107.775-2.51.775-1.144 0-2.104-.221-2.4-.554-.073-.074-.11-.147-.11-.221 0-.074.037-.11.074-.185.258-.332 1.255-.59 2.436-.59.738 0 1.403.11 1.846.258.184.074.332.148.442.221.148.074.222.185.222.296z" fill="url(#paint14_linear_858_11)"/><path fill-rule="evenodd" clip-rule="evenodd" d="M99.25 42.843c0 .443-1.107.776-2.51.776-.738 0-1.402-.111-1.845-.259-.074-.074-.11-.147-.11-.221 0-.074.036-.11.073-.185.258-.332 1.255-.59 2.436-.59.738 0 1.403.11 1.846.258.073.074.11.148.11.221z" fill="url(#paint15_linear_858_11)"/><path fill-rule="evenodd" clip-rule="evenodd" d="M112.132 45.39c0 .259-.922.517-2.03.517-.922 0-1.698-.147-1.956-.369-.037-.037-.074-.074-.074-.148 0-.037 0-.073.037-.11.222-.222.997-.406 1.993-.406.591 0 1.145.073 1.514.147.147.037.295.074.369.148.11.074.147.148.147.221z" fill="url(#paint16_linear_858_11)"/><path fill-rule="evenodd" clip-rule="evenodd" d="M111.689 45.206c0 .258-.922.48-2.03.48-.59 0-1.144-.074-1.513-.148-.037-.037-.074-.074-.074-.148 0-.037 0-.073.037-.11.222-.222.997-.406 1.993-.406.591 0 1.145.073 1.514.147.037.074.073.111.073.185z" fill="url(#paint17_linear_858_11)"/><path fill-rule="evenodd" clip-rule="evenodd" d="M56.878 43.104c0 .443 1.107.775 2.51.775 1.144 0 2.104-.222 2.399-.554.074-.074.11-.148.11-.221 0-.074-.036-.111-.073-.185-.258-.332-1.255-.59-2.436-.59-.738 0-1.403.11-1.846.258a2.458 2.458 0 00-.443.221c-.147.074-.221.185-.221.296z" fill="url(#paint18_linear_858_11)"/><path fill-rule="evenodd" clip-rule="evenodd" d="M57.432 42.77c0 .443 1.107.775 2.51.775.738 0 1.402-.11 1.845-.259.074-.073.11-.147.11-.22 0-.075-.036-.112-.073-.186-.258-.332-1.255-.59-2.436-.59-.738 0-1.403.11-1.846.258-.073.074-.11.148-.11.222z" fill="url(#paint19_linear_858_11)"/><path fill-rule="evenodd" clip-rule="evenodd" d="M42.225 45.28c0 .258.922.516 2.03.516.922 0 1.697-.147 1.956-.369.037-.037.074-.074.074-.147 0-.037 0-.074-.037-.111-.222-.222-.997-.406-1.993-.406-.59 0-1.145.074-1.514.148-.147.036-.295.073-.369.147-.11.11-.147.185-.147.222z" fill="url(#paint20_linear_858_11)"/><path fill-rule="evenodd" clip-rule="evenodd" d="M42.667 45.095c0 .258.923.48 2.03.48.59 0 1.144-.074 1.513-.148.037-.037.074-.074.074-.147 0-.037 0-.074-.037-.111-.221-.222-.996-.406-1.993-.406-.59 0-1.144.074-1.513.148-.037.11-.074.147-.074.184z" fill="url(#paint21_linear_858_11)"/><g filter="url(#filter4_d_858_11)"><path d="M126.453 33.69c-25.209-10.74-50.75-10.298-67.766-8.01-18.455 2.474-31.078 7.53-31.226 7.604l-.11-.221c.11-.037 12.77-5.13 31.262-7.604 17.052-2.288 42.668-2.731 67.951 8.046l-.111.185z" fill="url(#paint22_linear_858_11)"/></g><g filter="url(#filter5_d_858_11)"><path d="M19.23 38.894l-.037-.258c.185-.037 17.532-3.691 59.093-3.691 41.56 0 57.173 3.654 57.321 3.69l-.074.26c-.148-.038-15.724-3.655-57.247-3.655-41.524-.037-58.871 3.617-59.056 3.654z" fill="url(#paint23_linear_858_11)"/></g><path d="M32.112 37.123l-.184-.185c.074-.074 7.086-6.57 12.364-8.932l.111.221c-5.24 2.325-12.217 8.822-12.29 8.896zm92.68.184c-8.046-6.607-20.005-10.335-20.152-10.372l.073-.258c.111.037 12.144 3.802 20.227 10.446l-.148.184z" fill="#77439F"/><path fill-rule="evenodd" clip-rule="evenodd" d="M53.704 23.54s9.855-6.275 23.807-6.976c13.952-.665 24.028 6.754 24.028 6.754s-24.508-5.204-47.835.222z" fill="url(#paint24_linear_858_11)"/><path fill-rule="evenodd" clip-rule="evenodd" d="M40.86 27.6l.811-1.292s42.594-12.697 68.985.258l.775 1.218S99.546 22.95 75.518 22.95c-23.992.037-34.659 4.65-34.659 4.65z" fill="url(#paint25_radial_858_11)"/><path fill-rule="evenodd" clip-rule="evenodd" d="M77.806 35.24c0 .37-.37.665-.812.665-.443 0-.812-.296-.812-.665 0-.369.369-.664.812-.664.443 0 .812.295.812.664z" fill="url(#paint26_linear_858_11)"/><path fill-rule="evenodd" clip-rule="evenodd" d="M77.621 35.24c0 .296-.295.517-.627.517-.37 0-.628-.221-.628-.517 0-.295.296-.516.628-.516.369 0 .627.258.627.516z" fill="url(#paint27_linear_858_11)"/><path fill-rule="evenodd" clip-rule="evenodd" d="M125.715 37.012c0 .369-.369.664-.812.664-.443 0-.812-.295-.812-.664 0-.37.369-.665.812-.665.443 0 .812.296.812.665z" fill="url(#paint28_linear_858_11)"/><path fill-rule="evenodd" clip-rule="evenodd" d="M125.53 37.012c0 .295-.295.517-.627.517-.369 0-.628-.222-.628-.517 0-.295.296-.517.628-.517s.627.222.627.517z" fill="url(#paint29_linear_858_11)"/><path fill-rule="evenodd" clip-rule="evenodd" d="M32.26 37.012c0 .369-.37.664-.812.664-.443 0-.812-.295-.812-.664 0-.37.369-.665.812-.665.443 0 .812.296.812.665z" fill="url(#paint30_linear_858_11)"/><path fill-rule="evenodd" clip-rule="evenodd" d="M32.112 37.012c0 .295-.295.517-.627.517-.37 0-.628-.222-.628-.517 0-.295.296-.517.628-.517s.627.222.627.517z" fill="url(#paint31_linear_858_11)"/><defs><linearGradient id="paint0_linear_858_11" x1="66.229" y1="34.831" x2="60.625" y2="137.339" gradientUnits="userSpaceOnUse"><stop offset=".107" stop-color="#864DFF"/><stop offset=".885" stop-color="#1D147C" stop-opacity=".19"/></linearGradient><linearGradient id="paint1_linear_858_11" x1="62.004" y1="21.77" x2="56.401" y2="124.278" gradientUnits="userSpaceOnUse"><stop offset=".107" stop-color="#864DFF"/><stop offset=".885" stop-color="#1D147C" stop-opacity=".19"/></linearGradient><linearGradient id="paint2_linear_858_11" x1="81.004" y1="21.77" x2="75.4" y2="124.278" gradientUnits="userSpaceOnUse"><stop offset=".107" stop-color="#864DFF"/><stop offset=".885" stop-color="#1D147C" stop-opacity=".19"/></linearGradient><linearGradient id="paint3_linear_858_11" x1="81.148" y1="25.77" x2="93.055" y2="149.807" gradientUnits="userSpaceOnUse"><stop offset=".107" stop-color="#864DFF"/><stop offset=".885" stop-color="#1D147C" stop-opacity=".19"/></linearGradient><linearGradient id="paint4_linear_858_11" x1="72.629" y1="46.178" x2="64.204" y2="171.942" gradientUnits="userSpaceOnUse"><stop offset=".078" stop-color="#8354E7"/><stop offset=".885" stop-color="#1D147C" stop-opacity=".19"/></linearGradient><linearGradient id="paint5_linear_858_11" x1="-16.447" y1="56.383" x2="29.164" y2="-74.417" gradientUnits="userSpaceOnUse"><stop offset=".444" stop-color="#D3ECFF"/><stop offset="1" stop-color="#548EF7"/></linearGradient><linearGradient id="paint6_linear_858_11" x1="6.11" y1="-15.325" x2="24.219" y2="98.897" gradientUnits="userSpaceOnUse"><stop offset=".594" stop-color="#7229A8"/><stop offset=".918" stop-color="#D57EFF"/></linearGradient><linearGradient id="paint7_linear_858_11" x1="6.11" y1="-31.73" x2="27.779" y2="92.927" gradientUnits="userSpaceOnUse"><stop offset=".594" stop-color="#901BE7"/><stop offset=".918" stop-color="#D57EFF"/></linearGradient><linearGradient id="paint8_linear_858_11" x1="19.487" y1="21.532" x2="22.101" y2="60.933" gradientUnits="userSpaceOnUse"><stop offset=".377" stop-color="#450674"/><stop offset=".918" stop-color="#D57EFF"/></linearGradient><linearGradient id="paint9_linear_858_11" x1="48.379" y1="38.396" x2="49.598" y2="57.278" gradientUnits="userSpaceOnUse"><stop offset=".377" stop-color="#450674"/><stop offset=".918" stop-color="#D57EFF"/></linearGradient><linearGradient id="paint10_linear_858_11" x1="58.289" y1="45.733" x2="58.194" y2="49.763" gradientUnits="userSpaceOnUse"><stop stop-color="#7DC6FD"/><stop offset=".303" stop-color="#548EF7"/><stop offset="1" stop-color="#A728DA"/></linearGradient><linearGradient id="paint11_linear_858_11" x1="64.84" y1="46.986" x2="64.046" y2="49.651" gradientUnits="userSpaceOnUse"><stop stop-color="#7DC6FD"/><stop offset=".224" stop-color="#548EF7" stop-opacity=".28"/><stop offset="1" stop-color="#A728DA"/></linearGradient><linearGradient id="paint12_linear_858_11" x1="67.176" y1="45.19" x2="68.754" y2="36.788" gradientUnits="userSpaceOnUse"><stop offset=".444" stop-color="#D3ECFF"/><stop offset="1" stop-color="#548EF7"/></linearGradient><linearGradient id="paint13_linear_858_11" x1="67.548" y1="44.318" x2="68.465" y2="38.022" gradientUnits="userSpaceOnUse"><stop offset=".444" stop-color="#D3ECFF"/><stop offset="1" stop-color="#548EF7"/></linearGradient><linearGradient id="paint14_linear_858_11" x1="90.736" y1="45.416" x2="92.716" y2="38.003" gradientUnits="userSpaceOnUse"><stop offset=".444" stop-color="#D3ECFF"/><stop offset="1" stop-color="#548EF7"/></linearGradient><linearGradient id="paint15_linear_858_11" x1="91.182" y1="44.835" x2="92.658" y2="38.764" gradientUnits="userSpaceOnUse"><stop offset=".444" stop-color="#D3ECFF"/><stop offset="1" stop-color="#548EF7"/></linearGradient><linearGradient id="paint16_linear_858_11" x1="104.798" y1="46.909" x2="105.91" y2="41.859" gradientUnits="userSpaceOnUse"><stop offset=".444" stop-color="#D3ECFF"/><stop offset="1" stop-color="#548EF7"/></linearGradient><linearGradient id="paint17_linear_858_11" x1="105.155" y1="46.473" x2="105.934" y2="42.464" gradientUnits="userSpaceOnUse"><stop offset=".444" stop-color="#D3ECFF"/><stop offset="1" stop-color="#548EF7"/></linearGradient><linearGradient id="paint18_linear_858_11" x1="52.829" y1="45.381" x2="54.81" y2="37.968" gradientUnits="userSpaceOnUse"><stop offset=".444" stop-color="#D3ECFF"/><stop offset="1" stop-color="#548EF7"/></linearGradient><linearGradient id="paint19_linear_858_11" x1="53.83" y1="44.761" x2="55.306" y2="38.69" gradientUnits="userSpaceOnUse"><stop offset=".444" stop-color="#D3ECFF"/><stop offset="1" stop-color="#548EF7"/></linearGradient><linearGradient id="paint20_linear_858_11" x1="38.95" y1="46.798" x2="40.062" y2="41.748" gradientUnits="userSpaceOnUse"><stop offset=".444" stop-color="#D3ECFF"/><stop offset="1" stop-color="#548EF7"/></linearGradient><linearGradient id="paint21_linear_858_11" x1="39.75" y1="46.362" x2="40.528" y2="42.353" gradientUnits="userSpaceOnUse"><stop offset=".444" stop-color="#D3ECFF"/><stop offset="1" stop-color="#548EF7"/></linearGradient><linearGradient id="paint22_linear_858_11" x1="16.165" y1="-7.596" x2="25.025" y2="66.578" gradientUnits="userSpaceOnUse"><stop offset=".377" stop-color="#450674"/><stop offset=".918" stop-color="#D57EFF"/></linearGradient><linearGradient id="paint23_linear_858_11" x1="6.068" y1="21.833" x2="7.374" y2="52.867" gradientUnits="userSpaceOnUse"><stop offset=".594" stop-color="#901BE7"/><stop offset=".918" stop-color="#D57EFF"/></linearGradient><linearGradient id="paint24_linear_858_11" x1="15.123" y1="30.341" x2="19.615" y2="-5.046" gradientUnits="userSpaceOnUse"><stop offset=".444" stop-color="#D3ECFF"/><stop offset="1" stop-color="#548EF7"/></linearGradient><linearGradient id="paint26_linear_858_11" x1="74.872" y1="37.192" x2="78.082" y2="32.657" gradientUnits="userSpaceOnUse"><stop offset=".444" stop-color="#D3ECFF"/><stop offset="1" stop-color="#548EF7"/></linearGradient><linearGradient id="paint27_linear_858_11" x1="75.354" y1="36.759" x2="77.856" y2="33.247" gradientUnits="userSpaceOnUse"><stop offset=".444" stop-color="#D3ECFF"/><stop offset="1" stop-color="#548EF7"/></linearGradient><linearGradient id="paint28_linear_858_11" x1="122.781" y1="38.964" x2="125.992" y2="34.429" gradientUnits="userSpaceOnUse"><stop offset=".444" stop-color="#D3ECFF"/><stop offset="1" stop-color="#548EF7"/></linearGradient><linearGradient id="paint29_linear_858_11" x1="123.263" y1="38.53" x2="125.766" y2="35.018" gradientUnits="userSpaceOnUse"><stop offset=".444" stop-color="#D3ECFF"/><stop offset="1" stop-color="#548EF7"/></linearGradient><linearGradient id="paint30_linear_858_11" x1="29.326" y1="38.964" x2="32.536" y2="34.429" gradientUnits="userSpaceOnUse"><stop offset=".444" stop-color="#D3ECFF"/><stop offset="1" stop-color="#548EF7"/></linearGradient><linearGradient id="paint31_linear_858_11" x1="29.845" y1="38.53" x2="32.348" y2="35.018" gradientUnits="userSpaceOnUse"><stop offset=".444" stop-color="#D3ECFF"/><stop offset="1" stop-color="#548EF7"/></linearGradient><filter id="filter0_d_858_11" x=".228" y="24.059" width="154.345" height="52.875" filterUnits="userSpaceOnUse" color-interpolation-filters="sRGB"><feFlood flood-opacity="0" result="BackgroundImageFix"/><feColorMatrix in="SourceAlpha" values="0 0 0 0 0 0 0 0 0 0 0 0 0 0 0 0 0 0 127 0" result="hardAlpha"/><feOffset dy="9"/><feGaussianBlur stdDeviation="9.5"/><feComposite in2="hardAlpha" operator="out"/><feColorMatrix values="0 0 0 0 0 0 0 0 0 0 0 0 0 0 0 0 0 0 0.15 0"/><feBlend in2="BackgroundImageFix" result="effect1_dropShadow_858_11"/><feBlend in="SourceGraphic" in2="effect1_dropShadow_858_11" result="shape"/></filter><filter id="filter1_d_858_11" x=".23" y="12.432" width="154.377" height="54.314" filterUnits="userSpaceOnUse" color-interpolation-filters="sRGB"><feFlood flood-opacity="0" result="BackgroundImageFix"/><feColorMatrix in="SourceAlpha" values="0 0 0 0 0 0 0 0 0 0 0 0 0 0 0 0 0 0 127 0" result="hardAlpha"/><feOffset dy="9"/><feGaussianBlur stdDeviation="9.5"/><feComposite in2="hardAlpha" operator="out"/><feColorMatrix values="0 0 0 0 0 0 0 0 0 0 0 0 0 0 0 0 0 0 0.15 0"/><feBlend in2="BackgroundImageFix" result="effect1_dropShadow_858_11"/><feBlend in="SourceGraphic" in2="effect1_dropShadow_858_11" result="shape"/></filter><filter id="filter2_d_858_11" x="11.082" y="28.222" width="131.974" height="43.027" filterUnits="userSpaceOnUse" color-interpolation-filters="sRGB"><feFlood flood-opacity="0" result="BackgroundImageFix"/><feColorMatrix in="SourceAlpha" values="0 0 0 0 0 0 0 0 0 0 0 0 0 0 0 0 0 0 127 0" result="hardAlpha"/><feOffset dy="9"/><feGaussianBlur stdDeviation="9.5"/><feComposite in2="hardAlpha" operator="out"/><feColorMatrix values="0 0 0 0 0 0 0 0 0 0 0 0 0 0 0 0 0 0 0.15 0"/><feBlend in2="BackgroundImageFix" result="effect1_dropShadow_858_11"/><feBlend in="SourceGraphic" in2="effect1_dropShadow_858_11" result="shape"/></filter><filter id="filter3_d_858_11" x="34.593" y="36.393" width="84.248" height="40.409" filterUnits="userSpaceOnUse" color-interpolation-filters="sRGB"><feFlood flood-opacity="0" result="BackgroundImageFix"/><feColorMatrix in="SourceAlpha" values="0 0 0 0 0 0 0 0 0 0 0 0 0 0 0 0 0 0 127 0" result="hardAlpha"/><feOffset dy="9"/><feGaussianBlur stdDeviation="9.5"/><feComposite in2="hardAlpha" operator="out"/><feColorMatrix values="0 0 0 0 0 0 0 0 0 0 0 0 0 0 0 0 0 0 0.15 0"/><feBlend in2="BackgroundImageFix" result="effect1_dropShadow_858_11"/><feBlend in="SourceGraphic" in2="effect1_dropShadow_858_11" result="shape"/></filter><filter id="filter4_d_858_11" x="8.351" y="14.133" width="137.214" height="47.557" filterUnits="userSpaceOnUse" color-interpolation-filters="sRGB"><feFlood flood-opacity="0" result="BackgroundImageFix"/><feColorMatrix in="SourceAlpha" values="0 0 0 0 0 0 0 0 0 0 0 0 0 0 0 0 0 0 127 0" result="hardAlpha"/><feOffset dy="9"/><feGaussianBlur stdDeviation="9.5"/><feComposite in2="hardAlpha" operator="out"/><feColorMatrix values="0 0 0 0 0 0 0 0 0 0 0 0 0 0 0 0 0 0 0.15 0"/><feBlend in2="BackgroundImageFix" result="effect1_dropShadow_858_11"/><feBlend in="SourceGraphic" in2="effect1_dropShadow_858_11" result="shape"/></filter><filter id="filter5_d_858_11" x=".193" y="24.945" width="154.413" height="41.949" filterUnits="userSpaceOnUse" color-interpolation-filters="sRGB"><feFlood flood-opacity="0" result="BackgroundImageFix"/><feColorMatrix in="SourceAlpha" values="0 0 0 0 0 0 0 0 0 0 0 0 0 0 0 0 0 0 127 0" result="hardAlpha"/><feOffset dy="9"/><feGaussianBlur stdDeviation="9.5"/><feComposite in2="hardAlpha" operator="out"/><feColorMatrix values="0 0 0 0 0 0 0 0 0 0 0 0 0 0 0 0 0 0 0.15 0"/><feBlend in2="BackgroundImageFix" result="effect1_dropShadow_858_11"/><feBlend in="SourceGraphic" in2="effect1_dropShadow_858_11" result="shape"/></filter><radialGradient id="paint25_radial_858_11" cx="0" cy="0" r="1" gradientUnits="userSpaceOnUse" gradientTransform="matrix(18.9266 0 0 28.5452 75.242 20.906)"><stop offset=".022" stop-color="#725EB0"/><stop offset=".383" stop-color="#6D52AA"/><stop offset=".994" stop-color="#61349C"/></radialGradient></defs></svg>