<svg width="22" height="22" viewBox="0 0 22 22" fill="none" xmlns="http://www.w3.org/2000/svg">
<g opacity="0.3">
<path d="M21.1751 0.486783C17.1536 0.414681 12.5674 2.51682 9.66437 5.77775C6.89013 5.83011 4.18885 6.96745 2.20002 8.95628C2.08414 9.07044 2.04294 9.24126 2.09358 9.39576C2.14509 9.55113 2.27899 9.66357 2.44036 9.68675L5.74851 10.1606L5.33992 10.6181C5.18799 10.788 5.19572 11.0464 5.35709 11.2078L10.8738 16.7245C10.9571 16.8078 11.0669 16.8498 11.1777 16.8498C11.2798 16.8498 11.382 16.8138 11.4635 16.7408L11.921 16.3322L12.3948 19.6404C12.418 19.8017 12.545 19.9202 12.6987 19.9717C12.7382 19.9846 12.7794 19.9906 12.8214 19.9906C12.9433 19.9906 13.0678 19.9374 13.1536 19.8524C15.115 17.891 16.2523 15.1897 16.3047 12.4155C19.5691 9.50649 21.6884 4.92196 21.5948 0.905666C21.5888 0.677341 21.4042 0.492792 21.1751 0.486783ZM17.2197 7.8962C16.8017 8.31422 16.2523 8.52366 15.7021 8.52366C15.1519 8.52366 14.6025 8.31422 14.1845 7.8962C13.3485 7.05929 13.3485 5.69792 14.1845 4.86102C15.0214 4.02411 16.3828 4.02411 17.2197 4.86102C18.0566 5.69792 18.0566 7.06015 17.2197 7.8962Z" fill="white"/>
<path d="M3.33433 14.9948C2.41588 15.9132 1.15494 20.0626 1.01417 20.5321C0.968675 20.6832 1.01074 20.8471 1.12146 20.9587C1.20387 21.0411 1.31288 21.0849 1.42533 21.0849C1.46653 21.0849 1.50773 21.0789 1.54893 21.0669C2.01846 20.9261 6.1678 19.6652 7.08625 18.7467C8.12058 17.7124 8.12058 16.0291 7.08625 14.9948C6.05106 13.9605 4.36866 13.9613 3.33433 14.9948Z" fill="white"/>
</g>
</svg>
