<svg width="21" height="20" viewBox="0 0 21 20" fill="none" xmlns="http://www.w3.org/2000/svg">
<path d="M20.0247 0.486905C16.0032 0.414803 11.417 2.51694 8.51398 5.77787C5.73974 5.83023 3.03846 6.96757 1.04963 8.9564C0.933751 9.07056 0.89255 9.24138 0.943193 9.39588C0.994695 9.55125 1.1286 9.66369 1.28997 9.68687L4.59811 10.1607L4.18953 10.6182C4.0376 10.7882 4.04533 11.0465 4.2067 11.2079L9.72342 16.7246C9.80668 16.8079 9.91655 16.8499 10.0273 16.8499C10.1294 16.8499 10.2316 16.8139 10.3131 16.7409L10.7706 16.3323L11.2444 19.6405C11.2676 19.8019 11.3947 19.9203 11.5483 19.9718C11.5878 19.9847 11.629 19.9907 11.671 19.9907C11.7929 19.9907 11.9174 19.9375 12.0032 19.8525C13.9646 17.8911 15.1019 15.1899 15.1543 12.4156C18.4187 9.50661 20.538 4.92208 20.4444 0.905788C20.4384 0.677463 20.2538 0.492914 20.0247 0.486905ZM16.0693 7.89632C15.6513 8.31434 15.1019 8.52379 14.5517 8.52379C14.0015 8.52379 13.4522 8.31434 13.0341 7.89632C12.1981 7.05941 12.1981 5.69804 13.0341 4.86114C13.871 4.02423 15.2324 4.02423 16.0693 4.86114C16.9062 5.69804 16.9062 7.06027 16.0693 7.89632Z" fill="white"/>
</svg>
